<svg xmlns="http://www.w3.org/2000/svg" version="1.1" width="96px" height="124px">
  <style type="text/css">
#background {
  fill: none;
}
.arrows {
  fill: #000;
  stroke: none;
}
.selected&gt;.arrows {
  fill: #fff;
}
.checkmark {
  fill: #000;
  font-family: sans-serif;
  font-size: 10pt;
  text-anchor: middle;
}
.trash {
  fill: #888;
}
.zoom {
  fill: none;
  stroke: #888;
  stroke-width: 2;
  stroke-linecap: round;
}
.zoom&gt;.center {
  fill: #888;
  stroke-width: 0;
}
  </style>
  <rect id="background" width="96" height="124" x="0" y="0"/>

  <g>
    <path class="arrows" d="M 13,1.5 13,14.5 1.74,8 z"/>
    <path class="arrows" d="M 17.5,3 30.5,3 24,14.26 z"/>
    <path class="arrows" d="M 35,1.5 35,14.5 46.26,8 z"/>
  </g>
  <g class="selected" transform="translate(0, 16)">
    <path class="arrows" d="M 13,1.5 13,14.5 1.74,8 z"/>
    <path class="arrows" d="M 17.5,3 30.5,3 24,14.26 z"/>
    <path class="arrows" d="M 35,1.5 35,14.5 46.26,8 z"/>
  </g>

  <text class="checkmark" x="55.5" y="28">✓</text>


<svg xmlns="http://www.w3.org/2000/svg" x="0" y="44.7" width="42" height="50" viewBox="0 0 60.367 63.482">
  <g transform="translate(5 5)">
    <path d="M3,4,9.4,43.126a11.118,11.118,0,0,0,7.608,8.8l.913.29a33.354,33.354,0,0,0,20.184,0l.913-.29a11.118,11.118,0,0,0,7.608-8.8L53.031,4" transform="translate(-3 0.658)" fill="none" stroke="#d4bb8e" stroke-linecap="round" stroke-linejoin="round" stroke-width="9"/>
    <ellipse cx="25" cy="5" rx="25" ry="5" transform="translate(0 0)" fill="none" stroke="#d4bb8e" stroke-linecap="round" stroke-linejoin="round" stroke-width="9"/>
    <line x2="14.115" y2="14.115" transform="translate(17.958 22.486)" fill="none" stroke="#d4bb8e" stroke-linecap="round" stroke-width="9"/>
    <line x1="14.115" y2="14.115" transform="translate(17.958 22.486)" fill="none" stroke="#d4bb8e" stroke-linecap="round" stroke-width="9"/>

    <path d="M3,4,9.4,43.126a11.118,11.118,0,0,0,7.608,8.8l.913.29a33.354,33.354,0,0,0,20.184,0l.913-.29a11.118,11.118,0,0,0,7.608-8.8L53.031,4" transform="translate(-3 0.658)" fill="none" stroke="#fff" stroke-linecap="round" stroke-linejoin="round" stroke-width="5"/>
    <ellipse cx="25" cy="5" rx="25" ry="5" transform="translate(0 0)" fill="none" stroke="#fff" stroke-linecap="round" stroke-linejoin="round" stroke-width="5"/>

    <line x2="14.115" y2="14.115" transform="translate(17.958 22.486)" fill="none" stroke="#fff" stroke-linecap="round" stroke-width="5"/>
    <line x1="14.115" y2="14.115" transform="translate(17.958 22.486)" fill="none" stroke="#fff" stroke-linecap="round" stroke-width="5"/>
  </g>
</svg>
  

  <g class="zoom">
    <circle r="11.5" cx="16" cy="108"/>
    <circle r="4.3" cx="16" cy="108" class="center"/>
    <path d="m 28,108 h3"/>
    <path d="m 1,108 h3"/>
    <path d="m 16,120 v3"/>
    <path d="m 16,93 v3"/>
  </g>

  <g class="zoom">
    <circle r="15" cx="48" cy="108"/>
    <path d="m 48,101.6 v12.8"/>
    <path d="m 41.6,108 h12.8"/>
  </g>

  <g class="zoom">
    <circle r="15" cx="80" cy="108"/>
    <path d="m 73.6,108 h12.8"/>
  </g>
</svg>