<svg xmlns="http://www.w3.org/2000/svg" width="61" height="63" viewBox="0 0 61 63">
  <g id="그룹_704" data-name="그룹 704" transform="translate(-13 -9)">
    <path id="_8687564_ic_fluent_scale_fill_regular_icon" data-name="8687564_ic_fluent_scale_fill_regular_icon" d="M9,10.75a1.745,1.745,0,0,1,.505-1.23l.015-.015A1.745,1.745,0,0,1,10.75,9h7a1.75,1.75,0,0,1,0,3.5H14.975l4.013,4.013a1.75,1.75,0,0,1-2.475,2.475L12.5,14.975V17.75a1.75,1.75,0,0,1-3.5,0Zm.133,25.17A1.745,1.745,0,0,1,9,35.25v-7a1.75,1.75,0,0,1,3.5,0v2.775l4.013-4.013a1.75,1.75,0,1,1,2.475,2.475L14.975,33.5H17.75a1.75,1.75,0,0,1,0,3.5H10.74a1.751,1.751,0,0,1-1.607-1.08ZM35.92,9.133a1.742,1.742,0,0,1,.56.372l.015.015A1.743,1.743,0,0,1,37,10.75v7a1.75,1.75,0,0,1-3.5,0V14.975l-4.012,4.013a1.75,1.75,0,0,1-2.475-2.475L31.025,12.5H28.25a1.75,1.75,0,0,1,0-3.5h7A1.747,1.747,0,0,1,35.92,9.133Zm.56,27.362A1.743,1.743,0,0,1,35.25,37h-7a1.75,1.75,0,0,1,0-3.5h2.775l-4.013-4.012a1.75,1.75,0,0,1,2.475-2.475L33.5,31.025V28.25a1.75,1.75,0,0,1,3.5,0v7a1.743,1.743,0,0,1-.505,1.23Z" transform="translate(20 17)" fill="#b09a85"/>
    <rect id="사각형_759" data-name="사각형 759" width="61" height="63" transform="translate(13 9)" fill="#fff" opacity="0"/>
  </g>
</svg>
