<svg xmlns="http://www.w3.org/2000/svg" xmlns:xlink="http://www.w3.org/1999/xlink" width="61" height="63" viewBox="0 0 61 63">
  <defs>
    <clipPath id="clip-path">
      <rect id="사각형_757" data-name="사각형 757" width="28" height="28" fill="#fff"/>
    </clipPath>
  </defs>
  <g id="그룹_705" data-name="그룹 705" transform="translate(-13 -9)">
    <g id="그룹_654" data-name="그룹 654" transform="translate(29 26)">
      <g id="그룹_654-2" data-name="그룹 654" clip-path="url(#clip-path)">
        <path id="패스_1732" data-name="패스 1732" d="M10.5,8.751A1.742,1.742,0,0,1,10,9.981L9.981,10a1.742,1.742,0,0,1-1.23.505h-7a1.75,1.75,0,0,1,0-3.5H4.526L.513,2.988A1.75,1.75,0,0,1,2.988.513L7,4.526V1.751a1.75,1.75,0,0,1,3.5,0Z" fill="#fff"/>
        <path id="패스_1733" data-name="패스 1733" d="M10.368,18.579a1.748,1.748,0,0,1,.133.67v7a1.75,1.75,0,0,1-3.5,0V23.474L2.988,27.487A1.75,1.75,0,1,1,.513,25.012L4.526,21H1.751a1.75,1.75,0,1,1,0-3.5h7.01a1.752,1.752,0,0,1,1.607,1.08" fill="#fff"/>
        <path id="패스_1734" data-name="패스 1734" d="M18.58,10.368A1.741,1.741,0,0,1,18.02,10L18,9.981a1.742,1.742,0,0,1-.5-1.23v-7a1.75,1.75,0,1,1,3.5,0V4.526L25.012.513a1.75,1.75,0,1,1,2.475,2.475L23.475,7H26.25a1.75,1.75,0,0,1,0,3.5h-7a1.748,1.748,0,0,1-.67-.133" fill="#fff"/>
        <path id="패스_1735" data-name="패스 1735" d="M18.019,18a1.742,1.742,0,0,1,1.23-.5h7a1.75,1.75,0,0,1,0,3.5H23.474l4.013,4.012a1.75,1.75,0,1,1-2.475,2.475L21,23.475V26.25a1.75,1.75,0,0,1-3.5,0v-7a1.742,1.742,0,0,1,.5-1.23Z" fill="#fff"/>
      </g>
    </g>
    <rect id="사각형_759" data-name="사각형 759" width="61" height="63" transform="translate(13 9)" fill="#fff" opacity="0"/>
  </g>
</svg>
