<svg xmlns="http://www.w3.org/2000/svg" width="18" height="18" viewBox="0 0 18 18">
  <g id="_icons" transform="translate(-3 -3)">
    <g id="그룹_635" data-name="그룹 635">
      <path id="패스_1593" data-name="패스 1593" d="M12,3a8.963,8.963,0,0,1,9,9,9.318,9.318,0,0,1-1.6,5.1l1.4,2.4a.908.908,0,0,1,0,1,.891.891,0,0,1-.8.5H12A9,9,0,0,1,12,3Zm0,16h6.2l-.9-1.5a.9.9,0,0,1,.1-1.1A6.97,6.97,0,1,0,12,19Z" fill="#80776d"/>
      <path id="패스_1594" data-name="패스 1594" d="M12.1,7.3H12A2.813,2.813,0,0,0,9.6,8.6.9.9,0,0,0,9.8,10a.984.984,0,0,0,1.4-.3.909.909,0,0,1,.8-.4h.1a.9.9,0,0,1,.9.9,1.013,1.013,0,0,1-.6.9l-.7.2a.961.961,0,0,0-.7.9V13a.945.945,0,0,0,1,1,.987.987,0,0,0,1-.9,2.913,2.913,0,0,0,2-2.8A2.989,2.989,0,0,0,12.1,7.3Z" fill="#80776d"/>
      <circle id="타원_55" data-name="타원 55" cx="1" cy="1" r="1" transform="translate(11 15)" fill="#80776d"/>
    </g>
  </g>
</svg>
