<svg xmlns="http://www.w3.org/2000/svg" width="20.198" height="17.673" viewBox="0 0 20.198 17.673">
  <path id="_171275_volume_high_sound_audio_speaker_icon" data-name="171275_volume_high_sound_audio_speaker_icon" d="M8.837,2a1.958,1.958,0,0,0-1.262.641L3.787,5.787H1.262A1.266,1.266,0,0,0,0,7.05v7.574a1.266,1.266,0,0,0,1.262,1.262H3.787l3.787,3.146a1.956,1.956,0,0,0,1.262.641A1.251,1.251,0,0,0,10.1,18.411V3.262A1.251,1.251,0,0,0,8.837,2ZM7.574,15.75,4.7,13.362H2.525V8.312H4.7L7.574,5.924Zm5.05-11.225a1.263,1.263,0,0,0-1.262,1.262c0,.9,1.262,1.755,1.262,5.05s-1.262,4.152-1.262,5.05a1.263,1.263,0,0,0,1.262,1.262c.641,0,1.026-.345,1.44-1.262a11.957,11.957,0,0,0,1.085-5.05,11.957,11.957,0,0,0-1.085-5.05C13.65,4.87,13.265,4.525,12.624,4.525ZM18.4,3.262C17.868,2.145,17.368,2,16.924,2a1.27,1.27,0,0,0-1.262,1.262c0,1.055,2.012,2.86,2.012,7.574s-2.012,6.519-2.012,7.574a1.27,1.27,0,0,0,1.262,1.262c.444,0,.944-.145,1.473-1.262a16.411,16.411,0,0,0,1.8-7.574A16.423,16.423,0,0,0,18.4,3.262Z" transform="translate(0 -2)" fill="#c5bbb3"/>
</svg>
