<svg xmlns="http://www.w3.org/2000/svg" width="60.367" height="63.482" viewBox="0 0 60.367 63.482">
    <g transform="translate(5 5)">
      <g id="_9118196_trash_bin_icon" data-name="9118196_trash_bin_icon" transform="translate(0 0)">
        <path id="패스_511" data-name="패스 511" d="M3,4,9.4,43.126a11.118,11.118,0,0,0,7.608,8.8l.913.29a33.354,33.354,0,0,0,20.184,0l.913-.29a11.118,11.118,0,0,0,7.608-8.8L53.031,4" transform="translate(-3 0.658)" fill="none" stroke="#d4bb8e" stroke-linecap="round" stroke-linejoin="round" stroke-width="9"/>
        <ellipse id="타원_34" data-name="타원 34" cx="25" cy="5" rx="25" ry="5" transform="translate(0 0)" fill="none" stroke="#d4bb8e" stroke-linecap="round" stroke-linejoin="round" stroke-width="9"/>
      </g>
      <line id="선_38" data-name="선 38" x2="14.115" y2="14.115" transform="translate(17.958 22.486)" fill="none" stroke="#d4bb8e" stroke-linecap="round" stroke-width="9"/>
      <line id="선_39" data-name="선 39" x1="14.115" y2="14.115" transform="translate(17.958 22.486)" fill="none" stroke="#d4bb8e" stroke-linecap="round" stroke-width="9"/>

          <g id="_9118196_trash_bin_icon-2" data-name="9118196_trash_bin_icon" transform="translate(0 0)">
        <path id="패스_511-2" data-name="패스 511" d="M3,4,9.4,43.126a11.118,11.118,0,0,0,7.608,8.8l.913.29a33.354,33.354,0,0,0,20.184,0l.913-.29a11.118,11.118,0,0,0,7.608-8.8L53.031,4" transform="translate(-3 0.658)" fill="none" stroke="#fff" stroke-linecap="round" stroke-linejoin="round" stroke-width="5"/>
        <ellipse id="타원_34-2" data-name="타원 34" cx="25" cy="5" rx="25" ry="5" transform="translate(0 0)" fill="none" stroke="#fff" stroke-linecap="round" stroke-linejoin="round" stroke-width="5"/>
      </g>
      <line id="선_38-2" data-name="선 38" x2="14.115" y2="14.115" transform="translate(17.958 22.486)" fill="none" stroke="#fff" stroke-linecap="round" stroke-width="5"/>
      <line id="선_39-2" data-name="선 39" x1="14.115" y2="14.115" transform="translate(17.958 22.486)" fill="none" stroke="#fff" stroke-linecap="round" stroke-width="5"/>
</g>
</svg>