<svg id="Layer_1" data-name="Layer 1" xmlns="http://www.w3.org/2000/svg" width="187.89px" height="207.14px" viewBox="0 0 187.89 207.14"><defs><style>.jeibotD-cls-1{fill:#ffb900;}.jeibotD-cls-2{fill:#27244a;}.jeibotD-cls-3{fill:#fff;}.jeibotD-cls-4{fill:#131333;}.jeibotD-cls-5{fill:#e30000;}.jeibotD-cls-6{fill:#cc0a0a;}</style></defs><g id="앞모습"><path class="jeibotD-cls-1" d="M82,202c0,5.88-10.09,5.1-22.53,5.1s-22.53.78-22.53-5.1S47,191.37,59.47,191.37,82,196.13,82,202Z"/><path class="jeibotD-cls-1" d="M151.52,202c0,5.88-10.09,5.1-22.53,5.1s-22.53.78-22.53-5.1,10.08-10.64,22.53-10.64S151.52,196.13,151.52,202Z"/><path class="jeibotD-cls-2" d="M184.25,126.82c0,68.07-40.3,77-90,77s-90-9-90-77,40.31-113,90-113S184.25,58.74,184.25,126.82Z"/><path class="jeibotD-cls-3" d="M115.22,41.87a34.13,34.13,0,0,0-17.94,5.07,5.89,5.89,0,0,1-6.11,0A34.28,34.28,0,0,0,39,76.16c0,18.94,12.21,37.55,55.28,37.55s55.28-18.61,55.28-37.55A34.29,34.29,0,0,0,115.22,41.87Z"/><path class="jeibotD-cls-1" d="M110.14,90.08c0,4.81-7.13,4.61-15.91,4.61s-15.91.2-15.91-4.61,10.55-8.71,15.91-8.71S110.14,85.27,110.14,90.08Z"/><ellipse class="jeibotD-cls-2" cx="72.98" cy="79.91" rx="4.38" ry="6.37"/><ellipse class="jeibotD-cls-2" cx="115.47" cy="79.91" rx="4.38" ry="6.37"/><path class="jeibotD-cls-2" d="M153.68,124s-3.64,47.8,16.69,46.09,15.48-59,10.53-71.46"/><path class="jeibotD-cls-4" d="M169.31,171.61A11.87,11.87,0,0,1,160.7,168c-10.89-10.8-8.6-42.75-8.49-44.1a1.47,1.47,0,1,1,2.93.22c0,.32-2.29,32,7.63,41.79a9,9,0,0,0,7.48,2.72c3.14-.27,5.7-2.06,7.81-5.47,4-6.47,6-18.49,5.67-33.85-.3-13.49-2.39-25.59-4.2-30.13a1.47,1.47,0,0,1,2.74-1.09c2.28,5.72,4.13,18.82,4.41,31.15.2,9.22-.31,26.09-6.11,35.47-2.6,4.2-6,6.51-10.08,6.86C170.09,171.59,169.7,171.61,169.31,171.61Z"/><path class="jeibotD-cls-2" d="M34.78,124s3.63,47.8-16.7,46.09-15.49-59-10.53-71.46"/><path class="jeibotD-cls-4" d="M19.14,171.61c-.39,0-.78,0-1.18-.05-4.08-.35-7.47-2.66-10.08-6.86-5.79-9.38-6.31-26.25-6.11-35.47.28-12.34,2.13-25.43,4.41-31.15a1.47,1.47,0,0,1,2.73,1.09c-4.2,10.56-7.64,49.22,1.48,64,2.11,3.41,4.67,5.2,7.82,5.47a9,9,0,0,0,7.47-2.72c9.93-9.84,7.65-41.47,7.63-41.79a1.47,1.47,0,0,1,2.94-.22c.1,1.35,2.4,33.3-8.49,44.1A11.9,11.9,0,0,1,19.14,171.61Z"/><rect class="jeibotD-cls-3" x="149.98" y="138.88" width="3.95" height="9.92" rx="1.34"/><rect class="jeibotD-cls-3" x="155.31" y="139.98" width="3.95" height="9.92" rx="1.34"/><rect class="jeibotD-cls-3" x="160.51" y="140.53" width="3.95" height="9.92" rx="1.34"/><rect class="jeibotD-cls-3" x="165.38" y="139.98" width="3.95" height="9.92" rx="1.34"/><rect class="jeibotD-cls-3" x="170.4" y="139.98" width="3.95" height="9.92" rx="1.34"/><rect class="jeibotD-cls-3" x="175.3" y="138.45" width="3.95" height="9.92" rx="1.34"/><path class="jeibotD-cls-5" d="M150.66,111.59s-1.32,16.33-2.28,26.94,26.9,7.84,30.65,3.92,2.17-31.51,2.17-31.51Z"/><path class="jeibotD-cls-6" d="M160.51,122.41c7.87,1.09,16.1,1.69,21,2,0-7.07-.33-13.45-.33-13.45l-30.54.65s-.39,4.83-.9,11A30.73,30.73,0,0,1,160.51,122.41Z"/><path class="jeibotD-cls-5" d="M183.53,119.92H4.36c-3.45,0-4.19-2-4.33-4.92a24.54,24.54,0,0,1,1-8.17c1.15-3.92,1.77-9.07,4.76-9.07H182.06c3,0,3.61,5.15,4.76,9.07a24.54,24.54,0,0,1,1,8.17C187.72,117.9,187,119.92,183.53,119.92Z"/><rect class="jeibotD-cls-2" x="90.72" y="0.02" width="5.17" height="17.12" rx="1.76" transform="translate(0.37 20.5) rotate(-12.56)"/><rect class="jeibotD-cls-2" x="98.94" y="4.34" width="5.17" height="14.53" rx="1.76" transform="translate(25.74 -56.94) rotate(35.6)"/></g></svg>