<svg id="Layer_1" data-name="Layer 1" xmlns="http://www.w3.org/2000/svg" width="187.89px" height="207.55px" viewBox="0 0 187.89 207.55"><defs><style>.jeibotL-cls-1{fill:#27244a;}.jeibotL-cls-2{fill:#fff;}.jeibotL-cls-3{fill:#ffb900;}.jeibotL-cls-4{fill:#131333;}.jeibotL-cls-5{fill:#e30000;}.jeibotL-cls-6{fill:#cc0a0a;}</style></defs><g id="오른쪽"><path class="jeibotL-cls-1" d="M184.25,126.82c0,68.07-40.3,77-90,77s-90-9-90-77,40.31-113,90-113S184.25,58.74,184.25,126.82Z"/><path class="jeibotL-cls-2" d="M44,41.87c-6.44,0-9.88,1.79-15,4.89C16,63.35,7.25,85.56,4.85,111.93a110,110,0,0,0,20.77,1.78c43.06,0,44.86-25.3,44.86-37.55C70.48,70.56,67.37,41.87,44,41.87Z"/><path class="jeibotL-cls-3" d="M21.1,90.46c0,4.8-3.33,4.61-12.12,4.61-1.47,0-9,.19-9-4.61s5.49-8.71,10.85-8.71S21.1,85.65,21.1,90.46Z"/><ellipse class="jeibotL-cls-1" cx="32.14" cy="79.91" rx="4.38" ry="6.37"/><path class="jeibotL-cls-1" d="M82,128.06c-6.68,14.06-11,31.39,2.59,39.17,27.65,15.84,40.3-37.74,40.81-51.12"/><path class="jeibotL-cls-4" d="M94.39,171.61a21.15,21.15,0,0,1-10.53-3.1c-11.67-6.68-12.78-20.89-3.19-41.08a1.47,1.47,0,1,1,2.66,1.27c-6.15,13-10.8,29.93,2,37.26,5.8,3.32,11.06,3.59,16.06.82,14.58-8.08,22.13-40,22.54-50.72a1.47,1.47,0,1,1,2.94.11c-.33,8.62-7.17,43.83-24.05,53.19A17.21,17.21,0,0,1,94.39,171.61Z"/><rect class="jeibotL-cls-2" x="17.17" y="138.88" width="3.95" height="9.92" rx="1.34"/><rect class="jeibotL-cls-2" x="22.5" y="139.98" width="3.95" height="9.92" rx="1.34"/><rect class="jeibotL-cls-2" x="27.7" y="140.53" width="3.95" height="9.92" rx="1.34"/><rect class="jeibotL-cls-2" x="32.58" y="139.98" width="3.95" height="9.92" rx="1.34"/><rect class="jeibotL-cls-2" x="37.6" y="139.98" width="3.95" height="9.92" rx="1.34"/><rect class="jeibotL-cls-2" x="42.5" y="138.45" width="3.95" height="9.92" rx="1.34"/><path class="jeibotL-cls-5" d="M17.86,111.59s-1.32,16.33-2.29,26.94,26.9,7.84,30.66,3.92,2.16-31.51,2.16-31.51Z"/><path class="jeibotL-cls-6" d="M27.7,122.41c7.87,1.09,16.1,1.69,21,2,0-7.07-.33-13.45-.33-13.45l-30.53.65s-.39,4.83-.91,11A30.74,30.74,0,0,1,27.7,122.41Z"/><path class="jeibotL-cls-5" d="M183.53,119.92H4.36c-3.45,0-4.19-2-4.33-4.92a24.54,24.54,0,0,1,1-8.17c1.15-3.92,1.77-9.07,4.76-9.07H182.06c3,0,3.61,5.15,4.76,9.07a24.54,24.54,0,0,1,1,8.17C187.72,117.9,187,119.92,183.53,119.92Z"/><rect class="jeibotL-cls-1" x="90.72" y="0.02" width="5.17" height="17.12" rx="1.76" transform="translate(0.37 20.5) rotate(-12.56)"/><rect class="jeibotL-cls-1" x="93.51" y="4.65" width="5.17" height="14.53" rx="1.76" transform="translate(2.65 -13.46) rotate(8.12)"/><path class="jeibotL-cls-3" d="M108.87,203.52c0,5.88-28.63,3.59-41.08,3.59s-22.53.78-22.53-5.1,10.09-10.64,22.53-10.64S108.87,197.64,108.87,203.52Z"/></g></svg>