<svg id="Layer_1" data-name="Layer 1" xmlns="http://www.w3.org/2000/svg" width="187.89px" height="207.55px" viewBox="0 0 187.89 207.55"><defs><style>.jeibotR-cls-1{fill:#27244a;}.jeibotR-cls-2{fill:#fff;}.jeibotR-cls-3{fill:#ffb900;}.jeibotR-cls-4{fill:#131333;}.jeibotR-cls-5{fill:#e30000;}</style></defs><g id="왼쪽"><path class="jeibotR-cls-1" d="M3.63,126.82c0,68.07,40.31,77,90,77s90-9,90-77-40.31-113-90-113S3.63,58.74,3.63,126.82Z"/><path class="jeibotR-cls-2" d="M143.87,41.87c6.44,0,9.88,1.79,15,4.89,13,16.59,21.74,38.8,24.14,65.17a110,110,0,0,1-20.77,1.78c-43.06,0-44.86-25.3-44.86-37.55C117.41,70.56,120.52,41.87,143.87,41.87Z"/><path class="jeibotR-cls-3" d="M166.78,90.46c0,4.8,3.34,4.61,12.13,4.61,1.47,0,9,.19,9-4.61S182.4,81.75,177,81.75,166.78,85.65,166.78,90.46Z"/><ellipse class="jeibotR-cls-1" cx="155.75" cy="79.91" rx="4.38" ry="6.37"/><path class="jeibotR-cls-1" d="M105.89,128.06c6.68,14.06,11,31.39-2.6,39.17C75.65,183.07,63,129.49,62.49,116.11"/><path class="jeibotR-cls-4" d="M93.5,171.61a17.21,17.21,0,0,1-8.43-2.25C68.19,160,61.34,124.79,61,116.17a1.47,1.47,0,1,1,2.94-.11c.41,10.75,8,42.64,22.54,50.72,5,2.77,10.25,2.5,16.06-.82,12.8-7.33,8.15-24.31,2-37.26a1.47,1.47,0,1,1,2.66-1.27c9.59,20.19,8.48,34.4-3.19,41.08A21.15,21.15,0,0,1,93.5,171.61Z"/><path class="jeibotR-cls-5" d="M4.36,119.92H183.53c3.45,0,4.19-2,4.33-4.92a24.54,24.54,0,0,0-1-8.17c-1.15-3.92-1.77-9.07-4.76-9.07H5.83c-3,0-3.61,5.15-4.76,9.07A24.54,24.54,0,0,0,0,115C.17,117.9.91,119.92,4.36,119.92Z"/><rect class="jeibotR-cls-1" x="89.85" y="0.02" width="5.17" height="17.12" rx="1.76" transform="matrix(0.98, -0.22, 0.22, 0.98, 0.35, 20.31)"/><rect class="jeibotR-cls-1" x="92.63" y="4.65" width="5.17" height="14.53" rx="1.76" transform="translate(2.64 -13.33) rotate(8.12)"/><path class="jeibotR-cls-3" d="M79,203.52c0,5.88,28.63,3.59,41.07,3.59s22.54.78,22.54-5.1-10.09-10.64-22.54-10.64S79,197.64,79,203.52Z"/></g></svg>