<svg xmlns="http://www.w3.org/2000/svg" xmlns:xlink="http://www.w3.org/1999/xlink" width="91" height="97" viewBox="0 0 91 97">
  <defs>
    <clipPath id="clip-path-234">
      <rect id="사각형_977" data-name="사각형 977" width="91" height="91" fill="none"/>
    </clipPath>
  </defs>
  <g id="gbt-back-pressed" transform="translate(-232 -573)">
    <g id="그룹_950" data-name="그룹 950" transform="translate(232 579)">
      <g id="그룹_949" data-name="그룹 949" clip-path="url(#clip-path-234)">
        <g id="그룹_948" data-name="그룹 948">
          <g id="그룹_947" data-name="그룹 947" clip-path="url(#clip-path-234)">
            <path id="패스_2080" data-name="패스 2080" d="M45.5,3A42.5,42.5,0,1,1,3,45.5,42.5,42.5,0,0,1,45.5,3" fill="#f0aa3c"/>
            <path id="패스_2081" data-name="패스 2081" d="M45.5,88A42.5,42.5,0,1,1,88,45.5,42.548,42.548,0,0,1,45.5,88m0-81A38.5,38.5,0,1,0,84,45.5,38.544,38.544,0,0,0,45.5,7" fill="#f6d147"/>
            <path id="패스_2082" data-name="패스 2082" d="M45.5,91A45.5,45.5,0,1,1,91,45.5,45.551,45.551,0,0,1,45.5,91m0-88A42.5,42.5,0,1,0,88,45.5,42.548,42.548,0,0,0,45.5,3" fill="#d15c26"/>
            <path id="패스_2083" data-name="패스 2083" d="M66.918,33.985,61.4,28.472A1.436,1.436,0,1,0,59.371,30.5l3.158,3.158H50.389a1.435,1.435,0,0,0,0,2.87H62.441L59.377,39.6a1.436,1.436,0,1,0,2.029,2.032l5.518-5.513a1.564,1.564,0,0,0,0-2.124" fill="#fff"/>
            <path id="패스_2084" data-name="패스 2084" d="M36.527,24.755a4.633,4.633,0,1,0-4.633,4.633,4.638,4.638,0,0,0,4.633-4.633" fill="#fff"/>
            <path id="패스_2085" data-name="패스 2085" d="M25.2,36.079c3.443,0,5.062-1.738,6.777-3.577.46-.494.936-1,1.439-1.468a6.271,6.271,0,0,1,.6-.492l.057-.04c5.143-3.583,12.48,3.647,12.8,3.97A1.544,1.544,0,0,1,44.7,36.656a20.564,20.564,0,0,0-3.793-2.878A6.676,6.676,0,0,0,37,32.63l1.732,3.982a1.548,1.548,0,0,1,.1.218L43.6,47.816a1.544,1.544,0,1,1-2.832,1.232L36.7,39.694l-3.264,2.328v6.41a1.544,1.544,0,1,1-3.089,0V41.226A1.546,1.546,0,0,1,31,39.969l4.446-3.17L34.41,34.425l-.171.182c-1.893,2.032-4.25,4.56-9.036,4.56a1.544,1.544,0,0,1,0-3.088" fill="#fff"/>
            <path id="패스_2086" data-name="패스 2086" d="M41.793,58.265c.036.4-.126.774-.54.81-1.278.108-2.647.2-4.087.27v4.267a.782.782,0,0,1-.883.756.8.8,0,0,1-.9-.756V59.4c-1.279.037-2.576.055-3.908.055-.432,0-.63-.36-.63-.774,0-.4.2-.739.63-.739,3.187,0,6.3-.053,9.633-.341.432-.037.666.233.684.666m-1.458-7.58c0,.414-.2.755-.63.755H34.231c-.27,0-.378.109-.378.378v2.377c0,.288.108.378.378.378h5.653c.433,0,.631.361.631.757,0,.414-.2.773-.631.773H33.457c-1.045,0-1.386-.323-1.386-1.349V51.278c0-1.026.341-1.35,1.386-1.35h6.248c.432,0,.63.342.63.757m4.195-.937V63.792c0,.522-.432.757-.9.757a.782.782,0,0,1-.882-.757V49.748a.781.781,0,0,1,.882-.756c.468,0,.9.234.9.756" fill="#ce5123"/>
            <path id="패스_2087" data-name="패스 2087" d="M59.758,51.278v2.4c0,1.008-.342,1.333-1.386,1.333H51.008c-.271,0-.378.107-.378.377v1.351c0,.27.107.359.378.359h8.516c.432,0,.63.361.63.775s-.2.757-.63.757h-4.3v2.826h6.032c.432,0,.63.343.63.757s-.2.774-.63.774H47.388c-.432,0-.63-.36-.63-.774s.2-.757.63-.757H53.42V58.625H50.251c-1.044,0-1.386-.325-1.386-1.351V54.88c0-1.027.342-1.333,1.386-1.333h7.364c.27,0,.379-.108.379-.378V51.837c0-.271-.109-.378-.379-.378H49.459c-.432,0-.63-.343-.63-.757s.2-.775.63-.775h8.913c1.044,0,1.386.325,1.386,1.351" fill="#ce5123"/>
            <path id="패스_2088" data-name="패스 2088" d="M43.63,66.549a2.759,2.759,0,0,1-2.882-2.757V61.123q-.77.058-1.582.111v2.378a2.894,2.894,0,0,1-5.782,0V61.441q-.943.012-1.907.012a2.646,2.646,0,0,1-2.63-2.774,2.688,2.688,0,0,1,1.462-2.473,4.147,4.147,0,0,1-.238-1.452V51.278a3.066,3.066,0,0,1,3.386-3.35h6.248a2.593,2.593,0,0,1,1.423.412,2.85,2.85,0,0,1,2.5-1.348,2.769,2.769,0,0,1,2.9,2.756V63.792a2.769,2.769,0,0,1-2.9,2.757" fill="#ce5123"/>
            <path id="패스_2089" data-name="패스 2089" d="M61.253,64.982H47.389a2.769,2.769,0,0,1,0-5.531h.1a3.57,3.57,0,0,1-.628-2.177V54.879a3.481,3.481,0,0,1,.688-2.241,2.822,2.822,0,0,1-.724-1.936,2.646,2.646,0,0,1,2.63-2.775h8.913a3.067,3.067,0,0,1,3.386,3.351v2.394a3.631,3.631,0,0,1-.539,2.04,2.813,2.813,0,0,1,.935,2.156,2.891,2.891,0,0,1-.471,1.616,2.782,2.782,0,0,1-.43,5.5" fill="#ce5123"/>
            <path id="패스_2090" data-name="패스 2090" d="M40.822,57.4c.558-.053.846.325.882.846.035.505-.162.991-.7,1.045-1.027.09-2.269.18-3.619.234v3.961a1.01,1.01,0,0,1-1.135.972c-.594,0-1.152-.306-1.152-.972V59.6c-1.152.018-2.341.036-3.511.036-.558,0-.81-.45-.81-.972,0-.505.252-.955.81-.955,3.061,0,6.212-.036,9.237-.306m-6.194-5.672c-.306,0-.414.109-.414.415V53.89c0,.305.108.414.414.414h5.167c.558,0,.81.45.81.954,0,.522-.252.972-.81.972H33.457c-1.152,0-1.53-.36-1.53-1.495V51.3c0-1.135.378-1.5,1.53-1.5h6.158c.558,0,.811.45.811.954,0,.522-.253.972-.811.972Zm7.778-1.854c0-.666.558-.973,1.152-.973a1.011,1.011,0,0,1,1.135.973V63.666a1.011,1.011,0,0,1-1.135.973c-.594,0-1.152-.307-1.152-.973Z" fill="#fff"/>
            <path id="패스_2091" data-name="패스 2091" d="M47.514,63.162c-.558,0-.81-.45-.81-.973s.252-.971.81-.971h5.654V58.787H50.233c-1.152,0-1.531-.36-1.531-1.495V54.861c0-1.134.379-1.494,1.531-1.494h6.986c.306,0,.414-.108.414-.414V52.2c0-.306-.108-.415-.414-.415H49.477c-.558,0-.811-.45-.811-.972s.253-.972.811-.972h8.894c1.153,0,1.531.36,1.531,1.494v2.413c0,1.135-.378,1.494-1.531,1.494H51.386c-.307,0-.415.109-.415.415v.774c0,.306.108.414.415.414h8.066c.558,0,.81.45.81.972s-.252.973-.81.973h-3.98v2.431h5.654c.558,0,.81.45.81.971s-.252.973-.81.973Z" fill="#fff"/>
            <g id="그룹_946" data-name="그룹 946" opacity="0.5">
              <g id="그룹_945" data-name="그룹 945">
                <g id="그룹_944" data-name="그룹 944" clip-path="url(#clip-path-234)">
                  <path id="패스_2092" data-name="패스 2092" d="M45.5,3A42.5,42.5,0,1,1,3,45.5,42.5,42.5,0,0,1,45.5,3" fill="#d15c26"/>
                  <path id="패스_2093" data-name="패스 2093" d="M45.5,91A45.5,45.5,0,1,1,91,45.5,45.551,45.551,0,0,1,45.5,91m0-88A42.5,42.5,0,1,0,88,45.5,42.548,42.548,0,0,0,45.5,3" fill="#d15c26"/>
                </g>
              </g>
            </g>
          </g>
        </g>
      </g>
    </g>
    <rect id="사각형_979" data-name="사각형 979" width="91" height="97" transform="translate(232 573)" fill="none"/>
  </g>
</svg>
