<svg id="gbt-go-normal" xmlns="http://www.w3.org/2000/svg" xmlns:xlink="http://www.w3.org/1999/xlink" width="91" height="97" viewBox="0 0 91 97">
  <defs>
    <clipPath id="clip-path-237">
      <rect id="사각형_970" data-name="사각형 970" width="91" height="97" fill="none"/>
    </clipPath>
  </defs>
  <g id="그룹_934" data-name="그룹 934" clip-path="url(#clip-path-237)">
    <path id="패스_2032" data-name="패스 2032" d="M45.5,3h0A42.5,42.5,0,0,1,88,45.5v6c0,23.472-19.271,43.041-42.743,43.041S3,74.972,3,51.5v-6A42.5,42.5,0,0,1,45.5,3" fill="#ba4006"/>
    <path id="패스_2033" data-name="패스 2033" d="M45.5,97A45.551,45.551,0,0,1,0,51.5v-6a45.5,45.5,0,0,1,91,0v6A45.551,45.551,0,0,1,45.5,97m0-94A42.548,42.548,0,0,0,3,45.5v6a42.5,42.5,0,0,0,85,0v-6A42.548,42.548,0,0,0,45.5,3" fill="#ba4006"/>
    <path id="패스_2034" data-name="패스 2034" d="M45.41,3A42.5,42.5,0,1,1,2.91,45.5,42.5,42.5,0,0,1,45.41,3" fill="#f0aa3c"/>
    <path id="패스_2035" data-name="패스 2035" d="M45.41,88a42.5,42.5,0,1,1,42.5-42.5A42.548,42.548,0,0,1,45.41,88m0-81a38.5,38.5,0,1,0,38.5,38.5A38.544,38.544,0,0,0,45.41,7" fill="#f6d147"/>
    <path id="패스_2036" data-name="패스 2036" d="M45.5,91A45.5,45.5,0,1,1,91,45.5,45.551,45.551,0,0,1,45.5,91m0-88A42.5,42.5,0,1,0,88,45.5,42.548,42.548,0,0,0,45.5,3" fill="#d15c26"/>
    <path id="패스_2037" data-name="패스 2037" d="M23.992,34.046l5.518-5.513a1.436,1.436,0,1,1,2.029,2.033l-3.158,3.158h12.14a1.435,1.435,0,1,1,0,2.87H28.469l3.064,3.063A1.436,1.436,0,1,1,29.5,41.689l-5.518-5.513a1.564,1.564,0,0,1,0-2.124" fill="#fff"/>
    <path id="패스_2038" data-name="패스 2038" d="M56.442,24.817a4.633,4.633,0,1,0-4.633,4.633,4.638,4.638,0,0,0,4.633-4.633" fill="#fff"/>
    <path id="패스_2039" data-name="패스 2039" d="M45.118,36.14c3.443,0,5.062-1.737,6.777-3.577.46-.493.936-1,1.439-1.467a6.271,6.271,0,0,1,.6-.492L54,30.563c5.143-3.583,12.48,3.648,12.8,3.971a1.544,1.544,0,0,1-2.184,2.184,20.514,20.514,0,0,0-3.793-2.878,6.676,6.676,0,0,0-3.909-1.148l1.732,3.982a1.5,1.5,0,0,1,.1.218l4.78,10.986a1.544,1.544,0,1,1-2.832,1.232l-4.07-9.354-3.264,2.327v6.41a1.545,1.545,0,1,1-3.089,0V41.288a1.544,1.544,0,0,1,.648-1.257l4.446-3.17-1.034-2.375-.171.183c-1.893,2.032-4.25,4.56-9.036,4.56a1.545,1.545,0,0,1,0-3.089" fill="#fff"/>
    <path id="패스_2040" data-name="패스 2040" d="M30.255,53.565c0,2.25-1.387,3.925-4.177,3.925S21.9,55.815,21.9,53.565c0-2.233,1.386-3.907,4.178-3.907s4.177,1.674,4.177,3.907m3.925,5.672c.432,0,.63.324.63.738,0,.4-.2.738-.63.738H32.613V63.99h1.729c.432,0,.63.324.63.738,0,.4-.2.739-.63.739H24.169c-.432,0-.631-.342-.631-.739,0-.414.2-.738.631-.738h1.746V60.713H24.331c-.432,0-.63-.342-.63-.738,0-.414.2-.738.63-.738ZM23.629,53.565a2.212,2.212,0,0,0,2.449,2.412,2.413,2.413,0,1,0,0-4.825,2.213,2.213,0,0,0-2.449,2.413m7.238,7.148h-3.2V63.99h3.2Zm3.565-10.965v3.043h1.98c.469,0,.666.36.666.774,0,.451-.2.792-.666.792h-1.98v3.259c0,.523-.432.757-.9.757s-.9-.234-.9-.757V49.748c0-.522.432-.756.9-.756s.9.234.9.756" fill="#ce5123"/>
    <path id="패스_2041" data-name="패스 2041" d="M52.883,62.208c0,.414-.2.774-.631.774H38.388c-.432,0-.63-.36-.63-.774,0-.433.2-.774.63-.774H52.252c.432,0,.631.341.631.774m-2.017-8.085c0,2.755-2.071,4.412-5.546,4.412s-5.527-1.657-5.527-4.412c0-2.772,2.052-4.429,5.527-4.429s5.546,1.657,5.546,4.429m-9.273,0c0,1.639,1.152,2.881,3.727,2.881s3.727-1.242,3.727-2.881c0-1.656-1.152-2.9-3.727-2.9s-3.727,1.242-3.727,2.9" fill="#ce5123"/>
    <path id="패스_2042" data-name="패스 2042" d="M66.885,51.278v2.4c0,1.008-.342,1.333-1.386,1.333H58.135c-.271,0-.378.107-.378.377v1.351c0,.27.107.359.378.359h8.516c.432,0,.63.361.63.775s-.2.757-.63.757h-4.3v2.826H68.38c.432,0,.63.343.63.757s-.2.774-.63.774H54.515c-.432,0-.63-.36-.63-.774s.2-.757.63-.757h6.032V58.625H57.378c-1.044,0-1.386-.325-1.386-1.351V54.88c0-1.027.342-1.333,1.386-1.333h7.364c.27,0,.379-.108.379-.378V51.837c0-.271-.109-.378-.379-.378H56.586c-.432,0-.63-.343-.63-.757s.2-.775.63-.775H65.5c1.044,0,1.386.325,1.386,1.351" fill="#ce5123"/>
    <path id="패스_2043" data-name="패스 2043" d="M34.341,67.467H24.168a2.626,2.626,0,0,1-2.629-2.738A2.7,2.7,0,0,1,22.908,62.3,2.715,2.715,0,0,1,21.7,59.975a2.847,2.847,0,0,1,.489-1.631,5.67,5.67,0,0,1-2.29-4.778c0-3.533,2.482-5.907,6.178-5.907a6.285,6.285,0,0,1,4.576,1.729,2.915,2.915,0,0,1,5.778.36v1.043a2.787,2.787,0,0,1,0,5.567v1.259a2.846,2.846,0,0,1-.1.746,2.863,2.863,0,0,1,.476,1.612A2.717,2.717,0,0,1,35.6,62.3a2.7,2.7,0,0,1,1.369,2.425,2.627,2.627,0,0,1-2.631,2.738M25.688,53.935a1.582,1.582,0,0,0,.39.043.992.992,0,0,0,.406-.059,1.4,1.4,0,0,0,.042-.353.857.857,0,0,0-.059-.371,1.971,1.971,0,0,0-.389-.042,1,1,0,0,0-.408.059,1.4,1.4,0,0,0-.042.354.852.852,0,0,0,.058.369h0" fill="#ce5123"/>
    <path id="패스_2044" data-name="패스 2044" d="M52.253,64.983H38.388a2.778,2.778,0,0,1,0-5.549h2.364a5.889,5.889,0,0,1-2.959-5.311c0-3.905,2.955-6.428,7.527-6.428s7.546,2.523,7.546,6.428A5.884,5.884,0,0,1,49.9,59.434h2.354a2.778,2.778,0,0,1,0,5.549M45.32,53.225c-1.727,0-1.727.629-1.727.9s0,.881,1.727.881,1.728-.617,1.728-.881,0-.9-1.728-.9" fill="#ce5123"/>
    <path id="패스_2045" data-name="패스 2045" d="M68.38,64.982H54.516a2.769,2.769,0,0,1,0-5.531h.1a3.57,3.57,0,0,1-.628-2.177V54.879a3.481,3.481,0,0,1,.688-2.241,2.822,2.822,0,0,1-.724-1.936,2.646,2.646,0,0,1,2.631-2.775H65.5a3.067,3.067,0,0,1,3.387,3.351v2.394a3.631,3.631,0,0,1-.539,2.04,2.813,2.813,0,0,1,.935,2.156,2.9,2.9,0,0,1-.471,1.616,2.782,2.782,0,0,1-.431,5.5" fill="#ce5123"/>
    <path id="패스_2046" data-name="패스 2046" d="M26.06,49.569c2.845,0,4.3,1.673,4.3,4.014S28.905,57.6,26.06,57.6s-4.3-1.675-4.3-4.016,1.458-4.014,4.3-4.014M25.718,63.7V60.984H24.457c-.558,0-.81-.414-.81-.918,0-.523.252-.937.81-.937h9.615c.558,0,.811.414.811.937,0,.5-.253.918-.811.918h-1.26V63.7h1.44c.558,0,.81.414.81.937,0,.5-.252.918-.81.918H24.277c-.558,0-.81-.414-.81-.918,0-.523.252-.937.81-.937Zm.342-12.243a2.125,2.125,0,0,0,0,4.249,2.125,2.125,0,0,0,0-4.249M27.951,63.7H30.58V60.983H27.951Zm8.336-11.109c.576,0,.828.45.828.99,0,.559-.252,1.009-.828,1.009H34.6v2.826c0,.667-.558.973-1.153.973s-1.152-.306-1.152-.973V49.874c0-.666.558-.972,1.152-.972s1.153.306,1.153.972v2.719Z" fill="#fff"/>
    <path id="패스_2047" data-name="패스 2047" d="M38.514,63.162c-.558,0-.81-.45-.81-.972,0-.54.252-.991.81-.991H52.126c.558,0,.81.451.81.991,0,.522-.252.972-.81.972ZM45.32,49.6c3.529,0,5.69,1.657,5.69,4.538s-2.161,4.537-5.69,4.537-5.689-1.656-5.689-4.537S41.791,49.6,45.32,49.6m0,1.945c-2.4,0-3.385,1.134-3.385,2.593s.99,2.593,3.385,2.593,3.385-1.135,3.385-2.593-.99-2.593-3.385-2.593" fill="#fff"/>
    <path id="패스_2048" data-name="패스 2048" d="M54.642,63.162c-.558,0-.81-.45-.81-.973s.252-.971.81-.971H60.3V58.787H57.361c-1.153,0-1.531-.36-1.531-1.495V54.861c0-1.134.378-1.494,1.531-1.494h6.986c.306,0,.414-.108.414-.414V52.2c0-.306-.108-.415-.414-.415H56.6c-.558,0-.811-.45-.811-.972s.253-.972.811-.972H65.5c1.153,0,1.531.36,1.531,1.494v2.413c0,1.135-.378,1.494-1.531,1.494H58.513c-.306,0-.414.109-.414.415v.774c0,.306.108.414.414.414H66.58c.558,0,.81.45.81.972s-.252.973-.81.973H62.6v2.431h5.654c.558,0,.81.45.81.971s-.252.973-.81.973Z" fill="#fff"/>
  </g>
</svg>
