<svg xmlns="http://www.w3.org/2000/svg" xmlns:xlink="http://www.w3.org/1999/xlink" width="91" height="97" viewBox="0 0 91 97">
  <defs>
    <clipPath id="clip-path">
      <rect id="사각형_709" data-name="사각형 709" width="19.671" height="24.675" fill="none"/>
    </clipPath>
  </defs>
  <g id="bt_left_default" transform="translate(-347 -74.65)">
    <g id="그룹_678" data-name="그룹 678" transform="translate(251 -315.35)">
      <g id="패스_1820" data-name="패스 1820" transform="translate(99 393)" fill="#ba4006">
        <path d="M 42.5 92.5 C 36.56069946289062 92.5 30.79826164245605 91.33644104003906 25.37274932861328 89.04164886474609 C 20.13308715820312 86.82544708251953 15.42770004272461 83.65309906005859 11.38729953765869 79.61270141601562 C 7.34689998626709 75.57230377197266 4.17455005645752 70.86691284179688 1.958349943161011 65.62725067138672 C -0.3364374935626984 60.20173645019531 -1.5 54.43930053710938 -1.5 48.5 L -1.5 42.5 C -1.5 36.56069946289062 -0.3364374935626984 30.79826164245605 1.958349943161011 25.37274932861328 C 4.17455005645752 20.13308715820312 7.34689998626709 15.42770004272461 11.38729953765869 11.38729953765869 C 15.42770004272461 7.34689998626709 20.13308715820312 4.17455005645752 25.37274932861328 1.958349943161011 C 30.79826164245605 -0.3364374935626984 36.56069946289062 -1.5 42.5 -1.5 C 48.43930053710938 -1.5 54.20173645019531 -0.3364374935626984 59.62725067138672 1.958349943161011 C 64.86691284179688 4.17455005645752 69.57230377197266 7.34689998626709 73.61270141601562 11.38729953765869 C 77.65309906005859 15.42770004272461 80.82544708251953 20.13308715820312 83.04164886474609 25.37274932861328 C 85.33644104003906 30.79826164245605 86.5 36.56069946289062 86.5 42.5 L 86.5 48.5 C 86.5 54.43930053710938 85.33644104003906 60.20175170898438 83.04164886474609 65.62725067138672 C 80.82544708251953 70.86691284179688 77.65309906005859 75.57230377197266 73.61270141601562 79.61270141601562 C 69.57230377197266 83.65309906005859 64.86691284179688 86.82544708251953 59.62725067138672 89.04164886474609 C 54.20175170898438 91.33644104003906 48.43930053710938 92.5 42.5 92.5 Z" stroke="none"/>
        <path d="M 42.5 0 C 19.02788543701172 0 0 19.02788543701172 0 42.5 L 0 48.5 C 0 71.97209930419922 19.02788543701172 91 42.5 91 C 65.97209930419922 91 85 71.97209930419922 85 48.5 L 85 42.5 C 85 19.02788543701172 65.97209930419922 0 42.5 0 M 42.5 -3 C 48.64114379882812 -3 54.60017395019531 -1.79656982421875 60.21157073974609 0.57684326171875 C 65.63004302978516 2.868659973144531 70.49568176269531 6.148971557617188 74.67335510253906 10.32664489746094 C 78.85102844238281 14.50431060791016 82.13133239746094 19.36995697021484 84.42315673828125 24.78841400146484 C 86.79656982421875 30.39981460571289 88 36.35885620117188 88 42.5 L 88 48.5 C 88 54.64114379882812 86.79656982421875 60.60017395019531 84.42315673828125 66.21157073974609 C 82.13133239746094 71.63004302978516 78.85102844238281 76.49568176269531 74.67335510253906 80.67335510253906 C 70.49568176269531 84.85102844238281 65.63004302978516 88.13133239746094 60.21157073974609 90.42315673828125 C 54.60017395019531 92.79656982421875 48.64114379882812 94 42.5 94 C 36.35885620117188 94 30.39981460571289 92.79656982421875 24.78841400146484 90.42315673828125 C 19.36995697021484 88.13133239746094 14.50431060791016 84.85102844238281 10.32664489746094 80.67335510253906 C 6.148971557617188 76.49568176269531 2.868659973144531 71.63004302978516 0.57684326171875 66.21157073974609 C -1.79656982421875 60.60017395019531 -3 54.64114379882812 -3 48.5 L -3 42.5 C -3 36.35885620117188 -1.79656982421875 30.39981460571289 0.57684326171875 24.78841400146484 C 2.868659973144531 19.36995697021484 6.148971557617188 14.50431060791016 10.32664489746094 10.32664489746094 C 14.50431060791016 6.148971557617188 19.36995697021484 2.868659973144531 24.78841400146484 0.57684326171875 C 30.39981460571289 -1.79656982421875 36.35885620117188 -3 42.5 -3 Z" stroke="none" fill="#ba4006"/>
      </g>
      <g id="그룹_605" data-name="그룹 605" transform="translate(-761 -17)">
        <g id="그룹_603" data-name="그룹 603" transform="translate(0 -8)">
          <g id="타원_39" data-name="타원 39" transform="translate(860 418)" fill="#f0aa3c" stroke="#f6d147" stroke-width="4">
            <circle cx="42.5" cy="42.5" r="42.5" stroke="none"/>
            <circle cx="42.5" cy="42.5" r="40.5" fill="none"/>
          </g>
          <text id="왼쪽" transform="translate(887 478)" fill="#ce5123" stroke="#ce5123" stroke-width="4" font-size="18" font-family="NanumSquareRoundOTFB, NanumSquareRoundOTF" letter-spacing="-0.015em"><tspan x="0" y="0">왼쪽</tspan></text>
          <g id="그룹_594" data-name="그룹 594" transform="translate(893 434.354)">
            <g id="그룹_588" data-name="그룹 588" transform="translate(0 0)" clip-path="url(#clip-path)">
              <path id="패스_1578" data-name="패스 1578" d="M.567,6.581l.006,0L6.415.6A1.992,1.992,0,0,1,9.264,3.385l-2.442,2.5h3.754a9.106,9.106,0,0,1,9.1,9.1v7.7a1.992,1.992,0,1,1-3.985,0v-7.7a5.115,5.115,0,0,0-5.111-5.111H6.782l2.586,2.526a1.993,1.993,0,0,1-2.786,2.851L.6,9.4A2,2,0,0,1,.567,6.581" transform="translate(0 0)" fill="#fff"/>
            </g>
          </g>
          <text id="왼쪽-2" data-name="왼쪽" transform="translate(887 478)" fill="#fff" font-size="18" font-family="NanumSquareRoundOTFEB, NanumSquareRoundOTF" letter-spacing="-0.015em"><tspan x="0" y="0">왼쪽</tspan></text>
          <g id="타원_40" data-name="타원 40" transform="translate(860 418)" fill="none" stroke="#d15c26" stroke-width="3">
            <circle cx="42.5" cy="42.5" r="42.5" stroke="none"/>
            <circle cx="42.5" cy="42.5" r="44" fill="none"/>
          </g>
        </g>
      </g>
    </g>
  </g>
</svg>
