<svg xmlns="http://www.w3.org/2000/svg" xmlns:xlink="http://www.w3.org/1999/xlink" width="91" height="91" viewBox="0 0 91 91">
  <defs>
    <clipPath id="clip-path">
      <rect id="사각형_709" data-name="사각형 709" width="19.671" height="24.675" fill="none"/>
    </clipPath>
  </defs>
  <g id="bt_left_click" transform="translate(-711 -83.65)">
    <g id="그룹_855" data-name="그룹 855">
      <g id="그룹_851" data-name="그룹 851" transform="translate(615 -312.35)">
        <g id="그룹_605" data-name="그룹 605" transform="translate(-761 -11)">
          <g id="그룹_603" data-name="그룹 603" transform="translate(0 -8)">
            <g id="타원_39" data-name="타원 39" transform="translate(860 418)" fill="#f0aa3c" stroke="#f6d147" stroke-width="4">
              <circle cx="42.5" cy="42.5" r="42.5" stroke="none"/>
              <circle cx="42.5" cy="42.5" r="40.5" fill="none"/>
            </g>
            <text id="왼쪽" transform="translate(887 478)" fill="#ce5123" stroke="#ce5123" stroke-width="4" font-size="18" font-family="NanumSquareRoundOTFB, NanumSquareRoundOTF" letter-spacing="-0.015em"><tspan x="0" y="0">왼쪽</tspan></text>
            <g id="그룹_594" data-name="그룹 594" transform="translate(893 434.354)">
              <g id="그룹_588" data-name="그룹 588" transform="translate(0 0)" clip-path="url(#clip-path)">
                <path id="패스_1578" data-name="패스 1578" d="M.567,6.581l.006,0L6.415.6A1.992,1.992,0,0,1,9.264,3.385l-2.442,2.5h3.754a9.106,9.106,0,0,1,9.1,9.1v7.7a1.992,1.992,0,1,1-3.985,0v-7.7a5.115,5.115,0,0,0-5.111-5.111H6.782l2.586,2.526a1.993,1.993,0,0,1-2.786,2.851L.6,9.4A2,2,0,0,1,.567,6.581" transform="translate(0 0)" fill="#fff"/>
              </g>
            </g>
            <text id="왼쪽-2" data-name="왼쪽" transform="translate(887 478)" fill="#fff" font-size="18" font-family="NanumSquareRoundOTFEB, NanumSquareRoundOTF" letter-spacing="-0.015em"><tspan x="0" y="0">왼쪽</tspan></text>
            <g id="타원_40" data-name="타원 40" transform="translate(860 418)" fill="none" stroke="#d15c26" stroke-width="3">
              <circle cx="42.5" cy="42.5" r="42.5" stroke="none"/>
              <circle cx="42.5" cy="42.5" r="44" fill="none"/>
            </g>
          </g>
        </g>
      </g>
      <g id="타원_61" data-name="타원 61" transform="translate(714 86.65)" fill="#d15c26" stroke="#d15c26" stroke-width="3" opacity="0.5" style="mix-blend-mode: multiply;isolation: isolate">
        <circle cx="42.5" cy="42.5" r="42.5" stroke="none"/>
        <circle cx="42.5" cy="42.5" r="44" fill="none"/>
      </g>
    </g>
  </g>
</svg>
