<svg xmlns="http://www.w3.org/2000/svg" xmlns:xlink="http://www.w3.org/1999/xlink" width="91" height="97" viewBox="0 0 91 97">
  <defs>
    <clipPath id="clip-path">
      <rect id="사각형_709" data-name="사각형 709" width="19.671" height="24.675" fill="none"/>
    </clipPath>
  </defs>
  <g id="bt_right_default" transform="translate(-347 -184.65)">
    <g id="그룹_681" data-name="그룹 681" transform="translate(251 -313.35)">
      <g id="그룹_669" data-name="그룹 669">
        <g id="그룹_624" data-name="그룹 624" transform="translate(-760 -14)">
          <g id="사각형_728" data-name="사각형 728" transform="translate(859 515)" fill="#ba4006" stroke="#ba4006" stroke-width="3">
            <rect width="85" height="91" rx="42.5" stroke="none"/>
            <rect x="-1.5" y="-1.5" width="88" height="94" rx="44" fill="none"/>
          </g>
          <g id="그룹_608" data-name="그룹 608" transform="translate(-80 -19)">
            <g id="그룹_604" data-name="그룹 604" transform="translate(79 7)">
              <g id="타원_29" data-name="타원 29" transform="translate(860 527)" fill="#f0aa3c" stroke="#f6d147" stroke-width="4">
                <circle cx="42.5" cy="42.5" r="42.5" stroke="none"/>
                <circle cx="42.5" cy="42.5" r="40.5" fill="none"/>
              </g>
              <text id="오른쪽" transform="translate(878 587)" fill="#ce5123" stroke="#ce5123" stroke-width="4" font-size="18" font-family="NanumSquareRoundOTFB, NanumSquareRoundOTF" letter-spacing="-0.015em"><tspan x="0" y="0">오른쪽</tspan></text>
              <g id="그룹_589" data-name="그룹 589" transform="translate(893 543.354)">
                <g id="그룹_588" data-name="그룹 588" transform="translate(0 0)" clip-path="url(#clip-path)">
                  <path id="패스_1578" data-name="패스 1578" d="M19.1,6.58l-.006,0L13.256.6a1.992,1.992,0,0,0-2.849,2.786l2.442,2.5H9.1a9.106,9.106,0,0,0-9.1,9.1v7.7a1.992,1.992,0,0,0,3.985,0v-7.7A5.115,5.115,0,0,1,9.1,9.868h3.793L10.3,12.395a1.993,1.993,0,0,0,2.786,2.851L19.072,9.4A2,2,0,0,0,19.1,6.58" transform="translate(0 0)" fill="#fff"/>
                </g>
              </g>
              <text id="오른쪽-2" data-name="오른쪽" transform="translate(878 587)" fill="#fff" font-size="18" font-family="NanumSquareRoundOTFEB, NanumSquareRoundOTF" letter-spacing="-0.015em"><tspan x="0" y="0">오른쪽</tspan></text>
              <g id="타원_38" data-name="타원 38" transform="translate(860 527)" fill="none" stroke="#d15c26" stroke-width="3">
                <circle cx="42.5" cy="42.5" r="42.5" stroke="none"/>
                <circle cx="42.5" cy="42.5" r="44" fill="none"/>
              </g>
            </g>
          </g>
        </g>
      </g>
    </g>
  </g>
</svg>
