<svg xmlns="http://www.w3.org/2000/svg" width="92" height="95" viewBox="0 0 92 95">
  <g id="얼음깨기_default" transform="translate(-3733 -455)">
    <g id="그룹_798" data-name="그룹 798">
      <g id="사각형_834" data-name="사각형 834" transform="translate(3736 461)" fill="#244eb5" stroke="#244eb5" stroke-width="3">
        <rect width="86" height="86" rx="14" stroke="none"/>
        <rect x="-1.5" y="-1.5" width="89" height="89" rx="15.5" fill="none"/>
      </g>
      <g id="사각형_719" data-name="사각형 719" transform="translate(3739 461)" fill="#599ff8" stroke="#80cffa" stroke-width="4">
        <rect width="80" height="80" rx="12" stroke="none"/>
        <rect x="-2" y="-2" width="84" height="84" rx="14" fill="none"/>
      </g>
      <text id="얼음깨기" transform="translate(3750 522.086)" fill="#244eb5" stroke="#244eb5" stroke-width="4" font-size="16" font-family="NanumSquareRoundOTFEB, NanumSquareRoundOTF" letter-spacing="-0.015em"><tspan x="0" y="0">얼음깨기</tspan></text>
      <text id="얼음깨기-2" data-name="얼음깨기" transform="translate(3750 522.086)" fill="#fff" font-size="16" font-family="NanumSquareRoundOTFEB, NanumSquareRoundOTF" letter-spacing="-0.015em"><tspan x="0" y="0">얼음깨기</tspan></text>
      <g id="사각형_724" data-name="사각형 724" transform="translate(3736 458)" fill="none" stroke="#244eb5" stroke-width="3">
        <rect width="86" height="86" rx="14" stroke="none"/>
        <rect x="-1.5" y="-1.5" width="89" height="89" rx="15.5" fill="none"/>
      </g>
      <path id="패스_1779" data-name="패스 1779" d="M17.219,9.111a.879.879,0,0,1,.843-.631h7.027a.878.878,0,0,1,.878.879.9.9,0,0,1-.046.277l-3.127,9.383h6.686a.88.88,0,0,1,.694,1.419l-12.3,15.808a.878.878,0,0,1-1.533-.8l3.164-10.281H13.671a.88.88,0,0,1-.844-1.126Z" transform="translate(3760 467.413)" fill="#244eb5" stroke="#244eb5" stroke-width="4"/>
      <path id="패스_1783" data-name="패스 1783" d="M17.219,9.111a.879.879,0,0,1,.843-.631h7.027a.878.878,0,0,1,.878.879.9.9,0,0,1-.046.277l-3.127,9.383h6.686a.88.88,0,0,1,.694,1.419l-12.3,15.808a.878.878,0,0,1-1.533-.8l3.164-10.281H13.671a.88.88,0,0,1-.844-1.126Z" transform="translate(3760 467.413)" fill="#fff"/>
    </g>
  </g>
</svg>
