<svg xmlns="http://www.w3.org/2000/svg" width="92" height="95" viewBox="0 0 92 95">
  <g id="눈치우기_default" transform="translate(-3733 -574)">
    <g id="사각형_839" data-name="사각형 839" transform="translate(3736 580)" fill="#244eb5" stroke="#244eb5" stroke-width="3">
      <rect width="86" height="86" rx="14" stroke="none"/>
      <rect x="-1.5" y="-1.5" width="89" height="89" rx="15.5" fill="none"/>
    </g>
    <g id="사각형_841" data-name="사각형 841" transform="translate(3739 580)" fill="#599ff8" stroke="#80cffa" stroke-width="4">
      <rect width="80" height="80" rx="12" stroke="none"/>
      <rect x="-2" y="-2" width="84" height="84" rx="14" fill="none"/>
    </g>
    <text id="눈_치우기" data-name="눈 치우기" transform="translate(3748.5 641.086)" fill="#244eb5" stroke="#244eb5" stroke-width="4" font-size="16" font-family="NanumSquareRoundOTFEB, NanumSquareRoundOTF" letter-spacing="-0.015em"><tspan x="0" y="0">눈 치우기</tspan></text>
    <text id="눈_치우기-2" data-name="눈 치우기" transform="translate(3748.5 641.086)" fill="#fff" font-size="16" font-family="NanumSquareRoundOTFEB, NanumSquareRoundOTF" letter-spacing="-0.015em"><tspan x="0" y="0">눈 치우기</tspan></text>
    <g id="사각형_840" data-name="사각형 840" transform="translate(3736 577)" fill="none" stroke="#244eb5" stroke-width="3">
      <rect width="86" height="86" rx="14" stroke="none"/>
      <rect x="-1.5" y="-1.5" width="89" height="89" rx="15.5" fill="none"/>
    </g>
    <g id="그룹_750" data-name="그룹 750" transform="translate(-465.842 515.039)">
      <path id="패스_1791" data-name="패스 1791" d="M84.467,23.562,82.715,22.55a4.631,4.631,0,0,1,1.079-.824,1.133,1.133,0,0,0-1.1-1.984A6.878,6.878,0,0,0,80.712,21.4l-4.539-2.625,4.538-2.62A6.846,6.846,0,0,0,82.7,17.8,1.133,1.133,0,1,0,83.81,15.83l-.017-.009A4.635,4.635,0,0,1,82.714,15l1.752-1.011a1.133,1.133,0,0,0-1.069-2c-.021.011-.043.023-.063.036l-1.752,1.012a4.615,4.615,0,0,1-.176-1.348A1.134,1.134,0,0,0,80.3,10.528h-.025a1.133,1.133,0,0,0-1.133,1.113,6.866,6.866,0,0,0,.438,2.545l-4.539,2.622v-5.24a6.878,6.878,0,0,0,2.425-.893,1.134,1.134,0,1,0-1.17-1.942,4.572,4.572,0,0,1-1.255.521V7.54a1.133,1.133,0,1,0-2.266,0V9.254a4.572,4.572,0,0,1-1.255-.521,1.134,1.134,0,1,0-1.17,1.942,6.878,6.878,0,0,0,2.425.893v5.24l-4.538-2.622a6.919,6.919,0,0,0,.439-2.547,1.134,1.134,0,0,0-1.134-1.112h-.022a1.133,1.133,0,0,0-1.112,1.154h0a4.626,4.626,0,0,1-.176,1.349l-1.751-1.009a1.134,1.134,0,0,0-1.162,1.947l.028.016L65.1,15a4.631,4.631,0,0,1-1.079.824A1.133,1.133,0,0,0,65.1,17.814l.017-.009A6.865,6.865,0,0,0,67.1,16.151l4.539,2.62L67.1,21.391a6.865,6.865,0,0,0-1.986-1.654A1.134,1.134,0,0,0,64,21.712l.017.009a4.608,4.608,0,0,1,1.079.825l-1.753,1.016a1.134,1.134,0,1,0,1.106,1.979l.028-.016,1.751-1.011a4.6,4.6,0,0,1,.176,1.347,1.134,1.134,0,0,0,1.112,1.153h.021A1.133,1.133,0,0,0,68.672,25.9a6.886,6.886,0,0,0-.437-2.545l4.538-2.622v5.24a6.878,6.878,0,0,0-2.425.893,1.133,1.133,0,1,0,1.17,1.941,4.6,4.6,0,0,1,1.255-.52V30a1.133,1.133,0,1,0,2.266,0V28.288a4.6,4.6,0,0,1,1.255.52,1.133,1.133,0,1,0,1.17-1.941,6.878,6.878,0,0,0-2.425-.893v-5.24l4.539,2.622a6.869,6.869,0,0,0-.439,2.546,1.133,1.133,0,0,0,1.133,1.113h.022a1.133,1.133,0,0,0,1.112-1.154h0a4.626,4.626,0,0,1,.176-1.349l1.752,1.011a1.133,1.133,0,1,0,1.224-1.907,1.028,1.028,0,0,0-.091-.053" transform="translate(4170.92 75.137)" fill="#244eb5" stroke="#244eb5" stroke-width="4"/>
      <path id="패스_1782" data-name="패스 1782" d="M84.467,23.562,82.715,22.55a4.631,4.631,0,0,1,1.079-.824,1.133,1.133,0,0,0-1.1-1.984A6.878,6.878,0,0,0,80.712,21.4l-4.539-2.625,4.538-2.62A6.846,6.846,0,0,0,82.7,17.8,1.133,1.133,0,1,0,83.81,15.83l-.017-.009A4.635,4.635,0,0,1,82.714,15l1.752-1.011a1.133,1.133,0,0,0-1.069-2c-.021.011-.043.023-.063.036l-1.752,1.012a4.615,4.615,0,0,1-.176-1.348A1.134,1.134,0,0,0,80.3,10.528h-.025a1.133,1.133,0,0,0-1.133,1.113,6.866,6.866,0,0,0,.438,2.545l-4.539,2.622v-5.24a6.878,6.878,0,0,0,2.425-.893,1.134,1.134,0,1,0-1.17-1.942,4.572,4.572,0,0,1-1.255.521V7.54a1.133,1.133,0,1,0-2.266,0V9.254a4.572,4.572,0,0,1-1.255-.521,1.134,1.134,0,1,0-1.17,1.942,6.878,6.878,0,0,0,2.425.893v5.24l-4.538-2.622a6.919,6.919,0,0,0,.439-2.547,1.134,1.134,0,0,0-1.134-1.112h-.022a1.133,1.133,0,0,0-1.112,1.154h0a4.626,4.626,0,0,1-.176,1.349l-1.751-1.009a1.134,1.134,0,0,0-1.162,1.947l.028.016L65.1,15a4.631,4.631,0,0,1-1.079.824A1.133,1.133,0,0,0,65.1,17.814l.017-.009A6.865,6.865,0,0,0,67.1,16.151l4.539,2.62L67.1,21.391a6.865,6.865,0,0,0-1.986-1.654A1.134,1.134,0,0,0,64,21.712l.017.009a4.608,4.608,0,0,1,1.079.825l-1.753,1.016a1.134,1.134,0,1,0,1.106,1.979l.028-.016,1.751-1.011a4.6,4.6,0,0,1,.176,1.347,1.134,1.134,0,0,0,1.112,1.153h.021A1.133,1.133,0,0,0,68.672,25.9a6.886,6.886,0,0,0-.437-2.545l4.538-2.622v5.24a6.878,6.878,0,0,0-2.425.893,1.133,1.133,0,1,0,1.17,1.941,4.6,4.6,0,0,1,1.255-.52V30a1.133,1.133,0,1,0,2.266,0V28.288a4.6,4.6,0,0,1,1.255.52,1.133,1.133,0,1,0,1.17-1.941,6.878,6.878,0,0,0-2.425-.893v-5.24l4.539,2.622a6.869,6.869,0,0,0-.439,2.546,1.133,1.133,0,0,0,1.133,1.113h.022a1.133,1.133,0,0,0,1.112-1.154h0a4.626,4.626,0,0,1,.176-1.349l1.752,1.011a1.133,1.133,0,1,0,1.224-1.907,1.028,1.028,0,0,0-.091-.053" transform="translate(4170.92 75.137)" fill="#fff"/>
    </g>
  </g>
</svg>
