<svg xmlns="http://www.w3.org/2000/svg" xmlns:xlink="http://www.w3.org/1999/xlink" width="92" height="95" viewBox="0 0 92 95">
  <defs>
    <clipPath id="clip-path">
      <rect id="사각형_718" data-name="사각형 718" width="59.45" height="42.671" transform="translate(-11 -8)" fill="#030262" stroke="#030262" stroke-width="4"/>
    </clipPath>
    <clipPath id="clip-path-2">
      <rect id="사각형_718-2" data-name="사각형 718" width="37.45" height="26.671" fill="none"/>
    </clipPath>
  </defs>
  <g id="다이빙하기_default" transform="translate(-3730 245)">
    <g id="그룹_792" data-name="그룹 792">
      <g id="사각형_798" data-name="사각형 798" transform="translate(3733 -239)" fill="#01013a" stroke="#01013a" stroke-width="3">
        <rect width="86" height="86" rx="14" stroke="none"/>
        <rect x="-1.5" y="-1.5" width="89" height="89" rx="15.5" fill="none"/>
      </g>
      <g id="다이빙하기" transform="translate(3667 -424)">
        <g id="사각형_719" data-name="사각형 719" transform="translate(69 185)" fill="#3f0dab" stroke="#9a9aff" stroke-width="4">
          <rect width="80" height="80" rx="12" stroke="none"/>
          <rect x="-2" y="-2" width="84" height="84" rx="14" fill="none"/>
        </g>
        <text id="다이빙하기-2" data-name="다이빙하기" transform="translate(73 246.086)" fill="#030262" stroke="#030262" stroke-width="4" font-size="16" font-family="NanumSquareRoundOTFEB, NanumSquareRoundOTF" letter-spacing="-0.015em"><tspan x="0" y="0">다이빙하기</tspan></text>
        <g id="그룹_617" data-name="그룹 617" transform="translate(90 198.915)">
          <g id="그룹_609" data-name="그룹 609" transform="translate(0 0)" clip-path="url(#clip-path)">
            <path id="패스_1582" data-name="패스 1582" d="M37.45,16.593a2.081,2.081,0,0,0-1.707-2.043c-3.154-.578-2.958-1.918-4.525-1.918-1.627,0-2.028,2.067-6.254,2.067a7.252,7.252,0,0,1-4.77-1.47,2.047,2.047,0,0,0-1.458-.6c-1.609,0-2.054,2.067-6.254,2.067a7.276,7.276,0,0,1-4.773-1.468,2.051,2.051,0,0,0-1.46-.6,2.13,2.13,0,0,0-1.455.578C2.909,14.915,0,14.025,0,16.6a2.079,2.079,0,0,0,2.06,2.085A10.78,10.78,0,0,0,6.24,17.26a12.2,12.2,0,0,0,6.244,1.551,12.106,12.106,0,0,0,6.241-1.6,12.159,12.159,0,0,0,6.243,1.6,12.144,12.144,0,0,0,6.244-1.6,10.824,10.824,0,0,0,4.178,1.42,2,2,0,0,0,2.06-2.031" transform="translate(0 7.861)" fill="#030262" stroke="#030262" stroke-width="4"/>
            <path id="패스_1583" data-name="패스 1583" d="M7.651,11.617A4.161,4.161,0,1,0,3.49,7.455a4.161,4.161,0,0,0,4.161,4.161" transform="translate(2.172 2.05)" fill="#030262" stroke="#030262" stroke-width="4"/>
            <path id="패스_1584" data-name="패스 1584" d="M8.946,20.192A7.141,7.141,0,0,0,13.5,18.858l1.859-2.349,6.856-1.746a2.968,2.968,0,0,0,.446-.156c.324-.144,7.951-3.61,8.3-11.645a2.838,2.838,0,1,0-5.672-.245c-.174,4.036-3.886,6.17-4.749,6.613l-7.51,1.914a2.841,2.841,0,0,0-1.525.988L5.683,19.587a8.544,8.544,0,0,0,3.263.605" transform="translate(3.537 0.001)" fill="#030262" stroke="#030262" stroke-width="4"/>
          </g>
        </g>
        <g id="그룹_610" data-name="그룹 610" transform="translate(90 198.915)">
          <g id="그룹_609-2" data-name="그룹 609" transform="translate(0 0)" clip-path="url(#clip-path-2)">
            <path id="패스_1582-2" data-name="패스 1582" d="M37.45,16.593a2.081,2.081,0,0,0-1.707-2.043c-3.154-.578-2.958-1.918-4.525-1.918-1.627,0-2.028,2.067-6.254,2.067a7.252,7.252,0,0,1-4.77-1.47,2.047,2.047,0,0,0-1.458-.6c-1.609,0-2.054,2.067-6.254,2.067a7.276,7.276,0,0,1-4.773-1.468,2.051,2.051,0,0,0-1.46-.6,2.13,2.13,0,0,0-1.455.578C2.909,14.915,0,14.025,0,16.6a2.079,2.079,0,0,0,2.06,2.085A10.78,10.78,0,0,0,6.24,17.26a12.2,12.2,0,0,0,6.244,1.551,12.106,12.106,0,0,0,6.241-1.6,12.159,12.159,0,0,0,6.243,1.6,12.144,12.144,0,0,0,6.244-1.6,10.824,10.824,0,0,0,4.178,1.42,2,2,0,0,0,2.06-2.031" transform="translate(0 7.861)" fill="#fff"/>
            <path id="패스_1583-2" data-name="패스 1583" d="M7.651,11.617A4.161,4.161,0,1,0,3.49,7.455a4.161,4.161,0,0,0,4.161,4.161" transform="translate(2.172 2.05)" fill="#fff"/>
            <path id="패스_1584-2" data-name="패스 1584" d="M8.946,20.192A7.141,7.141,0,0,0,13.5,18.858l1.859-2.349,6.856-1.746a2.968,2.968,0,0,0,.446-.156c.324-.144,7.951-3.61,8.3-11.645a2.838,2.838,0,1,0-5.672-.245c-.174,4.036-3.886,6.17-4.749,6.613l-7.51,1.914a2.841,2.841,0,0,0-1.525.988L5.683,19.587a8.544,8.544,0,0,0,3.263.605" transform="translate(3.537 0.001)" fill="#fff"/>
          </g>
        </g>
        <text id="다이빙하기-3" data-name="다이빙하기" transform="translate(73 246.086)" fill="#fff" font-size="16" font-family="NanumSquareRoundOTFEB, NanumSquareRoundOTF" letter-spacing="-0.015em"><tspan x="0" y="0">다이빙하기</tspan></text>
        <g id="사각형_724" data-name="사각형 724" transform="translate(66 182)" fill="none" stroke="#01013a" stroke-width="3">
          <rect width="86" height="86" rx="14" stroke="none"/>
          <rect x="-1.5" y="-1.5" width="89" height="89" rx="15.5" fill="none"/>
        </g>
      </g>
    </g>
  </g>
</svg>
