<svg xmlns="http://www.w3.org/2000/svg" width="92" height="95" viewBox="0 0 92 95">
  <g id="먹이주기_default" transform="translate(-3730 -339)">
    <g id="그룹_797" data-name="그룹 797">
      <g id="사각형_823" data-name="사각형 823" transform="translate(3733 345)" fill="#3f5b65" stroke="#3f5b65" stroke-width="3">
        <rect width="86" height="86" rx="14" stroke="none"/>
        <rect x="-1.5" y="-1.5" width="89" height="89" rx="15.5" fill="none"/>
      </g>
      <g id="패스_1775" data-name="패스 1775" transform="translate(3736 345)" fill="#75cbbe">
        <path d="M 68 82 L 12 82 C 8.260470390319824 82 4.744752883911133 80.54373931884766 2.100505828857422 77.89949035644531 C -0.5437411665916443 75.2552490234375 -2 71.73954010009766 -2 68 L -2 12 C -2 8.260470390319824 -0.5437411665916443 4.744764804840088 2.100505828857422 2.100505828857422 C 4.744764804840088 -0.5437411665916443 8.260470390319824 -2 12 -2 L 68 -2 C 71.73954010009766 -2 75.2552490234375 -0.5437411665916443 77.89949035644531 2.100505828857422 C 80.54373931884766 4.744752883911133 82 8.260470390319824 82 12 L 82 68 C 82 71.73954010009766 80.54373931884766 75.2552490234375 77.89949035644531 77.89949035644531 C 75.2552490234375 80.54373931884766 71.73954010009766 82 68 82 Z" stroke="none"/>
        <path d="M 12 0 C 5.372589111328125 0 0 5.372589111328125 0 12 L 0 68 C 0 74.62741088867188 5.372589111328125 80 12 80 L 68 80 C 74.62741088867188 80 80 74.62741088867188 80 68 L 80 12 C 80 5.372589111328125 74.62741088867188 0 68 0 L 12 0 M 12 -4 L 68 -4 C 70.15822601318359 -4 72.25401306152344 -3.576416015625 74.22914123535156 -2.740997314453125 C 76.13490295410156 -1.934928894042969 77.84558868408203 -0.781829833984375 79.31371307373047 0.6862869262695312 C 80.78182983398438 2.154411315917969 81.93492889404297 3.865097045898438 82.74099731445312 5.770858764648438 C 83.576416015625 7.745986938476562 84 9.841773986816406 84 12 L 84 68 C 84 70.15822601318359 83.576416015625 72.25401306152344 82.74099731445312 74.22914123535156 C 81.93492889404297 76.13490295410156 80.78182983398438 77.84558868408203 79.31371307373047 79.31371307373047 C 77.84558868408203 80.78182983398438 76.13490295410156 81.93492889404297 74.22914123535156 82.74099731445312 C 72.25401306152344 83.576416015625 70.15822601318359 84 68 84 L 12 84 C 9.841773986816406 84 7.745986938476562 83.576416015625 5.770858764648438 82.74099731445312 C 3.865097045898438 81.93492889404297 2.154411315917969 80.78182983398438 0.6862869262695312 79.31371307373047 C -0.781829833984375 77.84558868408203 -1.934928894042969 76.13490295410156 -2.740997314453125 74.22914123535156 C -3.576416015625 72.25401306152344 -4 70.15822601318359 -4 68 L -4 12 C -4 9.841773986816406 -3.576416015625 7.745986938476562 -2.740997314453125 5.770858764648438 C -1.934928894042969 3.865097045898438 -0.781829833984375 2.154411315917969 0.6862869262695312 0.6862869262695312 C 2.154411315917969 -0.781829833984375 3.865097045898438 -1.934928894042969 5.770858764648438 -2.740997314453125 C 7.745986938476562 -3.576416015625 9.841773986816406 -4 12 -4 Z" stroke="none" fill="#aef7f1"/>
      </g>
      <text id="먹이주기" transform="translate(3747 406.086)" fill="#2a6572" stroke="#2a6572" stroke-width="4" font-size="16" font-family="NanumSquareRoundOTFEB, NanumSquareRoundOTF" letter-spacing="-0.015em"><tspan x="0" y="0">먹이주기</tspan></text>
      <text id="먹이주기-2" data-name="먹이주기" transform="translate(3747 406.086)" fill="#fff" font-size="16" font-family="NanumSquareRoundOTFEB, NanumSquareRoundOTF" letter-spacing="-0.015em"><tspan x="0" y="0">먹이주기</tspan></text>
      <g id="사각형_826" data-name="사각형 826" transform="translate(3733 342)" fill="none" stroke="#3f5b65" stroke-width="3">
        <rect width="86" height="86" rx="14" stroke="none"/>
        <rect x="-1.5" y="-1.5" width="89" height="89" rx="15.5" fill="none"/>
      </g>
      <g id="그룹_746" data-name="그룹 746" transform="translate(-512.607 -238.668)">
        <path id="패스_1771" data-name="패스 1771" d="M14.725,13.8a2.39,2.39,0,1,0-2.39-2.39,2.389,2.389,0,0,0,2.39,2.39" transform="translate(4265.646 590.229)" fill="#fff" stroke="#2a6572" stroke-width="4"/>
        <path id="패스_1772" data-name="패스 1772" d="M19.2,16.375a2.39,2.39,0,1,0-2.39-2.39,2.389,2.389,0,0,0,2.39,2.39" transform="translate(4267.364 591.217)" fill="#fff" stroke="#2a6572" stroke-width="4"/>
        <path id="패스_1773" data-name="패스 1773" d="M10.436,16.375a2.39,2.39,0,1,0-2.39-2.39,2.389,2.389,0,0,0,2.39,2.39" transform="translate(4264 591.217)" fill="#fff" stroke="#2a6572" stroke-width="4"/>
        <path id="패스_1774" data-name="패스 1774" d="M9.22,18.6l2.86,5.085a9.547,9.547,0,0,0,8.37,4.98A24.421,24.421,0,0,1,33.9,32.687a1.507,1.507,0,0,0,.637.212h.212a1.548,1.548,0,0,0,.635-.53l3.178-5.3a.964.964,0,0,0,0-1.06l-2.86-4.449a9.728,9.728,0,0,0-8.582-4.45H20.662a1.14,1.14,0,0,0-1.06,1.06v.105a3.264,3.264,0,0,0,3.285,3.073H24.9a1.059,1.059,0,0,1,0,2.118H21.722a6.268,6.268,0,0,1-4.768-2.118L16,20.08a7.278,7.278,0,0,0-5.932-2.967,1.114,1.114,0,0,0-.955.53,1,1,0,0,0,.107.953" transform="translate(4264.383 593.334)" fill="#fff" stroke="#2a6572" stroke-width="4"/>
      </g>
      <g id="그룹_747" data-name="그룹 747" transform="translate(-512.607 -238.668)">
        <path id="패스_1771-2" data-name="패스 1771" d="M14.725,13.8a2.39,2.39,0,1,0-2.39-2.39,2.389,2.389,0,0,0,2.39,2.39" transform="translate(4265.646 590.229)" fill="#fff"/>
        <path id="패스_1772-2" data-name="패스 1772" d="M19.2,16.375a2.39,2.39,0,1,0-2.39-2.39,2.389,2.389,0,0,0,2.39,2.39" transform="translate(4267.364 591.217)" fill="#fff"/>
        <path id="패스_1773-2" data-name="패스 1773" d="M10.436,16.375a2.39,2.39,0,1,0-2.39-2.39,2.389,2.389,0,0,0,2.39,2.39" transform="translate(4264 591.217)" fill="#fff"/>
        <path id="패스_1774-2" data-name="패스 1774" d="M9.22,18.6l2.86,5.085a9.547,9.547,0,0,0,8.37,4.98A24.421,24.421,0,0,1,33.9,32.687a1.507,1.507,0,0,0,.637.212h.212a1.548,1.548,0,0,0,.635-.53l3.178-5.3a.964.964,0,0,0,0-1.06l-2.86-4.449a9.728,9.728,0,0,0-8.582-4.45H20.662a1.14,1.14,0,0,0-1.06,1.06v.105a3.264,3.264,0,0,0,3.285,3.073H24.9a1.059,1.059,0,0,1,0,2.118H21.722a6.268,6.268,0,0,1-4.768-2.118L16,20.08a7.278,7.278,0,0,0-5.932-2.967,1.114,1.114,0,0,0-.955.53,1,1,0,0,0,.107.953" transform="translate(4264.383 593.334)" fill="#fff"/>
      </g>
    </g>
  </g>
</svg>
