<svg xmlns="http://www.w3.org/2000/svg" width="92" height="95" viewBox="0 0 92 95">
  <g id="물고기잡기_default" transform="translate(-3730 -223)">
    <g id="그룹_817" data-name="그룹 817">
      <g id="그룹_796" data-name="그룹 796">
        <g id="사각형_818" data-name="사각형 818" transform="translate(3733 229)" fill="#b3301a" stroke="#b3301a" stroke-width="3">
          <rect width="86" height="86" rx="14" stroke="none"/>
          <rect x="-1.5" y="-1.5" width="89" height="89" rx="15.5" fill="none"/>
        </g>
        <g id="사각형_719" data-name="사각형 719" transform="translate(3736 229)" fill="#e77b30" stroke="#f89f41" stroke-width="4">
          <rect width="80" height="80" rx="12" stroke="none"/>
          <rect x="-2" y="-2" width="84" height="84" rx="14" fill="none"/>
        </g>
        <text id="물고기잡기" transform="translate(3740 290.086)" fill="#b3301a" stroke="#b3301a" stroke-width="4" font-size="16" font-family="NanumSquareRoundOTFEB, NanumSquareRoundOTF" letter-spacing="-0.015em"><tspan x="0" y="0">물고기잡기</tspan></text>
        <text id="물고기잡기-2" data-name="물고기잡기" transform="translate(3740 290.086)" fill="#fff" font-size="16" font-family="NanumSquareRoundOTFEB, NanumSquareRoundOTF" letter-spacing="-0.015em"><tspan x="0" y="0">물고기잡기</tspan></text>
        <g id="사각형_724" data-name="사각형 724" transform="translate(3733 226)" fill="none" stroke="#b3301a" stroke-width="3">
          <rect width="86" height="86" rx="14" stroke="none"/>
          <rect x="-1.5" y="-1.5" width="89" height="89" rx="15.5" fill="none"/>
        </g>
        <g id="그룹_742" data-name="그룹 742" transform="translate(-113.024 -268)">
          <path id="패스_1768" data-name="패스 1768" d="M27.394,11.112c-4.917,0-9.211,3.892-11.6,7.223l-4.769-4.34c-.66-.66-1.65.036-1.484,1.034L11.1,22.476,9.543,29.921c-.166,1,.823,1.694,1.481,1.043l4.769-4.344c2.39,3.329,6.684,7.218,11.6,7.218,7.506,0,13.6-9.091,13.6-11.362S34.9,11.112,27.394,11.112M32.25,24.224A1.748,1.748,0,1,1,34,22.476a1.748,1.748,0,0,1-1.748,1.748" transform="translate(3865 502.726)" fill="#b3301a" stroke="#b3301a" stroke-width="4"/>
          <path id="패스_1767" data-name="패스 1767" d="M27.394,11.112c-4.917,0-9.211,3.892-11.6,7.223l-4.769-4.34c-.66-.66-1.65.036-1.484,1.034L11.1,22.476,9.543,29.921c-.166,1,.823,1.694,1.481,1.043l4.769-4.344c2.39,3.329,6.684,7.218,11.6,7.218,7.506,0,13.6-9.091,13.6-11.362S34.9,11.112,27.394,11.112M32.25,24.224A1.748,1.748,0,1,1,34,22.476a1.748,1.748,0,0,1-1.748,1.748" transform="translate(3865 502.726)" fill="#fff"/>
        </g>
      </g>
    </g>
  </g>
</svg>
