<svg xmlns="http://www.w3.org/2000/svg" xmlns:xlink="http://www.w3.org/1999/xlink" width="92" height="92" viewBox="0 0 92 92">
  <defs>
    <clipPath id="clip-path">
      <rect id="사각형_804" data-name="사각형 804" width="36.786" height="37.159" transform="translate(-4 -4)" fill="#a5224c" stroke="#a5224c" stroke-width="4"/>
    </clipPath>
    <clipPath id="clip-path-2">
      <rect id="사각형_804-2" data-name="사각형 804" width="28.786" height="29.159" fill="none"/>
    </clipPath>
  </defs>
  <g id="점프하기_click" transform="translate(-3841 6)">
    <g id="사각형_807" data-name="사각형 807" transform="translate(3847)" fill="#e04899" stroke="#ff8dcf" stroke-width="4">
      <rect width="80" height="80" rx="12" stroke="none"/>
      <rect x="-2" y="-2" width="84" height="84" rx="14" fill="none"/>
    </g>
    <text id="점프하기" transform="translate(3858 61.086)" fill="#a5224c" stroke="#a5224c" stroke-width="4" font-size="16" font-family="NanumSquareRoundOTFEB, NanumSquareRoundOTF" letter-spacing="-0.015em"><tspan x="0" y="0">점프하기</tspan></text>
    <text id="점프하기-2" data-name="점프하기" transform="translate(3858 61.086)" fill="#fff" font-size="16" font-family="NanumSquareRoundOTFEB, NanumSquareRoundOTF" letter-spacing="-0.015em"><tspan x="0" y="0">점프하기</tspan></text>
    <g id="사각형_806" data-name="사각형 806" transform="translate(3844 -3)" fill="none" stroke="#a5224c" stroke-width="3">
      <rect width="86" height="86" rx="14" stroke="none"/>
      <rect x="-1.5" y="-1.5" width="89" height="89" rx="15.5" fill="none"/>
    </g>
    <g id="그룹_732" data-name="그룹 732" transform="translate(3875.834 12.861)">
      <g id="그룹_729" data-name="그룹 729" transform="translate(0 0)" clip-path="url(#clip-path)">
        <path id="패스_1757" data-name="패스 1757" d="M27.463,11.864a2.316,2.316,0,0,0-3.277.036l-.981,1V10.636a10.635,10.635,0,1,0-21.271,0v7.9a2.317,2.317,0,1,0,4.635,0v-7.9a6,6,0,1,1,12,0v2.682L17.2,11.975a2.317,2.317,0,1,0-3.24,3.313l5.188,5.077a2.317,2.317,0,0,0,3.276-.036L27.5,15.141a2.318,2.318,0,0,0-.036-3.277" transform="translate(0.627 0.001)" fill="#a5224c" stroke="#a5224c" stroke-width="4"/>
        <path id="패스_1758" data-name="패스 1758" d="M20.451,18.52H14.433a2.317,2.317,0,0,0,0,4.635h6.017a2.317,2.317,0,1,0,0-4.635" transform="translate(3.928 6.005)" fill="#a5224c" stroke="#a5224c" stroke-width="4"/>
        <path id="패스_1759" data-name="패스 1759" d="M8.335,18.52H2.317a2.317,2.317,0,0,0,0,4.635H8.335a2.317,2.317,0,0,0,0-4.635" transform="translate(0 6.005)" fill="#a5224c" stroke="#a5224c" stroke-width="4"/>
      </g>
    </g>
    <g id="그룹_733" data-name="그룹 733" transform="translate(3875.834 12.861)">
      <g id="그룹_729-2" data-name="그룹 729" transform="translate(0 0)" clip-path="url(#clip-path-2)">
        <path id="패스_1757-2" data-name="패스 1757" d="M27.463,11.864a2.316,2.316,0,0,0-3.277.036l-.981,1V10.636a10.635,10.635,0,1,0-21.271,0v7.9a2.317,2.317,0,1,0,4.635,0v-7.9a6,6,0,1,1,12,0v2.682L17.2,11.975a2.317,2.317,0,1,0-3.24,3.313l5.188,5.077a2.317,2.317,0,0,0,3.276-.036L27.5,15.141a2.318,2.318,0,0,0-.036-3.277" transform="translate(0.627 0.001)" fill="#fff"/>
        <path id="패스_1758-2" data-name="패스 1758" d="M20.451,18.52H14.433a2.317,2.317,0,0,0,0,4.635h6.017a2.317,2.317,0,1,0,0-4.635" transform="translate(3.928 6.005)" fill="#fff"/>
        <path id="패스_1759-2" data-name="패스 1759" d="M8.335,18.52H2.317a2.317,2.317,0,0,0,0,4.635H8.335a2.317,2.317,0,0,0,0-4.635" transform="translate(0 6.005)" fill="#fff"/>
      </g>
    </g>
    <g id="사각형_808" data-name="사각형 808" transform="translate(3844 -3)" fill="#a5224c" stroke="#a5224c" stroke-width="3" opacity="0.501" style="mix-blend-mode: multiply;isolation: isolate">
      <rect width="86" height="86" rx="14" stroke="none"/>
      <rect x="-1.5" y="-1.5" width="89" height="89" rx="15.5" fill="none"/>
    </g>
  </g>
</svg>
