<svg xmlns="http://www.w3.org/2000/svg" xmlns:xlink="http://www.w3.org/1999/xlink" width="92" height="95" viewBox="0 0 92 95">
  <defs>
    <clipPath id="clip-path">
      <rect id="사각형_881" data-name="사각형 881" width="42.311" height="35.121" transform="translate(-6 -3)" fill="#1b3e0e" stroke="#1b3e0e" stroke-width="4"/>
    </clipPath>
    <clipPath id="clip-path-2">
      <rect id="사각형_881-2" data-name="사각형 881" width="32.311" height="29.121" fill="none"/>
    </clipPath>
  </defs>
  <g id="대문만들기_default" transform="translate(-3733 -1153)">
    <g id="그룹_778" data-name="그룹 778" transform="translate(-560 567)">
      <g id="사각형_873" data-name="사각형 873" transform="translate(4296 592)" fill="#1b3e0e" stroke="#1b3e0e" stroke-width="3">
        <rect width="86" height="86" rx="14" stroke="none"/>
        <rect x="-1.5" y="-1.5" width="89" height="89" rx="15.5" fill="none"/>
      </g>
      <g id="패스_1808" data-name="패스 1808" transform="translate(4299 592)" fill="#35731e">
        <path d="M 68 82 L 12 82 C 8.260470390319824 82 4.744752883911133 80.54373931884766 2.100505828857422 77.89949035644531 C -0.5437411665916443 75.2552490234375 -2 71.73954010009766 -2 68 L -2 12 C -2 8.260470390319824 -0.5437411665916443 4.744764804840088 2.100505828857422 2.100505828857422 C 4.744764804840088 -0.5437411665916443 8.260470390319824 -2 12 -2 L 68 -2 C 71.73954010009766 -2 75.2552490234375 -0.5437411665916443 77.89949035644531 2.100505828857422 C 80.54373931884766 4.744752883911133 82 8.260470390319824 82 12 L 82 68 C 82 71.73954010009766 80.54373931884766 75.2552490234375 77.89949035644531 77.89949035644531 C 75.2552490234375 80.54373931884766 71.73954010009766 82 68 82 Z" stroke="none"/>
        <path d="M 12 0 C 5.372589111328125 0 0 5.372589111328125 0 12 L 0 68 C 0 74.62741088867188 5.372589111328125 80 12 80 L 68 80 C 74.62741088867188 80 80 74.62741088867188 80 68 L 80 12 C 80 5.372589111328125 74.62741088867188 0 68 0 L 12 0 M 12 -4 L 68 -4 C 70.15822601318359 -4 72.25401306152344 -3.576416015625 74.22914123535156 -2.740997314453125 C 76.13490295410156 -1.934928894042969 77.84558868408203 -0.781829833984375 79.31371307373047 0.6862869262695312 C 80.78182983398438 2.154411315917969 81.93492889404297 3.865097045898438 82.74099731445312 5.770858764648438 C 83.576416015625 7.745986938476562 84 9.841773986816406 84 12 L 84 68 C 84 70.15822601318359 83.576416015625 72.25401306152344 82.74099731445312 74.22914123535156 C 81.93492889404297 76.13490295410156 80.78182983398438 77.84558868408203 79.31371307373047 79.31371307373047 C 77.84558868408203 80.78182983398438 76.13490295410156 81.93492889404297 74.22914123535156 82.74099731445312 C 72.25401306152344 83.576416015625 70.15822601318359 84 68 84 L 12 84 C 9.841773986816406 84 7.745986938476562 83.576416015625 5.770858764648438 82.74099731445312 C 3.865097045898438 81.93492889404297 2.154411315917969 80.78182983398438 0.6862869262695312 79.31371307373047 C -0.781829833984375 77.84558868408203 -1.934928894042969 76.13490295410156 -2.740997314453125 74.22914123535156 C -3.576416015625 72.25401306152344 -4 70.15822601318359 -4 68 L -4 12 C -4 9.841773986816406 -3.576416015625 7.745986938476562 -2.740997314453125 5.770858764648438 C -1.934928894042969 3.865097045898438 -0.781829833984375 2.154411315917969 0.6862869262695312 0.6862869262695312 C 2.154411315917969 -0.781829833984375 3.865097045898438 -1.934928894042969 5.770858764648438 -2.740997314453125 C 7.745986938476562 -3.576416015625 9.841773986816406 -4 12 -4 Z" stroke="none" fill="#4b9a2e"/>
      </g>
      <g id="사각형_874" data-name="사각형 874" transform="translate(4296 589)" fill="none" stroke="#1b3e0e" stroke-width="3">
        <rect width="86" height="86" rx="14" stroke="none"/>
        <rect x="-1.5" y="-1.5" width="89" height="89" rx="15.5" fill="none"/>
      </g>
      <g id="그룹_781" data-name="그룹 781" transform="translate(4323.345 605.879)">
        <g id="그룹_779" data-name="그룹 779" transform="translate(0 0)" clip-path="url(#clip-path)">
          <path id="패스_1810" data-name="패스 1810" d="M30.741,17.533h-1.62V14.822h-8.1v2.711H11.294V14.822H3.19v2.711H1.57a1.57,1.57,0,1,0,0,3.14H30.741a1.57,1.57,0,0,0,0-3.14" transform="translate(0 8.448)" fill="#1b3e0e" stroke="#1b3e0e" stroke-width="4"/>
          <rect id="사각형_877" data-name="사각형 877" width="8.103" height="6.2" transform="translate(3.192 15.5)" fill="#1b3e0e" stroke="#1b3e0e" stroke-width="4"/>
          <path id="패스_1811" data-name="패스 1811" d="M20.74,3.242A3.242,3.242,0,0,0,17.5,0H14.7V6.16H20.74Z" transform="translate(8.381 0)" fill="#1b3e0e" stroke="#1b3e0e" stroke-width="4"/>
          <rect id="사각형_878" data-name="사각형 878" width="3.63" height="6.2" transform="translate(21.017 15.5)" fill="#1b3e0e" stroke="#1b3e0e" stroke-width="4"/>
          <rect id="사각형_879" data-name="사각형 879" width="3.054" height="6.2" transform="translate(3.192 7.73)" fill="#1b3e0e" stroke="#1b3e0e" stroke-width="4"/>
          <path id="패스_1812" data-name="패스 1812" d="M20.356,0H5.274A3.241,3.241,0,0,0,2.032,3.242V6.16H20.356Z" transform="translate(1.158 0)" fill="#1b3e0e" stroke="#1b3e0e" stroke-width="4"/>
          <path id="패스_1813" data-name="패스 1813" d="M26.284,4.924H4.978v6.2H8.523a4.838,4.838,0,0,1,9.592,0h8.168Z" transform="translate(2.837 2.807)" fill="#1b3e0e" stroke="#1b3e0e" stroke-width="4"/>
          <rect id="사각형_880" data-name="사각형 880" width="2.904" height="6.2" transform="translate(26.217 15.5)" fill="#1b3e0e" stroke="#1b3e0e" stroke-width="4"/>
        </g>
      </g>
      <text id="대문만들기" transform="translate(4303.5 653.086)" fill="#1b3e0e" stroke="#1b3e0e" stroke-width="4" font-size="16" font-family="NanumSquareRoundOTFEB, NanumSquareRoundOTF" letter-spacing="-0.015em"><tspan x="0" y="0">대문만들기</tspan></text>
      <text id="대문만들기-2" data-name="대문만들기" transform="translate(4303.5 653.086)" fill="#fff" font-size="16" font-family="NanumSquareRoundOTFEB, NanumSquareRoundOTF" letter-spacing="-0.015em"><tspan x="0" y="0">대문만들기</tspan></text>
      <g id="그룹_780" data-name="그룹 780" transform="translate(4323.345 605.879)">
        <g id="그룹_779-2" data-name="그룹 779" transform="translate(0 0)" clip-path="url(#clip-path-2)">
          <path id="패스_1810-2" data-name="패스 1810" d="M30.741,17.533h-1.62V14.822h-8.1v2.711H11.294V14.822H3.19v2.711H1.57a1.57,1.57,0,1,0,0,3.14H30.741a1.57,1.57,0,0,0,0-3.14" transform="translate(0 8.448)" fill="#fff"/>
          <rect id="사각형_877-2" data-name="사각형 877" width="8.103" height="6.2" transform="translate(3.192 15.5)" fill="#fff"/>
          <path id="패스_1811-2" data-name="패스 1811" d="M20.74,3.242A3.242,3.242,0,0,0,17.5,0H14.7V6.16H20.74Z" transform="translate(8.381 0)" fill="#fff"/>
          <rect id="사각형_878-2" data-name="사각형 878" width="3.63" height="6.2" transform="translate(21.017 15.5)" fill="#fff"/>
          <rect id="사각형_879-2" data-name="사각형 879" width="3.054" height="6.2" transform="translate(3.192 7.73)" fill="#fff"/>
          <path id="패스_1812-2" data-name="패스 1812" d="M20.356,0H5.274A3.241,3.241,0,0,0,2.032,3.242V6.16H20.356Z" transform="translate(1.158 0)" fill="#fff"/>
          <path id="패스_1813-2" data-name="패스 1813" d="M26.284,4.924H4.978v6.2H8.523a4.838,4.838,0,0,1,9.592,0h8.168Z" transform="translate(2.837 2.807)" fill="#fff"/>
          <rect id="사각형_880-2" data-name="사각형 880" width="2.904" height="6.2" transform="translate(26.217 15.5)" fill="#fff"/>
        </g>
      </g>
    </g>
  </g>
</svg>
