<svg xmlns="http://www.w3.org/2000/svg" xmlns:xlink="http://www.w3.org/1999/xlink" width="95" height="95" viewBox="0 0 95 95">
  <defs>
    <clipPath id="clip-path">
      <rect id="사각형_869" data-name="사각형 869" width="43.567" height="34.107" transform="translate(-5 -4)" fill="#1b3e0e" stroke="#1b3e0e" stroke-linecap="round" stroke-linejoin="bevel" stroke-width="4"/>
    </clipPath>
    <clipPath id="clip-path-2">
      <rect id="사각형_869-2" data-name="사각형 869" width="33.567" height="26.107" fill="none"/>
    </clipPath>
  </defs>
  <g id="이글루고치기_default" transform="translate(-3732.5 -925)">
    <g id="사각형_866" data-name="사각형 866" transform="translate(3736 931)" fill="#1b3e0e" stroke="#1b3e0e" stroke-width="3">
      <rect width="86" height="86" rx="14" stroke="none"/>
      <rect x="-1.5" y="-1.5" width="89" height="89" rx="15.5" fill="none"/>
    </g>
    <g id="패스_1805" data-name="패스 1805" transform="translate(3739 931)" fill="#35731e">
      <path d="M 68 82 L 12 82 C 8.260470390319824 82 4.744752883911133 80.54373931884766 2.100505828857422 77.89949035644531 C -0.5437411665916443 75.2552490234375 -2 71.73954010009766 -2 68 L -2 12 C -2 8.260470390319824 -0.5437411665916443 4.744764804840088 2.100505828857422 2.100505828857422 C 4.744764804840088 -0.5437411665916443 8.260470390319824 -2 12 -2 L 68 -2 C 71.73954010009766 -2 75.2552490234375 -0.5437411665916443 77.89949035644531 2.100505828857422 C 80.54373931884766 4.744752883911133 82 8.260470390319824 82 12 L 82 68 C 82 71.73954010009766 80.54373931884766 75.2552490234375 77.89949035644531 77.89949035644531 C 75.2552490234375 80.54373931884766 71.73954010009766 82 68 82 Z" stroke="none"/>
      <path d="M 12 0 C 5.372589111328125 0 0 5.372589111328125 0 12 L 0 68 C 0 74.62741088867188 5.372589111328125 80 12 80 L 68 80 C 74.62741088867188 80 80 74.62741088867188 80 68 L 80 12 C 80 5.372589111328125 74.62741088867188 0 68 0 L 12 0 M 12 -4 L 68 -4 C 70.15822601318359 -4 72.25401306152344 -3.576416015625 74.22914123535156 -2.740997314453125 C 76.13490295410156 -1.934928894042969 77.84558868408203 -0.781829833984375 79.31371307373047 0.6862869262695312 C 80.78182983398438 2.154411315917969 81.93492889404297 3.865097045898438 82.74099731445312 5.770858764648438 C 83.576416015625 7.745986938476562 84 9.841773986816406 84 12 L 84 68 C 84 70.15822601318359 83.576416015625 72.25401306152344 82.74099731445312 74.22914123535156 C 81.93492889404297 76.13490295410156 80.78182983398438 77.84558868408203 79.31371307373047 79.31371307373047 C 77.84558868408203 80.78182983398438 76.13490295410156 81.93492889404297 74.22914123535156 82.74099731445312 C 72.25401306152344 83.576416015625 70.15822601318359 84 68 84 L 12 84 C 9.841773986816406 84 7.745986938476562 83.576416015625 5.770858764648438 82.74099731445312 C 3.865097045898438 81.93492889404297 2.154411315917969 80.78182983398438 0.6862869262695312 79.31371307373047 C -0.781829833984375 77.84558868408203 -1.934928894042969 76.13490295410156 -2.740997314453125 74.22914123535156 C -3.576416015625 72.25401306152344 -4 70.15822601318359 -4 68 L -4 12 C -4 9.841773986816406 -3.576416015625 7.745986938476562 -2.740997314453125 5.770858764648438 C -1.934928894042969 3.865097045898438 -0.781829833984375 2.154411315917969 0.6862869262695312 0.6862869262695312 C 2.154411315917969 -0.781829833984375 3.865097045898438 -1.934928894042969 5.770858764648438 -2.740997314453125 C 7.745986938476562 -3.576416015625 9.841773986816406 -4 12 -4 Z" stroke="none" fill="#4b9a2e"/>
    </g>
    <g id="사각형_868" data-name="사각형 868" transform="translate(3736 928)" fill="none" stroke="#1b3e0e" stroke-width="3">
      <rect width="86" height="86" rx="14" stroke="none"/>
      <rect x="-1.5" y="-1.5" width="89" height="89" rx="15.5" fill="none"/>
    </g>
    <text id="이글루고치기" transform="translate(3736.5 992.086)" fill="#1b3e0e" stroke="#1b3e0e" stroke-width="4" font-size="16" font-family="NanumSquareRoundOTFEB, NanumSquareRoundOTF" letter-spacing="-0.015em"><tspan x="0" y="0">이글루고치기</tspan></text>
    <text id="이글루고치기-2" data-name="이글루고치기" transform="translate(3736 992.086)" fill="#fff" font-size="16" font-family="NanumSquareRoundOTFEB, NanumSquareRoundOTF" letter-spacing="-0.015em"><tspan x="0" y="0">이글루고치기</tspan></text>
    <g id="그룹_769" data-name="그룹 769" transform="translate(3762 945.893)">
      <g id="그룹_768" data-name="그룹 768" transform="translate(0 0)" clip-path="url(#clip-path)">
        <path id="패스_1806" data-name="패스 1806" d="M18.648.109A17.325,17.325,0,0,0,16.784,0,16.83,16.83,0,0,0,2.833,7.406H18.648Zm1.864.32V7.457H30.734A16.754,16.754,0,0,0,20.513.429m7.46,16.3h5.542a16.779,16.779,0,0,0-1.763-7.46H27.973ZM5.6,9.271H1.763A16.785,16.785,0,0,0,0,16.731H5.6Zm17.715,7.512,2.8-.052V9.271H7.46v7.406l2.8.106v1.864L0,18.595v4.714a2.8,2.8,0,0,0,2.8,2.8l9.324,0V17.983A4.845,4.845,0,0,1,16.3,13.078a4.663,4.663,0,0,1,5.143,4.637v8.34l9.323.052a2.8,2.8,0,0,0,2.8-2.8V18.647H23.311Z" transform="translate(0 0)" fill="#1b3e0e" stroke="#1b3e0e" stroke-linecap="round" stroke-linejoin="bevel" stroke-width="4"/>
      </g>
    </g>
    <g id="그룹_770" data-name="그룹 770" transform="translate(3762 945.893)">
      <g id="그룹_768-2" data-name="그룹 768" transform="translate(0 0)" clip-path="url(#clip-path-2)">
        <path id="패스_1806-2" data-name="패스 1806" d="M18.648.109A17.325,17.325,0,0,0,16.784,0,16.83,16.83,0,0,0,2.833,7.406H18.648Zm1.864.32V7.457H30.734A16.754,16.754,0,0,0,20.513.429m7.46,16.3h5.542a16.779,16.779,0,0,0-1.763-7.46H27.973ZM5.6,9.271H1.763A16.785,16.785,0,0,0,0,16.731H5.6Zm17.715,7.512,2.8-.052V9.271H7.46v7.406l2.8.106v1.864L0,18.595v4.714a2.8,2.8,0,0,0,2.8,2.8l9.324,0V17.983A4.845,4.845,0,0,1,16.3,13.078a4.663,4.663,0,0,1,5.143,4.637v8.34l9.323.052a2.8,2.8,0,0,0,2.8-2.8V18.647H23.311Z" transform="translate(0 0)" fill="#fff"/>
      </g>
    </g>
  </g>
</svg>
