<svg xmlns="http://www.w3.org/2000/svg" xmlns:xlink="http://www.w3.org/1999/xlink" width="92" height="92" viewBox="0 0 92 92">
  <defs>
    <clipPath id="clip-path">
      <rect id="사각형_884" data-name="사각형 884" width="56.542" height="31.314" transform="translate(-7 -4)" fill="none" stroke="#54005b" stroke-width="4"/>
    </clipPath>
    <clipPath id="clip-path-2">
      <rect id="사각형_884-2" data-name="사각형 884" width="56.542" height="31.314" transform="translate(-7 -4)" fill="none"/>
    </clipPath>
  </defs>
  <g id="소리치기_click" transform="translate(-3856 -1268)">
    <g id="그룹_789" data-name="그룹 789" transform="translate(-437 682)">
      <g id="패스_1808" data-name="패스 1808" transform="translate(4299 592)" fill="#ad008f">
        <path d="M 68 82 L 12 82 C 8.260470390319824 82 4.744752883911133 80.54373931884766 2.100505828857422 77.89949035644531 C -0.5437411665916443 75.2552490234375 -2 71.73954010009766 -2 68 L -2 12 C -2 8.260470390319824 -0.5437411665916443 4.744764804840088 2.100505828857422 2.100505828857422 C 4.744764804840088 -0.5437411665916443 8.260470390319824 -2 12 -2 L 68 -2 C 71.73954010009766 -2 75.2552490234375 -0.5437411665916443 77.89949035644531 2.100505828857422 C 80.54373931884766 4.744752883911133 82 8.260470390319824 82 12 L 82 68 C 82 71.73954010009766 80.54373931884766 75.2552490234375 77.89949035644531 77.89949035644531 C 75.2552490234375 80.54373931884766 71.73954010009766 82 68 82 Z" stroke="none"/>
        <path d="M 12 0 C 5.372589111328125 0 0 5.372589111328125 0 12 L 0 68 C 0 74.62741088867188 5.372589111328125 80 12 80 L 68 80 C 74.62741088867188 80 80 74.62741088867188 80 68 L 80 12 C 80 5.372589111328125 74.62741088867188 0 68 0 L 12 0 M 12 -4 L 68 -4 C 70.15822601318359 -4 72.25401306152344 -3.576416015625 74.22914123535156 -2.740997314453125 C 76.13490295410156 -1.934928894042969 77.84558868408203 -0.781829833984375 79.31371307373047 0.6862869262695312 C 80.78182983398438 2.154411315917969 81.93492889404297 3.865097045898438 82.74099731445312 5.770858764648438 C 83.576416015625 7.745986938476562 84 9.841773986816406 84 12 L 84 68 C 84 70.15822601318359 83.576416015625 72.25401306152344 82.74099731445312 74.22914123535156 C 81.93492889404297 76.13490295410156 80.78182983398438 77.84558868408203 79.31371307373047 79.31371307373047 C 77.84558868408203 80.78182983398438 76.13490295410156 81.93492889404297 74.22914123535156 82.74099731445312 C 72.25401306152344 83.576416015625 70.15822601318359 84 68 84 L 12 84 C 9.841773986816406 84 7.745986938476562 83.576416015625 5.770858764648438 82.74099731445312 C 3.865097045898438 81.93492889404297 2.154411315917969 80.78182983398438 0.6862869262695312 79.31371307373047 C -0.781829833984375 77.84558868408203 -1.934928894042969 76.13490295410156 -2.740997314453125 74.22914123535156 C -3.576416015625 72.25401306152344 -4 70.15822601318359 -4 68 L -4 12 C -4 9.841773986816406 -3.576416015625 7.745986938476562 -2.740997314453125 5.770858764648438 C -1.934928894042969 3.865097045898438 -0.781829833984375 2.154411315917969 0.6862869262695312 0.6862869262695312 C 2.154411315917969 -0.781829833984375 3.865097045898438 -1.934928894042969 5.770858764648438 -2.740997314453125 C 7.745986938476562 -3.576416015625 9.841773986816406 -4 12 -4 Z" stroke="none" fill="#cf20c1"/>
      </g>
      <g id="사각형_874" data-name="사각형 874" transform="translate(4296 589)" fill="none" stroke="#54005b" stroke-width="3">
        <rect width="86" height="86" rx="14" stroke="none"/>
        <rect x="-1.5" y="-1.5" width="89" height="89" rx="15.5" fill="none"/>
      </g>
      <text id="소리치기" transform="translate(4310 653.086)" fill="#1b3e0e" stroke="#54005b" stroke-width="4" font-size="16" font-family="NanumSquareRoundOTFEB, NanumSquareRoundOTF" letter-spacing="-0.015em"><tspan x="0" y="0">소리치기</tspan></text>
      <text id="소리치기-2" data-name="소리치기" transform="translate(4310 653.086)" fill="#fff" font-size="16" font-family="NanumSquareRoundOTFEB, NanumSquareRoundOTF" letter-spacing="-0.015em"><tspan x="0" y="0">소리치기</tspan></text>
    </g>
    <g id="그룹_790" data-name="그룹 790" transform="translate(3883 1289.686)">
      <g id="그룹_785" data-name="그룹 785" transform="translate(0 0)" clip-path="url(#clip-path)">
        <path id="패스_1814" data-name="패스 1814" d="M31.473,0a1.165,1.165,0,0,0-1.165,1.165V3.019L27.347,5.98a3.5,3.5,0,0,1-2.47,1.025H23.314V5.828a1.166,1.166,0,0,0-2.332,0V6.994h-2.33V5.828a1.166,1.166,0,0,0-2.332,0V6.994h-2.33V5.828a1.166,1.166,0,0,0-2.332,0V6.994H2.332V5.828A1.166,1.166,0,0,0,0,5.828V17.484a1.166,1.166,0,1,0,2.332,0V16.319H6.994v3.5A1.165,1.165,0,0,0,8.16,20.982H19.816a1.165,1.165,0,0,0,1.165-1.165v-3.5h3.895a3.5,3.5,0,0,1,2.47,1.027l2.961,2.948v1.854a1.165,1.165,0,0,0,2.33,0V1.165A1.165,1.165,0,0,0,31.473,0M18.651,18.651H9.326V16.319h9.325Z" transform="translate(0 0)" fill="#fff" stroke="#54005b" stroke-width="4"/>
        <path id="패스_1815" data-name="패스 1815" d="M27.472,9.462H23.7a1.609,1.609,0,1,1,0-3.219h3.772a1.609,1.609,0,1,1,0,3.219" transform="translate(13.461 3.804)" fill="#fff" stroke="#54005b" stroke-width="4"/>
        <path id="패스_1816" data-name="패스 1816" d="M23.706,7.051A1.609,1.609,0,0,1,22.568,4.3l2.667-2.667A1.609,1.609,0,0,1,27.51,3.912L24.843,6.579a1.6,1.6,0,0,1-1.138.472" transform="translate(13.465 0.71)" fill="#fff" stroke="#54005b" stroke-width="4"/>
        <path id="패스_1817" data-name="패스 1817" d="M26.372,15.55a1.6,1.6,0,0,1-1.138-.472l-2.667-2.667a1.609,1.609,0,1,1,2.276-2.276L27.51,12.8a1.609,1.609,0,0,1-1.138,2.747" transform="translate(13.465 5.889)" fill="#fff" stroke="#54005b" stroke-width="4"/>
      </g>
    </g>
    <g id="그룹_791" data-name="그룹 791" transform="translate(3883 1289.686)">
      <g id="그룹_785-2" data-name="그룹 785" transform="translate(0 0)" clip-path="url(#clip-path-2)">
        <path id="패스_1814-2" data-name="패스 1814" d="M31.473,0a1.165,1.165,0,0,0-1.165,1.165V3.019L27.347,5.98a3.5,3.5,0,0,1-2.47,1.025H23.314V5.828a1.166,1.166,0,0,0-2.332,0V6.994h-2.33V5.828a1.166,1.166,0,0,0-2.332,0V6.994h-2.33V5.828a1.166,1.166,0,0,0-2.332,0V6.994H2.332V5.828A1.166,1.166,0,0,0,0,5.828V17.484a1.166,1.166,0,1,0,2.332,0V16.319H6.994v3.5A1.165,1.165,0,0,0,8.16,20.982H19.816a1.165,1.165,0,0,0,1.165-1.165v-3.5h3.895a3.5,3.5,0,0,1,2.47,1.027l2.961,2.948v1.854a1.165,1.165,0,0,0,2.33,0V1.165A1.165,1.165,0,0,0,31.473,0M18.651,18.651H9.326V16.319h9.325Z" transform="translate(0 0)" fill="#fff"/>
        <path id="패스_1815-2" data-name="패스 1815" d="M27.472,9.462H23.7a1.609,1.609,0,1,1,0-3.219h3.772a1.609,1.609,0,1,1,0,3.219" transform="translate(13.461 3.804)" fill="#fff"/>
        <path id="패스_1816-2" data-name="패스 1816" d="M23.706,7.051A1.609,1.609,0,0,1,22.568,4.3l2.667-2.667A1.609,1.609,0,0,1,27.51,3.912L24.843,6.579a1.6,1.6,0,0,1-1.138.472" transform="translate(13.465 0.71)" fill="#fff"/>
        <path id="패스_1817-2" data-name="패스 1817" d="M26.372,15.55a1.6,1.6,0,0,1-1.138-.472l-2.667-2.667a1.609,1.609,0,1,1,2.276-2.276L27.51,12.8a1.609,1.609,0,0,1-1.138,2.747" transform="translate(13.465 5.889)" fill="#fff"/>
      </g>
    </g>
    <g id="사각형_885" data-name="사각형 885" transform="translate(3859 1271)" fill="#54025b" stroke="#54025b" stroke-width="3" opacity="0.501" style="mix-blend-mode: multiply;isolation: isolate">
      <rect width="86" height="86" rx="14" stroke="none"/>
      <rect x="-1.5" y="-1.5" width="89" height="89" rx="15.5" fill="none"/>
    </g>
  </g>
</svg>
