<svg xmlns="http://www.w3.org/2000/svg" xmlns:xlink="http://www.w3.org/1999/xlink" width="92" height="92" viewBox="0 0 92 92">
  <defs>
    <clipPath id="clip-path">
      <rect id="사각형_875" data-name="사각형 875" width="34.694" height="39.94" transform="translate(-3 -4)" fill="#1b3e0e" stroke="#1b3e0e" stroke-linecap="round" stroke-width="4"/>
    </clipPath>
    <clipPath id="clip-path-2">
      <rect id="사각형_875-2" data-name="사각형 875" width="28.694" height="31.94" fill="none"/>
    </clipPath>
  </defs>
  <g id="얼음다듬기_click" transform="translate(-3856 -1041)">
    <g id="그룹_777" data-name="그룹 777" transform="translate(-437 455)">
      <g id="패스_1808" data-name="패스 1808" transform="translate(4299 592)" fill="#35731e">
        <path d="M 68 82 L 12 82 C 8.260470390319824 82 4.744752883911133 80.54373931884766 2.100505828857422 77.89949035644531 C -0.5437411665916443 75.2552490234375 -2 71.73954010009766 -2 68 L -2 12 C -2 8.260470390319824 -0.5437411665916443 4.744764804840088 2.100505828857422 2.100505828857422 C 4.744764804840088 -0.5437411665916443 8.260470390319824 -2 12 -2 L 68 -2 C 71.73954010009766 -2 75.2552490234375 -0.5437411665916443 77.89949035644531 2.100505828857422 C 80.54373931884766 4.744752883911133 82 8.260470390319824 82 12 L 82 68 C 82 71.73954010009766 80.54373931884766 75.2552490234375 77.89949035644531 77.89949035644531 C 75.2552490234375 80.54373931884766 71.73954010009766 82 68 82 Z" stroke="none"/>
        <path d="M 12 0 C 5.372589111328125 0 0 5.372589111328125 0 12 L 0 68 C 0 74.62741088867188 5.372589111328125 80 12 80 L 68 80 C 74.62741088867188 80 80 74.62741088867188 80 68 L 80 12 C 80 5.372589111328125 74.62741088867188 0 68 0 L 12 0 M 12 -4 L 68 -4 C 70.15822601318359 -4 72.25401306152344 -3.576416015625 74.22914123535156 -2.740997314453125 C 76.13490295410156 -1.934928894042969 77.84558868408203 -0.781829833984375 79.31371307373047 0.6862869262695312 C 80.78182983398438 2.154411315917969 81.93492889404297 3.865097045898438 82.74099731445312 5.770858764648438 C 83.576416015625 7.745986938476562 84 9.841773986816406 84 12 L 84 68 C 84 70.15822601318359 83.576416015625 72.25401306152344 82.74099731445312 74.22914123535156 C 81.93492889404297 76.13490295410156 80.78182983398438 77.84558868408203 79.31371307373047 79.31371307373047 C 77.84558868408203 80.78182983398438 76.13490295410156 81.93492889404297 74.22914123535156 82.74099731445312 C 72.25401306152344 83.576416015625 70.15822601318359 84 68 84 L 12 84 C 9.841773986816406 84 7.745986938476562 83.576416015625 5.770858764648438 82.74099731445312 C 3.865097045898438 81.93492889404297 2.154411315917969 80.78182983398438 0.6862869262695312 79.31371307373047 C -0.781829833984375 77.84558868408203 -1.934928894042969 76.13490295410156 -2.740997314453125 74.22914123535156 C -3.576416015625 72.25401306152344 -4 70.15822601318359 -4 68 L -4 12 C -4 9.841773986816406 -3.576416015625 7.745986938476562 -2.740997314453125 5.770858764648438 C -1.934928894042969 3.865097045898438 -0.781829833984375 2.154411315917969 0.6862869262695312 0.6862869262695312 C 2.154411315917969 -0.781829833984375 3.865097045898438 -1.934928894042969 5.770858764648438 -2.740997314453125 C 7.745986938476562 -3.576416015625 9.841773986816406 -4 12 -4 Z" stroke="none" fill="#4b9a2e"/>
      </g>
      <g id="사각형_874" data-name="사각형 874" transform="translate(4296 589)" fill="none" stroke="#1b3e0e" stroke-width="3">
        <rect width="86" height="86" rx="14" stroke="none"/>
        <rect x="-1.5" y="-1.5" width="89" height="89" rx="15.5" fill="none"/>
      </g>
      <text id="얼음다듬기" transform="translate(4303.5 653.086)" fill="#1b3e0e" stroke="#1b3e0e" stroke-width="4" font-size="16" font-family="NanumSquareRoundOTFEB, NanumSquareRoundOTF" letter-spacing="-0.015em"><tspan x="0" y="0">얼음다듬기</tspan></text>
      <text id="얼음다듬기-2" data-name="얼음다듬기" transform="translate(4303.5 653.086)" fill="#fff" font-size="16" font-family="NanumSquareRoundOTFEB, NanumSquareRoundOTF" letter-spacing="-0.015em"><tspan x="0" y="0">얼음다듬기</tspan></text>
      <g id="그룹_774" data-name="그룹 774" transform="translate(4325.153 604.06)">
        <g id="그룹_773" data-name="그룹 773" transform="translate(0 -0.001)" clip-path="url(#clip-path)">
          <path id="패스_1809" data-name="패스 1809" d="M25.579.14,27.5,1.258a1.036,1.036,0,0,1,.5.743l.675,4.587a1.032,1.032,0,0,1-.871,1.173,1.009,1.009,0,0,1-.233.008L26,7.641a1.035,1.035,0,0,0-1.113.948,1,1,0,0,0,.021.307l.521,2.354a1.033,1.033,0,0,1-.785,1.232,1.065,1.065,0,0,1-.293.023L22.79,12.4a1.034,1.034,0,0,0-1.1.961,1.08,1.08,0,0,0,.023.295l.527,2.36a1.034,1.034,0,0,1-.784,1.234,1.091,1.091,0,0,1-.3.023l-1.732-.122a1.027,1.027,0,0,0-1.1,1.11l.146,1.89a1.034,1.034,0,0,1-.951,1.11,1.045,1.045,0,0,1-.153,0l-1.911-.137a1.034,1.034,0,0,0-1.106.957,1.28,1.28,0,0,0,0,.152l.144,1.9a1.034,1.034,0,0,1-.954,1.107.854.854,0,0,1-.152,0l-.91-.066a.607.607,0,0,0-.65.563.581.581,0,0,0,0,.1.259.259,0,0,1-.232.283.255.255,0,0,1-.208-.075L5.72,20.374a1.035,1.035,0,0,1,0-1.462L24.329.3A1.034,1.034,0,0,1,25.579.14M4.259,21.835,9.618,27.2a1.031,1.031,0,0,1,.146,1.279L8.2,30.968a2.066,2.066,0,0,1-2.848.657,2.01,2.01,0,0,1-.366-.292L.606,26.95a2.066,2.066,0,0,1,0-2.923L2.8,21.835a1.033,1.033,0,0,1,1.461,0M4,24.5a1.033,1.033,0,1,0-1.461,1.461L5.9,29.324a1.033,1.033,0,1,0,1.461-1.461Z" transform="translate(0 0.001)" fill="#1b3e0e" stroke="#1b3e0e" stroke-linecap="round" stroke-width="4" fill-rule="evenodd"/>
        </g>
      </g>
      <g id="그룹_775" data-name="그룹 775" transform="translate(4325.153 604.06)">
        <g id="그룹_773-2" data-name="그룹 773" transform="translate(0 -0.001)" clip-path="url(#clip-path-2)">
          <path id="패스_1809-2" data-name="패스 1809" d="M25.579.14,27.5,1.258a1.036,1.036,0,0,1,.5.743l.675,4.587a1.032,1.032,0,0,1-.871,1.173,1.009,1.009,0,0,1-.233.008L26,7.641a1.035,1.035,0,0,0-1.113.948,1,1,0,0,0,.021.307l.521,2.354a1.033,1.033,0,0,1-.785,1.232,1.065,1.065,0,0,1-.293.023L22.79,12.4a1.034,1.034,0,0,0-1.1.961,1.08,1.08,0,0,0,.023.295l.527,2.36a1.034,1.034,0,0,1-.784,1.234,1.091,1.091,0,0,1-.3.023l-1.732-.122a1.027,1.027,0,0,0-1.1,1.11l.146,1.89a1.034,1.034,0,0,1-.951,1.11,1.045,1.045,0,0,1-.153,0l-1.911-.137a1.034,1.034,0,0,0-1.106.957,1.28,1.28,0,0,0,0,.152l.144,1.9a1.034,1.034,0,0,1-.954,1.107.854.854,0,0,1-.152,0l-.91-.066a.607.607,0,0,0-.65.563.581.581,0,0,0,0,.1.259.259,0,0,1-.232.283.255.255,0,0,1-.208-.075L5.72,20.374a1.035,1.035,0,0,1,0-1.462L24.329.3A1.034,1.034,0,0,1,25.579.14M4.259,21.835,9.618,27.2a1.031,1.031,0,0,1,.146,1.279L8.2,30.968a2.066,2.066,0,0,1-2.848.657,2.01,2.01,0,0,1-.366-.292L.606,26.95a2.066,2.066,0,0,1,0-2.923L2.8,21.835a1.033,1.033,0,0,1,1.461,0M4,24.5a1.033,1.033,0,1,0-1.461,1.461L5.9,29.324a1.033,1.033,0,1,0,1.461-1.461Z" transform="translate(0 0.001)" fill="#fff" fill-rule="evenodd"/>
        </g>
      </g>
    </g>
    <g id="사각형_876" data-name="사각형 876" transform="translate(3859 1044)" fill="#1b3e0e" stroke="#1b3e0e" stroke-width="3" opacity="0.501" style="mix-blend-mode: multiply;isolation: isolate">
      <rect width="86" height="86" rx="14" stroke="none"/>
      <rect x="-1.5" y="-1.5" width="89" height="89" rx="15.5" fill="none"/>
    </g>
  </g>
</svg>
