<svg xmlns="http://www.w3.org/2000/svg" xmlns:xlink="http://www.w3.org/1999/xlink" width="92" height="95" viewBox="0 0 92 95">
  <defs>
    <clipPath id="clip-path">
      <rect id="사각형_852" data-name="사각형 852" width="32.91" height="39.963" transform="translate(-3 -4)" fill="#161616" stroke="#161616" stroke-width="4"/>
    </clipPath>
    <clipPath id="clip-path-2">
      <rect id="사각형_852-2" data-name="사각형 852" width="26.91" height="31.963" fill="rgba(0,0,0,0)"/>
    </clipPath>
  </defs>
  <g id="시동끄기_default" transform="translate(-3733 -806)">
    <g id="사각형_859" data-name="사각형 859" transform="translate(3736 812)" fill="#161616" stroke="#161616" stroke-width="3">
      <rect width="86" height="86" rx="14" stroke="none"/>
      <rect x="-1.5" y="-1.5" width="89" height="89" rx="15.5" fill="none"/>
    </g>
    <g id="사각형_860" data-name="사각형 860" transform="translate(3739 812)" fill="#2e2e2e" stroke="#4d4d4d" stroke-width="4">
      <rect width="80" height="80" rx="12" stroke="none"/>
      <rect x="-2" y="-2" width="84" height="84" rx="14" fill="none"/>
    </g>
    <text id="시동끄기" transform="translate(3750 873.086)" fill="#161616" stroke="#161616" stroke-width="4" font-size="16" font-family="NanumSquareRoundOTFEB, NanumSquareRoundOTF" letter-spacing="-0.015em"><tspan x="0" y="0">시동끄기</tspan></text>
    <text id="시동끄기-2" data-name="시동끄기" transform="translate(3750 873.086)" fill="#fff" font-size="16" font-family="NanumSquareRoundOTFEB, NanumSquareRoundOTF" letter-spacing="-0.015em"><tspan x="0" y="0">시동끄기</tspan></text>
    <g id="사각형_861" data-name="사각형 861" transform="translate(3736 809)" fill="none" stroke="#161616" stroke-width="3">
      <rect width="86" height="86" rx="14" stroke="none"/>
      <rect x="-1.5" y="-1.5" width="89" height="89" rx="15.5" fill="none"/>
    </g>
    <g id="그룹_766" data-name="그룹 766" transform="translate(-488.859 502.882)">
      <g id="그룹_765" data-name="그룹 765" transform="translate(4254.404 319.037)">
        <g id="그룹_754" data-name="그룹 754" transform="translate(0 0)" clip-path="url(#clip-path)">
          <path id="패스_1797" data-name="패스 1797" d="M12.772,13.071a1.452,1.452,0,0,0,1.452-1.452V1.453a1.452,1.452,0,1,0-2.9,0V11.619a1.451,1.451,0,0,0,1.453,1.452m6.7-10.038a1.453,1.453,0,0,0-1.789,2.289,7.986,7.986,0,1,1-9.828,0A1.453,1.453,0,0,0,6.068,3.03a10.894,10.894,0,1,0,13.407,0" transform="translate(0.452 0)" fill="#161616" stroke="#161616" stroke-width="4"/>
          <path id="패스_1798" data-name="패스 1798" d="M9.633,23.332v.406c0,2.411-1.109,3.433-3.034,3.433s-3.036-1.022-3.036-3.433v-.406c0-2.411,1.109-3.433,3.036-3.433s3.034,1.022,3.034,3.433m-4.791.1v.208c0,1.794.594,2.37,1.757,2.37s1.755-.576,1.755-2.37v-.208c0-1.8-.6-2.371-1.755-2.371s-1.757.576-1.757,2.371" transform="translate(0.858 4.792)" fill="#161616" stroke="#161616" stroke-width="4"/>
          <path id="패스_1799" data-name="패스 1799" d="M13.754,19.987c.308,0,.445.248.445.536s-.138.535-.445.535H10.807v2h2.738c.308,0,.445.248.445.535s-.138.536-.445.536H10.807v2.431c0,.377-.3.545-.635.545s-.634-.168-.634-.545V20.811c0-.625.208-.824.843-.824Z" transform="translate(2.297 4.813)" fill="#161616" stroke="#161616" stroke-width="4"/>
          <path id="패스_1800" data-name="패스 1800" d="M18.4,19.987c.308,0,.445.248.445.536s-.138.535-.445.535H15.456v2h2.738c.308,0,.445.248.445.535s-.138.536-.445.536H15.456v2.431c0,.377-.3.545-.635.545s-.634-.168-.634-.545V20.811c0-.625.208-.824.843-.824Z" transform="translate(3.416 4.813)" fill="#161616" stroke="#161616" stroke-width="4"/>
        </g>
      </g>
      <g id="그룹_755" data-name="그룹 755" transform="translate(4254.404 319.037)">
        <g id="그룹_754-2" data-name="그룹 754" transform="translate(0 0)" clip-path="url(#clip-path-2)">
          <path id="패스_1797-2" data-name="패스 1797" d="M12.772,13.071a1.452,1.452,0,0,0,1.452-1.452V1.453a1.452,1.452,0,1,0-2.9,0V11.619a1.451,1.451,0,0,0,1.453,1.452m6.7-10.038a1.453,1.453,0,0,0-1.789,2.289,7.986,7.986,0,1,1-9.828,0A1.453,1.453,0,0,0,6.068,3.03a10.894,10.894,0,1,0,13.407,0" transform="translate(0.452 0)" fill="#fff"/>
          <path id="패스_1798-2" data-name="패스 1798" d="M9.633,23.332v.406c0,2.411-1.109,3.433-3.034,3.433s-3.036-1.022-3.036-3.433v-.406c0-2.411,1.109-3.433,3.036-3.433s3.034,1.022,3.034,3.433m-4.791.1v.208c0,1.794.594,2.37,1.757,2.37s1.755-.576,1.755-2.37v-.208c0-1.8-.6-2.371-1.755-2.371s-1.757.576-1.757,2.371" transform="translate(0.858 4.792)" fill="#fff"/>
          <path id="패스_1799-2" data-name="패스 1799" d="M13.754,19.987c.308,0,.445.248.445.536s-.138.535-.445.535H10.807v2h2.738c.308,0,.445.248.445.535s-.138.536-.445.536H10.807v2.431c0,.377-.3.545-.635.545s-.634-.168-.634-.545V20.811c0-.625.208-.824.843-.824Z" transform="translate(2.297 4.813)" fill="#fff"/>
          <path id="패스_1800-2" data-name="패스 1800" d="M18.4,19.987c.308,0,.445.248.445.536s-.138.535-.445.535H15.456v2h2.738c.308,0,.445.248.445.535s-.138.536-.445.536H15.456v2.431c0,.377-.3.545-.635.545s-.634-.168-.634-.545V20.811c0-.625.208-.824.843-.824Z" transform="translate(3.416 4.813)" fill="#fff"/>
          <path id="패스_1801" data-name="패스 1801" d="M2.673,23.345a2.172,2.172,0,0,1-1.407-3.827L22.59,1.4a2.172,2.172,0,0,1,3.571,1.833A2.148,2.148,0,0,1,25.4,4.709L4.078,22.827a2.175,2.175,0,0,1-1.406.517" transform="translate(0.12 0.213)" fill="#fff"/>
          <path id="패스_1802" data-name="패스 1802" d="M24.118,1.622a1.553,1.553,0,0,1,1.005,2.734L3.8,22.475a1.551,1.551,0,1,1-2.009-2.363L23.113,1.993a1.545,1.545,0,0,1,1.005-.371m0-1.241a2.793,2.793,0,0,0-1.81.668L.984,19.166A2.792,2.792,0,1,0,4.6,23.42L25.925,5.3A2.793,2.793,0,0,0,24.118.381" transform="translate(0 0.092)" fill="#161616"/>
        </g>
      </g>
    </g>
  </g>
</svg>
