<svg xmlns="http://www.w3.org/2000/svg" xmlns:xlink="http://www.w3.org/1999/xlink" width="92" height="92" viewBox="0 0 92 92">
  <defs>
    <clipPath id="clip-path">
      <rect id="사각형_851" data-name="사각형 851" width="31.711" height="44.371" fill="#161616" stroke="#161616" stroke-width="4"/>
    </clipPath>
    <clipPath id="clip-path-2">
      <rect id="사각형_851-2" data-name="사각형 851" width="21.785" height="31.963" fill="none"/>
    </clipPath>
  </defs>
  <g id="시동켜기_click" transform="translate(-3856 -696)">
    <g id="사각형_856" data-name="사각형 856" transform="translate(3862 702)" fill="#2e2e2e" stroke="#4d4d4d" stroke-width="4">
      <rect width="80" height="80" rx="12" stroke="none"/>
      <rect x="-2" y="-2" width="84" height="84" rx="14" fill="none"/>
    </g>
    <text id="시동켜기" transform="translate(3873 763.086)" fill="#161616" stroke="#161616" stroke-width="4" font-size="16" font-family="NanumSquareRoundOTFEB, NanumSquareRoundOTF" letter-spacing="-0.015em"><tspan x="0" y="0">시동켜기</tspan></text>
    <text id="시동켜기-2" data-name="시동켜기" transform="translate(3873 763.086)" fill="#fff" font-size="16" font-family="NanumSquareRoundOTFEB, NanumSquareRoundOTF" letter-spacing="-0.015em"><tspan x="0" y="0">시동켜기</tspan></text>
    <g id="사각형_857" data-name="사각형 857" transform="translate(3859 699)" fill="none" stroke="#161616" stroke-width="3">
      <rect width="86" height="86" rx="14" stroke="none"/>
      <rect x="-1.5" y="-1.5" width="89" height="89" rx="15.5" fill="none"/>
    </g>
    <g id="그룹_763" data-name="그룹 763" transform="translate(3886.145 705.714)">
      <g id="그룹_761" data-name="그룹 761" transform="translate(0 0)">
        <g id="그룹_752" data-name="그룹 752" transform="translate(0 0)" clip-path="url(#clip-path)">
          <path id="패스_1794" data-name="패스 1794" d="M10.893,13.071a1.452,1.452,0,0,0,1.452-1.452V1.453a1.452,1.452,0,1,0-2.9,0V11.619a1.451,1.451,0,0,0,1.453,1.452M17.6,3.033a1.453,1.453,0,0,0-1.789,2.289,7.986,7.986,0,1,1-9.828,0A1.453,1.453,0,0,0,4.189,3.03a10.894,10.894,0,1,0,13.407,0" transform="translate(4.963 6.204)" fill="#161616" stroke="#161616" stroke-width="4"/>
          <path id="패스_1795" data-name="패스 1795" d="M9.517,23.332v.406c0,2.411-1.111,3.433-3.035,3.433s-3.036-1.022-3.036-3.433v-.406c0-2.411,1.111-3.433,3.036-3.433s3.035,1.022,3.035,3.433m-4.792.1v.208c0,1.794.6,2.37,1.757,2.37s1.756-.576,1.756-2.37v-.208c0-1.8-.6-2.371-1.756-2.371s-1.757.576-1.757,2.371" transform="translate(5.793 10.996)" fill="#161616" stroke="#161616" stroke-width="4"/>
          <path id="패스_1796" data-name="패스 1796" d="M14.967,20.455v5.793c0,.625-.208.824-.844.824-.485,0-.675-.1-1.18-1l-1.876-3.354a4.769,4.769,0,0,1-.475-1.14V26.6a.524.524,0,0,1-.586.515.524.524,0,0,1-.586-.515V20.8c0-.625.208-.823.844-.823.486,0,.675.109,1.18,1l1.876,3.354a4.763,4.763,0,0,1,.476,1.14V20.455a.59.59,0,0,1,1.17,0" transform="translate(7.232 11.006)" fill="#161616" stroke="#161616" stroke-width="4"/>
        </g>
      </g>
      <g id="그룹_753" data-name="그룹 753" transform="translate(4.963 6.204)">
        <g id="그룹_752-2" data-name="그룹 752" transform="translate(0 0)" clip-path="url(#clip-path-2)">
          <path id="패스_1794-2" data-name="패스 1794" d="M10.893,13.071a1.452,1.452,0,0,0,1.452-1.452V1.453a1.452,1.452,0,1,0-2.9,0V11.619a1.451,1.451,0,0,0,1.453,1.452M17.6,3.033a1.453,1.453,0,0,0-1.789,2.289,7.986,7.986,0,1,1-9.828,0A1.453,1.453,0,0,0,4.189,3.03a10.894,10.894,0,1,0,13.407,0" transform="translate(0 0)" fill="#fff"/>
          <path id="패스_1795-2" data-name="패스 1795" d="M9.517,23.332v.406c0,2.411-1.111,3.433-3.035,3.433s-3.036-1.022-3.036-3.433v-.406c0-2.411,1.111-3.433,3.036-3.433s3.035,1.022,3.035,3.433m-4.792.1v.208c0,1.794.6,2.37,1.757,2.37s1.756-.576,1.756-2.37v-.208c0-1.8-.6-2.371-1.756-2.371s-1.757.576-1.757,2.371" transform="translate(0.83 4.792)" fill="#fff"/>
          <path id="패스_1796-2" data-name="패스 1796" d="M14.967,20.455v5.793c0,.625-.208.824-.844.824-.485,0-.675-.1-1.18-1l-1.876-3.354a4.769,4.769,0,0,1-.475-1.14V26.6a.524.524,0,0,1-.586.515.524.524,0,0,1-.586-.515V20.8c0-.625.208-.823.844-.823.486,0,.675.109,1.18,1l1.876,3.354a4.763,4.763,0,0,1,.476,1.14V20.455a.59.59,0,0,1,1.17,0" transform="translate(2.269 4.802)" fill="#fff"/>
        </g>
      </g>
    </g>
    <rect id="사각형_858" data-name="사각형 858" width="86" height="86" rx="14" transform="translate(3859 699)" fill="#161616" opacity="0.5" style="mix-blend-mode: multiply;isolation: isolate"/>
  </g>
</svg>
