<?xml version="1.0" encoding="utf-8"?>
<!-- Generator: Adobe Illustrator 26.0.1, SVG Export Plug-In . SVG Version: 6.00 Build 0)  -->
<svg version="1.0" id="레이어_1" xmlns="http://www.w3.org/2000/svg" xmlns:xlink="http://www.w3.org/1999/xlink" x="0px"
	 y="0px" width="1024px" height="768px" viewBox="0 0 1024 768" style="enable-background:new 0 0 1024 768;" xml:space="preserve">
<style type="text/css">
	.st0{fill:#89CFC9;}
	.st1{opacity:0.19;}
	.st2{fill:#D3FFF5;}
	.st3{fill:#FCE88A;}
	.st4{fill:#FFF8BD;}
	.st5{opacity:0.4;fill:#F9CF69;enable-background:new    ;}
	.st6{fill:none;stroke:#231815;stroke-width:1.25;stroke-miterlimit:10;}
	.st7{fill:#F7AD75;}
	.st8{fill:#FAC07B;}
	.st9{fill:#FBC978;}
	.st10{fill:#CF7C3F;}
	.st11{fill:#BF6C38;}
	.st12{fill:none;stroke:#1D1D1B;stroke-width:1.25;stroke-linecap:round;stroke-linejoin:round;stroke-miterlimit:10;}
	.st13{opacity:0.5;fill:#964C21;enable-background:new    ;}
	.st14{fill:#A3CCEE;}
	.st15{fill:#E7F3F1;}
	.st16{fill:#2C90CF;}
	.st17{fill:#137EBD;}
	.st18{fill:#F6A038;}
	.st19{fill:#F18538;}
	.st20{fill:#8C9D9B;stroke:#1D1D1B;stroke-width:1.25;stroke-linecap:round;stroke-linejoin:round;stroke-miterlimit:10;}
	.st21{fill:#DDD4CC;stroke:#1D1D1B;stroke-width:1.25;stroke-linecap:round;stroke-linejoin:round;stroke-miterlimit:10;}
	.st22{fill:#A0C0BD;}
	.st23{fill:#FDECC5;}
	.st24{fill:#EFD6AA;}
	.st25{fill:#FFF3DB;}
	.st26{fill:#D5B68B;}
	.st27{fill:#C82A34;}
	.st28{fill:none;stroke:#1D1E1B;stroke-width:1.25;stroke-linecap:round;stroke-linejoin:round;stroke-miterlimit:10;}
	.st29{fill:#DB323B;}
	.st30{fill:#BB2830;}
	.st31{fill:#FECC36;}
	.st32{fill:#EBA435;}
	.st33{fill:#EA5E58;}
	.st34{fill:#E78D36;}
	.st35{fill:#C86F22;}
	.st36{fill:#809E9C;}
	.st37{fill:#AD56F6;stroke:#000000;stroke-width:1.25;stroke-miterlimit:10;}
	.st38{fill:#D38DFF;stroke:#000000;stroke-width:1.25;stroke-miterlimit:10;}
	.st39{fill:#E7C2FF;stroke:#000000;stroke-width:1.25;stroke-miterlimit:10;}
	.st40{fill:#EAA857;}
	.st41{fill:#F3A8CA;stroke:#231815;stroke-width:1.25;stroke-miterlimit:10;}
	.st42{fill:#EC6162;stroke:#231815;stroke-width:1.25;stroke-miterlimit:10;}
	.st43{fill:none;stroke:#231815;stroke-width:1.25;stroke-linecap:round;stroke-linejoin:round;stroke-miterlimit:10;}
	.st44{fill:#BB2230;}
	.st45{fill:#ED5B73;stroke:#000000;stroke-width:1.25;stroke-miterlimit:10;}
	.st46{fill:#FC944D;stroke:#000000;stroke-width:1.25;stroke-miterlimit:10;}
	.st47{fill:#FFD967;stroke:#000000;stroke-width:1.25;stroke-miterlimit:10;}
	.st48{fill:#F2FBB4;}
	.st49{fill:#DD4735;}
	.st50{fill:#CA342A;}
	.st51{opacity:0.5;}
	.st52{fill:#F0886C;}
	.st53{fill:#008935;}
	.st54{fill:#F6A038;stroke:#1D1E1B;stroke-width:1.25;stroke-linecap:round;stroke-linejoin:round;stroke-miterlimit:10;}
	.st55{fill:#DA8226;}
	.st56{fill:#ED726D;}
	.st57{fill:#ECAC67;}
	.st58{fill:#B7922E;}
	.st59{fill:#A9872A;}
	.st60{fill:#B6D37C;}
	.st61{fill:#7FBF78;}
	.st62{fill:#EFEDA0;}
	.st63{fill:#DBE27E;}
	.st64{opacity:0.2;fill:#A9872A;enable-background:new    ;}
	.st65{fill:#FFD872;stroke:#231815;stroke-width:1.25;stroke-miterlimit:10;}
	.st66{fill:#F29FC5;stroke:#231815;stroke-width:1.25;stroke-miterlimit:10;}
	.st67{fill:#00C39F;}
	.st68{fill:#0EA585;}
	.st69{fill:#89BD4E;}
	.st70{fill:#68A347;}
	.st71{fill:#CFDC7A;}
	.st72{fill:#6FC9E8;}
	.st73{fill:#52ACD2;}
	.st74{fill:#FFFAE0;}
	.st75{fill:#FFFEF1;}
	.st76{fill:#EDD4AD;}
	.st77{fill:#DCAF81;}
	.st78{fill:#1D1D1B;}
	.st79{fill:#C69468;}
	.st80{fill:#E59832;}
	.st81{fill:#D18131;}
	.st82{fill:#B36829;}
	.st83{opacity:8.000000e-02;fill:#040607;enable-background:new    ;}
	.st84{fill:none;}
	.st85{fill:#243B4F;}
	.st86{fill:#608391;}
	.st87{opacity:0.715;fill:#97C7C1;enable-background:new    ;}
	.st88{fill:none;stroke:#7DD4C9;stroke-miterlimit:10;}
	.st89{fill:#CF7C3F;stroke:#1D1D1B;stroke-width:1.25;stroke-miterlimit:9.9998;}
	.st90{fill:#CF7C3F;stroke:#1D1D1B;stroke-width:1.25;stroke-miterlimit:10;}
	.st91{fill:#88B1D4;}
	.st92{fill:#4F8CB6;stroke:#1D1D1B;stroke-width:1.25;stroke-linecap:round;stroke-linejoin:round;stroke-miterlimit:10;}
	.st93{fill:#4F8CB6;stroke:#1D1D1B;stroke-width:1.25;stroke-linecap:round;stroke-linejoin:round;stroke-miterlimit:10.0008;}
	.st94{fill:#E23D3D;}
</style>
<g id="sky">
	<rect y="0" class="st0" width="1024.1" height="665.6"/>
</g>
<g id="backgroundcloud" class="st1">
	<g>
		<path class="st2" d="M-0.2,117.1c8.2-0.4,16.1-1.4,20.3-1.4c58,0,115.2,0.8,173.2-1.6c76.3-4,152.5-8.8,228-20.1
			c28.3-4,56.4-0.8,84.6-3.2c13.4-1.2,26.6-1.5,40.1-1.6c29.2-0.2,58.5-3.5,87.2-8.2c2.8-0.5,42.1-1.2,49.5-2.8
			c4.6-1,7.8-5.1,7.8-9.8l0,0c0-5-3.6-9.2-8.6-9.9c-5.6-0.8-61.5,0.5-64.3,0.3c-32.4-3.3-48.9-3.4-81.5-2.5c-45,1.2-90,0.4-135.1,0
			c-25.1-0.2-50.5-2.1-75.7-0.9c-32,1.6-63.1-2.7-95.1-0.8c-10.3,0.6-20.4,0.8-30.7,0.9c-39.1,0.3-79-1.4-118.2,0.8
			C54.4,57.7,27.6,61.4,0,61.1L-0.2,117.1z"/>
	</g>
	<path class="st2" d="M403.9,36.3c0,2.4-8,2.2-142.1,4.3c-123,1.9-142.1-1.9-142.1-4.3c0-2.4,0-4.3,142.1-4.3
		C396.3,32,403.9,33.9,403.9,36.3z"/>
	<path class="st2" d="M0.6,155.9c5.3,3,27.4,6.3,102.7,4.1c98.2-2.9,104.1-2.6,104.1-5.8s-5.6-5.8-104.1-5.8
		c-78.7,0-97.9,1.5-102.6,3.6L0.6,155.9z"/>
	<path class="st2" d="M0,27.6h51.4c0,0,33.5,0,48.7-2.1s-17.3-7-17.3-7L357.2,0.1H0V27.6z"/>
	<g>
		<path class="st2" d="M0.1,130.6c7,1.1,16.6-0.5,23.4-0.5c10.4,0,21.1,0,31.5-0.4c39.9-2,79.7-8.8,120-10.8
			c72.5-3.2,145.1-7.6,217.2-14.5c16.7-1.6,33.1-4,49.4-5.6c4-0.4,29.1,0.8,30.3-2.8c1.6-6.4-52.6-4.8-58.6-4.4
			c-28.9,1.9-58.1,1.7-87.1,2.8c-27.9,1-56,1.7-84.1,1.9c-26,0.2-52,0.2-78,0.7c-26.2,0.5-52.4-0.2-78.5,0.4
			c-13.6,0.3-27.2,1-40.8,2.4c-2.9,0.3-16.4-0.8-18.1,2.1c-3.4,5.6,14.2,11.1,18.3,10.4c-10,1.6-19.2,5.7-28.9,8.3
			c-0.9,0.2-10.1,2-16,4.1L0.1,130.6z"/>
	</g>
	<g>
		<path class="st2" d="M1024,79.2c-3-1.9-6.5-3-10.5-3l3.2,1.5c-8-2.4-22.3-0.5-29-1c-14.2-0.5-28.4,0.5-42.7-0.5
			c-21.1-1.1-42.1-1.1-63.7,1.6c-18.4,1.6-36.9,4.3-55.3,3.8c-15.3-0.5-28.4-7.5-43.2-2.7c-3.2,1.1-13.7,3.2-13.2,8
			c0.5,4.3,13.2,3.8,16.3,3.8c11.6,0.5,32.7-2.7,42.1,4.3c-5.3,3.8-14.2,1.6-18.4,7c3.7,3.2,11.1,3.2,7.4,9.1
			c-2.6,4.3-15.8,3.8-20,4.8c-12.6,2.1-41.1,2.1-50,11.8c6.8,5.4,21.6,4.3,30,4.8c13.2,1.1,26.3,1.6,39.5,1.6
			c10.5,0,21.1,0.5,31.1-0.5c9.5-1.1,12.1-4.8,19.5-8.6c9-5.4,23.7-2.7,34.8-3.2c17.9-0.5,35.8-1.6,53.7-2.1
			c12.1-0.5,24.8-1.6,36.9-1.6c9.5,0,22.1,2.1,30.6-1.6c0.4-0.2,0.7-0.3,1-0.5L1024,79.2L1024,79.2z"/>
	</g>
</g>
<g id="mountain">
	<path class="st3" d="M567,185.3c0-1.3-67.8-52.7-112.7-82.8c-37.1-24.9-77.5-53.9-150.2-10.4c-73.2,43.9-95.2,61.5-95.2,61.5
		s-73.7-34.2-116.9-48s-55.6-19.5-87,4.9c-2,1.5-3.6,3.2-5.2,5l0.1,82.4c1.2,0,564.4,1.8,564.4,1.8L567,185.3z"/>
	<path class="st4" d="M154.3,130.5c-6.3,1-13.1-0.2-19.3-1.4c-13.9-2.7-27.4-7.1-40.9-11.3c-12.6-3.9-24.3-6.5-36.2,1.5
		c-4,2.7-7.8,5.9-12.1,8.3c-4.7,2.6-10.2,4.1-15.5,4.9c-9.6,1.5-19.6-0.1-28.2-4.7c-0.8-0.4-1.5-0.9-2.3-1.3v-11
		c1.7-1.8,3.2-3.4,5.2-5c31.4-24.4,43.9-18.6,87-4.9c18.4,5.9,42.4,15.5,63.9,24.6C155.4,130.3,154.9,130.4,154.3,130.5z"/>
	<path class="st4" d="M478.4,123.4c-0.5,6-7.5,6.8-12,5.9c-11.3-2.2-21.4-9.5-32.2-13.4c-14.2-5.1-30-9.1-44.5-2.7
		c-9.5,4.2-19,16.6-30.5,11c-9.8-4.7-14.5-16.6-26.9-16.2c-12.5,0.4-23.1,10.1-34.7,13.8c-6.4,2-18.2,3.4-23.3-2.5
		c-1.7-2-2.4-4.6-2.6-7.3c9.5-5.9,20.2-12.5,32.4-19.8c72.7-43.5,113.1-14.5,150.2,10.4c7,4.7,14.5,9.8,22.2,15.3
		C477.7,119.6,478.5,121.4,478.4,123.4z"/>
	<path class="st5" d="M172.5,166.7c-16.2-10.4-90.7-56.9-133.9-72.6c14-1.6,28.6,3.7,53.5,11.6c43.1,13.7,116.9,48,116.9,48
		s22-17.6,95.2-61.5c35.3-21.2,63-25.2,86.4-20.9c-11.2-0.4-40.5,4.1-61,18.9c-44.8,32.4-91.5,94.6-104.3,108.4c-7.5,0-1,0-8.4-0.1
		C212.1,195.6,181.6,172.6,172.5,166.7z"/>
	<path class="st6" d="M567,185.3c0-1.3-67.8-52.7-112.7-82.8c-37.1-24.9-77.5-53.9-150.2-10.4c-73.2,43.9-95.2,61.5-95.2,61.5
		s-73.7-34.2-116.9-48s-55.6-19.5-87,4.9c-2,1.5-3.6,3.2-5.2,5l0.1,82.4c1.2,0,564.4,1.8,564.4,1.8L567,185.3z"/>
</g>
<g id="subland">
	<path class="st7" d="M-0.2,145v275h687.1c0,0,22.8-153.7-219.7-228.7C467.2,191.2,216.2,124.8-0.2,145z"/>
	<path class="st8" d="M45.8,182.4c16.5,2.3,22.5,31.7,50.9,32.9c21.5,0.9,38.1-20.6,45.5-26c27.6-20,32.8,17.1,62.6,20.2
		c32.3,3.4,33.7-18.2,55.2-16.2c14.8,1.3,26.6,28.9,49.6,19.8c12.8-5.1,7.5-23.6,18.4-27.5c17.7-6.3,39.6,14,53.2,13.1
		c11.2-0.7,22.8-10.3,29.3-20.5C324,159.9,153.2,130.7-0.2,145v52.5C11.8,197.9,31,180.3,45.8,182.4z"/>
	<path class="st6" d="M-0.2,145v275h687.1c0,0,22.8-153.7-219.7-228.7C467.2,191.2,216.2,124.8-0.2,145z"/>
</g>
<g id="mainland">
	<path class="st9" d="M-0.4,483.1H1025l-0.1-319c-113.4-7.6-219.7-19.9-534.2,20.6c-232.6,30-409.6,103-491,131.8v166.6H-0.4z"/>
	<path class="st6" d="M-0.4,483.1H1025l-0.1-319c-113.4-7.6-219.7-19.9-534.2,20.6C257.9,214.7,53.2,297-0.4,316.6V483.1z"/>
</g>
<g id="desk">
	<polygon class="st10" points="-0.7,476.5 -0.7,666.6 1025.3,666.6 1025.3,365.7 156.8,365.7 	"/>
	<g>
		<g>
			<path class="st11" d="M59.8,488.5c-20.3-0.5-40.6-1-60.9-1.5v7c20.3,0.5,40.6,1,60.9,1.5C64.2,495.6,64.2,488.6,59.8,488.5z"/>
		</g>
		<g>
			<path class="st11" d="M306.1,487.9c-35.4,0.6-70.8,1-106.3,1.3c-14.1,0.1-28.2,0.3-42.3,0.1c-7.1-0.1-14.3-0.6-21.4-1.8
				c-14.5-2.3-27.4-9.6-41.4-13.6c-26.8-7.8-54.9-7.7-82.6-6.3c-0.9,0.7-1.9,1.4-2.8,2.1c-2.1,1.9-4.2,3.7-6.5,5.4
				c27.7-1.6,55.9-2.8,83.1,3.7c14.2,3.4,27,10.3,41.1,14c9,2.3,18.6,3.2,27.8,3.5c31.8,0.8,63.7-0.2,95.6-0.5
				c18.6-0.2,37.2-0.5,55.7-0.8C310.6,494.8,310.6,487.8,306.1,487.9z"/>
		</g>
		<g>
			<path class="st11" d="M329.3,494.4c8.8,0.6,17.6,0.4,26.4,0.3s17.8,0.1,26.5-1.1c4.4-0.6,2.5-7.4-1.8-6.7
				c-8.5,1.2-17.3,0.8-25.9,0.9c-8.4,0.1-16.8,0.3-25.2-0.3C324.8,487.2,324.8,494.2,329.3,494.4L329.3,494.4z"/>
		</g>
		<g>
			<path class="st11" d="M169.4,476.4c112-2.6,224-4.3,336-1.5c31.3,0.8,62.7,1.9,94,3.4c4.5,0.2,4.5-6.8,0-7
				c-111.9-5.5-223.9-5.6-335.9-3.8c-31.4,0.5-62.7,1.2-94.1,1.9C164.9,469.5,164.9,476.5,169.4,476.4L169.4,476.4z"/>
		</g>
		<g>
			<path class="st11" d="M980.5,482c-15.3-0.5-31.1-2-46.3,0.8c-4.8,0.9-11.2,2.6-13.1,7.7c-2,5.3,2,9.5,6.6,11.5
				c7.2,3.1,15.7,3.3,23.5,3.7c7.8,0.4,15.5,0.7,23.3,1.1c7.5,0.3,15,0.4,22.5,0c6.6-0.4,13.8-0.7,19.9-3.5
				c5.5-2.5,8.3-8.6,3.6-13.6c-5-5.4-14.4-6-21.2-6.5c-4.5-0.3-4.4,6.7,0,7c4.5,0.3,11.7,0.4,15.3,3.6c3.4,3.1-2.7,4-5.1,4.5
				c-11.3,2.5-23.5,2-35,1.4c-12.7-0.6-26-0.1-38.4-2.6c-1.7-0.3-9.1-1.5-8.3-4.4s9.7-3.5,11.8-3.8c13.5-1.6,27.3-0.5,40.9,0
				C984.9,489.1,984.9,482.1,980.5,482L980.5,482z"/>
		</g>
		<g>
			<path class="st11" d="M1024.2,472.4c-50.6-3.1-101.2-6-151.9-5.6c-52.7,0.4-105.1,7.3-157.8,8.4c-30,0.6-60-0.4-89.9-3
				c-4.5-0.4-4.4,6.6,0,7c53.4,4.6,106.5,3.2,159.8-1.1c53-4.2,105.8-5.1,158.9-3c27,1.1,54,2.7,80.9,4.3V472.4z"/>
		</g>
		<g>
			<path class="st11" d="M1024.2,451.5c-66.6,0.2-133.2,0.4-199.8,0.6c-49.2,0.1-98.5,1.4-147.7,0.3c-20.4-0.4-52.3,1.8-64.9-18.1
				c-2.4-3.8-8.4-0.3-6,3.5c11.8,18.7,35.7,20.2,55.6,21.1c22.3,1,44.7,0.8,67.1,0.6c62.4-0.6,124.8-0.6,187.3-0.7
				c36.2-0.1,72.4-0.2,108.6-0.3v-7H1024.2z"/>
		</g>
		<g>
			<path class="st11" d="M473.2,489.4c51,3.7,100.5,20,151.9,19.6c26.4-0.2,52.5-4,78.6-7.5c25.8-3.4,51.7-5.9,77.7-6.5
				c30.2-0.8,60.4,0.2,90.6,1.2c4.5,0.1,4.5-6.9,0-7c-53.1-1.7-105.9-2.7-158.7,4.1c-26.1,3.3-52.2,7.5-78.5,8.5
				c-25.7,1-51.1-2-76.4-6.4c-28.3-4.9-56.4-10.8-85.1-12.9C468.8,482,468.8,489,473.2,489.4L473.2,489.4z"/>
		</g>
		<g>
			<path class="st11" d="M557.3,440.2c-23.3,4.2-46.9,6-70.5,7.4s-47.3,2.9-70.9,2.9c-23,0-45.4-2.8-68.2-5.7
				c-15.5-2-30.8-2.3-46.4-2.3c-54.4,0-108.7,0.9-163.1,0.7c-7.9,0-15.9,0.1-23.8-0.4c-20.6-1.3-42.1,0.6-62.4-3.8
				c-1.7,1.2-7,4.6-7.9,5.2c21.4,6.1,43.7,3.8,65.6,5.2c6.9,0.4,13.8,0.6,20.7,0.7c25.2,0.2,50.4,0,75.6-0.2
				c29.1-0.2,58.3-0.4,87.4-0.5c12.8,0,25.6-0.4,38.4,0.6c22.9,1.7,45.4,6.4,68.4,7.1c26.6,0.8,53.3-0.8,79.9-2.3
				c26.5-1.5,52.9-3.3,79-8C563.6,446.1,561.7,439.4,557.3,440.2z"/>
		</g>
	</g>
	<g>
		<path class="st11" d="M306.5,645.7c-10.5,2.3-21.3,2.7-32,2.5c-10.2-0.2-20.7-0.3-30.7-2.9c-4.4-1.1-8.7-2.7-12.7-5.1
			c-4.4-2.6-7.9-6.2-11.8-9.5c-7.5-6.1-16.1-7.1-25.5-7.2c-41-0.2-82-0.9-123.1-1.6c-23.7-0.4-47.5-0.8-71.2-1.1v7
			c41.9,0.4,83.8,1.4,125.8,2c20.7,0.3,41.4,0.6,62.2,0.6c5.5,0,11.2-0.3,16.6,0.6c5.7,1,9.7,3.9,14,7.7c6.6,6,13.9,10.3,22.4,12.7
			c10.8,3.1,22.1,3.3,33.2,3.5c11.7,0.2,23.4-0.3,34.8-2.8C312.7,651.5,310.9,644.7,306.5,645.7z"/>
	</g>
	<g>
		<path class="st11" d="M724.3,666.1c-3.4-2.1-7-3.9-11-5.4c-11.8-4.4-24.5-6.4-37-7.2c-26.8-1.7-53.7-1.5-80.5-1.6
			c-66.9-0.3-133.9,1.1-200.8-1.1c-9.1-0.3-18.3-1-27.4-1.1c-15.3,0-28.8,3.5-42.5,10.1c-4.7,2.3-9.3,4.3-13.9,6c0.4,0,0.8,0,1.2,0
			c5.2,0.1,10.3-0.1,15.5,0c0.2,0,0.5,0,0.7,0.1c5.4-2.6,10.9-5.1,16.7-6.7c13-3.6,26.6-2.5,39.9-1.8c27.1,1.3,54.3,1.2,81.5,1.3
			c65.6,0.2,131.4-1.2,197,1.1c11,0.4,21.2,1,31.4,3.1c4.1,0.8,8.3,1.8,12.4,3.1h16.8L724.3,666.1L724.3,666.1z"/>
	</g>
	<g>
		<path class="st11" d="M810,666h9.3c-5.1-6-10.8-11.5-17.2-16.2c-8.9-6.6-18.4-10.4-28.9-13.7c-8.9-2.8-17.9-5.6-27.2-6.6
			c-10.3-1-20.8-1.1-31.1-1.3l-112.1-1.9c-23.1-0.4-46.3-0.8-69.4-1.2c-4.5-0.1-4.5,6.9,0,7c41.9,0.7,83.8,1.4,125.7,2.2
			c16.7,0.3,33.4,0.6,50,0.9c16.5,0.3,33.3-0.4,49.3,3.9c10.5,2.8,22,5.6,31.5,11C797.3,654.3,804.1,659.7,810,666z"/>
	</g>
	<g>
		<path class="st11" d="M502.9,625.6c-34.8-1.8-69.5-1.6-104.3,0c-4.5,0.2-4.5,7.2,0,7c34.8-1.5,69.5-1.8,104.3,0
			C507.4,632.8,507.4,625.8,502.9,625.6L502.9,625.6z"/>
	</g>
	<g>
		<path class="st11" d="M370.9,620c59-2,118-2.1,177-0.5c4.5,0.1,4.5-6.9,0-7c-59-1.6-118-1.5-177,0.5
			C366.4,613.1,366.4,620.1,370.9,620L370.9,620z"/>
	</g>
	<g>
		<path class="st11" d="M672.8,620.3c37.1,1.1,74.2,1.5,111.3,1c-1-0.6-2-1.2-2.9-1.8c11.9,18,28.3,32,47.8,41.2
			c4.1,1.9,6.1-4.8,2.1-6.7c-12.1-5.7-23.1-13.6-32.3-23.3c-2.2-2.3-4.3-4.8-6.3-7.3c-1.9-2.4-3.4-5.9-5.6-7.9
			c-2.2-1.9-5.6-1.1-8.3-1c-3.9,0-7.8,0.1-11.7,0.1c-31.2,0.2-62.5-0.2-93.7-1.2C668.6,613.2,668.3,620.1,672.8,620.3L672.8,620.3z"
			/>
	</g>
	<g>
		<path class="st11" d="M1024.7,629.3c-4.8-0.1-9.5-0.1-14.3-0.1c-17.7,0-35.4,0-53.1,0.1c-17.3,0.1-36-1.8-52.8,2.7
			c-5.1,1.3-9.4,4.3-14.2,6.4c-3.8,1.7-7.8,3.3-11.9,4.4c-4.9,1.3-10.4,0.9-15.5,0.4c-16.2-1.3-33.2-8.4-41.8-22.9
			c-2.3-3.9-8.3-0.3-6,3.5c6.8,11.5,18.5,19.4,31.1,23.3c9.5,3,20.5,4.4,30.4,3.1c7.5-0.9,15.1-4.6,21.7-8c5.6-2.8,10.6-4.5,17-5.2
			c9.4-1,18.8-0.8,28.2-0.8c18.1,0,36.2-0.1,54.2-0.1c8.3,0,16.5,0,24.8,0.1c0.7,0,1.3,0,2,0v-6.9H1024.7z"/>
	</g>
	<g>
		<path class="st11" d="M115.2,648.9c-20.9-1.1-41.9-1.8-62.9-2.6c-17.6-0.6-35.3-1.5-52.9-1.4v7c17.6-0.1,35.3,0.8,52.9,1.4
			c21,0.7,41.9,1.5,62.9,2.6C119.7,656.1,119.7,649.1,115.2,648.9z"/>
	</g>
	<g>
		<g>
			<path class="st11" d="M281.3,583.9c46.3-17.8,97.6-10.9,145.7-6.3c30.7,3,61.5,3.1,92.3,3.7c18.8,0.4,37.5,0.8,56.3,1.2
				c4.5,0.1,4.5-6.9,0-7c-34-0.7-68.1-1.4-102.1-2.2c-37.6-0.9-74.8-6.8-112.3-7.7c-27.6-0.6-55.8,1.5-81.7,11.5
				C275.3,578.8,277.1,585.5,281.3,583.9L281.3,583.9z"/>
		</g>
	</g>
	<g>
		<path class="st11" d="M270.1,612.6c-8.1-0.3-16.3-0.1-24.3,1.4c-4,0.7-9.1,1.7-12.2,4.6c-2.9,2.8-2.6,7.8-0.3,10.9
			c3,4.3,8.9,5.7,13.7,6.6c14.3,2.5,29.7,3.6,44.2,1.7c4.5-0.6,10.4-1.6,11.4-6.9c0.4-2.3,0-4.7-1-6.8
			C296.4,613.6,279.9,613,270.1,612.6c-4.5-0.2-4.5,6.8,0,7c6.5,0.3,22,0.3,25.3,7.8c0.3,0.7,0.7,1.4,0.3,2.2
			c-0.3,0.7-0.1,0.3,0,0.2c-0.4,0.4-2.8,0.7-3.5,0.8c-7.1,1.4-14.9,1.2-22.1,0.9c-6.6-0.3-13.3-0.9-19.8-1.9
			c-4.3-0.6-9.4-1.3-11.8-5.2c-0.1-0.4,0-0.8,0.1-1.3c-0.5,0.8-0.5,0.9-0.1,0.4c0.4-0.3,1.1-0.6,1.6-0.8c2-0.9,4.3-1.3,6.4-1.8
			c7.7-1.5,15.8-1.6,23.6-1.4C274.5,619.8,274.5,612.8,270.1,612.6z"/>
	</g>
	<g>
		<g>
			<path class="st11" d="M190.5,516.2c-7,6.2-15.8,11.1-23.3,15.3c-13.1,7.4-26.5,12.8-41.2,15.9c-33.1,6.9-67.8,5.5-101.3,1.9
				c-8.6-0.9-17.2-2.1-25.7-3.4v7c23.4,3.4,47,5.9,70.7,6.1c18.4,0.2,37-0.9,55.2-4.3c15.2-2.9,29.2-8.1,42.8-15.5
				c10.9-5.9,23.9-13.1,32.6-23H190.5z"/>
		</g>
		<g>
			<path class="st11" d="M115.8,517.1h-7.5c0.1,0.6,0.3,1.3,0.8,1.9c3.2,4.2-12.4,7.5-14.6,7.9c-6.2,1.1-12.6,1.1-18.8,1.2
				c-10.1,0.1-20.2,0-30.3-0.2c-15.4-0.3-30.9-0.8-46.3-1.6v7c19.8,1.2,39.7,1.7,59.6,1.8c12.5,0.1,25.4,0.7,37.7-1.4
				C104,532.4,119.8,526.9,115.8,517.1z"/>
		</g>
		<g>
			<path class="st11" d="M329.3,516.2c-12.4,2.9-24.7,6.4-36.7,10.7c-24.3,8.6-47.4,19.9-71.2,29.8c-22.8,9.5-45.9,16.3-70.5,18.7
				c-30.7,3.1-61.6,2.7-92.4,2.6c-19.8-0.1-39.7-0.4-59.5,0v6.8c47.1-1.3,94.4,1.9,141.4-1.5c25-1.8,48.9-6.6,72.3-15.6
				c23.5-9,46-20.3,69.5-29.4c28.7-11.2,58.4-18.7,88.9-22L329.3,516.2L329.3,516.2z"/>
		</g>
		<g>
			<path class="st11" d="M436.7,529.3c-42.6,1.2-86.5,2.3-127.4,16.1c-36.3,12.2-68.8,33.1-103.6,48.8c-8.6,3.9-17.4,7.5-26.4,10.4
				h19.8c16.8-6.9,33.1-15.4,49.2-23.7c17.4-9,34.8-18.1,53.1-25.1c19.5-7.5,39.9-12.1,60.6-14.8c24.8-3.2,49.7-3.9,74.6-4.6
				C441.2,536.1,441.2,529.1,436.7,529.3z"/>
		</g>
		<g>
			<path class="st11" d="M458.1,536.1c25.2-1.4,50.4-1.9,75.6-1.3c24,0.5,47.8,2.4,71.8,2.2c4.5,0,4.5-7,0-7
				c-24,0.2-47.8-1.7-71.8-2.2c-25.2-0.5-50.4-0.1-75.6,1.3C453.6,529.4,453.6,536.4,458.1,536.1L458.1,536.1z"/>
		</g>
		<g>
			<path class="st11" d="M499,553.3c78.3,0.6,156.6,2.2,234.9-0.2c22.4-0.7,44.7-1.8,67.1-3.3c4.4-0.3,4.5-7.3,0-7
				c-78.2,5.5-156.6,4.6-235,4.1c-22.3-0.2-44.6-0.3-67-0.5C494.5,546.3,494.5,553.3,499,553.3L499,553.3z"/>
		</g>
		<g>
			<path class="st11" d="M821.3,548.6c11.2,0.6,22.4,0.7,33.7,0.4c4.5-0.1,4.5-7.1,0-7c-11.2,0.4-22.5,0.3-33.7-0.4
				C816.8,541.3,816.8,548.3,821.3,548.6L821.3,548.6z"/>
		</g>
		<g>
			<path class="st11" d="M1024.1,541.3c-23.1-3-46.5-3.1-69.6-0.2c-27.5,3.5-54.3,10.7-81.1,17.2c-28,6.7-55.7,11.3-84.5,12.9
				c-30.2,1.7-60.5,2.9-90.7,3.5c-33.6,0.7-67.2,0.8-100.8,0.3c-4.5-0.1-4.5,6.9,0,7c59.3,0.9,118.6-0.1,177.8-3.1
				c28.3-1.4,55.9-3.9,83.6-10.1c27.3-6,54.3-13.9,81.9-18.7c27.6-4.8,55.7-5.5,83.4-1.9V541.3z"/>
		</g>
		<g>
			<path class="st11" d="M980.3,566.9c-23.4-0.8-46.9,0.2-70.1,3.3c-17.3,2.3-34.4,5.8-51,11.3c-14.4,4.8-28.9,9.7-43.4,14.3
				c-9,2.8-17.9,5.6-27,8c-1.5,0.4-3,0.8-4.5,1.2h25.4c15.1-4.6,30.1-9.6,45.1-14.7c37.1-12.5,75.7-17,114.8-16.6
				c18.1,0.2,36.5,1.2,54.4,4.3v-7.1C1009.6,568.5,994.9,567.4,980.3,566.9z"/>
		</g>
		<g>
			<path class="st11" d="M925.7,516.2c-1.8,1.1-3.7,2.2-5.5,3.2c-4.7,2.6-9.6,5-14.8,6.4c-13.1,3.6-27,4.1-40.6,3.5
				c-22.8-0.9-47-4.8-68.8-13.2h-17c20.7,10.5,44,15.7,66.8,18.6c21.5,2.7,47,4.2,67.6-4.3c8.2-3.4,17.2-8,24-14.3L925.7,516.2
				L925.7,516.2z"/>
		</g>
	</g>
	<g>
		<path class="st11" d="M687.9,381.9c-9.6-0.2-19.3,0.1-28.8,1.8c-4.2,0.7-10.1,1.6-13.4,4.8c-3.3,3.3-3.3,9.5-0.3,13
			c3.6,4.2,10,4.9,15.1,5.3c16.4,1.6,33.4,2.2,49.8,0.2c5.2-0.6,12.7-1.7,15.1-7.3c1.1-2.5,0.9-5.6-0.5-8c-2-3.6-6.1-5.4-9.8-6.6
			C706.5,382.4,696.9,382.2,687.9,381.9c-4.5-0.1-4.5,6.9,0,7c7,0.2,14,0.5,20.9,1.9c2.9,0.6,6.5,1.3,8.9,3.2
			c0.8,0.6,0.8,0.7,1.3,1.5c0.1,0.1,0.3,0.5,0.1,0.8c-1.2,2.9-6.1,3.4-9.3,3.8c-13.6,1.7-27.9,1.4-41.5,0.3
			c-2.8-0.2-22.5-1.2-17.9-6.8c1.9-2.4,8.8-2.9,11.7-3.4c8.5-1.4,17.2-1.5,25.8-1.3C692.4,389,692.4,382,687.9,381.9z"/>
	</g>
	<g>
		<path class="st11" d="M672.7,370.2c-19.1-0.6-38.4,0-57.3,3.2c-9.2,1.6-21.1,3.4-28.6,9.7c-6.9,5.9-6.3,18.8-0.5,25.2
			c7.5,8.3,20.9,9.6,31.3,10.5c32.8,3,66.2,4.6,99.1,1.3c10.6-1.1,28.9-2.9,32.6-15.4c1.4-4.5,0.7-9.8-1.6-13.9
			c-4-7.1-12.3-10.8-19.6-13.2C710.5,371.7,691.1,370.8,672.7,370.2c-4.5-0.2-4.5,6.8,0,7c15.7,0.5,31.6,1.5,46.8,5.3
			c6.8,1.7,14.7,3.9,19.8,9c2.6,2.5,3.6,5.3,3.6,8.2c-0.2,9.8-13.8,11.7-21.3,12.8c-14.3,2.2-29.2,2-43.6,2.2
			c-16.3,0.2-32.5-0.5-48.8-1.9c-9.9-0.9-20.1-1-29.6-4.2c-3.9-1.3-8.3-3.5-10.1-7.6c-0.8-1.9-1-4-0.8-6c0.1-1.4,0.5-2.8,0.9-4.2
			c0.3-0.9,0.8-1.9,0.5-1.5c1.8-2.3,5.3-3.5,7.9-4.5c5.4-2,11.1-3.3,16.7-4.3c19-3.5,38.5-3.9,57.8-3.3
			C677.2,377.3,677.2,370.3,672.7,370.2z"/>
	</g>
	<g>
		<path class="st11" d="M584,365.5c-1.3,0.6-2.5,1.3-3.8,1.9c-5.6,3-10.9,6.6-15.4,11.1c-5.7,5.5-10.9,11.8-17.9,15.5
			c-8,4.3-16.7,4.2-25.5,4.3c-8.3,0-16.5,0.2-24.8,0.3c-17.8,0.2-35.5,0-53.2-2c-4.4-0.5-4.4,6.5,0,7c17.7,2,35.4,2.1,53.2,2
			c8.3-0.1,16.5-0.2,24.8-0.3c8,0,15.9,0,23.6-2.8c14-5.1,21.6-18.3,33.7-26.1c7.6-4.8,16.2-8.5,25-10.9H584z"/>
	</g>
	<g>
		<path class="st11" d="M415.7,394.3c-40.1,1.4-80.2,2-120.3,3.4c-45.7,1.6-91.4,3-137,1.4c-15.6-0.6-31.1-1.6-46.7-1.7
			c-3.2,2.4-6.4,4.7-9.7,7c15.5-0.3,31.1,0.6,46.6,1.3c22.8,1,45.6,1.3,68.5,1c43.3-0.4,86.6-2.5,129.9-3.5
			c22.9-0.6,45.8-1.1,68.8-1.9C420.2,401.1,420.2,394.1,415.7,394.3z"/>
	</g>
	<g>
		<path class="st11" d="M337.9,365.9c-8.7,3.4-17.7,6.3-26.6,8.7c-19.4,5.2-38.9,5.8-58.9,6.7c-30.3,1.2-60.7,1.8-90.8-1.7
			c-7.1-0.8-14.2-1.9-21.2-3.2c-2.4,2-4.8,3.9-7.2,5.7c20.8,3.9,41.8,6.3,63,6.9c17.1,0.5,34.2,0.1,51.3-0.5
			c20.2-0.8,40.5-1,60.3-5.7c16.2-3.9,32.5-9.4,47.6-16.8h-17.5V365.9z"/>
	</g>
	<g>
		<path class="st11" d="M265.8,423c-18.5,1.8-37.1,3.9-55.1,8.6H251c3.1-0.4,6.2-0.7,9.4-1c21.7-2.2,43.4-4.2,65.1-5.8
			c42.4-3.1,85.3-4.3,127.6,1.7c9.8,1.4,19.5,3.2,29.2,5.4H509C430.6,407.2,346.5,415.3,265.8,423z"/>
	</g>
	<g>
		<path class="st11" d="M856.1,365.7c-8.8,2-17.5,4.5-26.1,7.4c-19.9,6.9-37.5,17.1-54.3,29.8c-15.6,11.8-32,25-51.3,29H745
			c7.7-3.8,15-8.5,21.9-13.6c17.6-12.9,34.1-26.1,54.4-34.5c19.3-8,39.8-12.6,60.3-16.1c4.4-0.7,8.7-1.4,13.1-2.1h-38.6L856.1,365.7
			L856.1,365.7z"/>
	</g>
	<g>
		<path class="st11" d="M1023.6,378.7c-32.4,0.2-64.9-1.5-97.3-1.1c-4.5,0.1-4.5,7.1,0,7c32.4-0.4,64.9,1.3,97.3,1.1V378.7z"/>
	</g>
	<g>
		<path class="st11" d="M1023.6,394c-35-1-70-1.3-105-0.7c-36.2,0.5-75.3-1.4-109.1,13.5c-13.7,6.1-26.2,14.7-36.8,25.2H783
			c7.8-6.8,16.3-12.5,25.6-17.1c16-7.9,33.6-11.3,51.2-12.7c37.5-3,75.5-2.4,113.1-2.1c16.9,0.1,33.8,0.4,50.7,0.9V394z"/>
	</g>
	<line class="st12" x1="-0.4" y1="516.8" x2="1023.9" y2="516.8"/>
	<line class="st12" x1="-0.4" y1="604.4" x2="1023.9" y2="604.4"/>
	<polygon class="st12" points="-0.7,476.5 -0.7,666.6 1024.7,666.6 1024.7,365.7 155.6,365.7 	"/>
	<line class="st12" x1="62.2" y1="432.3" x2="1025" y2="432.3"/>
</g>
<g id="bucket2">
	<ellipse class="st13" cx="268.2" cy="400.6" rx="84" ry="28.6"/>
	<path class="st14" d="M185.9,246v145.7c0,14.5,33.1,26.3,73.9,26.3s73.9-11.8,73.9-26.3V246H185.9z"/>
	<path class="st12" d="M185.9,246v145.7c0,14.5,33.1,26.3,73.9,26.3s73.9-11.8,73.9-26.3V246H185.9z"/>
	<ellipse class="st15" cx="259.8" cy="246" rx="73.9" ry="25.4"/>
	<ellipse class="st12" cx="259.8" cy="246" rx="73.9" ry="25.4"/>
	<g>
		<path class="st16" d="M333.5,352.5c0,0-21.5,20-72.7,20c-53.3,0-74.9-20-74.9-20v-61.2c0,0,21.6,20,74.9,20
			c51.1,0,72.7-20,72.7-20V352.5z"/>
		<path class="st17" d="M288.1,360.9c-10.9-3-23.2-10.8-29.6-16.8c-9.3-8.6-19-22.8-24.3-34.6c-3.6-0.5-7-1.1-10.2-1.8
			c0.5,2.7,6.8,15.8,9.3,19.5c9.2,13.8,21,26.6,35.9,34.4c8.4,4.4,17.6,6.8,27,7.5c7.3-1.6,13.5-3.6,18.5-5.7
			C306.7,364,295.4,362.9,288.1,360.9z"/>
		<path class="st12" d="M333.5,352.5c0,0-21.5,20-72.7,20c-53.3,0-74.9-20-74.9-20v-61.2c0,0,21.6,20,74.9,20
			c51.1,0,72.7-20,72.7-20V352.5z"/>
	</g>
	<path class="st18" d="M201.7,261.7c0,0,4.2,4.7,4.7,14.4c0.4,6.9,0,27.8,0.9,37.9c1,10.9,4.4,13.5,7.5,13.5s5.2-2.8,7-11.6
		c1.8-8.9,3-28.3,8.5-29.4s5.1,6.2,9.8,5c4-1,0.8-15.1,7.9-20.4C248,271.1,221.1,270.1,201.7,261.7z"/>
	<path class="st19" d="M238.1,283.3c-1.8,1.1-4.3,0.8-6.1-0.2c-1.5-0.8-5.7-0.8-7.3,1.5l0,0c-3.2,3.2-3.9,11.6-5,18.1
		c-0.5,2.8-2.4,13-3.9,15.6c-1.6,2.6-4.6,3.6-7.2,2.5c1.5,5.2,4,6.6,6.3,6.6c3.1,0,5.2-2.8,7-11.6c1.8-8.9,3-28.3,8.5-29.4
		s5.1,6.2,9.8,5c4-1,0.8-15.1,7.9-20.4c0,0-1.7-0.1-4.5-0.3C243.5,270.9,240.8,281.7,238.1,283.3z"/>
	<path class="st12" d="M201.7,261.7c0,0,4.2,4.7,4.7,14.4c0.4,6.9,0,27.8,0.9,37.9c1,10.9,4.4,13.5,7.5,13.5s5.2-2.8,7-11.6
		c1.8-8.9,3-28.3,8.5-29.4s5.1,6.2,9.8,5c4-1,0.8-15.1,7.9-20.4C248,271.1,221.1,270.1,201.7,261.7z"/>
	<g>
		<ellipse class="st20" cx="235.5" cy="299.1" rx="7.2" ry="9.4"/>
		<ellipse class="st21" cx="234.4" cy="299.1" rx="6.1" ry="8.5"/>
	</g>
	<g>
		<g>
			<path class="st22" d="M333.7,295.8c-0.1-0.1-0.2-0.3-0.3-0.4v13.1c5.3,12.3,6.6,22.9,3.6,31.7c-3.7,11-13,15.1-13.1,15.1
				c0,0-0.1,0-0.1,0.1c-8.8,4.2-20.6,5.5-31.5,3.3c-14.5-2.9-27.9-11.5-39.9-25.5c-10.2-11.9-15.7-23.5-16.3-24.8
				c-1.9-4.1-1.6-6.2-0.9-6.6c1.4-0.8,1.9-2.7,1.1-4.1c-0.8-1.4-2.7-1.9-4.1-1.1c-1.6,0.9-2.7,2.5-3.2,4.4c-0.7,2.7-0.1,6,1.7,9.8
				c1,2.2,6.7,14,17.2,26.2c12.9,15,27.5,24.2,43.3,27.4c3.9,0.8,7.9,1.2,11.9,1.2c8.3,0,16.5-1.7,23.2-4.9
				c1.1-0.5,11.8-5.5,16.3-18.5C347,329.6,344,314,333.7,295.8z"/>
		</g>
		<g>
			<path class="st12" d="M333.7,295.8c-0.1-0.1-0.2-0.3-0.3-0.4v13.1c5.3,12.3,6.6,22.9,3.6,31.7c-3.7,11-13,15.1-13.1,15.1
				c0,0-0.1,0-0.1,0.1c-8.8,4.2-20.6,5.5-31.5,3.3c-14.5-2.9-27.9-11.5-39.9-25.5c-10.2-11.9-15.7-23.5-16.3-24.8
				c-1.9-4.1-1.6-6.2-0.9-6.6c1.4-0.8,1.9-2.7,1.1-4.1c-0.8-1.4-2.7-1.9-4.1-1.1c-1.6,0.9-2.7,2.5-3.2,4.4c-0.7,2.7-0.1,6,1.7,9.8
				c1,2.2,6.7,14,17.2,26.2c12.9,15,27.5,24.2,43.3,27.4c3.9,0.8,7.9,1.2,11.9,1.2c8.3,0,16.5-1.7,23.2-4.9
				c1.1-0.5,11.8-5.5,16.3-18.5C347,329.6,344,314,333.7,295.8z"/>
		</g>
	</g>
</g>
<g id="bucket1">
	<ellipse class="st13" cx="474.8" cy="488.3" rx="147" ry="62"/>
	<g>
		<path class="st23" d="M328.6,218.6v261.8c0,26.1,65.1,47.2,145.5,47.2s145.5-21.1,145.5-47.2V218.6H328.6z"/>
		<path class="st24" d="M358.2,241.3c-1.8,7.4-2.4,14.2-0.6,21.6c1.8,7.7,5.3,37.1,7.3,43.8c2.4,8,6,20.5,22,20.8
			c14.3,0.3,15.4-34,20-38.6c4.9-4.9,17.3,0.3,26.1,30.9c3.4,11.6,9.6,21.5,20.4,27.3c10.2,5.4,28.7-0.5,40.9-5
			c9.3-3.4,16.8,2.1,20.3,12.3c8.5,24.7,2.7,62.9,24.3,58.8c8.8-1.7,11-9.8,11.7-17.5c0.9-10.2,0.2-20.4,1.8-30.6
			c2-12.6,7.6-19.4,16.1-29c10-11.3,10.6-30.6,21.3-35.2c10.6-4.6,16.9,11.2,29.9,5.3v-87.5H366.4
			C367.8,220.7,359.4,236.2,358.2,241.3z"/>
		<path class="st12" d="M328.6,218.6v261.8c0,26.1,65.1,47.2,145.5,47.2s145.5-21.1,145.5-47.2V218.6H328.6z"/>
	</g>
	<ellipse class="st25" cx="474.1" cy="218.6" rx="145.5" ry="45.6"/>
	<g>
		<path class="st26" d="M594.2,214.9c0-15.6-55.4-28.3-120-28.3s-120,12.7-120,28.3c0,2.2,1.1,4.4,3.2,6.4
			c12.7-12.5,61.3-21.9,116.8-21.9s104.2,9.3,116.8,21.9C593.1,219.3,594.2,217.1,594.2,214.9z"/>
	</g>
	<g>
		<path class="st27" d="M474.1,241.4c-101.7,0-116.7-20.2-116.7-20.2c12.8-12.5,61.4-21.8,116.7-21.8c50.5,0,97,8.4,114.2,19.3
			C588.4,218.7,570.2,241.4,474.1,241.4z"/>
		<path class="st28" d="M474.1,241.4c-101.7,0-116.7-20.2-116.7-20.2c12.8-12.5,61.4-21.8,116.7-21.8c50.5,0,97,8.4,114.2,19.3
			C588.4,218.7,570.2,241.4,474.1,241.4z"/>
	</g>
	<ellipse class="st12" cx="474.1" cy="214.9" rx="120" ry="28.3"/>
	<ellipse class="st12" cx="474.1" cy="218.6" rx="145.5" ry="45.6"/>
	<path class="st29" d="M582.4,194.6c-2.2,6.5-19.8,0.9-37.5-1.9c-19.2-3.1-33.9-3.6-38.3-6.2c-7.7-4.6,9.8-23.9,46.4-17.4
		C577.4,173.4,584.6,188.1,582.4,194.6z"/>
	<path class="st30" d="M570.6,175.3c0.8,1.4,7.9,7.7,0.9,14.6c-2.5,2.5-11.5,2-13.7,1.7c-5-0.7-9.4-3.1-14.1-4.7
		c-5-1.7-10.2-1.6-15.3-2.6c-3.9-0.7-9.7-2.2-11.2-6.6c-0.9-2.7,0.6-5.2,2.4-7.1c-13,4.5-17.9,13-13.1,15.8
		c4.4,2.7,19.1,3.1,38.3,6.2c17.7,2.9,35.3,8.4,37.5,1.9C583.9,190.1,580.9,181.5,570.6,175.3z"/>
	<path class="st12" d="M582.4,194.6c-2.2,6.5-19.8,0.9-37.5-1.9c-19.2-3.1-33.9-3.6-38.3-6.2c-7.7-4.6,9.8-23.9,46.4-17.4
		C577.4,173.4,584.6,188.1,582.4,194.6z"/>
	<path class="st31" d="M619.4,442.4c0,0-42.4,36-143.2,36c-105.1,0-147.6-36-147.6-36V332.3c0,0,42.6,36,147.6,36
		c100.8,0,143.2-36,143.2-36V442.4z"/>
	<g>
		<path class="st32" d="M619.4,433.5c-2.4,1.4-34.8,19.8-77.9,19c-44.8-0.9-87.3-31-125.5-88.2l-0.2-0.3c-6.7-1-12.9-2.2-18.7-3.5
			c7.6,14,28.6,48.4,64.1,77c37.8,30.4,79.1,32.1,107.6,28.7c34.8-10.4,50.5-23.7,50.5-23.7v-9H619.4z"/>
	</g>
	<g>
		<path class="st32" d="M541.5,416.3c8.8-1.7,8.4-12.9,9.1-20.5c0.9-10.2,0.2-20.4,1.8-30.6c0.3-1.7,0.6-3.4,1-4.9
			c-10.6,2.5-22.5,4.5-35.8,6C521.9,389.6,523.1,419.7,541.5,416.3z"/>
	</g>
	<g>
		<ellipse class="st20" cx="406" cy="311.7" rx="15.8" ry="20.5"/>
		<ellipse class="st21" cx="403.4" cy="311.8" rx="13.2" ry="18.5"/>
	</g>
	<g>
		<path class="st29" d="M644.6,172.7c1-3.1-0.2-6.7-3-8.7c-2.7-1.9-6.5-1.5-9.6-0.4c-8.1,2.9-12.4,10.8-13.7,18.8
			c-0.2,1.4,0.9,2.7,2.3,2.6C622.2,185,640.9,184.3,644.6,172.7z"/>
		<path class="st12" d="M644.6,172.7c1-3.1-0.2-6.7-3-8.7c-2.7-1.9-6.5-1.5-9.6-0.4c-8.1,2.9-12.4,10.8-13.7,18.8
			c-0.2,1.4,0.9,2.7,2.3,2.6C622.2,185,640.9,184.3,644.6,172.7z"/>
	</g>
	<g>
		<path class="st29" d="M655.7,204.2c1.4-1.2,2-3.4,1.2-5.2s-2.8-2.8-4.7-3.2c-5-1.1-9.6,1.5-12.7,5c-0.5,0.6-0.4,1.6,0.3,2
			C640.6,203.3,650.3,208.8,655.7,204.2z"/>
		<path class="st12" d="M655.7,204.2c1.4-1.2,2-3.4,1.2-5.2s-2.8-2.8-4.7-3.2c-5-1.1-9.6,1.5-12.7,5c-0.5,0.6-0.4,1.6,0.3,2
			C640.6,203.3,650.3,208.8,655.7,204.2z"/>
	</g>
	<path class="st12" d="M619.4,442.4c0,0-42.4,36-143.2,36c-105.1,0-147.6-36-147.6-36V332.3c0,0,42.6,36,147.6,36
		c100.8,0,143.2-36,143.2-36V442.4z"/>
	<path class="st29" d="M611.6,296.9c-3.5,0.2-9.1-2.6-12.6-7c-4-5-16-5-19,6c-7,26.4-13.3,20.9-13.3,39.2c0,57.5-4.2,78.4-21.6,79.5
		c-19.8,1.3-11.8-36.7-21.7-64.1c-4.3-12-9.6-19.8-19.5-20.4c-13.4-0.8-15,5.7-22.6,7.3c-15.6,3.3-23.6-4.1-30.2-11.7
		c-15.7-18.1-16.8-38.6-31.5-49.7c-4.1-3.1-14.3-4.1-19.1,4c-2.9,5-4.7,20.2-7.1,29.3c-1.8,7-5.4,8.2-8.4,8c-5.8-0.4-9-1.9-11.5-9.8
		c-3.8-12,2.3-30.7-6.3-42.6c-9.6-13.3-16.6-25-6-32.3c18.1-12.4,31.3,8.3,109.1,8c29.1-0.1,81.5-5.6,105.9-15.6
		c7.9-3.3,11.6-6.9,13.8-10.3c4.6-7,7.5-11.9,19-10.1c24.2,3.7,12.2,47.3,13.7,61.2C625.7,292.1,621.9,296.2,611.6,296.9z"/>
	<path class="st33" d="M566.3,328.8c0,0-2,16.5-3.7,30.8c-2.7,23.6-6.7,36.9-20.5,35.9c0,0,16.8,12.1,23.2-22.1
		C565.3,373.4,567.7,336,566.3,328.8z"/>
	<path class="st30" d="M616.6,207.9c4.9,10.7,1.3,22.8-2.2,34.7c-1.2,4-2.1,7.9-1.7,12.1c0.4,3.8,1.6,7.5,2.3,11.3
		c0.9,4.4,2.6,11.5-0.2,15.6c-3.2,4.6-9.7,3.1-14.2,1.6c-5.9-1.9-13.4-2.1-18.2,1.7c-8.4,6.7-4.7,13.3-7.9,26.9
		c1.7-3.6,3.6-8.5,5.6-15.9c2.9-11,15-11,19-6c3.5,4.4,9.1,7.2,12.6,7c10.3-0.7,14.1-4.8,11.1-31
		C621.3,253.7,630.3,219.1,616.6,207.9z"/>
	<path class="st30" d="M554.9,394.4c-4.6,3-11.6,2.7-15.6-1.1c-7.4-7.1-6.3-19.6-7.5-29.1c-1.4-10.8-2.4-26.5-11.1-34.6
		c-11-10.2-30.9-4.7-44.5-6.8c-15.8-2.4-27.2-11.9-35.4-25.3c-8-13-18-33.1-36.7-24.5c-6.5,3-8.9,7.6-11.6,13.7
		c-1.8,3.9-2.9,8.1-7.4,9.6c-5.4,1.8-7.4-2-8.4-6.2c-2.2-9-0.9-19.2-4.3-27.9c-2.6-6.5-7.6-11.6-11-17.7c-1.6-3-2.7-6-3.2-9.1
		c-5.8,7.3,0.6,17.7,9.1,29.4c8.6,11.8,2.5,30.6,6.3,42.6c2.5,7.8,5.8,9.3,11.5,9.8c3,0.2,6.6-1,8.4-8c2.4-9.1,4.2-24.2,7.1-29.3
		c4.7-8.1,15-7.1,19.1-4c14.6,11.1,15.8,31.5,31.5,49.7c6.6,7.6,14.5,15.1,30.2,11.7c7.6-1.6,9.2-8.1,22.6-7.3
		c9.9,0.6,15.2,8.4,19.5,20.4c9.9,27.4,1.9,65.3,21.7,64.1c13.1-0.8,18.8-12.9,20.7-43.6C565.4,372.1,561.5,390.1,554.9,394.4z"/>
	<path class="st12" d="M611.6,296.9c-3.5,0.2-9.1-2.6-12.6-7c-4-5-16-5-19,6c-7,26.4-13.3,20.9-13.3,39.2c0,57.5-4.2,78.4-21.6,79.5
		c-19.8,1.3-11.8-36.7-21.7-64.1c-4.3-12-9.6-19.8-19.5-20.4c-13.4-0.8-15,5.7-22.6,7.3c-15.6,3.3-23.6-4.1-30.2-11.7
		c-15.7-18.1-16.8-38.6-31.5-49.7c-4.1-3.1-14.3-4.1-19.1,4c-2.9,5-4.7,20.2-7.1,29.3c-1.8,7-5.4,8.2-8.4,8c-5.8-0.4-9-1.9-11.5-9.8
		c-3.8-12,2.3-30.7-6.3-42.6c-9.6-13.3-16.6-25-6-32.3c18.1-12.4,31.3,8.3,109.1,8c29.1-0.1,81.5-5.6,105.9-15.6
		c7.9-3.3,11.6-6.9,13.8-10.3c4.6-7,7.5-11.9,19-10.1c24.2,3.7,12.2,47.3,13.7,61.2C625.7,292.1,621.9,296.2,611.6,296.9z"/>
	<g>
		<path class="st34" d="M606,100.3c-0.2-0.1-0.4-0.2-0.5-0.3c1.5,2.3,3.3,7.3-0.7,15.7c-5.6,12-38.3,63.8-78.4,107.9
			c3-0.2,6.9-1.3,10.1-3.6c14.5-10.8,41.3-46.3,57.5-70.2C616.1,117.5,613.4,105.4,606,100.3z"/>
		<path class="st18" d="M605.4,100c-7.5-4.4-20.2,1.3-41.7,32.9c-16.5,24.3-40.8,62.5-45.6,79.5c-1.6,5.7,2.1,9.4,4,10.6
			c0.8,0.5,2.3,0.8,4.2,0.6c40-44.2,72.8-95.9,78.4-107.9C608.7,107.3,606.9,102.3,605.4,100z"/>
	</g>
	
		<ellipse transform="matrix(0.5843 -0.8115 0.8115 0.5843 150.8826 527.5282)" class="st35" cx="590.4" cy="116.5" rx="11.7" ry="5.5"/>
	<path class="st12" d="M594,149.9c-16.2,23.9-43,59.3-57.5,70.2c-5.2,3.9-12.3,4.3-14.3,3c-1.9-1.3-5.6-5-4-10.6
		c4.7-17,29-55.2,45.6-79.5c22.1-32.4,34.8-37.7,42.2-32.6C613.4,105.4,616.1,117.5,594,149.9z"/>
	<path class="st29" d="M416.3,184.9c0,6.5-12.6,6.9-24.6,9.8c-13.1,3.1-23.3,5.9-25.9,0c-1.8-4,3.6-22.2,25.9-23.5
		C407,170.3,416.3,178.4,416.3,184.9z"/>
	<path class="st33" d="M382.3,174.4c1.6-0.2,2.2,0.8,2.5,1.5c0.2,0.7,0,1.5-0.5,2.1c-1.1,1.6-3.1,2.5-4.5,3.8
		c-1,0.9-1.8,2.1-2.9,2.9c-1.6,1.1-4.7,1.4-5.1-0.9c-0.3-2.2,2.3-4.9,3.9-6.1C378.4,175.7,380.4,174.7,382.3,174.4z"/>
	<path class="st30" d="M414.4,179.6c-0.5,1.8-1.6,3.6-3.5,5.1c-4.7,3.6-11.8,2.3-17.3,3.6c-5.9,1.4-11.6,4.9-17.8,4.6
		c-5.8-0.3-8-3-8.5-6.7c-1.7,3.7-2,7.1-1.4,8.5c2.6,5.9,12.9,3.1,25.9,0c12-2.9,24.6-3.3,24.6-9.8
		C416.3,183.2,415.6,181.3,414.4,179.6z"/>
	<path class="st12" d="M416.3,184.9c0,6.5-12.6,6.9-24.6,9.8c-13.1,3.1-23.3,5.9-25.9,0c-1.8-4,3.6-22.2,25.9-23.5
		C407,170.3,416.3,178.4,416.3,184.9z"/>
	<g>
		<path class="st27" d="M506.6,208.6c0,0,4,6.4,18.8,7.5c11.7,0.9,18.6-0.7,22.4-1.3c0,0-3.5,12.2-18.4,13.5
			C514.5,229.7,505.7,222.2,506.6,208.6z"/>
		<path class="st12" d="M506.6,208.6c0,0,4,6.4,18.8,7.5c11.7,0.9,18.6-0.7,22.4-1.3"/>
	</g>
	<g>
		<path class="st33" d="M596.1,207.6c-2.3,1.9-4.1,4.6-6.1,7.8c-2.2,3.4-5.9,7-13.8,10.3c-24.4,10-76.7,15.5-105.9,15.6
			c-47.4,0.2-70.8-7.4-86-10.6c13.1,5.9,39.7,15.8,74,17.2C505.5,249.9,595.9,242.3,596.1,207.6z"/>
	</g>
	<g>
		<g>
			<path class="st22" d="M620.3,304.6c-0.2-0.3-0.4-0.6-0.6-0.8v28.6c11.7,26.9,14.3,50,7.9,69.1c-8,23.9-28.3,32.9-28.5,33
				c-0.1,0-0.2,0.1-0.3,0.1c-19.3,9.2-45,11.9-68.7,7.1c-31.6-6.3-60.9-25-87.2-55.6c-22.3-25.9-34.3-51.3-35.6-54.2
				c-4.1-9-3.4-13.6-2-14.5c3.1-1.8,4.1-5.8,2.3-8.9c-1.8-3.1-5.8-4.1-8.9-2.3c-3.4,2-5.9,5.4-7,9.6c-1.5,5.8-0.2,13,3.7,21.5
				c2.2,4.9,14.6,30.5,37.5,57.2c28.2,32.8,60,52.9,94.5,59.9c8.5,1.7,17.3,2.6,26,2.6c18.2,0,36.1-3.7,50.8-10.7
				c2.4-1.1,25.8-12,35.5-40.5C649.3,378.3,642.7,344.2,620.3,304.6z"/>
			<g>
				<path class="st36" d="M400.1,321.1c1.3,8,28.3,81.5,103.1,116.7c0,0,48,21.8,92.2,2.9c44.2-19,42.3-56.1,37.7-80
					c0,0-5.1-22.5-13.4-35.7v7.4c11.7,26.9,14.3,50,7.9,69.1c-8,23.9-28.3,32.9-28.5,33c-0.1,0-0.2,0.1-0.3,0.1
					c-19.3,9.2-45,11.9-68.7,7.1c-31.6-6.3-60.9-25-87.2-55.6c-22.3-25.9-34.3-51.3-35.6-54.2c-4.1-9-3.4-13.6-2-14.5
					c3.1-1.8,4.1-5.8,2.3-8.9c-0.2-0.3-0.4-0.6-0.6-0.9l-4,3.3C403.1,311.2,398.8,313.2,400.1,321.1z"/>
			</g>
		</g>
		<g>
			<path class="st12" d="M620.3,304.6c-0.2-0.3-0.4-0.6-0.6-0.8v28.6c11.7,26.9,14.3,50,7.9,69.1c-8,23.9-28.3,32.9-28.5,33
				c-0.1,0-0.2,0.1-0.3,0.1c-19.3,9.2-45,11.9-68.7,7.1c-31.6-6.3-60.9-25-87.2-55.6c-22.3-25.9-34.3-51.3-35.6-54.2
				c-4.1-9-3.4-13.6-2-14.5c3.1-1.8,4.1-5.8,2.3-8.9c-1.8-3.1-5.8-4.1-8.9-2.3c-3.4,2-5.9,5.4-7,9.6c-1.5,5.8-0.2,13,3.7,21.5
				c2.2,4.9,14.6,30.5,37.5,57.2c28.2,32.8,60,52.9,94.5,59.9c8.5,1.7,17.3,2.6,26,2.6c18.2,0,36.1-3.7,50.8-10.7
				c2.4-1.1,25.8-12,35.5-40.5C649.3,378.3,642.7,344.2,620.3,304.6z"/>
		</g>
	</g>
	<path class="st33" d="M548.9,222.3c1.1-0.6,0.4-2.2-0.8-1.9c-7.3,1.7-22.6,5.3-43.5,2.6c-23.1-3-26.1-12.2-25.3-16.8
		c0.2-0.9-1-1.5-1.7-0.9c-2.3,1.9-4.8,5.3-3.1,9.9c3.7,10.3,34.2,18.2,65.7,10.5C543.2,224.9,546.4,223.7,548.9,222.3z"/>
</g>
<g id="puplemountain">
	<path class="st37" d="M87.1,155.7c-0.6-1.1-0.6-2.5,0-3.6c2.6-4.5,10.7-17.4,20.3-17.4c9.3,0,15.8,12.3,18,17
		c0.6,1.2,0.4,2.8-0.5,3.8c-1.8,2.2-5.4,5-10,0.5c-1.1-1.1-2.8-1.1-3.9,0c-2,2-5.6,4-9.9-0.5c-1-1-2.4-1.2-3.5-0.4
		C94.8,157.1,89.6,159.9,87.1,155.7z"/>
	<path class="st38" d="M89.4,148.1c-0.6-1.1-0.6-2.5,0-3.6c2.2-4.5,9.4-17.4,17.9-17.4c8.2,0,13.9,12.2,15.8,17
		c0.5,1.2,0.3,2.8-0.4,3.8c-1.6,2.2-4.7,5-8.8,0.5c-1-1.1-2.4-1.1-3.4,0c-1.8,2-4.9,4-8.7-0.5c-0.9-1-2.1-1.2-3.1-0.4
		C96.2,149.5,91.6,152.3,89.4,148.1z"/>
	<path class="st39" d="M92.7,139.4c-0.5-0.9-0.5-2,0-2.9c1.8-3.6,7.6-14,14.4-14c6.6,0,11.2,9.9,12.7,13.7c0.4,1,0.3,2.2-0.3,3
		c-1.3,1.8-3.8,4-7.1,0.4c-0.8-0.9-2-0.9-2.7,0c-1.4,1.7-3.9,3.2-7-0.4c-0.7-0.8-1.7-1-2.5-0.3C98.1,140.5,94.4,142.7,92.7,139.4z"
		/>
</g>
<g id="stickcandy">
	
		<ellipse transform="matrix(0.9709 -0.2393 0.2393 0.9709 -34.1452 65.1685)" class="st40" cx="251.3" cy="173.2" rx="11.1" ry="4.1"/>
	<g>
		<path class="st41" d="M257.9,170.1c0.1-0.4,11.7-41.6,15.4-52.3c1.4-3.9,3.6-6.4,6.5-7.1c2.8-0.7,5.5,0.3,6.9,1.5
			c1.6,1.4,2.2,3.8,2,7.1c-0.2,3-1.1,5.5-1.1,5.5c-0.9,2.3,0.4,4.9,2.7,5.8c2.3,0.9,4.9-0.3,5.8-2.7c0.2-0.6,5.3-14.6-3.3-22.4
			c-3.9-3.6-9.9-5-15.2-3.6c-5.9,1.5-10.5,6.1-12.8,13c-3.8,10.9-15.7,52.6-16.2,54.4c0,0-1,2.9,1.3,3.9
			C251.9,174.1,257.3,172.5,257.9,170.1z"/>
	</g>
	<path class="st42" d="M296.9,125.2c-3,1.2-6.2,1.9-9.5,2.1c-0.2-0.8-0.1-1.7,0.2-2.5c0,0,0.2-0.6,0.5-1.6c3.3-0.3,6.6-1.2,9.6-2.7
		C297.5,122.3,297.2,123.9,296.9,125.2z"/>
	<path class="st42" d="M295,108.1c0.9,1.3,1.5,2.6,1.9,4c-2.3,2.6-5.1,4.6-8.2,6c0-1.6-0.3-3-0.7-4.1
		C290.8,112.7,293.2,110.6,295,108.1z"/>
	<path class="st42" d="M283.1,105c0-1.2-0.1-2.4-0.4-3.6c1.4,0.1,2.9,0.4,4.2,0.8c0.2,1.3,0.2,2.7,0.1,4c-0.1,1.5-0.5,3.5-1.2,5.4
		c-1-0.6-2.5-1.1-4-1.1c0.2-0.5,0.4-1,0.6-1.6C282.8,107.6,283,106.3,283.1,105z"/>
	<path class="st42" d="M270.1,106.1c1-1,2.1-1.8,3.2-2.5c2.3,2.1,3.9,4.8,4.7,7.7c-1.3,0.7-2.5,1.9-3.4,3.5
		C274.3,111.4,272.7,108.3,270.1,106.1z"/>
	<g>
		<path class="st43" d="M257.9,170.1c0.1-0.4,11.7-41.6,15.4-52.3c1.4-3.9,3.6-6.4,6.5-7.1c2.8-0.7,5.5,0.3,6.9,1.5
			c1.6,1.4,2.2,3.8,2,7.1c-0.2,3-1.1,5.5-1.1,5.5c-0.9,2.3,0.4,4.9,2.7,5.8c2.3,0.9,4.9-0.3,5.8-2.7c0.2-0.6,5.3-14.6-3.3-22.4
			c-3.9-3.6-9.9-5-15.2-3.6c-5.9,1.5-10.5,6.1-12.8,13c-3.8,10.9-15.7,52.6-16.2,54.4c0,0-1,2.9,1.3,3.9
			C251.9,174.1,257.3,172.5,257.9,170.1z"/>
	</g>
</g>
<g id="paint2">
	<ellipse class="st13" cx="423.3" cy="590.1" rx="18.9" ry="6.7"/>
	<path class="st29" d="M434.6,566.7C434.5,566.7,434.5,566.7,434.6,566.7c-0.2-0.2-0.4-0.3-0.6-0.5c-7.7-5-20.2-5.9-27.7,0
		c-7.4,5.8-7.7,16.3,0.7,21.1c3.9,2.3,8.6,3.1,13.1,3.3c5.2,0.2,13.3,0.3,17.7-3C445.2,582.2,440.3,571.2,434.6,566.7z"/>
	<path class="st44" d="M434.6,566.7C434.5,566.7,434.5,566.7,434.6,566.7c-0.2-0.2-1.8-1.2-2.5-1.5c0.8,2.3,1.2,4.7,1.1,7.2
		c0,3-0.9,5.8-2.9,8c-1.7,1.8-4.1,3-6.5,3.6c-5,1.2-11,1-15.8-0.9c-3-1.2-5.5-3.1-7.3-5.6c0.1,3.9,2.2,7.6,6.3,9.9
		c3.9,2.3,8.6,3.1,13.1,3.3c5.2,0.2,13.3,0.3,17.7-3C445.2,582.2,440.3,571.2,434.6,566.7z"/>
	<path class="st12" d="M434.6,566.7C434.5,566.7,434.5,566.7,434.6,566.7c-0.2-0.2-0.4-0.3-0.6-0.5c-7.7-5-20.2-5.9-27.7,0
		c-7.4,5.8-7.7,16.3,0.7,21.1c3.9,2.3,8.6,3.1,13.1,3.3c5.2,0.2,13.3,0.3,17.7-3C445.2,582.2,440.3,571.2,434.6,566.7z"/>
</g>
<g id="paint1">
	<path class="st13" d="M401,552.1c0,10.1-25.9,18.2-57.9,18.2s-62.6-8.8-63.4-26.1c-0.5-10,31.4-10.3,63.4-10.3S401,542.1,401,552.1
		z"/>
	<path class="st29" d="M398.7,528.8c-7.5-6.8-17.2-10.7-24.7-17.7c-7.7-7.2-14.5-15.8-24.1-20.7c-9.3-4.7-21.5-5.9-31.3-1.8
		c-11.5,4.9-17.2,16.5-24.7,25.6c-6,7.3-18.3,13.8-15.8,24.9c3.2,14.1,17.5,16.3,29.6,15.5c7.1-0.6,13.9-2.9,21-3.2
		c8.2-0.4,16.2,1.7,24,3.9c9.7,2.7,19.7,5.6,29.9,5.3c7.6-0.3,15.7-2.5,19.7-9.5C406.8,543.3,405.3,534.7,398.7,528.8z"/>
	<path class="st44" d="M398.7,528.8c-7.5-6.8-17.2-10.7-24.7-17.7c-3.4-3.2-6.7-6.7-10.1-10c-0.3,6.3,5.5,14,8,16.9
		c4.5,5.2,11,11.6,6.8,17.9c-7.5,11.2-24,5.4-33.8,2.1c-5.6-1.9-10.8-2.9-16.7-1.7c-5,1-9.8,2.8-14.7,4.3
		c-7.1,2.1-16.4-1.3-20.4-4.3c-3.8-2.8-7.2-8.5-6.2-15c-5.3,5-10.4,10.4-8.7,17.9c3.2,14.1,17.5,16.3,29.6,15.5
		c7.1-0.6,13.9-2.9,21-3.2c8.2-0.4,16.2,1.7,24,3.9c9.7,2.7,19.7,5.6,29.9,5.3c7.6-0.3,15.7-2.5,19.7-9.5
		C406.8,543.3,405.3,534.7,398.7,528.8z"/>
	<path class="st12" d="M398.7,528.8c-7.5-6.8-17.2-10.7-24.7-17.7c-7.7-7.2-14.5-15.8-24.1-20.7c-9.3-4.7-21.5-5.9-31.3-1.8
		c-11.5,4.9-17.2,16.5-24.7,25.6c-6,7.3-18.3,13.8-15.8,24.9c3.2,14.1,17.5,16.3,29.6,15.5c7.1-0.6,13.9-2.9,21-3.2
		c8.2-0.4,16.2,1.7,24,3.9c9.7,2.7,19.7,5.6,29.9,5.3c7.6-0.3,15.7-2.5,19.7-9.5C406.8,543.3,405.3,534.7,398.7,528.8z"/>
	<path class="st33" d="M343.3,492.4c-4-3.2-9.2-4.5-14.3-4.2c-5.1,0.3-10.1,2-14.3,4.8c-5.4,3.7-7.3,13.4,1.3,13
		c7.5-0.4,10.6-3.8,22.9-4.8C343.8,500.9,348.6,496.7,343.3,492.4z"/>
</g>
<g id="redmushroom">
	<path class="st45" d="M59.8,171.3c-0.7-1.2-0.7-2.8,0-4c2.8-4.9,11.7-19,22.2-19c10.2,0,17.2,13.4,19.6,18.6c0.6,1.4,0.4,3-0.5,4.1
		c-2,2.4-5.9,5.4-10.9,0.5c-1.2-1.2-3-1.2-4.2,0c-2.2,2.2-6.1,4.4-10.8-0.5c-1.1-1.1-2.6-1.3-3.9-0.5
		C68.2,172.8,62.5,175.8,59.8,171.3z"/>
	<path class="st46" d="M62.3,163c-0.6-1.2-0.6-2.8,0-4c2.5-4.9,10.3-19,19.5-19c9,0,15.1,13.4,17.2,18.6c0.5,1.4,0.3,3-0.5,4.1
		c-1.7,2.4-5.2,5.4-9.6,0.5c-1.1-1.2-2.7-1.2-3.7,0c-1.9,2.2-5.4,4.4-9.5-0.5c-0.9-1.1-2.3-1.3-3.4-0.5
		C69.7,164.5,64.7,167.5,62.3,163z"/>
	<path class="st47" d="M65.9,153.5c-0.5-1-0.5-2.2,0-3.2c2-3.9,8.3-15.3,15.7-15.3c7.2,0,12.2,10.8,13.9,15c0.4,1.1,0.3,2.4-0.4,3.3
		c-1.4,1.9-4.2,4.4-7.7,0.4c-0.9-1-2.1-1-3,0c-1.6,1.8-4.3,3.5-7.6-0.4c-0.8-0.9-1.9-1.1-2.7-0.4C71.8,154.7,67.8,157.1,65.9,153.5z
		"/>
</g>
<g id="cloud">
	<g>
		<path class="st48" d="M116.6,87.2c-0.1-0.6-0.2-1.2-0.2-1.9c0-6.1,6.2-11.1,13.7-11.1c1,0,2,0.1,2.9,0.2
			c0.4-7.9,8.4-14.2,18.3-14.2c9.3,0,16.9,5.6,18.1,12.8c1.2-0.2,2.5-0.4,3.8-0.4c9.4,0,16.6,5.3,16.3,12.8
			c-0.2,6.5-6.5,12.1-15.9,12.1c-1.2,0-2.3-0.1-3.4-0.3c-3.1,3.1-10.7,5.6-17.4,5.6c-9.5,0-15.8-1.8-19.4-5.4
			c-14.9,3.1-22.4-1.5-22.4-4.9C111.1,90.3,112.5,88.2,116.6,87.2z"/>
		<path class="st43" d="M116.6,87.2c-0.1-0.6-0.2-1.2-0.2-1.9c0-6.1,6.2-11.1,13.7-11.1c1,0,2,0.1,2.9,0.2
			c0.4-7.9,8.4-14.2,18.3-14.2c9.3,0,16.9,5.6,18.1,12.8c1.2-0.2,2.5-0.4,3.8-0.4c9.4,0,16.6,5.3,16.3,12.8
			c-0.2,6.5-6.5,12.1-15.9,12.1c-1.2,0-2.3-0.1-3.4-0.3c-3.1,3.1-10.7,5.6-17.4,5.6c-9.5,0-15.8-1.8-19.4-5.4
			c-14.9,3.1-22.4-1.5-22.4-4.9C111.1,90.3,112.5,88.2,116.6,87.2z"/>
	</g>
	<g>
		<path class="st48" d="M641.9,107.4c-0.2-0.9-0.3-1.8-0.3-2.7c0-8.9,8.9-16.1,20-16.1c1.4,0,2.8,0.1,4.2,0.4
			c0.5-11.5,12.2-20.6,26.6-20.6c13.5,0,24.6,8.1,26.4,18.5c1.8-0.3,3.6-0.5,5.5-0.5c13.6,0,24.1,7.7,23.7,18.7
			c-0.3,9.5-9.4,17.6-23.1,17.6c-1.7,0-3.4-0.1-5-0.4c-4.5,4.5-15.6,8.2-25.3,8.2c-13.9,0-22.9-2.7-28.2-7.9
			c-21.6,4.5-32.6-2.1-32.6-7.1C633.8,111.9,635.9,108.8,641.9,107.4z"/>
		<path class="st43" d="M641.9,107.4c-0.2-0.9-0.3-1.8-0.3-2.7c0-8.9,8.9-16.1,20-16.1c1.4,0,2.8,0.1,4.2,0.4
			c0.5-11.5,12.2-20.6,26.6-20.6c13.5,0,24.6,8.1,26.4,18.5c1.8-0.3,3.6-0.5,5.5-0.5c13.6,0,24.1,7.7,23.7,18.7
			c-0.3,9.5-9.4,17.6-23.1,17.6c-1.7,0-3.4-0.1-5-0.4c-4.5,4.5-15.6,8.2-25.3,8.2c-13.9,0-22.9-2.7-28.2-7.9
			c-21.6,4.5-32.6-2.1-32.6-7.1C633.8,111.9,635.9,108.8,641.9,107.4z"/>
	</g>
	<g>
		<path class="st48" d="M430.3,43.4c-0.5-1.5-0.7-3-0.7-4.6c0-9.8,9.4-17.8,21.1-17.8c4.3,0,8.2,1.1,11.6,2.9
			c5.9-7.1,16.2-11,28.3-9.8c24,2.4,25.7,21.8,25.7,21.8c0.1,0,0.2,0,0.3,0c11-1.6,20.2,4.3,21.9,9.2c11.1,1,14.7,4.6,14.7,8.9
			c0,5.1-8.4,9.6-22.9,10c-8.9,0.2-14.9-0.2-20.4-2c-5.2,5.2-16.2,7.7-30.3,7.7c-12.7,0-23.8-3-29.7-7.4c-2.6,1.2-5.6,1.8-8.9,1.8
			c-9.2,0-16.6-5.3-16.6-11.8C424.3,48.8,426.6,45.5,430.3,43.4z"/>
		<path class="st43" d="M430.3,43.4c-0.5-1.5-0.7-3-0.7-4.6c0-9.8,9.4-17.8,21.1-17.8c4.3,0,8.2,1.1,11.6,2.9
			c5.9-7.1,16.2-11,28.3-9.8c24,2.4,25.7,21.8,25.7,21.8c0.1,0,0.2,0,0.3,0c11-1.6,20.2,4.3,21.9,9.2c11.1,1,14.7,4.6,14.7,8.9
			c0,5.1-8.4,9.6-22.9,10c-8.9,0.2-14.9-0.2-20.4-2c-5.2,5.2-16.2,7.7-30.3,7.7c-12.7,0-23.8-3-29.7-7.4c-2.6,1.2-5.6,1.8-8.9,1.8
			c-9.2,0-16.6-5.3-16.6-11.8C424.3,48.8,426.6,45.5,430.3,43.4z"/>
	</g>
</g>
<g id="tomato2">
	<ellipse class="st13" cx="924.9" cy="542.3" rx="58.8" ry="18.6"/>
	<path class="st49" d="M994.8,475.3c3.6,37.7-20.9,68.7-71.6,77.9c-37.3,6.8-82.1-7.4-92-47.4c-8.2-33.4,25.2-68,70.4-76.4
		C946.8,420.9,991.6,441,994.8,475.3z"/>
	<path class="st50" d="M994.8,475.3c-1.8-18.9-16.3-33.5-36.5-41.4c0.2,0.2,0.3,0.5,0.6,0.7c9.4,6.7,15.5,23.2,15.5,35.1
		c0,20.1-10.2,37.2-25.3,50.2c-16.9,14.5-42.1,19.3-64,19.3c-13.3,0-26.5-2.3-39-6.8c18.7,19.3,49.9,25.6,77.2,20.6
		C973.9,544,998.4,512.9,994.8,475.3z"/>
	<path class="st12" d="M994.8,475.3c3.6,37.7-20.9,68.7-71.6,77.9c-37.3,6.8-82.1-7.4-92-47.4c-8.2-33.4,25.2-68,70.4-76.4
		C946.8,420.9,991.6,441,994.8,475.3z"/>
	<g class="st51">
		<path class="st52" d="M865.2,453.3c1.6-0.3,3.4-0.3,4.6,0.8c7.3,6.9-9.4,13.1-13.1,15.8c-2.2,1.6-4.9,0.5-5.4-1.1
			C849.1,461.7,859.6,454.4,865.2,453.3z"/>
		<path class="st52" d="M840,494.8c0,12.5,6.1,24.6,15.8,32.6c1.3,1.1,3.1,0.5,2.5-1.1c-3.3-5.8-6.9-10.7-8-18.7
			c-1-7.7-0.2-15.4,1-23.1c0.3-1.6,0.7-3.4,0.1-4.9c-0.9-2.4-2.3-2.7-4.1-2.7c-2,0-3.8,2.4-4.2,3.3C840.6,485.5,840,489.8,840,494.8
			z"/>
	</g>
	<g>
		<path class="st53" d="M905.5,439.5c0,0-10.4-3.2-19.6-14.4c-1-1.2-3-0.8-3.4,0.7c-1.3,4.5-2,12.8,6.2,21.1c0,0-5.1,6.5-16,9.9
			c-2,0.6-2.2,3.4-0.3,4.3c5.7,2.6,16.1,4.8,29.6-3.2c0,0,1.4,13.8,15.8,18c1.8,0.5,3.5-1.2,2.9-3.1c-1-3-2-7.9-1.9-15.6
			c0,0,19.5-0.5,26.7-15.5c0.8-1.7-1.1-3.5-2.8-2.5c-5.1,3-13.6,4.1-21.5,1.2c0,0,2.4-8.3-1.7-19.3c-0.6-1.6-2.9-1.6-3.5,0
			C914.1,426.8,910.3,436,905.5,439.5z"/>
		<path class="st12" d="M905.5,439.5c0,0-10.4-3.2-19.6-14.4c-1-1.2-3-0.8-3.4,0.7c-1.3,4.5-2,12.8,6.2,21.1c0,0-5.1,6.5-16,9.9
			c-2,0.6-2.2,3.4-0.3,4.3c5.7,2.6,16.1,4.8,29.6-3.2c0,0,1.4,13.8,15.8,18c1.8,0.5,3.5-1.2,2.9-3.1c-1-3-2-7.9-1.9-15.6
			c0,0,19.5-0.5,26.7-15.5c0.8-1.7-1.1-3.5-2.8-2.5c-5.1,3-13.6,4.1-21.5,1.2c0,0,2.4-8.3-1.7-19.3c-0.6-1.6-2.9-1.6-3.5,0
			C914.1,426.8,910.3,436,905.5,439.5z"/>
	</g>
	<g>
		<path class="st53" d="M903.8,445.7c-0.4-0.2-0.7-0.7-0.6-1.2c0.5-3.2,2-15.7-6-26.1c-1-1.3-1.3-2.7,0.1-3.4c2-1.1,5.3-1.6,7.1-1.6
			c0.8,0,1.6,0.8,2,1.5c1.9,3.5,7.2,17,2.5,29.4c0,0-0.3,1-1,1.5C907.3,446.2,905.6,446.5,903.8,445.7z"/>
		<path class="st12" d="M903.8,445.7c-0.4-0.2-0.7-0.7-0.6-1.2c0.5-3.2,2-15.7-6-26.1c-1-1.3-1.3-2.7,0.1-3.4c2-1.1,5.3-1.6,7.1-1.6
			c0.8,0,1.6,0.8,2,1.5c1.9,3.5,7.2,17,2.5,29.4c0,0-0.3,1-1,1.5C907.3,446.2,905.6,446.5,903.8,445.7z"/>
	</g>
</g>
<g id="tomato1">
	<ellipse class="st13" cx="799.9" cy="607.8" rx="44.5" ry="15.3"/>
	<path class="st49" d="M732,550.4c0.7,32.4,24.6,56.4,68.7,59.2c32.5,2.1,69.2-14.5,73.6-49.5c3.7-29.2-28.2-55.4-67.5-58.1
		C767.5,499.3,731.4,520.9,732,550.4z"/>
	<path class="st50" d="M732,550.4c-0.3-16.3,10.6-30.2,27-38.9c-0.1,0.2-0.2,0.5-0.4,0.7c-7.3,6.6-10.9,21.3-9.7,31.4
		c2,17.2,12.3,30.7,26.6,40.3c15.8,10.7,37.8,12.3,56.4,10.2c11.3-1.3,22.4-4.6,32.6-9.6c-14,18.3-40,26.7-63.7,25.2
		C756.6,606.8,732.7,582.8,732,550.4z"/>
	<path class="st12" d="M732,550.4c0.7,32.4,24.6,56.4,68.7,59.2c32.5,2.1,69.2-14.5,73.6-49.5c3.7-29.2-28.2-55.4-67.5-58.1
		C767.5,499.3,731.4,520.9,732,550.4z"/>
	<g class="st51">
		<path class="st52" d="M764.8,520.6c1-0.1,2.2,0.1,2.9,0.9c4.2,5-7,7.7-9.6,9.2c-1.5,0.9-3.2-0.1-3.4-1.1
			C753.8,524.8,761.1,520.9,764.8,520.6z"/>
		<path class="st52" d="M745.5,545.4c-0.9,8.1,2.1,16.3,7.7,22.2c0.8,0.8,2,0.6,1.7-0.5c-1.7-4-3.6-7.4-3.7-12.6
			c-0.1-5,1-10,2.4-14.8c0.3-1,0.7-2.1,0.4-3.2c-0.4-1.6-1.3-1.9-2.4-2c-1.3-0.1-2.6,1.3-3,1.8C746.5,539.5,745.8,542.2,745.5,545.4
			z"/>
	</g>
	<g>
		<path class="st53" d="M804.5,511.1c0,0,8.5-3.8,15.2-14.2c0.7-1.2,2.5-1,3,0.2c1.5,3.7,3,10.7-3.2,18.6c0,0,5,5,14.6,6.8
			c1.8,0.3,2.2,2.7,0.7,3.6c-4.6,2.8-13.3,5.7-25.5,0.2c0,0,0.1,11.9-11.7,16.9c-1.5,0.6-3.1-0.7-2.8-2.3c0.6-2.7,0.9-7,0.1-13.5
			c0,0-16.7,1.5-24.3-10.6c-0.9-1.4,0.6-3.1,2.1-2.4c4.6,2,12,2.2,18.4-1.1c0,0-2.9-6.9-0.5-16.6c0.4-1.4,2.3-1.6,3-0.3
			C796,501.1,800.2,508.6,804.5,511.1z"/>
		<path class="st12" d="M804.5,511.1c0,0,8.5-3.8,15.2-14.2c0.7-1.2,2.5-1,3,0.2c1.5,3.7,3,10.7-3.2,18.6c0,0,5,5,14.6,6.8
			c1.8,0.3,2.2,2.7,0.7,3.6c-4.6,2.8-13.3,5.7-25.5,0.2c0,0,0.1,11.9-11.7,16.9c-1.5,0.6-3.1-0.7-2.8-2.3c0.6-2.7,0.9-7,0.1-13.5
			c0,0-16.7,1.5-24.3-10.6c-0.9-1.4,0.6-3.1,2.1-2.4c4.6,2,12,2.2,18.4-1.1c0,0-2.9-6.9-0.5-16.6c0.4-1.4,2.3-1.6,3-0.3
			C796,501.1,800.2,508.6,804.5,511.1z"/>
	</g>
	<g>
		<path class="st53" d="M806.6,516.2c0.4-0.2,0.5-0.7,0.4-1.1c-0.8-2.6-3.3-13.2,2.5-22.8c0.7-1.2,0.8-2.4-0.4-2.9
			c-1.8-0.7-4.7-0.8-6.2-0.7c-0.7,0.1-1.3,0.8-1.6,1.4c-1.3,3.2-4.5,15.2,0.8,25.3c0,0,0.4,0.8,1,1.2
			C803.7,517,805.2,517,806.6,516.2z"/>
		<path class="st12" d="M806.6,516.2c0.4-0.2,0.5-0.7,0.4-1.1c-0.8-2.6-3.3-13.2,2.5-22.8c0.7-1.2,0.8-2.4-0.4-2.9
			c-1.8-0.7-4.7-0.8-6.2-0.7c-0.7,0.1-1.3,0.8-1.6,1.4c-1.3,3.2-4.5,15.2,0.8,25.3c0,0,0.4,0.8,1,1.2
			C803.7,517,805.2,517,806.6,516.2z"/>
	</g>
</g>
<g id="apple">
	<ellipse class="st13" cx="100.4" cy="597.1" rx="65" ry="22.5"/>
	<g>
		<path class="st29" d="M208,566.9C184.2,606,122.8,618.8,83.2,600c-41.7-19.8-59.6-77.2-35.5-120.4c15.9-28.5,40.5-42.2,68.7-40.3
			c20.8,1.3,28.8,18,44,26.5c15.7,8.7,26.6,2.3,44.9,21.3C224.7,507.1,224.7,539.3,208,566.9z"/>
		<g>
			<path class="st44" d="M205.3,487c-1.3-1.3-7.9-6.3-9.1-7.4c18.2,26.2,4.4,58.1-13.7,77.1c-25,26.3-74,40.3-110.4,19.1
				c-22.2-13-32.1-43-35.1-58.5c-1.8,34.2,15.9,68.4,46.2,82.7c39.6,18.8,101.1,5.9,124.8-33.1C224.7,539.3,224.7,507.1,205.3,487z"
				/>
		</g>
		<path class="st12" d="M208,566.9C184.2,606,122.8,618.8,83.2,600c-41.7-19.8-59.6-77.2-35.5-120.4c15.9-28.5,40.5-42.2,68.7-40.3
			c20.8,1.3,28.8,18,44,26.5c15.7,8.7,26.6,2.3,44.9,21.3C224.7,507.1,224.7,539.3,208,566.9z"/>
		<path class="st44" d="M180.1,487.7c4.7,2.2,8.6,6.8,2.9,9.9c-1.7,0.9-8.7,2.8-15.8,2.7c-10.3,0-20.8-4.3-28.7-11
			s-12.5-15.8-16-25.5c-1.1-3.1-2.8-8.6,1.9-9.2c9.8-1.2,17.5,13.6,23.4,18.9C157.1,482,168.8,482.4,180.1,487.7z"/>
		<path class="st28" d="M121.2,457.2c0,0,3,21.6,20.5,34.3c22.3,16.1,42.4,5.3,42.4,5.3"/>
		<path class="st54" d="M138.9,489.2c-1-0.9-2.1-1.8-2.1-1.8c5.8-5,28.4-28.2,25.1-58.1c-0.3-2.5,1.7-4.4,4.5-3.9
			c1.5,0.2,6.3,1.2,7.5,2.4c1,1,1.5,2.5,1.3,4c-0.7,8.4-9,47.5-32.4,60.5C142.9,492.2,141.6,491.9,138.9,489.2z"/>
		<path class="st55" d="M167.6,430.8c2.3,0.6,5.7,1.4,6.2-0.6c0.4-1.3-2.8-2.6-4.3-2.8c-1.3-0.3-6.1-1.6-6,0.5
			C163.6,429,165.3,430.2,167.6,430.8z"/>
		<path class="st56" d="M105.1,450.6c0.8,1.2,1.4,2.6,1.5,4c0.8,9.5-8.6,11.3-15.5,13.1c-8.2,2.1-15.8,6.1-22.7,10.9
			c-1.8,1.2-3.5,2.6-5.6,3.1c-0.2,0.1-0.5,0.1-0.7,0.2c-2.9,0.5-5.2-2.6-4-5.3c0.3-0.8,0.8-1.6,1.2-2.5C66,462.4,86.5,440.7,102,448
			C103.2,448.6,104.3,449.5,105.1,450.6z"/>
		<path class="st56" d="M56.8,492.9c-1.5,2.1-4.6,4.1-6.4,2.8c-1.7-1.3-1.5-5.4,0.1-7.5s3.2-3.1,5.9-1.4
			C59.6,488.7,58.4,490.8,56.8,492.9z"/>
	</g>
</g>
<g id="bigstone">
	
		<ellipse transform="matrix(3.094460e-02 -0.9995 0.9995 3.094460e-02 701.6843 1079.365)" class="st57" cx="907.5" cy="177.8" rx="13.2" ry="48.2"/>
	<g>
		<path class="st58" d="M861.9,169.7c2.3,9.6,21.4,8,21.4,8c5.4,6.3,16.6,9,24,9c15.7,0,25.3-6.5,25.3-6.5c11,2.2,22-1.8,21.7-10.3
			c-0.6-17.4-21.3-46-44.5-46.3C885.6,123.3,858.5,155.9,861.9,169.7z"/>
		<g>
			<path class="st59" d="M870.1,164.1c3.1,4.6,6.8,8.1,12.2,9.7c5.2,1.5,10.2,0.3,14.9-2.2c4.1-2.2,7.9-5.1,12.4-6.4
				c9.8-2.8,18.5,3.7,28.1,4.5c5.5,0.5,11.2-0.4,16.2-2.9c-2.7-17.5-22.3-43-44.2-43.2c-18.4-0.2-38.4,18.6-45.5,33.7
				C866.7,159,868.5,161.6,870.1,164.1z"/>
		</g>
		
			<ellipse transform="matrix(6.412721e-02 -0.9979 0.9979 6.412721e-02 690.2631 1076.4519)" class="st59" cx="919.1" cy="170.2" rx="3.1" ry="3.5"/>
		
			<ellipse transform="matrix(6.412721e-02 -0.9979 0.9979 6.412721e-02 690.2869 1091.5547)" class="st59" cx="927.1" cy="177.7" rx="2.2" ry="2.4"/>
	</g>
	<g>
		<g>
			<path class="st60" d="M877.3,167.1c6,3.5,12.2,4.3,24.9-2.1c6.9-3.5,11.2-5.9,23.9-1.3c13.1,4.8,21.1,0.6,24.8-7.2
				c-6.9-15.8-23.2-32.8-41.1-33c-17.8-0.2-37.2,17.5-44.8,32.4C869.9,157.8,872.3,164.3,877.3,167.1z"/>
			<g>
				<path class="st61" d="M884.7,158.1c9,0.5,16.5-6.4,19.8-7.6c7.3-2.6,19.1,3.5,23.2,3.7c6.7,0.3,13.9-2.6,16.8-8.9
					c-8.3-11.7-21.1-21.7-34.7-21.8c-13.4-0.1-27.7,9.9-37.2,21.1C872.8,151.2,875.1,157.6,884.7,158.1z"/>
			</g>
		</g>
		<path class="st6" d="M877.3,167.1c6,3.5,12.2,4.3,24.9-2.1c6.9-3.5,11.2-5.9,23.9-1.3c13.1,4.8,21.1,0.6,24.8-7.2
			c-6.9-15.8-23.2-32.8-41.1-33c-17.8-0.2-37.2,17.5-44.8,32.4C869.9,157.8,872.3,164.3,877.3,167.1z"/>
	</g>
	<g>
		<g>
			<path class="st62" d="M882.3,154.4c7.6,1.8,13.8-4.3,20.5-6.7c3.8-1.3,7.7-1.3,11.6-0.4c3.8,0.9,10.5,2.7,14.4,3.1
				c5.7,0.6,11.7-2.1,14.2-7.1c-8.3-10.8-20.4-19.7-33.2-19.8c-12.7-0.1-26.3,8.9-35.8,19.5C874.4,148.5,876.7,153.1,882.3,154.4z"
				/>
			<g>
				<path class="st63" d="M938,137.6c-0.5,3.3-4.4,5.4-9.5,5.9c-8.6,0.8-16.7-6-25-2.1c-6.3,2.9-12.4,8.4-19.6,6.1
					c-3.5-1.1-6.1-3-7.2-7.3c-0.1,0.2-2.6,2.8-2.7,2.9c0.4,5.5,2.7,10.1,8.3,11.4c7.6,1.8,13.8-4.3,20.5-6.7
					c3.8-1.3,7.7-1.3,11.6-0.4c3.8,0.9,10.5,2.7,14.4,3.1c5.7,0.6,11.7-2.1,14.2-7.1C941.4,141.3,939.8,139.4,938,137.6z"/>
			</g>
		</g>
		<path class="st6" d="M882.3,154.4c7.6,1.8,13.8-4.3,20.5-6.7c3.8-1.3,7.7-1.3,11.6-0.4c3.8,0.9,10.5,2.7,14.4,3.1
			c5.7,0.6,11.7-2.1,14.2-7.1c-8.3-10.8-20.4-19.7-33.2-19.8c-12.7-0.1-26.3,8.9-35.8,19.5C874.4,148.5,876.7,153.1,882.3,154.4z"/>
	</g>
	<path class="st64" d="M954.2,169.8c-0.6-17.4-21.3-46-44.5-46.3c-1.9,0-3.7,0.2-5.6,0.5c21.8,4.2,31.9,22.6,36.6,36
		c2.3,6.5,3.5,13.2,4,19.9C950.4,178.6,954.4,175,954.2,169.8z"/>
	<path class="st6" d="M861.9,169.7c2.3,9.6,21.4,8,21.4,8c5.4,6.3,16.6,9,24,9c15.7,0,25.3-6.5,25.3-6.5c11,2.2,22-1.8,21.7-10.3
		c-0.6-17.4-21.3-46-44.5-46.3C885.6,123.3,858.5,155.9,861.9,169.7z"/>
	<path class="st65" d="M895.5,133.2l0.2,3.4c0,0.7,0.7,1.2,1.3,0.8l2.9-2c0.5-0.4,0.4-1.3-0.1-1.6l-3-1.5
		C896.1,132.1,895.5,132.5,895.5,133.2z"/>
	<path class="st66" d="M909.1,124.8l-2.4,2.5c-0.5,0.5-0.4,1.3,0.3,1.5l3.4,0.8c0.6,0.1,1.2-0.6,1-1.2l-1-3.2
		C910.2,124.5,909.6,124.4,909.1,124.8z"/>
	<path class="st65" d="M927.2,135.2l-1.6,3c-0.4,0.6,0,1.4,0.7,1.3l3.5-0.2c0.6-0.1,1-0.9,0.7-1.4l-1.9-2.8
		C928.2,134.6,927.5,134.6,927.2,135.2z"/>
</g>
<g id="smallstone">
	<ellipse class="st57" cx="984.6" cy="214.5" rx="36.1" ry="12.2"/>
	<path class="st67" d="M1019.5,211.5c-2.2,7-16.2,4.9-16.2,4.9c-4.3,4.4-12.7,5.9-18.1,5.5c-11.6-0.8-18.4-6-18.4-6
		c-8.3,1.1-18.6-0.1-17.9-6.4c1.3-12.9,20.3-35.2,37.5-34.3C1004.2,176.1,1022.6,201.5,1019.5,211.5z"/>
	<path class="st68" d="M970.5,196.9c8.2,1.2,10.6,14.2,21.1,13.9c9-0.3,12.3-9.6,15.7-11.9c3.3-2.3,6.1-1.3,9.1-0.7
		c-5.8-10.7-18.1-22.4-30.1-23.1c-13-0.7-27.2,12-33.8,23.9C957.3,202.9,967.1,196.4,970.5,196.9z"/>
	<path class="st6" d="M1019.5,211.5c-2.2,7-16.2,4.9-16.2,4.9c-4.3,4.4-12.7,5.9-18.1,5.5c-11.6-0.8-18.4-6-18.4-6
		c-8.3,1.1-18.6-0.1-17.9-6.4c1.3-12.9,20.3-35.2,37.5-34.3C1004.2,176.1,1022.6,201.5,1019.5,211.5z"/>
	<path class="st69" d="M960.9,196.2c2.8-0.9,5.2-2.7,8.2-2.9c6-0.3,10.9,6.1,15.6,9.1c3.8,2.4,9.5,3.5,13.5,0c1.9-1.7,3-3.8,4.8-5.6
		c4-4.2,6.7-2.9,11.5-2c-6.3-9.7-17.4-19.2-28.2-19.8c-11.6-0.6-24.1,9.4-31.3,19.9C956.3,196.6,958.9,196.9,960.9,196.2z"/>
	<path class="st70" d="M1003.2,191.8c-5.4,2.3-7.8,9.1-14.7,7.5c-6-1.5-9.6-8-16.1-8.3c-4.6-0.2-11.2,3.6-16,1.9
		c-0.5,0.7-1,1.4-1.5,2.1c1.3,1.6,3.9,1.9,6,1.2c2.8-0.9,5.2-2.7,8.2-2.9c6-0.3,10.9,6.1,15.6,9.1c3.8,2.4,9.5,3.5,13.5,0
		c1.9-1.7,3-3.8,4.8-5.6c4-4.2,6.7-2.9,11.5-2c-0.9-1.3-1.8-2.7-2.9-4C1008.8,190.5,1005.9,190.7,1003.2,191.8z"/>
	<path class="st71" d="M966,187.4c1.1,1.2,3.4,0.5,4.7,0.1c2.2-0.8,4.2-1.9,6.6-1.8c2.3,0.1,4.3,1.3,6.3,2.4c1.9,1,3.8,2,5.9,2.5
		c1.6,0.4,3.8,0.5,5.1-0.8c1.2-1.2,1.3-3.2,1.9-4.7c0.7-1.8,1.9-3.1,3.6-3.9c0.3-0.1,0.6-0.2,0.9-0.3c-4.6-3.3-9.7-5.5-14.7-5.7
		c-6.5-0.4-13.2,2.6-19.2,7.1C965.9,183.7,964.5,185.7,966,187.4z"/>
	<path class="st6" d="M960.9,196.2c2.8-0.9,5.2-2.7,8.2-2.9c6-0.3,10.9,6.1,15.6,9.1c3.8,2.4,9.5,3.5,13.5,0c1.9-1.7,3-3.8,4.8-5.6
		c4-4.2,6.7-2.9,11.5-2c-6.3-9.7-17.4-19.2-28.2-19.8c-11.6-0.6-24.1,9.4-31.3,19.9C956.3,196.6,958.9,196.9,960.9,196.2z"/>
</g>
<g id="bucket3">
	<ellipse class="st13" cx="787.3" cy="397.8" rx="95.2" ry="32.4"/>
	<g>
		<g>
			<path class="st31" d="M698.7,208.6v178c0,17.7,40.4,32.1,90.2,32.1s90.2-14.4,90.2-32.1v-178H698.7z"/>
			<path class="st12" d="M698.7,208.6v178c0,17.7,40.4,32.1,90.2,32.1s90.2-14.4,90.2-32.1v-178H698.7z"/>
			<g>
				<path class="st32" d="M722.1,351.8c6.6,5.4,14.4,10.4,23.6,14.2c36.6,15.1,70.9,10.6,94.7-3.3c5.4-3.2,10.2-6.7,14.4-10.4
					c-14.4,5.6-35.6,10.9-64.6,10.9C759.2,363.2,736.9,357.6,722.1,351.8z"/>
			</g>
		</g>
		<g>
			<path class="st72" d="M879.1,338.7c0,0-26.3,24.5-88.8,24.5c-65.2,0-91.6-24.5-91.6-24.5v-74.8c0,0,26.4,24.5,91.6,24.5
				c62.5,0,88.8-24.5,88.8-24.5V338.7z"/>
			<g>
				<path class="st73" d="M844.6,341c-33.7,30.8-91.6,18-114.2-1.8c-18.4-16-28.6-45.4-31.7-55.8v55.4c0,0,26.4,24.5,91.6,24.5
					c62.5,0,88.8-24.5,88.8-24.5v-64.5C875.8,291.2,867.2,320.4,844.6,341z"/>
			</g>
			<path class="st12" d="M879.1,338.7c0,0-26.3,24.5-88.8,24.5c-65.2,0-91.6-24.5-91.6-24.5v-74.8c0,0,26.4,24.5,91.6,24.5
				c62.5,0,88.8-24.5,88.8-24.5V338.7z"/>
		</g>
		<g>
			<ellipse class="st20" cx="702.5" cy="247.9" rx="8.2" ry="16.4"/>
			<ellipse class="st21" cx="700.3" cy="248.1" rx="5.9" ry="14.5"/>
		</g>
		<g>
			<g>
				<path class="st22" d="M792.3,370.2c-1.8,0-3.6,0-5.4-0.1c-37.3-1.7-65-17.1-82.3-45.7c-12-19.8-16-41.2-17.3-55.7
					c-1.8-20,9.1-24.5,9.5-24.6c1.8-0.7,3.8,0.2,4.5,2s-0.2,3.8-1.9,4.6c-0.4,0.2-6.4,3.2-5.1,17.4c2.4,27.4,16.3,91.4,93,94.9
					c34.7,1.6,61.2-12.5,78.8-42c15.8-26.6,18.3-55.5,18.6-58.7c0-0.1,0-0.2,0-0.2c0.2-1.6,0.8-9.9-7.3-11c-1.9-0.2-3.3-2-3-4
					c0.2-1.9,2-3.3,3.9-3.1c4.4,0.6,7.8,2.4,10.2,5.6c4,5.3,3.4,12,3.2,13.3c-0.3,3.8-3,34-19.5,61.7
					C854.2,354.5,826.7,370.2,792.3,370.2z"/>
			</g>
			<path class="st12" d="M792.3,370.2c-1.8,0-3.6,0-5.4-0.1c-37.3-1.7-65-17.1-82.3-45.7c-12-19.8-16-41.2-17.3-55.7
				c-1.8-20,9.1-24.5,9.5-24.6c1.8-0.7,3.8,0.2,4.5,2s-0.2,3.8-1.9,4.6c-0.4,0.2-6.4,3.2-5.1,17.4c2.4,27.4,16.3,91.4,93,94.9
				c34.7,1.6,61.2-12.5,78.8-42c15.8-26.6,18.3-55.5,18.6-58.7c0-0.1,0-0.2,0-0.2c0.2-1.6,0.8-9.9-7.3-11c-1.9-0.2-3.3-2-3-4
				c0.2-1.9,2-3.3,3.9-3.1c4.4,0.6,7.8,2.4,10.2,5.6c4,5.3,3.4,12,3.2,13.3c-0.3,3.8-3,34-19.5,61.7
				C854.2,354.5,826.7,370.2,792.3,370.2z"/>
		</g>
		<g>
			<ellipse class="st74" cx="789" cy="208.6" rx="90.2" ry="31"/>
			<ellipse class="st12" cx="789" cy="208.6" rx="90.2" ry="31"/>
		</g>
		<g>
			<path class="st75" d="M863.4,207.9c0,7.9-34.3,17.1-74.4,17.1s-74.4-9.1-74.4-17.1c0-7.9,34.3-18.1,74.4-18.1
				S863.4,200,863.4,207.9z"/>
			<path class="st12" d="M863.4,207.9c0,10.4-34.3,19-74.4,19s-74.4-8.9-74.4-19c0-10.3,34.3-19.6,74.4-19.6
				S863.4,197.1,863.4,207.9z"/>
		</g>
	</g>
</g>
<g id="brush1">
	<path class="st13" d="M764.5,438.4c-9-8-19.4-8.1-34.3-0.7c-12,6-26,17.2-44.2,28.7c-12.1,7.7-28.4,19-42.6,27.3
		c-3.4,2-9.9,2.8-13.8,2.7l-44.4-1.1c-4.2-0.1-8.4,0.5-12.4,1.9c-8.7,2.9-14.9,5.9-18,7.6c-0.8,0.4-1.1,1.2-1,2
		c-20.5,10.2-51.7,21.8-63.3,25.9c-4.4,1.5-5.5,4.2-5.6,8.8c-0.1,4,0.1,7.8,0.2,10.6c0,3.2,1.2,4.5,3.5,6.7c0.7,0.6,2.8,2.6,4.4,3.8
		c0.8,0.6,3.8,0.3,3.8,0.3s-0.3,2.7,1.8,4.4c5.6,4.6,12.8,10.7,20.5,17.1c1.7,1.4,4.7,3.1,6.3,2.9c0,0,0,3.2,4.3,6.3
		c1.1,0.8,6,3,6,2.8c1,3.5,4.5,5.2,6.5,6.8c4.9,4,8.2,6.6,12,9.3c3.5,2.5,6.2,2.5,6.2,2.5s3.4,4.4,6.3,6.2c6.3,3.9,10.1,4.6,14,1.2
		c17.4-15.6,45.1-35.5,52.8-41.3l0.1,2.4c0,0.7,0.9,1.2,1.5,0.7c4.5-3.2,18.6-13.4,26.2-19.7c2.9-2.4,4.8-5.9,5.1-9.7l1.9-21.2
		c0.4-4.7,2.7-6.3,6.6-8.8c10.1-6.4,22.2-12.9,32.3-19.5c16.3-10.6,35.1-21.9,54.5-35.2C773.1,462.4,772.6,445.6,764.5,438.4z
		 M734.1,459l0.4-1c0,0,5.4-10.3,18.1-10.5C752.6,447.5,749.1,457.9,734.1,459z"/>
	<path class="st76" d="M631.6,569.4c-0.6,0.9-34.6,24.7-54.9,42.9c-3.8,3.5-7.7,2.7-14-1.2c-2.9-1.8-6.3-6.2-6.3-6.2s-2.7,0-6.2-2.5
		c-3.8-2.7-7-5.3-12-9.3c-2-1.6-5.5-3.3-6.5-6.8c0,0.2-4.9-2-6-2.8c-4.3-3.2-4.3-6.3-4.3-6.3c-1.7,0.2-4.6-1.6-6.3-2.9
		c-7.7-6.4-14.9-12.5-20.5-17.1c-2.1-1.7-1.8-4.4-1.8-4.4s-3,0.2-3.8-0.3c-1.7-1.2-3.8-3.2-4.4-3.8c-2.4-2.1-3.5-3.5-3.5-6.7
		c0-2.8-0.3-6.6-0.2-10.6c0.1-4.7,1.2-7.3,5.6-8.8c12-4.2,44.8-16.4,65.2-26.8l80.5,61.9L631.6,569.4z"/>
	<g>
		<path class="st77" d="M628.8,555c-18.5,11.1-41.1,28.6-52.9,36.7c-3,2.1-7,3.7-10.3,0.5c-1.8-1.7-1.8-4.6-2.2-5.3
			c0,0-3.8,1.5-5.9-0.4c-1.1-1-0.9-2.8-0.9-2.8c-1.6,0.1-3.6-0.9-4.8-1.8c-7.8-5.6-15.8-11.9-20.9-17.5c0,0-2.4-2.6-2-5.2
			c0,0-6.7,3.2-3.8-2.5c0,0-6.5,1.9-8.1-0.4c-1.6-2.4-0.1-4.8-0.1-4.8s-5.3,0.4-8-3.1c-1.9-2.5-1.3-6-1.3-6s-4.7,0.4-6.1-1
			c-2.3-2.1,3.3-7.3,3.3-7.3s-8.1,2.5-10,1.3c-1.5-0.9-0.4-4.2-0.4-4.2c-5.2,2.2-13.5-2.8-11.9-5.8c-1,1.5-1.4,3.4-1.5,6
			c-0.1,4,0.1,7.8,0.2,10.6c0,3.2,1.2,4.5,3.5,6.7c0.7,0.6,2.8,2.6,4.4,3.8c0.8,0.6,3.8,0.3,3.8,0.3s-0.3,2.7,1.8,4.4
			c5.6,4.6,12.8,10.7,20.5,17.1c1.7,1.4,4.7,3.1,6.3,2.9c0,0,0,3.2,4.3,6.3c1.1,0.8,6,3,6,2.8c1,3.5,4.5,5.2,6.5,6.8
			c4.9,4,8.2,6.6,12,9.3c3.5,2.5,6.2,2.5,6.2,2.5s3.4,4.4,6.3,6.2c6.3,3.9,10.1,4.6,14,1.2c20.2-18.2,54.3-42,54.9-42.9l0.7-11.8
			L628.8,555z"/>
		<path class="st76" d="M518.3,510.6c2.3-0.9,4.7-1.9,7-2.9C523,508.7,520.7,509.6,518.3,510.6z"/>
		<path class="st76" d="M513.8,512.4c1.5-0.6,3-1.2,4.6-1.8C516.8,511.2,515.3,511.8,513.8,512.4z"/>
		<path class="st76" d="M507.1,515c2.1-0.8,4.4-1.7,6.6-2.6C511.5,513.3,509.3,514.2,507.1,515z"/>
		<path class="st76" d="M502.9,516.6c1.4-0.5,2.8-1.1,4.2-1.6C505.7,515.5,504.3,516.1,502.9,516.6z"/>
		<path class="st78" d="M543.6,499.7c1.4-0.7,2.8-1.3,4.2-2C546.5,498.4,545,499,543.6,499.7z"/>
		<path class="st78" d="M551.8,495.7c-0.6,0.3-1.3,0.7-1.9,1C550.5,496.4,551.1,496.1,551.8,495.7L551.8,495.7z"/>
		<g>
			<path class="st79" d="M575.9,591.7c-1.1,0.8-2.3,1.5-3.6,1.9c-1.5,1.2-3.6,3.3-2.4,5.4c0,0,0.9,1.9,2.7,1.4c0,0-1.9,1.8-1.2,5.8
				s3.4,2.8,3.4,2.8s-4.7,2.6-2.9,5.2c0,0,0.1,0.1,0.2,0.3c1.7-0.1,3.2-0.8,4.7-2.2c20.2-18.2,54.3-42,54.9-42.9l0.7-11.8L629,555
				C610.3,566.1,587.7,583.5,575.9,591.7z"/>
		</g>
		<g>
			<path class="st79" d="M533.3,584.9c0,0,0,0-5.2-2.5s-4.8-7.3-4.8-7.3s-1.8-0.3-4.5-1s-19.3-16-21.9-18.3c-2.7-2.3-1.5-5-1.5-5
				s-4,0.2-6.7-1.2c-1.8-0.9-5.4-4.4-7.6-6.7c0.2,2.5,1.4,3.8,3.5,5.7c0.7,0.6,2.8,2.6,4.4,3.8c0.8,0.6,3.8,0.3,3.8,0.3
				s-0.3,2.7,1.8,4.4c5.6,4.6,12.8,10.7,20.5,17.1c1.7,1.4,4.7,3.1,6.3,2.9c0,0,0,3.2,4.3,6.3c1.1,0.8,6,3,6,2.8
				c1,3.5,4.5,5.2,6.5,6.8c4.9,4,8.2,6.6,12,9.3c0.6,0.4,1.1,0.8,1.7,1.1C538.1,592.3,533.3,584.9,533.3,584.9z"/>
		</g>
		<g>
			<path class="st79" d="M632.3,557.6l-3.4-2.6c-18.5,11.1-41.1,28.6-52.9,36.7c-3,2.1-7,3.7-10.3,0.5c-1.8-1.7-1.8-4.6-2.2-5.3
				c0,0-3.8,1.5-5.9-0.4c-1.1-1-0.9-2.8-0.9-2.8c-1.6,0.1-3.6-0.9-4.8-1.8c-7.8-5.6-15.8-11.9-20.9-17.5c0,0-2.4-2.6-2-5.2
				c0,0-6.7,3.2-3.8-2.5c0,0-6.5,1.9-8.1-0.4c-1.6-2.4-0.1-4.8-0.1-4.8s-5.3,0.4-8-3.1c-1.9-2.5-1.3-6-1.3-6s-4.7,0.4-6.1-1
				c-2.3-2.1,3.3-7.3,3.3-7.3s-8.1,2.5-10,1.3c-1.5-0.9-0.4-4.2-0.4-4.2c-5.2,2.2-13.5-2.8-11.9-5.8c-1,1.5-1.4,3.4-1.5,5.9
				c2.1,2.8,6.3,4.7,10.1,3c0,0-0.7,2.5,0.8,3.5c1.9,1.2,7.7,0,7.7,0s-3.2,4-0.9,6.2c1.5,1.4,6.3,1,6.3,1s-0.6,3.7,1.4,6.3
				c2.7,3.7,8.2,3.2,8.2,3.2s-1.2,1.6,0.5,4.2c1.6,2.5,7,1.5,7,1.5c-0.3,3.9,4.8,2.4,4.8,2.4c-0.5,2.7,1.3,5.2,1.3,5.2
				c5.3,5.8,14.3,12.6,22.3,18.4c1.3,0.9,3.3,2,5,1.9c0,0-0.3,1.8,0.9,2.9c2.2,2,6.1,0.4,6.1,0.4c0.4,0.7,0.3,1.6,2.2,3.4
				c3.4,3.3,12,0.7,15.1-1.5l3.7,13c20.2-17.1,47.6-36.3,48.2-37.1L632.3,557.6z"/>
		</g>
	</g>
	<path class="st12" d="M631.6,569.4c-0.6,0.9-34.6,24.7-54.9,42.9c-3.8,3.5-7.7,2.7-14-1.2c-2.9-1.8-6.3-6.2-6.3-6.2s-2.7,0-6.2-2.5
		c-3.8-2.7-7-5.3-12-9.3c-2-1.6-5.5-3.3-6.5-6.8c0,0.2-4.9-2-6-2.8c-4.3-3.2-4.3-6.3-4.3-6.3c-1.7,0.2-4.6-1.6-6.3-2.9
		c-7.7-6.4-14.9-12.5-20.5-17.1c-2.1-1.7-1.8-4.4-1.8-4.4s-3,0.2-3.8-0.3c-1.7-1.2-3.8-3.2-4.4-3.8c-2.4-2.1-3.5-3.5-3.5-6.7
		c0-2.8-0.3-6.6-0.2-10.6c0.1-4.7,1.2-7.3,5.6-8.8c12-4.2,44.8-16.4,65.2-26.8l80.5,61.9L631.6,569.4z"/>
	<g>
		<path class="st12" d="M628.8,555l-77.1-59.2c-20.4,10.4-53.2,22.7-65.2,26.8c-1.7,0.6-2.9,1.3-3.7,2.3c-3.1,2.8,5.9,8.7,11.5,6.4
			c0,0-1,3.3,0.4,4.2c1.9,1.2,10-1.3,10-1.3s-5.6,5.2-3.3,7.3c1.4,1.3,6.1,1,6.1,1s-0.6,3.5,1.3,6c2.7,3.5,8,3.1,8,3.1
			s-1.5,2.3,0.1,4.8c1.6,2.4,8.1,0.4,8.1,0.4c-2.9,5.5,3.8,2.5,3.8,2.5c-0.4,2.5,3.7,6.9,3.7,6.9c7.5,5.5,10.5,7.9,17.1,14
			c0,0,2.2,4.7,7,3.6c0,0-0.3,1.8,0.9,2.8c2.1,1.9,5.9,0.4,5.9,0.4c0.4,0.7,0.3,3.6,2.2,5.3c3.3,3.2,7.3,1.6,10.3-0.5
			C587.7,583.5,610.3,566.1,628.8,555z"/>
	</g>
	<g>
		<path class="st18" d="M760.6,428.2c-9-8-19.4-8.1-34.3-0.7c-12,6-26,17.2-44.2,28.7c-12.1,7.7-28.4,19-42.6,27.3
			c-3.4,2-9.9,2.8-13.8,2.7l-44.4-1.1c-4.2-0.1-8.4,0.5-12.4,1.9c-8.7,2.9-14.9,5.9-18,7.6c-1.2,0.6-1.4,2.3-0.3,3.2
			c11.4,9.3,61.7,47.8,76.5,59.6c1.4,1.1,2.2,2.8,2.2,4.5l0.2,11.4c0,0.7,0.9,1.2,1.5,0.7c4.5-3.2,18.6-13.4,26.2-19.7
			c2.9-2.4,4.8-5.9,5.1-9.7l1.9-21.2c0.4-4.7,2.7-6.3,6.6-8.8c10.1-6.4,22.2-12.9,32.3-19.5c16.3-10.6,35.1-21.9,54.5-35.2
			C769.3,452.2,768.7,435.4,760.6,428.2z M730.2,448.8l0.4-1c0,0,5.4-10.3,18.1-10.5C748.7,437.3,745.2,447.7,730.2,448.8z"/>
		<g>
			<g>
				<path class="st80" d="M698.7,445.1c-0.1,0.1-1,0.6-1.4,0.8c-0.3,0.1-1.3,1-1.6,1.2c0.1,6.3-2.4,12-7.5,15.8
					c-5.2,3.8-11.8,5.6-18.1,6c-2.6,0.2-5.3,0.2-7.9-0.1c-0.3,0.2-4.3,3.2-4.2,3.2c7.3,1.2,14.9,1,21.9-1.1
					c6.7-2,13.3-5.8,16.8-12.1c2.1-3.8,3-8,2.8-12.3C699.4,445.9,699.1,445.4,698.7,445.1z"/>
			</g>
			<g>
				<path class="st80" d="M748.4,421.9c-14.9,6.2-27.4,16.7-37,29.6c-5.2,6.9-9.7,14.4-16.5,19.9c-6.1,5.1-13.7,8.4-21.5,10
					c-8.8,1.7-18,0.8-26.4-2.4c-1-0.4-2,0.4-2.3,1.3c-0.3,1.1,0.4,1.9,1.3,2.3c15.3,5.9,33.1,3.9,46.9-5.1
					c7.4-4.9,12.8-11.6,17.9-18.8c2.6-3.7,5.2-7.3,8.2-10.8c3.1-3.5,6.4-6.8,10-9.9c7.2-6.3,15.8-11.3,24.8-14.4
					C753.9,423.6,748.9,422,748.4,421.9z"/>
			</g>
			<g>
				<path class="st80" d="M710.9,487.8c-7.7-1.2-15.5-0.9-23.2,0.5c-7.4,1.3-14.6,3.5-21.7,5.6c-3.6,1.1-7.3,2.1-10.9,3
					c-3.5,0.9-7.2,1.8-10.8,2c-5.9,0.4-11.8-0.2-17.4-2.1c-6-2.1-11.1-5.9-14.8-11.1c-1.5,0-4.6-0.2-4.5-0.1
					c3.4,5.7,8.4,10.4,14.4,13.2c5.7,2.6,11.9,3.8,18.2,3.9c7.3,0.1,14.4-1.8,21.4-3.7c7.4-2.1,14.8-4.5,22.3-6.2
					c8.6-2,17.4-2.9,26.1-1.5c1,0.2,2-0.3,2.3-1.3C712.4,489.2,711.9,487.9,710.9,487.8z"/>
			</g>
			<g>
				<path class="st80" d="M763,433.3c-11.8,5.7-21.4,15.8-26.5,27.9c-1.5,3.5-2.6,7-3.3,10.7c-0.5,2.4,3.2,3.4,3.6,1
					c2.3-12.2,9.3-23.3,19.1-30.8c2.8-2.1,5.8-4,9-5.5C767,435.5,765.1,432.3,763,433.3L763,433.3z"/>
			</g>
			<g>
				<path class="st80" d="M669,509.6c-2.4-1.2-5.2-1.4-7.9-1.4c-2.5,0-4.8,0.2-7.2,0.8c-6.9,1.7-13.7,3.4-20.7,4.4
					c-6.1,0.9-12.4,1-18.4-0.2c-6.4-1.3-13.3-3.6-18-8.3c-5.1-5.1-7.7-12.3-5.6-19.3c0.1-0.2,0-0.2,0-0.4c-1.3-0.1-2.5,0-3.8-0.1
					c-1.7,6.5-0.2,13.3,3.7,18.8c2,2.7,4.4,5.1,7.2,7c3,2,6.6,3.3,10,4.4c13.3,4.3,26.9,1.9,40.2-1.2c3.3-0.8,6.9-2,10.1-2.2
					c2.7-0.2,6.1-0.4,8.6,0.9C669.3,513.9,671.2,510.7,669,509.6z"/>
			</g>
			<g>
				<path class="st80" d="M647.4,527.9c-7.8-4.4-16.8-5-25.6-4.9c-8.7,0.1-17.7,0.9-26.2-1.7c-6.7-2.1-12.4-6.8-16-12.8
					c-4.1-6.7-5.7-14.9-4.1-22.7c0,0,0.2-0.5,0.2-0.6c-1.2,0.1-3.9,0.7-4,0.7c-2.4,14,4.1,29,16.5,36.2c15.7,9.1,34.4,1.4,51.1,6.4
					c8.1,2.4,16.5,8.8,16.7,18c0.1,2.4,3.8,2.4,3.8,0C659.6,538.5,654.2,531.8,647.4,527.9z"/>
			</g>
		</g>
	</g>
	<g>
		<path class="st81" d="M762.3,430c5.8,11-1.8,17-8.4,23.1c-6.5,6.1-89.3,53.9-89.3,53.9c-2.8,1.7-7.2,3.8-8,8.5l-1.6,19.7
			c-0.6,3.7-2.6,8-5.4,10.4c-5.1,4.3-14.9,11.9-20.3,15.8c0,0.2,0,0.4,0,0.6l0.2,11.4c0,0.7,0.9,1.2,1.5,0.7
			c4.5-3.2,18.6-13.4,26.2-19.7c2.9-2.4,4.8-5.9,5.1-9.7l1.9-21.2c0.4-4.7,2.7-6.3,6.6-8.8c10.1-6.4,22.2-12.9,32.3-19.5
			c16.3-10.6,35.1-21.9,54.5-35.2C768.4,452.8,768.7,437.9,762.3,430z"/>
	</g>
	<path class="st12" d="M760.6,428.2c8.1,7.2,8.6,23.9-3,31.9c-19.4,13.3-38.3,24.7-54.5,35.2c-10.1,6.5-22.2,13.1-32.3,19.5
		c-4,2.5-6.2,4.1-6.6,8.8l-1.9,21.2c-0.3,3.8-2.1,7.3-5.1,9.7c-7.6,6.2-21.7,16.4-26.2,19.7c-0.6,0.4-1.4,0-1.5-0.7l-0.2-11.4
		c0-1.8-0.8-3.4-2.2-4.5c-14.8-11.9-65.1-50.3-76.5-59.6c-1.1-0.9-0.9-2.5,0.3-3.2c3.2-1.7,9.3-4.6,18-7.6c4-1.3,8.2-2,12.4-1.9
		l44.4,1.1c3.9,0.1,10.4-0.8,13.8-2.7c14.2-8.3,30.5-19.6,42.6-27.3c18.2-11.5,32.2-22.7,44.2-28.7
		C741.2,420.1,751.6,420.2,760.6,428.2z"/>
	<g>
		<path class="st82" d="M738.2,440.1c3.7-2.2,7.6-3.1,10.5-2.8c0.4-1.4,0.4-2.7-0.2-3.7c-1.9-3.3-8.5-3-14.7,0.5
			c-6.2,3.6-9.7,9.1-7.8,12.4c0.8,1.3,2.3,2.1,4.2,2.3C731.1,445.9,734,442.6,738.2,440.1z"/>
		<path class="st12" d="M738.2,440.1c3.7-2.2,7.6-3.1,10.5-2.8c0.4-1.4,0.4-2.7-0.2-3.7c-1.9-3.3-8.5-3-14.7,0.5
			c-6.2,3.6-9.7,9.1-7.8,12.4c0.8,1.3,2.3,2.1,4.2,2.3C731.1,445.9,734,442.6,738.2,440.1z"/>
		<path class="st12" d="M740.7,446c4.2-2.4,7.2-5.8,8-8.7c-2.9-0.3-6.8,0.6-10.5,2.8c-4.2,2.4-7.2,5.8-8,8.7
			C733.1,449.1,736.9,448.2,740.7,446z"/>
	</g>
	<path class="st12" d="M563.4,586.8c0,0,14.6-13,38.9-28.3"/>
	<path class="st12" d="M577.4,568.6c0,0,19.3-15,33.6-22.9"/>
	<path class="st12" d="M504.8,534.1c0,0,32-14.7,50.3-26.7"/>
	<path class="st12" d="M503.6,523.3c0,0,28.6-11,50.5-22.6"/>
	<path class="st12" d="M531.8,537.3c0,0,28.3-15.3,39.9-22.6"/>
	<path class="st12" d="M516.9,551.5c0,0,30.7-16.5,55.3-32"/>
	<path class="st12" d="M529.6,552.9c0,0,27.9-15.3,52.5-30.2"/>
</g>
<g id="bottombar" transform="translate(9.84 -59.773)">
	<path id="교차_1" class="st83" d="M961,827.6l53.6-79.5v45.5l-22.9,34H961z M902.3,827.6l69.9-103.8h30.7L933,827.6H902.3z
		 M843.7,827.6l69.9-103.8h30.7l-69.9,103.8H843.7z M785,827.6l69.9-103.8h30.7l-69.9,103.8H785z M726.3,827.6l69.9-103.7h30.7
		L757,827.7L726.3,827.6L726.3,827.6z M667.6,827.6l69.9-103.8h30.7l-69.9,103.8H667.6z M609,827.6l69.9-103.8h30.7l-69.9,103.8H609
		z M550.3,827.6l69.9-103.7h30.7L581,827.7L550.3,827.6L550.3,827.6z M491.6,827.6l69.9-103.8h30.7l-69.9,103.8H491.6z M432.9,827.6
		l69.9-103.8h30.7l-69.9,103.8H432.9z M374.2,827.6l70-103.7h30.7L405,827.7L374.2,827.6L374.2,827.6z M315.6,827.6l69.9-103.8h30.7
		l-70,103.8H315.6z M256.9,827.6l69.9-103.8h30.7l-69.9,103.8H256.9z M198.2,827.6l69.9-103.8h30.7l-69.9,103.8H198.2z M139.5,827.6
		l69.9-103.8h30.7l-69.9,103.8H139.5z M80.8,827.6l69.9-103.8h30.7l-69.9,103.8H80.8z M22.2,827.6l69.9-103.8h30.7l-70,103.8H22.2z
		 M-9.8,827.6v-39.7l43.2-64.1h30.7l-70,103.8H-9.8z M-9.8,723.9H5.4l-15.2,22.5L-9.8,723.9z"/>
	<rect id="사각형_1220" x="-19.6" y="719.8" class="st84" width="1034.2" height="110.1"/>
	<rect x="-9.8" y="723.9" class="st85" width="1023.9" height="103.8"/>
	<rect x="-9.8" y="719.8" class="st86" width="1023.9" height="4.1"/>
</g>
<g id="itembox4" transform="translate(304.022 -59.773)">
	<path id="패스_5306-4" class="st87" d="M70.6,806.7h-36c-7.2,0-13-5.8-13-13l0,0v-36c0-7.2,5.8-13,13-13h36c7.2,0,13,5.8,13,13
		l0,0v36C83.6,800.9,77.8,806.7,70.6,806.7L70.6,806.7"/>
	<path id="사각형_1224-4" class="st88" d="M34.7,741.8h35.9c8.8,0,15.9,7.1,15.9,15.9v35.9c0,8.8-7.1,15.9-15.9,15.9H34.7
		c-8.8,0-15.9-7.1-15.9-15.9v-35.9C18.7,748.9,25.9,741.8,34.7,741.8z"/>
</g>
<g id="itembox3" transform="translate(205.962 -59.773)">
	<path id="패스_5306-3" class="st87" d="M70.6,806.7h-36c-7.2,0-13-5.8-13-13l0,0v-36c0-7.2,5.8-13,13-13h36c7.2,0,13,5.8,13,13
		l0,0v36C83.6,800.9,77.8,806.7,70.6,806.7L70.6,806.7"/>
	<path id="사각형_1224-3" class="st88" d="M34.7,741.8h35.9c8.8,0,15.9,7.1,15.9,15.9v35.9c0,8.8-7.1,15.9-15.9,15.9H34.7
		c-8.8,0-15.9-7.1-15.9-15.9v-35.9C18.7,748.9,25.9,741.8,34.7,741.8z"/>
</g>
<g id="itembox2" transform="translate(107.901 -59.773)">
	<path id="패스_5306-2" class="st87" d="M70.6,806.7h-36c-7.2,0-13-5.8-13-13l0,0v-36c0-7.2,5.8-13,13-13h36c7.2,0,13,5.8,13,13
		l0,0v36C83.6,800.9,77.8,806.7,70.6,806.7L70.6,806.7"/>
	<path id="사각형_1224-2" class="st88" d="M34.7,741.8h35.9c8.8,0,15.9,7.1,15.9,15.9v35.9c0,8.8-7.1,15.9-15.9,15.9H34.7
		c-8.8,0-15.9-7.1-15.9-15.9v-35.9C18.7,748.9,25.9,741.8,34.7,741.8z"/>
</g>
<g id="itembox1" transform="translate(9.84 -59.773)">
	<path id="패스_5306" class="st87" d="M70.6,806.7h-36c-7.2,0-13-5.8-13-13l0,0v-36c0-7.2,5.8-13,13-13h36c7.2,0,13,5.8,13,13l0,0
		v36C83.6,800.9,77.8,806.7,70.6,806.7L70.6,806.7"/>
	<path id="사각형_1224" class="st88" d="M34.7,741.8h35.9c8.8,0,15.9,7.1,15.9,15.9v35.9c0,8.8-7.1,15.9-15.9,15.9H34.7
		c-8.8,0-15.9-7.1-15.9-15.9v-35.9C18.7,748.9,25.9,741.8,34.7,741.8z"/>
</g>
<g id="key">
	<ellipse transform="matrix(0.4731 -0.881 0.881 0.4731 -417.7255 690.1053)" class="st89" cx="368.1" cy="694.3" rx="2.2" ry="2"/>
	<path class="st90" d="M352.6,741.1l0.5-1c0.1-0.2,0-0.5-0.2-0.7l-2.1-1.1c-0.2-0.1-0.3-0.4-0.2-0.7l1.2-2.1l2.6,1.4
		c0.2,0.1,0.5,0,0.7-0.2l0.6-1c0.1-0.3,0.1-0.6-0.2-0.7l-2.6-1.4l1.2-2.3c0.1-0.2,0.4-0.3,0.7-0.2l2.1,1.1c0.2,0.1,0.5,0,0.7-0.2
		l0.5-1c0.1-0.2,0-0.5-0.2-0.7l-6-3.2c-0.2-0.1-0.5,0-0.7,0.2l-0.7,1.4h0.1l-3.9,7.3h-0.1l-0.7,1.4c-0.1,0.2,0,0.5,0.2,0.7l6,3.2
		C352.1,741.4,352.4,741.3,352.6,741.1z"/>
	<path class="st90" d="M342.4,738.8l15.3-28.4c0.3-0.6,1.1-0.8,1.7-0.5l0,0c0.6,0.3,0.8,1.1,0.5,1.7L344.5,740
		c-0.3,0.6-1.1,0.8-1.7,0.5l0,0C342.3,740.2,342,739.4,342.4,738.8z"/>
	<g>
		<path class="st90" d="M371,707.4c2.3-4.4,0.7-9.8-3.7-12.2c-4.4-2.4-9.9-0.7-12.3,3.6s-0.7,9.8,3.7,12.2
			C363.1,713.4,368.6,711.8,371,707.4z M357.3,700.1c1.7-3.1,5.5-4.2,8.6-2.5s4.3,5.5,2.6,8.6c-1.7,3.1-5.5,4.2-8.6,2.5
			C356.9,707,355.7,703.1,357.3,700.1z"/>
	</g>
	<path class="st90" d="M355.9,710.9L355.9,710.9c0.3-0.6,1-0.8,1.5-0.5l2.5,1.3c0.6,0.3,0.8,1,0.5,1.5l0,0c-0.3,0.6-1,0.8-1.5,0.5
		l-2.5-1.3C355.8,712.2,355.6,711.5,355.9,710.9z"/>
</g>
<g id="pin">
	<path class="st20" d="M259.1,729.5c-0.7,0-1.6-7.5-2-12c-0.3-2.9,0.3-3.4,2-3.4c1.5,0,1.7,1,1.6,3.5
		C260.3,721.9,259.8,729.5,259.1,729.5z"/>
	<g>
		<path class="st20" d="M258.6,706.2c8.8,0,14,3,14.1,5.9c0.1,2.7,0,4-1.4,5.4c-2.3,2.3-7.2,3.3-12.7,3.3c-5.8,0-10.9-1.5-13.3-4
			c-1.2-1.3-1.2-2.8-1.2-4.7C244.1,709,249.7,706.2,258.6,706.2z"/>
		<ellipse class="st20" cx="258.5" cy="711.5" rx="14.2" ry="5.3"/>
	</g>
</g>
<g id="ruler">
	<polygon class="st76" points="134.4,724.4 176,697.9 188,707.4 147.3,734.9 	"/>
	<polygon class="st12" points="134.4,724.4 176,697.9 188,707.4 147.3,734.9 137.4,726.8 	"/>
	<line class="st12" x1="137.6" y1="727" x2="178.5" y2="700.2"/>
	<g>
		<line class="st12" x1="139.6" y1="723.2" x2="138.3" y2="722.1"/>
		<line class="st12" x1="142.8" y1="721.1" x2="141.5" y2="720.1"/>
		<line class="st12" x1="146.5" y1="719.6" x2="144.6" y2="718.1"/>
		<line class="st12" x1="149.1" y1="717.1" x2="147.8" y2="716"/>
	</g>
	<g>
		<line class="st12" x1="152.2" y1="715.1" x2="150.9" y2="714"/>
		<line class="st12" x1="156" y1="713.4" x2="154.1" y2="711.9"/>
		<line class="st12" x1="158.5" y1="711" x2="157.2" y2="710"/>
		<line class="st12" x1="161.7" y1="709" x2="160.4" y2="707.9"/>
	</g>
	<g>
		<line class="st12" x1="165.5" y1="707.4" x2="163.5" y2="705.9"/>
		<line class="st12" x1="168.1" y1="704.9" x2="166.8" y2="703.8"/>
		<line class="st12" x1="171.1" y1="702.9" x2="169.8" y2="701.8"/>
		<line class="st12" x1="175" y1="701.3" x2="173.2" y2="699.9"/>
	</g>
</g>
<g id="fish">
	<path class="st91" d="M85.9,701.8c1.6,2.4-7.2,12-19.6,19.9s-24.8,11.8-26.3,9.4s7-12.4,19.4-20.2S84.3,699.3,85.9,701.8z"/>
	<path class="st92" d="M69.7,710.2l-4.8,0.7c-0.4,0.1-0.7,0.4-0.7,0.9c0.1,1.2,0.7,3.5,3.2,5.1c0.4,0.2,0.9,0.1,1.1-0.2l2.4-4.1"/>
	<path class="st12" d="M85.9,701.8c1.6,2.4-7.2,12-19.6,19.9s-24.8,11.8-26.3,9.4s7-12.4,19.4-20.2S84.3,699.3,85.9,701.8z"/>
	<path class="st12" d="M68.7,705.6c-0.3,3.7,3.3,8.9,6.4,9.7c7.4-6,12-11.7,10.8-13.6C84.7,700,77.5,701.5,68.7,705.6z"/>
	
		<ellipse transform="matrix(0.8435 -0.5372 0.5372 0.8435 -367.7208 151.9184)" class="st93" cx="76.8" cy="706.9" rx="1.3" ry="1.6"/>
	<g>
		<path class="st91" d="M39.9,729.4c0,0-4.4-1.1-5,0.3c-0.7,1.5,2.9,3.1,2.9,3c0,0-0.1,3.6,1.3,3.9c1.4,0.3,2.5-4.9,2.5-4.9
			S42.1,729.6,39.9,729.4z"/>
		<path class="st12" d="M39.9,729.4c0,0-4.4-1.1-5,0.3c-0.7,1.5,2.9,3.1,2.9,3c0,0-0.1,3.6,1.3,3.9c1.4,0.3,2.5-4.9,2.5-4.9
			S42.1,729.6,39.9,729.4z"/>
	</g>
</g>
<g id="hide4">
	<ellipse class="st90" cx="860.3" cy="620" rx="4" ry="3.7"/>
	<path class="st90" d="M949.5,604.5h-2c-0.5,0-0.9,0.4-0.9,0.9v4.4c0,0.5-0.4,0.9-0.9,0.9h-4.5v-5.4c0-0.5-0.4-0.9-1-0.9H938
		c-0.5,0-1,0.4-1,0.9v5.4h-4.9c-0.5,0-0.9-0.4-0.9-0.9v-4.4c0-0.5-0.4-0.9-0.9-0.9h-2c-0.5,0-0.9,0.4-0.9,0.9v12.5
		c0,0.5,0.4,0.9,0.9,0.9h2.9v-0.2h15.3v0.2h2.9c0.5,0,0.9-0.4,0.9-0.9v-12.5C950.4,604.9,950,604.5,949.5,604.5z"/>
	<path class="st90" d="M955,622.9h-59.8c-1.1,0-2-0.9-2-2v-0.6c0-1.1,0.9-2,2-2H955c1.1,0,2,0.9,2,2v0.6
		C957,622.1,956.1,622.9,955,622.9z"/>
	<g>
		<path class="st90" d="M879,604c-9.1,0-16.5,7.5-16.5,16.7s7.4,16.7,16.5,16.7s16.5-7.5,16.5-16.7S888.1,604,879,604z M879,632.4
			c-6.4,0-11.6-5.3-11.6-11.7c0-6.5,5.2-11.7,11.6-11.7c6.4,0,11.6,5.3,11.6,11.7C890.6,627.2,885.4,632.4,879,632.4z"/>
	</g>
	<path class="st90" d="M898.1,625.3h-0.5c-1,0-1.8-0.8-1.8-1.8v-5.7c0-1,0.8-1.8,1.8-1.8h0.5c1,0,1.8,0.8,1.8,1.8v5.7
		C900,624.5,899.1,625.3,898.1,625.3z"/>
</g>
<g id="hide3">
	<path class="st20" d="M887.8,249c0,0.6-7,1.5-11.2,1.9c-2.7,0.3-3.2-0.3-3.2-1.9c0-1.4,1-1.6,3.3-1.5
		C880.6,247.8,887.8,248.3,887.8,249z"/>
	<g>
		<path class="st20" d="M865.8,249.5c0-8.3,2.8-13.2,5.6-13.3c2.6-0.1,3.8,0,5.1,1.3c2.1,2.2,3.1,6.8,3.1,12
			c0,5.5-1.4,10.2-3.8,12.5c-1.2,1.2-2.7,1.2-4.4,1.2C868.4,263.1,865.8,257.8,865.8,249.5z"/>
		<ellipse class="st20" cx="870.8" cy="249.6" rx="5" ry="13.3"/>
	</g>
</g>
<g id="hide2">
	<polygon class="st76" points="532.5,566.1 587.7,531 603.6,543.6 549.6,580.1 	"/>
	<polygon class="st12" points="532.5,566.1 587.7,531 603.6,543.6 549.6,580.1 536.4,569.4 	"/>
	<line class="st12" x1="536.7" y1="569.5" x2="591" y2="534.1"/>
	<g>
		<line class="st12" x1="539.3" y1="564.5" x2="537.6" y2="563.2"/>
		<line class="st12" x1="543.6" y1="561.8" x2="541.9" y2="560.4"/>
		<line class="st12" x1="548.5" y1="559.8" x2="545.9" y2="557.8"/>
		<line class="st12" x1="552" y1="556.5" x2="550.2" y2="555"/>
	</g>
	<g>
		<line class="st12" x1="556" y1="553.8" x2="554.3" y2="552.3"/>
		<line class="st12" x1="561.2" y1="551.6" x2="558.6" y2="549.6"/>
		<line class="st12" x1="564.4" y1="548.4" x2="562.7" y2="547"/>
		<line class="st12" x1="568.7" y1="545.7" x2="566.9" y2="544.2"/>
	</g>
	<g>
		<line class="st12" x1="573.7" y1="543.6" x2="571.1" y2="541.6"/>
		<line class="st12" x1="577.1" y1="540.2" x2="575.4" y2="538.8"/>
		<line class="st12" x1="581.2" y1="537.6" x2="579.4" y2="536.2"/>
		<line class="st12" x1="586.3" y1="535.5" x2="584" y2="533.6"/>
	</g>
</g>
<g id="hide1">
	<path class="st91" d="M320.7,245.4c0,6.5-28.1,14-60.9,14s-60.9-7.5-60.9-14s28.1-14.9,60.9-14.9S320.7,239,320.7,245.4z"/>
	<path class="st92" d="M280.1,241.8l-9.9-4.5c-0.9-0.4-1.9,0-2.3,0.9c-1.2,2.4-2.9,7.5,0,13.4c0.5,1,1.5,1.3,2.4,0.9l9.5-4.8"/>
	<path class="st12" d="M320.7,245.4c0,6.5-28.1,14-60.9,14s-60.9-7.5-60.9-14s28.1-14.9,60.9-14.9S320.7,239,320.7,245.4z"/>
	<path class="st12" d="M283.7,232.1c-5,6.5-4.6,20.8,0.4,26c21.3-2.5,36.7-7.8,36.7-12.6C320.7,240.6,305.1,234.8,283.7,232.1z"/>
	<ellipse class="st92" cx="297.3" cy="244.1" rx="2.9" ry="3.6"/>
	<g>
		<path class="st91" d="M200.9,242.3c0,0-6.9-7.4-9.8-5.5c-3.2,2,1.7,9.4,1.8,9.2c0,0-4.6,6.7-2.2,9c2.4,2.3,10.6-6.1,10.6-6.1
			S204.7,245.2,200.9,242.3z"/>
		<path class="st12" d="M200.9,242.3c0,0-6.9-7.4-9.8-5.5c-3.2,2,1.7,9.4,1.8,9.2c0,0-4.6,6.7-2.2,9c2.4,2.3,10.6-6.1,10.6-6.1
			S204.7,245.2,200.9,242.3z"/>
	</g>
</g>
<path id="check4" class="st94" d="M904.2,609.2c-1.5,0-2.8-0.8-3.6-2c-2.5-3.6-5-7.1-7.5-10.7c-0.8-1-1-2.3-0.8-3.6
	c0.3-1.2,1.1-2.2,2.2-2.8c0.6-0.3,1.2-0.5,1.9-0.5c1.5,0,2.8,0.8,3.6,2c0.9,1.3,2.5,3.6,3.7,5.2c0.3,0.5,0.6,0.9,0.9,1.2l2.2-2.2
	c4.3-4.3,12.4-12.4,17.2-17.1c1.5-1.5,2.6-2.2,3.6-2.2c0.5,0,0.9,0.2,1.2,0.5c0.5,0.5,1,1.5,0.1,3.2c-0.7,1.4-19.7,25.3-21.1,27.2
	C906.9,608.5,905.6,609.2,904.2,609.2z"/>
<path id="check3_00000129175716664019562750000012791955166117056171_" class="st94" d="M871.6,234.7c-1.5,0-2.8-0.8-3.6-2
	c-2.5-3.6-5-7.1-7.5-10.7c-0.8-1-1-2.3-0.8-3.6c0.3-1.2,1.1-2.2,2.2-2.8c0.6-0.3,1.2-0.5,1.9-0.5c1.5,0,2.8,0.8,3.6,2
	c0.9,1.3,2.5,3.6,3.7,5.2c0.3,0.5,0.6,0.9,0.9,1.2l2.2-2.2c4.3-4.3,12.4-12.4,17.2-17.1c1.5-1.5,2.6-2.2,3.6-2.2
	c0.5,0,0.9,0.2,1.2,0.5c0.5,0.5,1,1.5,0.1,3.2c-0.7,1.4-19.7,25.3-21.1,27.2C874.3,234,873,234.7,871.6,234.7z"/>
<path id="check2" class="st94" d="M569.6,540c-1.5,0-2.8-0.8-3.6-2c-2.5-3.6-5-7.1-7.5-10.7c-0.8-1-1-2.3-0.8-3.6
	c0.3-1.2,1.1-2.2,2.2-2.8c0.6-0.3,1.2-0.5,1.9-0.5c1.5,0,2.8,0.8,3.6,2c0.9,1.3,2.5,3.6,3.7,5.2c0.3,0.5,0.6,0.9,0.9,1.2l2.2-2.2
	c4.3-4.3,12.4-12.4,17.2-17.1c1.5-1.5,2.6-2.2,3.6-2.2c0.5,0,0.9,0.2,1.2,0.5c0.5,0.5,1,1.5,0.1,3.2c-0.7,1.4-19.7,25.3-21.1,27.2
	C572.3,539.3,571,540,569.6,540z"/>
<path id="check1" class="st94" d="M252.6,228.3c-1.5,0-2.8-0.8-3.6-2c-2.5-3.6-5-7.1-7.5-10.7c-0.8-1-1-2.3-0.8-3.6
	c0.3-1.2,1.1-2.2,2.2-2.8c0.6-0.3,1.2-0.5,1.9-0.5c1.5,0,2.8,0.8,3.6,2c0.9,1.3,2.5,3.6,3.7,5.2c0.3,0.5,0.6,0.9,0.9,1.2l2.2-2.2
	c4.3-4.3,12.4-12.4,17.2-17.1c1.5-1.5,2.6-2.2,3.6-2.2c0.5,0,0.9,0.2,1.2,0.5c0.5,0.5,1,1.5,0.1,3.2c-0.7,1.4-19.7,25.3-21.1,27.2
	C255.3,227.6,254,228.3,252.6,228.3z"/>
</svg>
