<svg id="eGWDobk9vLs1" xmlns="http://www.w3.org/2000/svg" xmlns:xlink="http://www.w3.org/1999/xlink" width="521.97px" height="446.9px" viewBox="0 0 521.97 446.9" shape-rendering="geometricPrecision" text-rendering="geometricPrecision"><style>#eGWDobk9vLs44_tr {animation: eGWDobk9vLs44_tr__tr 3000ms linear 1 normal forwards}@keyframes eGWDobk9vLs44_tr__tr { 0% {transform: translate(172.397217px,286.475001px) rotate(0deg)} 10% {transform: translate(172.397217px,286.475001px) rotate(-3.320034deg)} 21% {transform: translate(172.397217px,286.475001px) rotate(-3.320034deg)} 26.666667% {transform: translate(172.397217px,286.475001px) rotate(2.000739deg)} 38.333333% {transform: translate(172.397217px,286.475001px) rotate(2.000739deg)} 100% {transform: translate(172.397217px,286.475001px) rotate(2.000739deg)}} #eGWDobk9vLs63_tr {animation: eGWDobk9vLs63_tr__tr 3000ms linear 1 normal forwards}@keyframes eGWDobk9vLs63_tr__tr { 0% {transform: translate(152.728612px,247.583844px) rotate(0deg)} 10% {transform: translate(152.728612px,247.583844px) rotate(0deg)} 19.333333% {transform: translate(152.728612px,247.583844px) rotate(-104.901252deg)} 21% {transform: translate(152.728612px,247.583844px) rotate(-104.901252deg)} 22.333333% {transform: translate(152.728612px,247.583844px) rotate(-104.901252deg)} 25.333333% {transform: translate(152.728612px,247.583844px) rotate(-10.217233deg)} 26.666667% {transform: translate(152.728612px,247.583844px) rotate(-10.217233deg)} 38.333333% {transform: translate(152.728612px,247.583844px) rotate(-10.217233deg)} 100% {transform: translate(152.728612px,247.583844px) rotate(-10.217233deg)}} #eGWDobk9vLs71_tr {animation: eGWDobk9vLs71_tr__tr 3000ms linear 1 normal forwards}@keyframes eGWDobk9vLs71_tr__tr { 0% {transform: translate(134.887075px,229.45588px) rotate(91.756273deg)} 10% {transform: translate(134.887075px,229.45588px) rotate(91.756273deg)} 19.333333% {transform: translate(134.887075px,229.45588px) rotate(-12.134291deg)} 21% {transform: translate(134.887075px,229.45588px) rotate(-12.134291deg)} 22.333333% {transform: translate(134.887075px,229.45588px) rotate(-12.134291deg)} 25.333333% {transform: translate(134.887075px,229.45588px) rotate(44.139765deg)} 26.666667% {transform: translate(134.887075px,229.45588px) rotate(44.139765deg)} 38.333333% {transform: translate(134.887075px,229.45588px) rotate(44.139765deg)} 100% {transform: translate(134.887075px,229.45588px) rotate(44.139765deg)}}</style><g id="eGWDobk9vLs44_tr" transform="translate(172.397217,286.475001) rotate(0)"><g transform="translate(-129.13414,-286.475001)"><g><path d="M56.42,235.58c6.47,67.75,47.43,72.82,96.91,68.1s88.74-17.46,82.27-85.21-50.85-108.61-100.33-103.89c-49.47,4.73-85.31,53.25-78.85,121Z" fill="#27244a"/><g transform="translate(0 0.000001)"><g><path d="M187.9,137.72c6.41-.61,10.01.84,15.42,3.43c14.51,15.27,25.32,36.55,30.21,62.56-5.82,1.71-12.6,3-20.49,3.75-42.86,4.09-47.05-20.92-48.21-33.11-.53-5.57-.17-34.41,23.07-36.63Z" fill="#fff"/></g><g><g><ellipse rx="4.38" ry="6.37" transform="matrix(.9955-.095 0.095 0.9955 203.348313 174.452829)" fill="#27244a"/></g></g><g><g><path d="M136.21,117.6v0c-1.35.44-2.82-.31-3.26-1.66l-3.69-11.36c-.44-1.35.31-2.82,1.66-3.26v0c1.35-.44,2.82.31,3.26,1.66l3.69,11.36c.43,1.36-.31,2.82-1.66,3.26Z" fill="#27244a"/></g><g><path d="M136.31,119.79v0c-1.42-.07-2.53-1.28-2.46-2.7l.44-9.35c.07-1.42,1.28-2.53,2.7-2.46v0c1.42.07,2.53,1.28,2.46,2.7l-.44,9.35c-.06,1.41-1.28,2.52-2.7,2.46Z" fill="#27244a"/></g></g></g></g><g><g><g><path d="M215.33,183.89c.46,4.78,3.76,4.28,12.5,3.44c1.46-.14,8.96-.66,8.5-5.45-.46-4.78-6.29-8.14-11.63-7.63s-9.82,4.86-9.37,9.64Z" fill="#ffb900"/></g><path d="M56.49,228.64L234.8,211.62c3.43-.33,3.98-2.4,3.84-5.31-.13-2.76-.78-5.47-1.81-8.03-1.52-3.79-2.62-8.86-5.6-8.57L55.85,206.45c-2.98.28-3.1,5.47-3.88,9.48-.53,2.71-.66,5.49-.26,8.23.42,2.88,1.35,4.81,4.78,4.48Z" fill="#e30000"/></g></g><g id="eGWDobk9vLs63_tr" transform="translate(152.728612,247.583844) rotate(0)"><g transform="translate(-155.576031,-250.779105)"><g><path d="M145.99,252.34v0c0-4.01,3.28-7.28,7.28-7.28l144.39-.02c4.01,0,7.28,3.28,7.28,7.28v0c0,4.01-3.28,7.28-7.28,7.28l-144.39.02c-4,0-7.28-3.28-7.28-7.28Z" fill="#ca9e67"/></g><g><g><path d="M284.94,273.09l-.01-43.99c0-9.72,7.95-17.67,17.67-17.67h16.44c9.72,0,17.67,7.95,17.67,17.67l.01,43.99c0,9.72-7.95,17.67-17.67,17.67h-16.44c-9.72,0-17.67-7.95-17.67-17.67Z" fill="#c6c6c6"/></g><g><path d="M327.81,234.66c1.2,3.56,6.49,2.72,6.63-1.04.11-2.98-.18-6.61-1.7-9.6-3.18-6.24-7.47-8.32-16.28-8.44s-10.04-.98-10.77,1.59s16.04,2.08,19.22,8.81c1.41,3.03,2.05,6.19,2.9,8.68Z" fill="#e5e5e5"/></g></g></g></g><g id="eGWDobk9vLs71_tr" transform="translate(134.887075,229.45588) rotate(91.756273)"><g transform="translate(-126.81581,-224.425999)"><path d="M121.11,218.64c22.51-17.23,49.2-16.12,53.62-1.1c7.07,24-23.03,36.51-38.46,39.48" fill="#27244a"/><path d="M136.27,258.5c-.69,0-1.31-.49-1.44-1.19-.16-.8.37-1.57,1.17-1.72c9.63-1.86,27.88-8.22,35.23-20.3c3.22-5.29,3.92-11.11,2.09-17.32-1.28-4.35-4.68-7.53-9.82-9.21-9.44-3.08-25.93-.85-41.49,11.06-.64.5-1.57.37-2.06-.27-.49-.65-.37-1.57.27-2.06c14.43-11.05,31.78-15.58,44.2-11.52c6.02,1.96,10.19,5.93,11.73,11.18c2.08,7.04,1.27,13.66-2.4,19.69-7.89,12.96-27.09,19.71-37.19,21.66-.1-.01-.2,0-.29,0Z" fill="#131333"/></g></g></g></g><g transform="translate(41.745074 0)"><g><path d="M138.7,303.36c0,5.88,28.62,3.59,41.06,3.59s22.52.78,22.52-5.09-10.08-10.64-22.52-10.64-41.06,6.26-41.06,12.14Z" fill="#ffb900"/></g></g><path d="" fill="none" stroke="#3f5787" stroke-width="1.04394"/><path d="" fill="none" stroke="#3f5787" stroke-width="1.04394"/><path d="" fill="none" stroke="#3f5787" stroke-width="1.04394"/><g transform="translate(3.685731 14.128632)" opacity="0"><path d="M342.580963,159.503024c.590624,0,29.878985-11.084987,34.282204,17.551234" transform="matrix(1 0 0 1.021432 2.763603-2.187392)" fill="none" stroke="#2d2e83" stroke-width="3" stroke-linecap="round"/><path d="M345.574791,150.258467q39.130777-8.695727,41.304709,26.630668" transform="matrix(.998153-.060754 0.060754 0.998153-10.841641 25.267928)" fill="none" stroke="#2d2e83" stroke-width="3" stroke-linecap="round"/></g></svg>