<?xml version="1.0" encoding="utf-8"?>
<!-- Generator: Adobe Illustrator 26.0.3, SVG Export Plug-In . SVG Version: 6.00 Build 0)  -->
<svg version="1.0" id="Layer_1" xmlns="http://www.w3.org/2000/svg" xmlns:xlink="http://www.w3.org/1999/xlink" x="0px" y="0px"
	 width="1440px" height="1080px" viewBox="0 0 1440 1080" style="enable-background:new 0 0 1440 1080;" xml:space="preserve">
<style type="text/css">
	.st0{fill:#47D5F6;}
	.st1{fill:#21C9EF;}
	.st2{fill:#0077C7;}
	.st3{fill:#78E7FC;}
	.st4{opacity:0.7;}
	.st5{fill:#FFFFFF;}
	.st6{fill:#FFF0FF;}
	.st7{opacity:0.3;}
	.st8{fill:#BEF9FF;}
	.st9{fill:#8AE9FF;}
	.st10{fill:#73DCFF;}
	.st11{fill:#5CCCFF;}
	.st12{opacity:0.2;clip-path:url(#SVGID_00000040535967369720612780000015804794801414652575_);}
	.st13{fill:#A4EBFB;}
	.st14{fill:#E7F9F6;}
	.st15{fill:#B7F0FB;}
	.st16{opacity:0.4;fill:#0E58AF;enable-background:new    ;}
	.st17{fill:#DAF9FA;}
	.st18{fill:#90E5FB;}
	.st19{fill:#FFFFFF;stroke:#000000;stroke-width:1.25;stroke-miterlimit:10;}
	.st20{fill:#B3A4A3;}
	.st21{fill:#C8BAB9;}
	.st22{fill:#A0847A;}
	.st23{fill:#B9AAA9;}
	.st24{fill:#6E4F3B;}
	.st25{opacity:0.4;fill:#70D3FB;enable-background:new    ;}
	.st26{fill:#83E3FF;}
	.st27{fill:#69D3F5;}
	.st28{enable-background:new    ;}
	.st29{fill:none;stroke:#5594AD;stroke-linecap:round;stroke-linejoin:round;stroke-miterlimit:10;}
	.st30{fill:#55C9F5;}
	.st31{fill:#5DB4DB;}
	.st32{fill:#4AA1C4;}
	.st33{fill:#65C5DC;}
	.st34{opacity:0.6;}
	.st35{fill:#EDF7FF;}
	.st36{fill:#F0FFFB;}
	.st37{opacity:0.2;}
	.st38{fill:#A3E5F4;}
	.st39{fill:#B0EBFB;}
	.st40{fill:#CCF2F9;}
	.st41{opacity:0.4;fill:#0E59AF;enable-background:new    ;}
	.st42{fill:#DCF6F9;}
	.st43{fill:#87E7FB;}
	.st44{fill:#99EFFF;}
	.st45{fill:#BEF2F9;}
	.st46{opacity:0.4;}
	.st47{fill:#80DFFF;}
	.st48{opacity:0.3;enable-background:new    ;}
	.st49{fill:#80BAE7;}
	.st50{fill:#ECD262;}
	.st51{fill:#D3AF54;}
	.st52{fill:#C67F42;}
	.st53{fill:#F9F9F9;}
	.st54{opacity:0.5;fill:#0E59AF;enable-background:new    ;}
	.st55{fill:#FCF4CD;}
	.st56{fill:#EC7979;}
	.st57{fill:#46454B;}
	.st58{fill:#ED9F51;}
	.st59{fill:#D8876D;}
	.st60{fill:#C4D8E6;}
	.st61{fill:#17537E;}
	.st62{fill:#0E66AF;}
	.st63{opacity:0.7;fill:#0068BD;enable-background:new    ;}
	.st64{fill:#CAFAFF;}
	.st65{fill:#1466B8;}
	.st66{fill:#E8C89E;}
	.st67{fill:#664A5E;}
	.st68{fill:#5D4A5E;}
	.st69{fill:#CC8260;}
	.st70{fill:#7A6778;}
	.st71{fill:#E7B293;}
	.st72{fill:#F0DEC1;}
	.st73{fill:#0068BD;}
	.st74{fill:#69C8F5;}
	.st75{fill:#80D0F5;}
	.st76{fill:#58BDF5;}
	.st77{fill:#F0F7FC;}
	.st78{opacity:0.6;fill:#CAEEF7;enable-background:new    ;}
	.st79{opacity:0.6;fill:#B7E5F7;enable-background:new    ;}
	.st80{fill:#FF44CA;}
	.st81{fill:#DADADA;}
	.st82{fill:#58D3FB;}
	.st83{fill:#44C2FB;}
	.st84{fill:#87E5FF;}
	.st85{fill:#AAF1FF;}
	.st86{fill:#B3E8F5;}
	.st87{fill:none;}
	.st88{fill:#A5E1F2;}
	.st89{fill:#E5A20C;}
	.st90{fill:#27244A;}
	.st91{fill:#FFB900;}
	.st92{fill:#131333;}
	.st93{fill:#E30000;}
</style>
<g id="BG">
	<rect y="0" class="st0" width="1440" height="1077"/>
	<path class="st1" d="M593.9,173.6c13,0,24.6-1.1,37.6-1.1c31.3,29,61.1,56.1,95.4,81.5c14.2,10.4,17.1,23.2,34.7,30.8
		c25,10.4,73.8,8.6,89.5,30c4.5,6.1,8.9,12.2,11.6,19.3c-0.7-1.8-39.2,8.9-81.6,15c-72.7,3.2-145.7,5.7-218.4,7.9
		c-26.5,0.7-122.2,0.7-148.7-0.3c-69.5-3.3-120.8-7.5-123.9-31.6c-10.4-6.8,97.7-105.7,103.7-109.6c18.6-12.5,35.4-25.7,52.9-39.7
		c25-19.3,59.3-35.8,82.4-47.9c9.7-5,22,8.9,31.3,15L593.9,173.6z"/>
	<polygon class="st1" points="1237.9,247.9 1148.3,192.5 1075.6,216.8 1060.7,246.7 1006.6,263.4 908.3,340.5 1021.1,338.3 
		1285.9,342.4 	"/>
	<rect x="0.1" y="317.6" class="st2" width="1439.7" height="762.4"/>
	<g id="구름3">
		<g>
			<path class="st3" d="M471.6,130.5c-12.2,0.8-22.7-8.5-23.5-20.7s5.4-22.5,20.7-23.5c12.2-0.8,22.7,8.5,23.5,20.7
				S483.8,129.7,471.6,130.5z"/>
		</g>
		<g>
			
				<ellipse transform="matrix(0.7071 -0.7071 0.7071 0.7071 26.4663 279.3582)" class="st3" cx="350.4" cy="107.7" rx="30.8" ry="30.8"/>
		</g>
		<g>
			<path class="st3" d="M442.1,109c-14.4,0.9-26.9-10.1-27.7-24.5c-0.9-14.4,10.1-26.9,24.5-27.8c14.4-0.9,26.9,10.1,27.8,24.5
				C467.5,95.7,456.5,108.2,442.1,109z"/>
		</g>
		<g>
			
				<ellipse transform="matrix(0.7071 -0.7071 0.7071 0.7071 36.3446 304.4036)" class="st3" cx="385.6" cy="108.3" rx="38.1" ry="38.1"/>
		</g>
		<g>
			
				<ellipse transform="matrix(0.9607 -0.2777 0.2777 0.9607 -14.2345 124.9265)" class="st3" cx="433.9" cy="112.7" rx="33.8" ry="33.8"/>
		</g>
		<g>
			<path class="st3" d="M390.7,118.6c-19.7,1.2-36.8-13.8-38-33.6c-1.2-19.7,13.8-36.8,33.6-38c19.7-1.2,36.8,13.8,38,33.6
				C425.4,100.4,410.4,117.4,390.7,118.6z"/>
		</g>
	</g>
	<g id="구름2">
		<g>
			
				<ellipse transform="matrix(0.3711 -0.9286 0.9286 0.3711 564.0773 1034.1559)" class="st3" cx="1045.5" cy="100.6" rx="26.8" ry="26.8"/>
		</g>
		<g>
			<path class="st3" d="M1125.1,108.7c-12.6-0.3-22.6-10.8-22.3-23.4c0.3-12.6,10.8-22.6,23.4-22.3s22.6,10.8,22.3,23.4
				C1148.2,99,1137.7,109,1125.1,108.7z"/>
		</g>
		<g>
			<path class="st3" d="M1144.1,124.8c-12.6-0.3-22.6-10.8-22.3-23.4c0.3-12.6,10.8-22.6,23.4-22.3s22.6,10.8,22.3,23.4
				C1167.2,115.1,1156.7,125.1,1144.1,124.8z"/>
		</g>
		<g>
			
				<ellipse transform="matrix(0.4224 -0.9064 0.9064 0.4224 526.6024 1033.1377)" class="st3" cx="1073.9" cy="103.4" rx="33.2" ry="33.2"/>
		</g>
		<g>
			<ellipse class="st3" cx="1118.1" cy="106.8" rx="29.5" ry="29.5"/>
		</g>
		<g>
			<path class="st3" d="M1082.6,115.1c-17.2-0.4-30.9-14.8-30.5-32s14.8-30.9,32-30.5s30.9,14.8,30.5,32S1099.8,115.5,1082.6,115.1z
				"/>
		</g>
	</g>
	<g id="구름1">
		<g>
			
				<ellipse transform="matrix(0.1888 -0.982 0.982 0.1888 869.1936 1353.027)" class="st3" cx="1253.6" cy="150.4" rx="33.1" ry="33.1"/>
		</g>
		<g>
			<path class="st3" d="M1351.8,160.3c-15.5-0.4-27.9-13.3-27.5-28.8s13.3-27.9,28.8-27.5s27.9,13.3,27.5,28.8
				C1380.2,148.4,1367.3,160.7,1351.8,160.3z"/>
		</g>
		<g>
			<path class="st3" d="M1375.2,180.3c-15.5-0.4-27.9-13.3-27.5-28.8s13.3-27.9,28.8-27.5s27.9,13.3,27.5,28.8
				C1403.7,168.3,1390.8,180.6,1375.2,180.3z"/>
		</g>
		<g>
			<ellipse class="st3" cx="1288.6" cy="153.7" rx="41" ry="41"/>
		</g>
		<g>
			
				<ellipse transform="matrix(0.9973 -7.327142e-02 7.327142e-02 0.9973 -7.9668 98.8342)" class="st3" cx="1343.1" cy="158" rx="36.4" ry="36.4"/>
		</g>
		<g>
			<path class="st3" d="M1299.2,168.2c-21.3-0.5-38.2-18.2-37.6-39.5c0.5-21.3,18.2-38.2,39.5-37.6c21.3,0.5,38.2,18.2,37.6,39.5
				C1338.2,151.8,1320.5,168.7,1299.2,168.2z"/>
		</g>
	</g>
</g>
<g id="날씨">
	<g id="눈" class="st4">
		<g id="XMLID_00000134958441769777223450000006433693263030261125_" class="st4">
			<path id="XMLID_00000081648490173219205600000010323610407128722065_" class="st5" d="M373.6,96.3c2.3,1.3,5,0.8,6.8-0.9
				c2.2-1.7,3.3-4.6,2.4-7.3c-0.9-2.7-3.8-4.3-6.6-4c-2.8,0.3-5.4,2.1-5.9,5C369.8,91.9,371.1,94.9,373.6,96.3z"/>
		</g>
		<g id="XMLID_00000129175292147514822540000017858604907109568411_" class="st4">
			<path id="XMLID_00000131338168907487554960000018048385122118587017_" class="st5" d="M433.1,228c2.3,1.3,5,0.8,6.8-0.9
				c2.2-1.7,3.3-4.6,2.4-7.3s-3.8-4.3-6.6-4c-2.8,0.3-5.4,2.1-5.9,5C429.3,223.6,430.6,226.6,433.1,228z"/>
		</g>
		<g id="XMLID_00000097489391363630988000000002834022804053075371_">
			<path id="XMLID_00000108287307306051492240000008832485277088501172_" class="st5" d="M372,187.3c2.3,1.3,5,0.8,6.8-0.9
				c2.2-1.7,3.3-4.6,2.4-7.3s-3.8-4.3-6.6-4c-2.8,0.3-5.4,2.1-5.9,5C368.2,182.9,369.5,185.8,372,187.3z"/>
		</g>
		<g id="XMLID_00000105420048138241115440000016102239936704727478_">
			<path id="XMLID_00000003104483210105871210000014100626989275460258_" class="st5" d="M182.1,60.2c2.3,1.3,5,0.8,6.8-0.9
				c2.2-1.7,3.3-4.6,2.4-7.3c-0.9-2.7-3.8-4.3-6.6-4s-5.4,2.1-5.9,5C178.2,55.8,179.6,58.8,182.1,60.2z"/>
		</g>
		<g id="XMLID_00000060721577612089728800000018101018757758732441_">
			<path id="XMLID_00000044178101070653237050000017975822268934300338_" class="st5" d="M73.5,128.6c2.3,1.3,5,0.8,6.8-0.9
				c2.2-1.7,3.3-4.6,2.4-7.3c-0.9-2.7-3.8-4.3-6.6-4c-2.8,0.3-5.4,2.1-5.9,5C69.7,124.2,71,127.2,73.5,128.6z"/>
		</g>
		<g id="XMLID_00000006665647254153235160000001370408550939862706_">
			<path id="XMLID_00000139281658449197640170000008949562783430914209_" class="st5" d="M591.8,214.3c-1-0.5-2.4-0.7-3.4,0
				c-1.6,1.2-2.5,2.7-2.4,4.8c0,0.6,0.2,1.1,0.3,1.6c0,0.4,0.1,0.7,0.2,1.1c0.7,2.2,3,3.8,5.3,3.2c1.2-0.3,2-1.2,2.6-2.2
				c0.2-0.3,0.4-0.6,0.5-0.9c0.4-0.9,0.4-1.9,0.1-2.8C594.8,217.1,593.6,215.2,591.8,214.3z"/>
		</g>
		<g id="XMLID_00000140006005333285885510000008900972328058506658_">
			<path id="XMLID_00000163041452384003068790000009644199291793033857_" class="st5" d="M581.4,67.9c1.8,3.2,6.2,5,9.6,2.9
				c4.9-3,3.8-11.1-1.6-12.8c-2.6-0.8-5.6,0.1-7.5,2c-0.9,0.9-1.6,2.1-2,3.4C579.5,65.2,580.1,66.7,581.4,67.9z"/>
		</g>
		<g id="XMLID_00000080885063644742773950000010144406474233845396_">
			<path id="XMLID_00000127035356956599191270000009746560848435446936_" class="st5" d="M1014.6,56.4c2.2,3.8,7.4,6,11.6,3.5
				c5.9-3.6,4.6-13.4-1.9-15.4c-3.1-1-6.8,0.1-9.1,2.4c-1.1,1.1-2,2.5-2.4,4.1C1012.3,53.2,1013.1,54.9,1014.6,56.4z"/>
		</g>
		<g id="XMLID_00000062150103489129725550000008509808168845045437_">
			<path id="XMLID_00000090278008768679662220000004314058891646216066_" class="st5" d="M49.9,52.2c2.2,3.8,7.4,6,11.6,3.5
				c5.9-3.6,4.6-13.4-1.9-15.4c-3.1-1-6.8,0.1-9.1,2.4c-1.1,1.1-2,2.5-2.4,4.1C47.7,49,48.4,50.7,49.9,52.2z"/>
		</g>
		<g id="XMLID_00000119104939328510212630000012929455445904114588_">
			<path id="XMLID_00000173871362850340463620000011070499057137325445_" class="st5" d="M767.9,83.8c1.8,3.2,6.2,5,9.6,2.9
				c4.9-3,3.8-11.1-1.6-12.8c-2.6-0.8-5.6,0.1-7.5,2c-0.9,0.9-1.6,2.1-2,3.4C766,81.2,766.6,82.6,767.9,83.8z"/>
		</g>
		<g id="XMLID_00000148632154150342252010000006634039690866887068_">
			<path id="XMLID_00000015354372511869738860000013816802463358155652_" class="st5" d="M825.3,289.1c1.8,3.2,6.2,5,9.6,2.9
				c4.9-3,3.8-11.1-1.6-12.8c-2.6-0.8-5.6,0.1-7.5,2c-0.9,0.9-1.6,2.1-2,3.4C823.4,286.5,824,287.9,825.3,289.1z"/>
		</g>
		<g id="XMLID_00000106146101875974300400000003187567063770205849_">
			<path id="XMLID_00000058567777404093623250000002174347252927510163_" class="st5" d="M457.7,44.2c1.8,3.2,6.2,5,9.6,2.9
				c4.9-3,3.8-11.1-1.6-12.8c-2.6-0.8-5.6,0.1-7.5,2c-0.9,0.9-1.6,2.1-2,3.4C455.8,41.6,456.4,43,457.7,44.2z"/>
		</g>
		<g id="XMLID_00000059280028899571430440000012572262764262128553_">
			<path id="XMLID_00000071554145923774608590000011963959317541141409_" class="st5" d="M539.1,189.4c1.8,3.2,6.2,5,9.6,2.9
				c4.9-3,3.8-11.1-1.6-12.8c-2.6-0.8-5.6,0.1-7.5,2c-0.9,0.9-1.6,2.1-2,3.4C537.2,186.8,537.8,188.2,539.1,189.4z"/>
		</g>
		<g id="XMLID_00000030481465498717872950000015127411044051763388_">
			<path id="XMLID_00000048477844795556824670000015339772645705354898_" class="st5" d="M759.9,115.5c1.3,2.3,4.5,3.6,7,2.1
				c3.6-2.2,2.8-8.1-1.1-9.3c-1.9-0.6-4.1,0-5.5,1.5c-0.7,0.7-1.2,1.5-1.4,2.5C758.5,113.6,758.9,114.7,759.9,115.5z"/>
		</g>
		<g id="XMLID_00000171722184553199303930000006590913828659786909_">
			<path id="XMLID_00000024695621634059653560000004592608602097100966_" class="st5" d="M493.7,109.8c-2.5-0.9-4.9,1.3-4.9,3.8
				s2.3,4.6,4.9,3.8c1.6-0.5,2.7-2.1,2.5-3.8C496.3,111.8,495.3,110.4,493.7,109.8z"/>
		</g>
		<g id="XMLID_00000115488403258712125510000009656714985714137756_">
			<path id="XMLID_00000147212020679455131540000003866564600446532009_" class="st5" d="M352.4,105.1c-2.5-0.9-4.9,1.3-4.9,3.8
				s2.3,4.6,4.9,3.8c1.6-0.5,2.7-2.1,2.5-3.8C355.1,107.1,354.1,105.7,352.4,105.1z"/>
		</g>
		<g id="XMLID_00000173871710412884724330000007153308189577249463_">
			<path id="XMLID_00000055683880593196000960000015873793606814846398_" class="st5" d="M457.1,191.2c-2.5-0.9-4.9,1.3-4.9,3.8
				s2.3,4.6,4.9,3.8c1.6-0.5,2.7-2.1,2.5-3.8C459.8,193.2,458.8,191.8,457.1,191.2z"/>
		</g>
		<g id="XMLID_00000122719876855539641060000013271331939950972317_">
			<path id="XMLID_00000094597150461623290570000009585201470014662019_" class="st5" d="M607.4,71.3c-2.5-0.9-4.9,1.3-4.9,3.8
				s2.3,4.6,4.9,3.8c1.6-0.5,2.7-2.1,2.5-3.8C610.1,73.3,609.1,71.9,607.4,71.3z"/>
		</g>
		<g id="XMLID_00000155123455541192942220000001283279051834218422_">
			<path id="XMLID_00000171714129444211784140000012346152529925002149_" class="st5" d="M86.3,176.7c-2.5-0.9-4.9,1.3-4.9,3.8
				s2.3,4.6,4.9,3.8c1.6-0.5,2.7-2.1,2.5-3.8C89,178.8,88,177.3,86.3,176.7z"/>
		</g>
		<g id="XMLID_00000114047513080983793030000009538096263620554429_">
			<path id="XMLID_00000152246763895032057380000000740223109370533820_" class="st5" d="M1058.3,240.2c-1-0.5-2.4-0.7-3.4,0
				c-1.6,1.2-2.5,2.7-2.4,4.8c0,0.6,0.2,1.1,0.3,1.6c0,0.4,0.1,0.7,0.2,1.1c0.7,2.2,3,3.8,5.3,3.2c1.2-0.3,2-1.2,2.6-2.2
				c0.2-0.3,0.4-0.6,0.5-0.9c0.4-0.9,0.4-1.9,0.1-2.8C1061.2,243,1060.1,241.1,1058.3,240.2z"/>
		</g>
		<g id="XMLID_00000087389981833172081430000016134687911264778385_">
			<path id="XMLID_00000111881399820115460650000008519560123009912735_" class="st5" d="M1012.2,155.6c1.8,3.2,6.2,5,9.6,2.9
				c4.9-3,3.8-11.1-1.6-12.8c-2.6-0.8-5.6,0.1-7.5,2c-0.9,0.9-1.6,2.1-2,3.4C1010.3,153,1010.9,154.4,1012.2,155.6z"/>
		</g>
		<g id="XMLID_00000152265917197537362120000003108662761044046981_">
			<path id="XMLID_00000041297813519955988880000012007059878340631176_" class="st5" d="M1404,46.2c-2.2,3.8-7.4,6-11.6,3.5
				c-5.9-3.6-4.6-13.4,1.9-15.4c3.1-1,6.8,0.1,9.1,2.4c1.1,1.1,2,2.5,2.4,4.1C1406.2,43,1405.5,44.7,1404,46.2z"/>
		</g>
		<g id="XMLID_00000052793334253289181070000013716335257721429168_">
			<path id="XMLID_00000178182796131264051320000005668439313687194757_" class="st5" d="M1311.7,104.1c-1.8,3.2-6.2,5-9.6,2.9
				c-4.9-3-3.8-11.1,1.6-12.8c2.6-0.8,5.6,0.1,7.5,2c0.9,0.9,1.6,2.1,2,3.4C1313.6,101.5,1313,102.9,1311.7,104.1z"/>
		</g>
		<g id="XMLID_00000140709573067339434310000008926932826319504009_">
			<path id="XMLID_00000180337501484725967070000003358950245719178645_" class="st5" d="M1217.9,66c-1.8,3.2-6.2,5-9.6,2.9
				c-4.9-3-3.8-11.1,1.6-12.8c2.6-0.8,5.6,0.1,7.5,2c0.9,0.9,1.6,2.1,2,3.4C1219.8,63.4,1219.2,64.8,1217.9,66z"/>
		</g>
		<g id="XMLID_00000001626059859927344670000017937766689030754189_">
			<path id="XMLID_00000165932474446542731660000000873916629204746640_" class="st5" d="M1184.3,145.5c-1.8,3.2-6.2,5-9.6,2.9
				c-4.9-3-3.8-11.1,1.6-12.8c2.6-0.8,5.6,0.1,7.5,2c0.9,0.9,1.6,2.1,2,3.4C1186.2,142.9,1185.6,144.3,1184.3,145.5z"/>
		</g>
		<g id="XMLID_00000167369435365311432070000017142021960867280274_">
			<path id="XMLID_00000032619865338806344320000006923630366673029802_" class="st5" d="M1336.6,133.5c-1.3,2.3-4.5,3.6-7,2.1
				c-3.6-2.2-2.8-8.1,1.1-9.3c1.9-0.6,4.1,0,5.5,1.5c0.7,0.7,1.2,1.5,1.4,2.5C1338,131.6,1337.5,132.6,1336.6,133.5z"/>
		</g>
		<g id="XMLID_00000115491825079967818530000002255520259183399607_">
			<path id="XMLID_00000023990466096861282340000015395112709235610530_" class="st5" d="M1079.9,111.9c2.5-0.9,4.9,1.3,4.9,3.8
				s-2.3,4.6-4.9,3.8c-1.6-0.5-2.7-2.1-2.5-3.8C1077.2,113.9,1078.2,112.5,1079.9,111.9z"/>
		</g>
		<g id="XMLID_00000096745691168636265830000004638694566436515734_">
			<path id="XMLID_00000080929379396744773800000004573034144649885084_" class="st5" d="M1321,36.3c2.5-0.9,4.9,1.3,4.9,3.8
				s-2.3,4.6-4.9,3.8c-1.6-0.5-2.7-2.1-2.5-3.8C1318.3,38.4,1319.3,36.9,1321,36.3z"/>
		</g>
		<g id="XMLID_00000031170176783141203390000012581625878511424435_">
			<path id="XMLID_00000067205055399224224440000009692187273068871857_" class="st5" d="M944.9,150.8c-1.8,3.2-6.2,5-9.6,2.9
				c-4.9-3-3.8-11.1,1.6-12.8c2.6-0.8,5.6,0.1,7.5,2c0.9,0.9,1.6,2.1,2,3.4C946.8,148.2,946.2,149.6,944.9,150.8z"/>
		</g>
		<g id="XMLID_00000129191259471074754440000011464316566791567752_">
			<path id="XMLID_00000023959943850450031120000016328050957143506066_" class="st5" d="M850.3,175.4c2.5-0.9,4.9,1.3,4.9,3.8
				s-2.3,4.6-4.9,3.8c-1.6-0.5-2.7-2.1-2.5-3.8C847.6,177.5,848.6,176,850.3,175.4z"/>
		</g>
		<g id="XMLID_00000160871727708927601340000009107415018994987654_">
			<path id="XMLID_00000042727420992821137870000007732748597279663502_" class="st5" d="M715.6,251.9c-2.2,3.8-7.4,6-11.6,3.5
				c-5.9-3.6-4.6-13.4,1.9-15.4c3.1-1,6.8,0.1,9.1,2.4c1.1,1.1,2,2.5,2.4,4.1C717.9,248.7,717.2,250.4,715.6,251.9z"/>
		</g>
		<g id="눈3">
			<path id="XMLID_00000047752293613029776520000005705611257274832029_" class="st5" d="M874.9,84.5c-1.8,3.2-6.2,5-9.6,2.9
				c-4.9-3-3.8-11.1,1.6-12.8c2.6-0.8,5.6,0.1,7.5,2c0.9,0.9,1.6,2.1,2,3.4C876.8,81.9,876.2,83.3,874.9,84.5z"/>
		</g>
		<g id="눈2">
			<path id="XMLID_00000008872051483272310870000012725015835332053413_" class="st5" d="M684.5,175.8c2.5-0.9,4.9,1.3,4.9,3.8
				s-2.3,4.6-4.9,3.8c-1.6-0.5-2.7-2.1-2.5-3.8C681.8,177.8,682.8,176.4,684.5,175.8z"/>
		</g>
		<g id="눈1">
			<path id="XMLID_00000097473128905115728770000006886599282101126538_" class="st5" d="M750.7,211.7c-2.5-0.9-4.9,1.3-4.9,3.8
				s2.3,4.6,4.9,3.8c1.6-0.5,2.7-2.1,2.5-3.8C753.4,213.8,752.4,212.3,750.7,211.7z"/>
		</g>
	</g>
	<g id="별">
		<g id="별4">
			<polygon id="XMLID_00000134947351786627319000000001154434650018437532_" class="st6" points="736.7,163.6 744.1,166.3 
				736.6,169.3 736.1,177.2 731.6,171.2 723.3,174.1 728.6,167 723.2,159.3 732.4,162.3 736.8,156.9 			"/>
			<g id="XMLID_00000173138535358024657280000013678602966359805629_">
				<path id="XMLID_00000131364162389940315010000004060012067262549153_" class="st6" d="M748.9,161.4c-0.6,0-1.1-0.4-1.3-0.9
					c-0.3-0.7,0.1-1.6,0.9-1.8l144.6-52c0.7-0.3,1.6,0.1,1.8,0.9c0.3,0.7-0.1,1.6-0.9,1.8l-144.6,52
					C749.2,161.3,749.1,161.4,748.9,161.4z"/>
			</g>
		</g>
		<g id="별3">
			<polygon id="XMLID_00000119079034279873544410000012910197426700999576_" class="st6" points="1143.7,115.7 1151.1,118.4 
				1143.6,121.4 1143.1,129.3 1138.6,123.3 1130.3,126.2 1135.6,119.1 1130.2,111.4 1139.4,114.4 1143.8,109 			"/>
			<g id="XMLID_00000031185286078431698200000010763936834072108690_">
				<path id="XMLID_00000146492603075360160350000005737635428585143994_" class="st6" d="M1155.9,113.5c-0.6,0-1.1-0.4-1.3-0.9
					c-0.3-0.7,0.1-1.6,0.9-1.8l144.6-52c0.7-0.3,1.6,0.1,1.8,0.9c0.3,0.7-0.1,1.6-0.9,1.8l-144.6,52
					C1156.3,113.5,1156.1,113.5,1155.9,113.5z"/>
			</g>
		</g>
		<g id="별2">
			<polygon id="XMLID_00000050664854930324322980000001971794561097476748_" class="st6" points="231.2,82.4 238.6,85.1 231.1,88.2 
				230.6,96.1 226.1,90.1 217.8,93 223.1,85.9 217.7,78.2 226.9,81.1 231.3,75.7 			"/>
			<g id="XMLID_00000075157325124744710580000009335342671568567686_">
				<path id="XMLID_00000023990614677834694170000010046150795103131292_" class="st6" d="M243.4,80.2c-0.6,0-1.1-0.4-1.3-0.9
					c-0.3-0.7,0.1-1.6,0.9-1.8l144.6-52c0.7-0.3,1.6,0.1,1.8,0.9c0.3,0.7-0.1,1.6-0.9,1.8l-144.6,52
					C243.8,80.2,243.6,80.2,243.4,80.2z"/>
			</g>
		</g>
		<g id="별1">
			<polygon id="XMLID_00000128458548705990679480000003557555397907554716_" class="st6" points="574.9,260.3 580.3,262.3 
				574.8,264.5 574.5,270.2 571.2,265.9 565.1,268 569,262.8 565.1,257.2 571.8,259.4 575,255.4 			"/>
			<g id="XMLID_00000031925575290142500240000008771050638284100018_">
				<path id="XMLID_00000009561032361764991920000007110413122267197336_" class="st6" d="M583.8,258.7c-0.4,0-0.8-0.3-1-0.7
					c-0.2-0.5,0.1-1.1,0.6-1.3l105.2-37.8c0.5-0.2,1.1,0.1,1.3,0.6s-0.1,1.1-0.6,1.3l-105.2,37.8C584,258.7,583.9,258.7,583.8,258.7
					z"/>
			</g>
		</g>
	</g>
</g>
<g id="물개얼음">
	<g>
		<g class="st7">
			<polygon class="st8" points="1328.1,546.5 1305.2,560.4 1179.5,575.7 1121.7,557.6 1001.6,545.7 954.7,505.1 923.7,393.2 
				1029.3,367.7 1110.8,379 1123.6,355.1 1328.1,350.4 1406.9,374.1 1407.5,432.3 1396.4,452.2 1396.1,506.1 			"/>
			<path class="st9" d="M1007.9,476.2c0,0,14.9-85.2,21.9-108.4l81,11.3l1.7,119.4L1007.9,476.2z"/>
			<path class="st10" d="M955.3,505.5l-0.6-0.4l-31.1-112l105.7-25.5l0.5,0.1c-6.6,29.6-16.8,84.2-21.9,108.4L955.3,505.5z"/>
			<g>
				<polygon class="st9" points="1134.8,476.6 1134,477.3 1124.1,355.1 1265.7,352.4 1240.9,460.8 				"/>
				<polygon class="st10" points="1336,462.7 1310.3,444.1 1250.4,462.9 1204.8,465.7 1264.4,352.4 1328.1,350.4 1406.9,374.1 
					1407.5,432.3 1396.4,452.2 1396.1,506.1 				"/>
			</g>
			<polygon class="st10" points="1113.1,498.6 1112.5,498.4 1110.8,379 1110.8,379 1123.6,355.1 1124.1,355.1 1150,473.1 			"/>
			<path class="st11" d="M1396.4,452.2l-0.3,53.9l-60.1-43.4l-25.7-18.7l-0.5,0.2c1.4-9.7,2.8-19.5,5.2-29
				c0.6-2.3,13-15.8,15.5-19.7c0,0-0.4-40.3-0.3-44.5l76.8,23l0.6,58.2L1396.4,452.2z"/>
		</g>
		<g>
			<g>
				<defs>
					<path id="SVGID_1_" d="M948.4,317.4L922,387.5l37.6,136.7l5.1,41.5c0,0-158.5,2.3-160.2,2.9c-1.7,0.6-80.1-176.6-82.3-178.3
						c-2.2-1.8,44.5-91.5,44.5-93.3C766.7,295.3,948.4,317.4,948.4,317.4z"/>
				</defs>
				<clipPath id="SVGID_00000016790220602477356930000001105354445076710275_">
					<use xlink:href="#SVGID_1_"  style="overflow:visible;"/>
				</clipPath>
				<g style="opacity:0.2;clip-path:url(#SVGID_00000016790220602477356930000001105354445076710275_);">
					<polygon class="st13" points="1051.8,426.5 1004.6,452.6 969.3,515.5 967.6,515 967.2,514.8 939,445.4 880.8,424.6 
						847.4,412.7 781.5,350.1 885.4,349.8 975.6,349.5 1067.1,349.3 					"/>
					<g>
						<polygon class="st14" points="950.3,447.1 967.2,514.8 890.2,488.6 840.9,437.9 812.2,438.6 865.5,397.6 892.9,400.4 
							901,419.8 						"/>
						<polygon class="st15" points="812.2,438.6 811,438.6 757.7,361.9 781.5,350.5 871.9,350.1 901,419.8 869.3,407 						"/>
					</g>
				</g>
			</g>
		</g>
		<path class="st16" d="M788.7,331.7c-16,2.7-32.9,6.1-47.9,12.5c-38.5,16.5,21.9,32.5,37.9,34.6c20.4,2.6,40.9,4.1,61.5,4.5
			c15.1,0.3,31.2,0.3,44,8.4c6.8,4.4,12.2,10.8,19,15.2c12.2,7.9,23.4,5.6,36.8,4.5c14.5-1.2,30.2-0.2,44.4,2.9
			c44.1,9.6,37,17.8,58.4,18.5c18.1,0.6,34.1-10.1,51.8-12c3.4-0.4,7-0.7,10.2,0.4c4.9,1.7,8.2,6.2,11.7,10
			c31.5,33.7,94.9,24.8,135,17.6c14-2.5,28.2-3.5,42-6.3c14.6-3,25.8,3.5,39.8,7.5c23.4,6.6,48.8,4,71.3-4.5
			c15.1-5.7,37.1-19.4,46.3-33c6.2-9.2,5.6-22.4-1.6-30.9c-5.6-6.7-14.2-10-22.4-13.1c-20.1-7.6-35.5-13.9-57.3-14.8
			c-21.7-0.9-43.4,0.9-64.6,5.4c-9.5,2-19,4.6-28.6,5.1c-15.8,0.9-32.6,0.2-48.4-0.8c-22-1.3-43.9-3.8-65.7-5.3
			c-80.9-5.7-161.7-11.4-242.6-17.1c-43.6-3.1-87.2-6.1-130.8-9.2C788.8,331.7,788.7,331.7,788.7,331.7z"/>
		<g>
			<polygon class="st13" points="1085.7,259.7 1054.5,195 996,152.4 994.2,153.1 993.8,153.3 963.1,236.8 900,261.9 863.7,276.3 
				792.2,351.6 905,352 1002.9,352.3 1102.3,352.6 			"/>
			<g>
				<polygon class="st17" points="975.5,234.8 993.8,153.3 910.2,184.9 856.7,245.9 825.5,245.1 883.4,294.5 913.2,291.1 922,267.7 
									"/>
				<polygon class="st15" points="825.5,245.1 824.2,245 766.3,337.4 792.2,351.2 890.3,351.6 922,267.7 887.5,283.1 				"/>
			</g>
		</g>
		<g>
			<polygon class="st8" points="1328.1,252.9 1305.2,240.5 1179.5,227 1121.7,243 1001.6,253.5 954.7,289.4 923.7,388.4 
				1029.3,410.9 1110.8,400.9 1123.6,422 1328.1,426.2 1406.9,405.3 1407.5,353.8 1396.4,336.2 1396.1,288.6 			"/>
			<path class="st9" d="M1007.9,315c0,0,14.9,75.3,21.9,95.9l81-10l1.7-105.5L1007.9,315z"/>
			<path class="st10" d="M955.3,289.1l-0.6,0.3l-31.1,99l105.7,22.5l0.5-0.1c-6.6-26.2-16.8-74.5-21.9-95.9L955.3,289.1z"/>
			<g>
				<polygon class="st9" points="1134.8,314.7 1134,314 1124.1,422 1265.7,424.4 1240.9,328.6 				"/>
				<polygon class="st10" points="1336,326.9 1310.3,343.4 1250.4,326.8 1204.8,324.3 1264.4,424.4 1328.1,426.2 1406.9,405.3 
					1407.5,353.8 1396.4,336.2 1396.1,288.6 				"/>
			</g>
			<polygon class="st10" points="1113.1,295.2 1112.5,295.4 1110.8,400.9 1110.8,400.9 1123.6,422 1124.1,422 1150,317.7 			"/>
			<path class="st11" d="M1396.4,336.2l-0.3-47.7l-60.1,38.3l-25.7,16.5l-0.5-0.1c1.4,8.6,2.8,17.2,5.2,25.6
				c0.6,2.1,13,13.9,15.5,17.4c0,0-0.4,35.6-0.3,39.3l76.8-20.4l0.6-51.5L1396.4,336.2z"/>
		</g>
		
			<ellipse transform="matrix(0.9981 -6.133676e-02 6.133676e-02 0.9981 -15.2554 65.0235)" class="st18" cx="1051.5" cy="281" rx="57.8" ry="13.4"/>
		
			<ellipse transform="matrix(0.9981 -6.138307e-02 6.138307e-02 0.9981 -15.3738 72.1543)" class="st18" cx="1166.7" cy="286.3" rx="42.3" ry="10.4"/>
		<g id="큰물개">
			<path class="st19" d="M1026.3,216.4"/>
			<path class="st20" d="M1024.9,266.1c0,0,0.9,14.8-18.5,16.1c-9.5,0.6-13.8-1.1-14.1-2.4c-1.1-5.5,9.3-5.5,13-13
				c4.6-9.3,1.9-20.2,1.9-20.2L1024.9,266.1z"/>
			<path class="st21" d="M1096.5,263c-10.8,18-43.1,26.4-66,19.5c-19.4-5.8-28.7-35.7-29.2-51.7c-0.5-14-0.6-45.3,29.3-48
				c3.5-0.3,7.1-0.1,10.5,0.7c22.6,5.4,24.8,29,21.1,46.2c-2,9.3-7.3,21.6,1.4,30.6C1073,270.1,1096.5,263,1096.5,263z"/>
			<path class="st5" d="M1039.5,219.5c1,5.4-0.8,16.7-3.7,20.6c-1,1.3-3,0.5-2.9-1.2l1-21.3C1033.9,217.6,1038.5,214.2,1039.5,219.5
				z"/>
			<path class="st5" d="M1016.3,219.2c-1,4.9,0.6,16.5,2.8,20.6c0.8,1.4,2.8,0.8,2.8-0.8l0.1-22.1
				C1022,216.9,1017.2,214.3,1016.3,219.2z"/>
			<g>
				<path class="st22" d="M1028.3,212.7c0,0-20.4,16.5-17.6,1.6c2.3-15.3,17.9-11.4,17.9-11.4h-0.1c0,0,17.7-2.8,18.5,13.1
					c0.8,15.3-18.9-3.3-18.9-3.3"/>
				<g>
					<ellipse class="st21" cx="1039.5" cy="210.7" rx="0.8" ry="0.9"/>
					<ellipse class="st21" cx="1034.6" cy="210.3" rx="0.8" ry="0.9"/>
					<ellipse class="st21" cx="1038.3" cy="213.8" rx="0.8" ry="0.9"/>
				</g>
				<ellipse class="st21" cx="1019.8" cy="208.9" rx="0.8" ry="0.9"/>
				<ellipse class="st21" cx="1015.2" cy="211.9" rx="0.8" ry="0.9"/>
				<ellipse class="st21" cx="1016.9" cy="214.2" rx="0.8" ry="0.9"/>
			</g>
			<path class="st21" d="M1087.6,269.7c18.2,5.8,28.7-4,31.6-9.4c0.8-1.5,0.3-3.3-1.1-4.1c-3.2-1.9-9.6-4.1-16.7,0.6
				c-0.2,0.1-0.4-0.1-0.2-0.2c1-2.6,3.5-10.8-0.1-17.6c-0.7-1.4-2.3-2-3.7-1.2C1083.5,245.3,1087.6,269.7,1087.6,269.7z"/>
			<g>
				<path class="st23" d="M1034.2,265.3c2.4,11.7,10.5,18.9,11.1,19.5c-2.6-0.1-4-0.2-6-0.5c-3.6-4-5.6-11-5.6-14.5
					C1033.6,266.6,1034.2,265.3,1034.2,265.3z"/>
			</g>
			<g>
				<path class="st23" d="M1060.3,264.2c3.9,10.3,10.9,14.3,14.1,15.7c-2.2,0.9-4.5,1.6-6.8,2.3
					C1057.9,276.1,1060.3,264.2,1060.3,264.2z"/>
			</g>
			<path class="st21" d="M1060.3,263.1c0,0-1.1,15.7,12.8,19.4c8,2.2,4.3,5.7-0.4,7.2c-1.9,0.6-5.6,1.1-7.8,1.2
				c-3.5,0.1-27.6,0.5-31.4-26.7"/>
			<g>
				<path class="st24" d="M1024.6,202.7c-0.1,1.4,1.8,3.8,4.2,3.9c2.4,0.1,4.4-2.1,4.5-3.5s-1.8-2.2-4.2-2.3
					C1026.6,200.6,1024.6,201.2,1024.6,202.7z"/>
				
					<ellipse transform="matrix(4.137393e-02 -0.9991 0.9991 4.137393e-02 795.2262 1227.4156)" class="st24" cx="1037.3" cy="199.3" rx="3" ry="1.6"/>
				
					<ellipse transform="matrix(4.137393e-02 -0.9991 0.9991 4.137393e-02 781.4082 1211.702)" class="st24" cx="1022.2" cy="198.6" rx="3" ry="1.6"/>
			</g>
		</g>
		<g id="작은물개">
			<path class="st19" d="M1148.1,238.2"/>
			<path class="st20" d="M1147.1,274.7c0,0,0.6,10.2-12.8,11.1c-6.5,0.4-9.5-0.7-9.7-1.7c-0.8-3.8,6.4-3.8,9-8.9
				c3.2-6.4,1.3-14,1.3-14L1147.1,274.7z"/>
			<path class="st21" d="M1201.7,273.7c-8.2,13.7-32.7,19.7-50.3,14.9c-17.8-4.8-22.6-26-23-38.2c-0.3-10.6,3.5-32.1,22.9-32.1
				c19.6,0,23.6,17.9,22.4,30.2c-0.7,7.3-3.7,16.2,3,23.1C1183.7,279.1,1201.7,273.7,1201.7,273.7z"/>
			<path class="st21" d="M1192.8,278.7c9.5,5,16.1,1.9,18.2-0.8c0.6-0.7,0.4-1.8-0.2-2.4c-1.6-1.3-4.7-3.7-9.2-2.6
				c-0.1,0-0.2-0.1-0.1-0.1c0.8-1.4,1.6-4.9,0.2-9c-0.3-0.8-1.1-1.3-1.9-1.1C1191.5,265.6,1192.8,278.7,1192.8,278.7z"/>
			<g>
				<path class="st23" d="M1157,275.5c1.8,8.9,8,14.4,8.4,14.9c-2-0.1-3-0.1-4.6-0.4c-2.7-3.1-4.3-8.4-4.3-11.1
					C1156.5,276.4,1157,275.5,1157,275.5z"/>
			</g>
			<g>
				<path class="st23" d="M1174.1,274.6c2.9,7.8,8.3,10.9,10.8,12c-1.7,0.7-3.4,1.2-5.2,1.7C1172.2,283.7,1174.1,274.6,1174.1,274.6
					z"/>
			</g>
			<path class="st21" d="M1175.4,274.1c0,0-0.8,11.2,9.1,13.8c5.7,1.5,3.1,4.1-0.3,5.1c-1.4,0.4-4,0.8-5.5,0.8
				c-2.5,0.1-19.7,0.4-22.4-19"/>
			<g>
				<path class="st5" d="M1157,243.2c0.8,4.1-0.6,12.7-2.8,15.7c-0.7,1-2.3,0.4-2.2-0.9l0.8-16.3
					C1152.8,241.8,1156.3,239.1,1157,243.2z"/>
				<path class="st5" d="M1139.3,242.9c-0.7,3.7,0.4,12.6,2.1,15.7c0.6,1.1,2.1,0.6,2.1-0.6l0.1-16.8
					C1143.7,241.2,1140.1,239.2,1139.3,242.9z"/>
				<g>
					<path class="st22" d="M1148.4,244.7c0,0-15.5,12.6-13.5,1.2c1.7-11.7,13.7-8.7,13.7-8.7h-0.1c0,0,13.5-2.2,14.1,10
						c0.6,11.6-14.4-2.5-14.4-2.5"/>
					<g>
						<ellipse class="st21" cx="1156.9" cy="243.3" rx="0.6" ry="0.7"/>
						<ellipse class="st21" cx="1153.2" cy="242.9" rx="0.6" ry="0.7"/>
						<ellipse class="st21" cx="1156" cy="245.6" rx="0.6" ry="0.7"/>
					</g>
					<ellipse class="st21" cx="1141.9" cy="241.9" rx="0.6" ry="0.7"/>
					<ellipse class="st21" cx="1138.4" cy="244.2" rx="0.6" ry="0.7"/>
					<ellipse class="st21" cx="1139.7" cy="245.9" rx="0.6" ry="0.7"/>
				</g>
				<g>
					<path class="st24" d="M1145.2,237.3c-0.1,1.3,1.6,3.3,3.7,3.4c2.1,0.1,3.9-1.8,4-3.1s-1.6-1.9-3.7-2
						C1147,235.5,1145.2,236.1,1145.2,237.3z"/>
					
						<ellipse transform="matrix(4.137393e-02 -0.9991 0.9991 4.137393e-02 873.6578 1379.6237)" class="st24" cx="1155.8" cy="234.5" rx="2.6" ry="1.4"/>
					
						<ellipse transform="matrix(4.137393e-02 -0.9991 0.9991 4.137393e-02 862.1528 1366.1528)" class="st24" cx="1143" cy="233.8" rx="2.6" ry="1.4"/>
				</g>
			</g>
		</g>
	</g>
	<g id="이글루">
		<ellipse class="st25" cx="1279.6" cy="270.6" rx="67.2" ry="15.1"/>
		<g>
			<g id="SmallIgloo_00000176745854307527194290000012300204230795515530_">
				<path class="st26" d="M1227.7,261.6c-0.7-3.8-1-7.7-0.9-11.7c0.6-32,26.4-57.5,57.7-56.9c31.3,0.6,56.1,27,55.5,59
					c-0.1,4.1-0.6,8.1-1.5,12c0,0,0,0,0,0.1c-0.1,4.9-24.9,8.4-55.5,7.9c-30.6-0.6-54.4-5.2-55.2-10L1227.7,261.6z"/>
				<g>
					<path class="st27" d="M1265.7,243.7v0.1l0.6-0.1C1266.1,243.8,1265.9,243.7,1265.7,243.7z"/>
					<path class="st27" d="M1248.1,255.4c0-0.2,0-0.3,0-0.5c0-0.1,0-0.1,0.1-0.2c-4.6-0.8-8.6-1.7-11.9-2.7c0,0.2-0.2,0.3-0.3,0.3
						l0,0c-0.2,0-0.3-0.2-0.3-0.3s0-0.1,0-0.2c-5.3-1.7-8.3-3.6-8.3-5.6c0-0.2-0.1-0.3-0.3-0.3c0,0,0,0-0.1,0c0,0.4-0.1,0.8-0.1,1.2
						C1228.1,250.3,1236.1,253.3,1248.1,255.4z"/>
					<path class="st27" d="M1319.3,256c-4.4,0.6-9.2,1-14.3,1.3c0,0.1,0,0.1,0,0.2c0,0.2-0.2,0.3-0.3,0.3l0,0
						c-0.2,0-0.3-0.2-0.3-0.3v-0.1c-3.5,0.2-7,0.3-10.7,0.4v0.1c0,0.2,0,0.4,0,0.5c9.1-0.2,17.9-0.8,25.5-1.7c0-0.1,0-0.3,0-0.4
						C1319.1,256.1,1319.2,256,1319.3,256z"/>
					<path class="st27" d="M1293,257.7c-3.2,0.1-6.5,0-9.8,0c-2.8-0.1-5.6-0.1-8.4-0.3c0,0,0,0,0,0.1s0,0.2,0,0.3l1.3-0.2
						c0,0.2,0,0.4,0,0.6c2.3,0.1,4.6,0.2,7,0.2c3.3,0.1,6.6,0.1,9.8,0c0-0.2,0-0.4,0-0.5C1293,257.8,1293,257.8,1293,257.7z"/>
					<path class="st27" d="M1274.2,257.5C1274.2,257.4,1274.2,257.4,1274.2,257.5c-3.1-0.2-6.1-0.4-9.1-0.7v0.1
						c0,0.2-0.2,0.3-0.3,0.3s-0.3-0.2-0.3-0.3c0-0.1,0-0.1,0-0.2c-5.7-0.5-11-1.2-15.7-2v0.1c0,0.2,0,0.4,0,0.6
						c7.1,1.2,15.5,2.1,24.8,2.6l0.7-0.1C1274.2,257.8,1274.2,257.6,1274.2,257.5z"/>
					<path class="st27" d="M1332.3,253.6c0,0.1,0,0.2,0,0.4s-0.1,0.3-0.3,0.3l0,0c-0.2,0-0.3-0.1-0.3-0.3c0-0.1,0-0.1,0-0.2
						c-3.4,0.8-7.5,1.5-12,2.1c0.1,0,0.2,0.1,0.2,0.3c0,0.1,0,0.3,0,0.4c1.7-0.2,3.3-0.5,4.9-0.7c4.6-0.8,11.3-2.2,15.3-4.2
						c0-0.2,0-0.5,0-0.7C1338.2,251.9,1335.6,252.8,1332.3,253.6z"/>
					<path class="st27" d="M1237.4,238.6c0-0.1,0-0.2,0.1-0.3c0-0.1,0.2-0.2,0.3-0.3c-4.9-1.7-7.7-3.6-7.7-5.5
						c0-0.2-0.1-0.3-0.2-0.3c-0.1,0.3-0.2,0.7-0.3,1C1230,235.1,1232.8,236.9,1237.4,238.6z"/>
					<path class="st27" d="M1318.4,242.1c0,0.1,0,0.2,0.1,0.3c0,0.1,0,0.3-0.1,0.3c1.4-0.2,2.8-0.4,4.1-0.7c2.3-0.4,4.8-1,7.1-1.7
						v-0.1c-0.1-0.2,0-0.4,0.2-0.4c0.2-0.1,0.4,0,0.4,0.2v0.1c3.3-1,6.3-2.4,7.9-4c-0.1-0.2-0.1-0.5-0.2-0.7
						C1335.4,238.3,1328.4,240.6,1318.4,242.1z"/>
					<path class="st27" d="M1317.8,242.5c0-0.1,0-0.2-0.1-0.3c-4.2,0.6-8.9,1.1-14,1.4c0.1,0,0.2,0.1,0.2,0.2c0,0.1,0.1,0.3,0.1,0.4
						c5-0.3,9.7-0.8,14-1.4C1318,242.7,1317.9,242.6,1317.8,242.5z"/>
					<path class="st27" d="M1287.5,244.3c0,0.2-0.2,0.3-0.3,0.3l0,0c-0.2,0-0.3-0.2-0.3-0.3s0-0.2,0-0.3c-1.1,0-2.2,0-3.3,0
						c-3.3-0.1-6.6-0.2-9.7-0.4l-3.9,0.4c4.3,0.3,8.9,0.5,13.6,0.6c6.9,0.1,13.7,0,19.9-0.4c0-0.1,0-0.2-0.1-0.3
						c0-0.1,0-0.3,0.1-0.4c-5,0.3-10.4,0.4-16,0.4C1287.5,244.1,1287.5,244.2,1287.5,244.3z"/>
					<path class="st27" d="M1269.9,243.4c-1.4-0.1-2.9-0.2-4.3-0.3c0,0.1,0,0.1,0,0.2c0,0.2,0,0.3,0,0.5c0.2,0,0.4,0,0.6,0.1
						L1269.9,243.4z"/>
					<path class="st27" d="M1238.1,238.4c0,0.1,0,0.3-0.1,0.4c6.3,2.1,15.8,3.9,27,4.9c0-0.2,0-0.3,0-0.5c0-0.1,0-0.1,0.1-0.2
						c-5.3-0.5-10.2-1.1-14.5-1.9c0,0.1,0,0.1,0,0.2c0,0.2-0.2,0.3-0.3,0.3c0,0,0,0-0.1,0c-0.2,0-0.3-0.2-0.3-0.4v-0.1
						c-4.7-0.8-8.8-1.8-12-2.9C1238.1,238.1,1238.1,238.3,1238.1,238.4z"/>
					<path class="st27" d="M1327.1,226.4c-0.1-0.2-0.1-0.3-0.2-0.4c-3.5,0.9-7.5,1.7-12,2.3c0.1,0,0.1,0.1,0.1,0.2
						c0.1,0.1,0.1,0.3,0.2,0.5c4.5-0.6,8.5-1.4,12-2.3C1327.2,226.5,1327.2,226.4,1327.1,226.4z"/>
					<path class="st27" d="M1242.7,225c-0.1,0.1-0.1,0.2-0.2,0.4c-0.1,0.1-0.2,0.2-0.3,0.2l0,0c3.3,1,7.1,1.8,11.3,2.5
						c0.1-0.2,0.2-0.4,0.2-0.6C1249.5,226.7,1245.8,225.9,1242.7,225z"/>
					<path class="st27" d="M1269.2,229.7c0.1,0.1,0.2,0.2,0.3,0.4c4.2,0.3,8.6,0.6,13,0.6c1.3,0,2.5,0,3.8,0c0-0.2,0-0.4-0.1-0.6
						l0,0c-1.2,0-2.5,0-3.7,0c-4.7-0.1-9.2-0.3-13.3-0.7c0,0.2-0.2,0.3-0.3,0.3l0,0c-0.2,0-0.3-0.2-0.3-0.3c-5.2-0.4-9.9-1-14.1-1.8
						c-0.1,0.2-0.2,0.4-0.2,0.6c4,0.7,8.3,1.2,12.8,1.6L1269.2,229.7z"/>
					<path class="st27" d="M1242.1,225.6c-0.2-0.1-0.2-0.3-0.2-0.4c0-0.1,0.1-0.2,0.1-0.3c-3.3-0.9-5.8-1.9-7.7-2.9
						c-0.1,0.2-0.2,0.4-0.3,0.6l0,0C1236.2,223.6,1239,224.7,1242.1,225.6z"/>
					<path class="st27" d="M1327.7,226.2c0,0.1,0,0.2,0,0.3c2.3-0.6,4.3-1.3,6-2c-0.1-0.2-0.2-0.4-0.3-0.6c-1.7,0.7-3.6,1.3-5.8,1.9
						C1327.6,225.9,1327.7,226,1327.7,226.2z"/>
					<path class="st27" d="M1314.6,229c0-0.1-0.1-0.2-0.1-0.3s0-0.2,0.1-0.3c-4,0.6-8.4,1-12.9,1.3v0.1c0,0.2-0.1,0.3-0.3,0.4l0,0
						c-0.2,0-0.3-0.1-0.3-0.3v-0.1c-4.6,0.3-9.4,0.4-14.2,0.4c0,0.2,0,0.4,0.1,0.7C1296.8,230.8,1306.4,230.1,1314.6,229z"/>
					<path class="st27" d="M1311.2,214.9c0.1,0.2,0,0.4-0.1,0.5c-0.1,0-0.1,0.1-0.2,0.1s-0.2-0.1-0.3-0.2c-0.1-0.1-0.1-0.2-0.2-0.3
						c-7.8,0.8-16.7,1.3-25.4,1.2v0.1c0,0.2-0.2,0.3-0.3,0.3s-0.3-0.2-0.3-0.3v-0.1c-0.3,0-0.5,0-0.8,0c-9.2-0.2-17.4-0.7-24.7-1.6
						c-0.1,0.2-0.3,0.4-0.4,0.6c4,0.5,8.2,0.9,12.8,1.2c0-0.2,0.1-0.3,0.1-0.4c0.1-0.2,0.2-0.3,0.4-0.2c0.2,0.1,0.3,0.2,0.2,0.4
						c0,0,0,0.1-0.1,0.2c3.7,0.2,7.5,0.4,11.6,0.4c5,0.1,10.1,0,15-0.3c0,0,0,0,0-0.1c0-0.2,0.1-0.4,0.2-0.4c0.2,0,0.3,0.1,0.4,0.2
						c0,0.1,0,0.1,0.1,0.2c8.2-0.5,15.9-1.3,22.1-2.3c0,0-0.1-0.1-0.1-0.2c-0.1-0.2-0.1-0.4,0.1-0.5c0.1-0.1,0.3-0.1,0.4,0.1
						c0.1,0.1,0.2,0.3,0.3,0.4c1.6-0.3,3-0.5,4.4-0.8c-0.2-0.2-0.3-0.4-0.5-0.6C1321.9,213.5,1316.8,214.3,1311.2,214.9
						L1311.2,214.9z"/>
					<path class="st27" d="M1248.2,213.1c0.1-0.1,0.3-0.2,0.5-0.1c0.1,0.1,0.2,0.3,0.1,0.5c0,0.1-0.1,0.1-0.1,0.2
						c2.9,0.6,6,1.1,9.3,1.5c0-0.1,0-0.2,0.1-0.2c0.1-0.1,0.2-0.3,0.3-0.4c-5.9-0.8-11.3-1.8-16.3-3c-0.2,0.2-0.3,0.4-0.5,0.6
						c2.1,0.5,4.2,1,6.5,1.5C1248.1,213.4,1248.1,213.2,1248.2,213.1z"/>
					<path class="st27" d="M1302,203.5L1302,203.5l-0.2,0.2L1302,203.5z"/>
					<path class="st27" d="M1302.8,204.1c3.4-0.2,6.7-0.5,9.8-0.8c-0.2-0.2-0.5-0.4-0.8-0.6c-3.1,0.3-6.4,0.6-9.7,0.8
						C1302.4,203.7,1302.6,203.9,1302.8,204.1z"/>
					<path class="st27" d="M1312.8,202.6c0.1,0.1,0.2,0.1,0.2,0.2c0.1,0.1,0.2,0.3,0.1,0.4c0.4,0,0.9-0.1,1.3-0.1
						c0.1,0,0.2,0,0.8-0.1c-0.3-0.2-0.5-0.4-0.8-0.5l0,0C1313.8,202.5,1313.3,202.6,1312.8,202.6z"/>
					<path class="st27" d="M1295,204.4c2.3-0.1,4.6-0.1,6.9-0.3c-0.1-0.1-0.2-0.2-0.2-0.2l0.2-0.3l0.1-0.2c-2.3,0.1-4.6,0.2-7,0.3
						c0,0.1,0.1,0.1,0.1,0.2C1295.2,204.1,1295.1,204.3,1295,204.4z"/>
					<path class="st27" d="M1294.6,204.3c-0.1-0.2-0.2-0.3-0.3-0.5c-3,0.1-6.1,0.1-9.1,0c0.1,0.1,0.2,0.2,0.1,0.3v0.4
						c3.2,0,6.3,0,9.4,0C1294.6,204.4,1294.6,204.4,1294.6,204.3z"/>
					<path class="st27" d="M1267.9,203.2c0.1-0.1,0.3-0.1,0.5,0c0.1,0.1,0.1,0.3,0,0.5c0,0,0,0-0.1,0.1c5.3,0.4,10.3,0.6,15.6,0.7
						c0.3,0,0.5,0,0.8,0v-0.4c0-0.1,0.1-0.2,0.2-0.3c-0.3,0-0.6,0-0.9,0c-2.8-0.1-5.6-0.1-8.3-0.3c-0.1,0.1-0.2,0.3-0.2,0.4
						c-0.1,0.1-0.2,0.2-0.3,0.2c-0.1,0-0.1,0-0.2,0c-0.2-0.1-0.2-0.3-0.1-0.5c0,0,0-0.1,0.1-0.1c-5.5-0.3-11.1-0.8-17.2-1.6
						c-0.1,0.1-0.2,0.1-0.2,0.2l-0.4,0.3c-0.1,0-0.1,0.1-0.2,0.1s-0.2-0.1-0.3-0.1c-0.1-0.1-0.1-0.4,0.1-0.5h0.1
						c-0.8-0.1-1.6-0.2-2.5-0.4c-0.3,0.2-0.6,0.3-0.8,0.5c5,0.8,9.6,1.4,14,1.8C1267.5,203.5,1267.7,203.3,1267.9,203.2z"/>
					<path class="st27" d="M1270.8,194.5c-0.6,0.1-1.1,0.3-1.7,0.4c0.1,0,0.2,0,0.3,0C1269.9,194.8,1270.4,194.6,1270.8,194.5z"/>
					<path class="st27" d="M1271.3,194.7c0,0.2,0,0.3-0.2,0.4c2.9,0.2,6.5,0.4,9.8,0.5c0.2-0.2,0.4-0.4,0.6-0.5
						c0.1-0.1,0.3-0.1,0.5,0.1c0.1,0.1,0.1,0.4-0.1,0.5c0,0,0,0-0.1,0.1c0.9,0,1.7,0.1,2.5,0.1c1.2,0,2.5,0,3.8,0l0,0
						c-0.1-0.1-0.2-0.3,0-0.5c0.1-0.1,0.3-0.2,0.5,0s0.4,0.4,0.6,0.5c3.5,0,7.2-0.2,9.8-0.4c-0.2-0.1-0.4-0.1-0.5-0.2
						c-0.4-0.1-0.8-0.2-1.2-0.3c-3.8,0.3-8.9,0.3-12.8,0.3C1280.4,195.2,1275.3,194.9,1271.3,194.7c-0.1,0-0.2,0-0.2,0.1
						C1271.1,194.4,1271.3,194.5,1271.3,194.7z"/>
					<path class="st27" d="M1319.8,256.6c-0.2,0-0.4,0.1-0.6,0.1c0.3,3.3,0.2,9.6-0.2,13.9c0.2,0,0.4-0.1,0.7-0.1
						C1320,266.1,1320.1,259.9,1319.8,256.6z"/>
					<path class="st27" d="M1319.1,256.3c0,0.1,0,0.3,0,0.4c0.2,0,0.4-0.1,0.6-0.1c0-0.1,0-0.3,0-0.4s-0.1-0.2-0.2-0.3
						c-0.1,0-0.2,0-0.3,0C1319.2,256,1319.1,256.1,1319.1,256.3z"/>
					<path class="st27" d="M1315.9,233.3l0.2,0.9c0.7,2.5,1.3,5.2,1.7,8c0.2,0,0.4-0.1,0.6-0.1c-0.5-2.9-1-5.6-1.7-8.1l-0.2-0.9
						c-0.4-1.4-0.8-2.9-1.2-4.3c-0.2,0-0.4,0.1-0.7,0.1C1315.1,230.3,1315.5,231.8,1315.9,233.3z"/>
					<path class="st27" d="M1317.8,242.5c0,0.1,0.1,0.2,0.2,0.3c0.1,0,0.2,0,0.2,0c0.1-0.1,0.2-0.2,0.1-0.3c0-0.1,0-0.2-0.1-0.3
						c-0.2,0-0.4,0.1-0.6,0.1C1317.8,242.3,1317.8,242.4,1317.8,242.5z"/>
					<path class="st27" d="M1315,228.3c-0.1,0-0.3,0-0.4,0.1s-0.1,0.2-0.1,0.3s0.1,0.2,0.1,0.3c0.2,0,0.4-0.1,0.7-0.1
						c-0.1-0.2-0.1-0.3-0.2-0.5C1315.1,228.3,1315,228.3,1315,228.3z"/>
					<path class="st27" d="M1306.2,209c1.5,2,3.1,4.2,4.2,6c0.2,0,0.5-0.1,0.7-0.1c-1.1-1.8-2.9-4.2-4.4-6.3c-1.4-1.9-2.6-3.1-4-4.5
						c-0.3,0-0.6,0-0.9,0C1303.4,205.7,1304.7,206.9,1306.2,209z"/>
					<path class="st27" d="M1310.7,215.3c0.1,0.1,0.2,0.2,0.3,0.2c0.1,0,0.1,0,0.2-0.1c0.2-0.1,0.2-0.3,0.1-0.5l0,0
						c-0.2,0-0.5,0.1-0.7,0.1C1310.5,215.1,1310.6,215.2,1310.7,215.3z"/>
					<path class="st27" d="M1302,203.5l-0.2,0.2l-0.2,0.3c0.1,0.1,0.2,0.2,0.2,0.2c0.3,0,0.6,0,0.9,0c-0.2-0.2-0.4-0.4-0.6-0.6
						C1302.1,203.5,1302.1,203.5,1302,203.5z"/>
					<path class="st27" d="M1291.8,199.7c1,1.4,1.8,2.8,2.5,4.1c0.2,0,0.5,0,0.7,0c-0.7-1.4-1.6-3-2.7-4.5c-0.9-1.3-2-2.5-3.1-3.6
						c-0.3,0-0.6,0-1,0C1289.5,196.8,1290.7,198.2,1291.8,199.7z"/>
					<path class="st27" d="M1294.7,204.4c0.1,0,0.2,0,0.3,0c0.2-0.1,0.2-0.3,0.1-0.4c0-0.1-0.1-0.1-0.1-0.2c-0.2,0-0.5,0-0.7,0
						C1294.4,204,1294.5,204.1,1294.7,204.4C1294.6,204.4,1294.6,204.4,1294.7,204.4z"/>
					<path class="st27" d="M1288.6,195.2c-0.1-0.1-0.3-0.1-0.5,0c-0.1,0.1-0.1,0.3,0,0.5l0,0c0.3,0,0.6,0,1,0
						C1289,195.5,1288.8,195.3,1288.6,195.2z"/>
					<path class="st27" d="M1301,229.7c0.2,0,0.4,0,0.6,0c-0.3-2.4-0.7-4.8-1.1-7c-0.7-3.5-1.1-5.3-1.3-6c-0.2,0-0.4,0-0.7,0
						c0.2,0.6,0.6,2.4,1.3,6.1C1300.4,224.9,1300.8,227.3,1301,229.7z"/>
					<path class="st27" d="M1301.4,230.1L1301.4,230.1c0.2,0,0.3-0.2,0.3-0.4v-0.1c-0.2,0-0.4,0-0.6,0v0.1
						C1301.1,229.9,1301.2,230.1,1301.4,230.1z"/>
					<path class="st27" d="M1299.2,216.3c0-0.2-0.2-0.3-0.4-0.2c-0.2,0-0.3,0.2-0.2,0.4c0,0,0,0,0,0.1c0.2,0,0.4,0,0.7,0
						C1299.3,216.5,1299.3,216.4,1299.2,216.3z"/>
					<path class="st27" d="M1304.3,257.3c0.2,0,0.4,0,0.6,0c0.1-2.8-0.2-9.9-0.9-13.1c-0.2,0-0.4,0-0.7,0
						C1304.1,247.4,1304.4,254.6,1304.3,257.3z"/>
					<path class="st27" d="M1304.3,257.4c0,0.2,0.1,0.3,0.3,0.3l0,0c0.2,0,0.3-0.1,0.3-0.3c0-0.1,0-0.1,0-0.2c-0.2,0-0.4,0-0.6,0
						C1304.3,257.3,1304.3,257.4,1304.3,257.4z"/>
					<path class="st27" d="M1303.8,243.6c-0.1,0-0.2,0-0.3,0c-0.1,0.1-0.2,0.2-0.1,0.4c0,0.1,0,0.2,0.1,0.3c0.2,0,0.4,0,0.7,0
						c0-0.1-0.1-0.3-0.1-0.4C1304,243.7,1303.9,243.6,1303.8,243.6z"/>
					<path class="st27" d="M1299,195.3c5,1.8,10.3,5.6,12.8,7.4c0.3,0,0.6-0.1,0.9-0.1c-1.4-1.1-4.4-3.3-7.8-5.3
						C1303,196.6,1301.1,195.9,1299,195.3C1299.1,195.3,1299,195.3,1299,195.3z"/>
					<path class="st27" d="M1313.1,203.2c0.1-0.1,0.1-0.3-0.1-0.4c-0.1-0.1-0.2-0.1-0.2-0.2c-0.3,0-0.6,0.1-0.9,0.1
						c0.3,0.2,0.6,0.4,0.8,0.6C1312.8,203.3,1312.9,203.3,1313.1,203.2z"/>
					<path class="st27" d="M1298.5,195.1c0.2,0.1,0.4,0.1,0.5,0.2c0,0,0,0,0.1,0C1298.9,195.2,1298.7,195.2,1298.5,195.1z"/>
					<path class="st27" d="M1327,225.9c0.2-0.1,0.4-0.1,0.6-0.2c-0.9-2.6-1.7-4.6-2.5-6.2c-0.8-1.7-1.9-3.6-3.1-5.5
						c-0.2,0-0.5,0.1-0.7,0.1c1.3,1.9,2.3,3.9,3.2,5.7C1325.3,221.4,1326,223.4,1327,225.9z"/>
					<path class="st27" d="M1327.1,226.4c0,0.1,0.1,0.1,0.1,0.2c0.2,0,0.3-0.1,0.5-0.1c0-0.1,0-0.2,0-0.3s-0.1-0.3-0.1-0.4
						c-0.2,0.1-0.4,0.1-0.6,0.2C1327,226.1,1327.1,226.2,1327.1,226.4z"/>
					<path class="st27" d="M1321.8,213.7c-0.1-0.2-0.3-0.2-0.4-0.1c-0.1,0.1-0.2,0.3-0.1,0.5c0,0,0.1,0.1,0.1,0.2
						c0.2,0,0.5-0.1,0.7-0.1C1322,214,1321.9,213.8,1321.8,213.7z"/>
					<path class="st27" d="M1329.6,240.4c1.3,4.6,2,9,2,13.4c0.2-0.1,0.4-0.1,0.6-0.2c-0.1-4.5-0.7-8.9-2.1-13.5
						C1330,240.2,1329.8,240.3,1329.6,240.4z"/>
					<path class="st27" d="M1331.6,254c0,0.2,0.1,0.3,0.3,0.3l0,0c0.2,0,0.3-0.1,0.3-0.3c0-0.1,0-0.2,0-0.4
						c-0.2,0.1-0.4,0.1-0.6,0.2C1331.6,253.9,1331.6,253.9,1331.6,254z"/>
					<path class="st27" d="M1330.1,240c-0.1-0.2-0.2-0.3-0.4-0.2c-0.2,0.1-0.3,0.2-0.2,0.4v0.1c0.2-0.1,0.4-0.1,0.6-0.2
						C1330.2,240.1,1330.2,240.1,1330.1,240z"/>
					<path class="st27" d="M1293.6,258.4c-0.2,0-0.4,0-0.6,0c0,3.3-0.1,9.1-0.4,13.6c0.2,0,0.4,0,0.6,0
						C1293.6,267.5,1293.6,261.7,1293.6,258.4z"/>
					<path class="st27" d="M1293.6,257.7c-0.2,0-0.4,0-0.6,0v0.1c0,0.2,0,0.4,0,0.5c0.2,0,0.4,0,0.6,0c0-0.2,0-0.4,0-0.5
						C1293.6,257.8,1293.6,257.8,1293.6,257.7z"/>
					<path class="st27" d="M1286.9,230.8c-0.2,0-0.4,0-0.6,0c0.3,2.7,0.7,9.2,0.6,13.3c0.2,0,0.4,0,0.6,0
						C1287.6,239.9,1287.2,233.5,1286.9,230.8z"/>
					<path class="st27" d="M1287.2,244.6L1287.2,244.6c0.2,0,0.3-0.1,0.3-0.3c0-0.1,0-0.2,0-0.3c-0.2,0-0.4,0-0.6,0
						c0,0.1,0,0.2,0,0.3C1286.8,244.5,1287,244.6,1287.2,244.6z"/>
					<path class="st27" d="M1286.3,230.8c0.2,0,0.4,0,0.6,0c0-0.3-0.1-0.5-0.1-0.7c-0.2,0-0.4,0-0.6,0l0,0
						C1286.2,230.3,1286.2,230.5,1286.3,230.8z"/>
					<path class="st27" d="M1248.7,255.5c-0.2,0-0.4-0.1-0.6-0.1c-0.3,4.9-0.3,9.4,0,13.8c0,0,0,0,0,0.1c0.2,0,0.4,0.1,0.6,0.1
						c0-0.1,0.1-0.1,0.1-0.2C1248.4,264.8,1248.4,260.3,1248.7,255.5z"/>
					<path class="st27" d="M1248.7,254.8c-0.2,0-0.4-0.1-0.6-0.1c0,0.1-0.1,0.1-0.1,0.2c0,0.2,0,0.3,0,0.5c0.2,0,0.4,0.1,0.6,0.1
						C1248.6,255.3,1248.6,255.1,1248.7,254.8C1248.8,254.9,1248.7,254.8,1248.7,254.8z"/>
					<path class="st27" d="M1252.7,233l0.3-0.9c0.1-0.2,0.1-0.4,0.2-0.6h-0.7c0,0.1-0.1,0.2-0.1,0.4l-0.3,0.9
						c-0.8,2.5-1.5,5.3-2.1,8.2c0.2,0,0.4,0.1,0.6,0.1C1251.2,238.2,1251.9,235.5,1252.7,233z"/>
					<path class="st27" d="M1254.2,228.2c-0.2,0-0.4-0.1-0.6-0.1c-0.3,0.9-0.6,1.8-0.9,2.8h0.7
						C1253.6,230,1253.9,229.1,1254.2,228.2z"/>
					<path class="st27" d="M1250.2,241.5C1250.3,241.5,1250.3,241.5,1250.2,241.5c0.2,0,0.3-0.1,0.4-0.3c0-0.1,0-0.1,0-0.2
						c-0.2,0-0.4-0.1-0.6-0.1v0.1C1250,241.3,1250.1,241.5,1250.2,241.5z"/>
					<path class="st27" d="M1254.4,227.6c-0.2,0-0.4-0.1-0.6-0.1c-0.1,0.2-0.2,0.4-0.2,0.6c0.2,0,0.4,0.1,0.6,0.1
						C1254.3,228,1254.4,227.8,1254.4,227.6z"/>
					<path class="st27" d="M1263.1,209.3c1.6-2,3.4-3.9,5.2-5.5c-0.3,0-0.6-0.1-0.9-0.1c-1.7,1.6-3.3,3.3-4.8,5.2
						c-0.7,0.8-2.8,3.5-4.3,5.7c0.2,0,0.5,0.1,0.7,0.1C1260.5,212.5,1262.5,210,1263.1,209.3z"/>
					<path class="st27" d="M1259,214.6c-0.2,0-0.5-0.1-0.7-0.1c-0.1,0.1-0.2,0.3-0.3,0.4c0,0.1-0.1,0.1-0.1,0.2
						c0.2,0,0.4,0.1,0.6,0.1C1258.7,215,1258.8,214.8,1259,214.6z"/>
					<path class="st27" d="M1268.3,203.7c0.1-0.1,0.1-0.3,0-0.5c-0.1-0.1-0.3-0.1-0.5,0c-0.2,0.2-0.3,0.3-0.5,0.5
						C1267.7,203.7,1267.9,203.7,1268.3,203.7L1268.3,203.7z"/>
					<path class="st27" d="M1281.9,195.6c-0.3,0-0.6,0-1,0c-1.1,1-2.2,2.1-3.2,3.4c-1.2,1.5-2.2,3.1-3,4.5c0.2,0,0.5,0,0.7,0
						c0.7-1.3,1.6-2.7,2.7-4.1C1279.4,197.9,1280.6,196.7,1281.9,195.6z"/>
					<path class="st27" d="M1274.8,203.6c-0.1,0.2,0,0.4,0.1,0.5c0,0,0.1,0,0.2,0s0.2-0.1,0.3-0.2c0.1-0.1,0.2-0.3,0.2-0.4
						C1275.3,203.5,1275.1,203.5,1274.8,203.6C1274.8,203.5,1274.8,203.6,1274.8,203.6z"/>
					<path class="st27" d="M1282,195.6c0.1-0.1,0.2-0.3,0.1-0.5c-0.1-0.1-0.3-0.2-0.5-0.1c-0.2,0.2-0.4,0.4-0.6,0.5
						C1281.3,195.6,1281.6,195.6,1282,195.6C1281.9,195.6,1282,195.6,1282,195.6z"/>
					<path class="st27" d="M1268.5,229.3L1268.5,229.3c0.2,0.1,0.4,0.1,0.6,0.1l0,0c0.4-2.4,0.9-4.8,1.4-7c0.8-3.5,1.3-5.3,1.5-6
						c-0.2,0-0.4,0-0.7,0c-0.2,0.8-0.7,2.6-1.5,5.8C1269.4,224.5,1268.9,226.9,1268.5,229.3z"/>
					<path class="st27" d="M1268.8,229.7L1268.8,229.7c0.2,0,0.3-0.1,0.4-0.3c-0.2,0-0.4,0-0.6-0.1
						C1268.5,229.5,1268.6,229.6,1268.8,229.7z"/>
					<path class="st27" d="M1272.1,216.2c0.1-0.2,0-0.4-0.2-0.4c-0.2-0.1-0.4,0-0.4,0.2c0,0.1-0.1,0.2-0.1,0.4c0.2,0,0.4,0,0.7,0
						C1272.1,216.3,1272.1,216.3,1272.1,216.2z"/>
					<path class="st27" d="M1265.7,243.7c-0.2,0-0.4,0-0.6-0.1c0,0.1,0,0.2,0,0.2L1265.7,243.7
						C1265.7,243.8,1265.7,243.8,1265.7,243.7z"/>
					<path class="st27" d="M1265.4,248.7c0.1-1.4,0.2-2.8,0.3-4.2l-0.7,0.1c-0.1,1.4-0.2,2.8-0.3,4.1v0.3c-0.1,2.8-0.2,5.4-0.3,7.8
						c0.2,0,0.4,0,0.6,0.1c0-2.4,0.2-5,0.3-7.8L1265.4,248.7z"/>
					<path class="st27" d="M1264.4,256.9c0,0.2,0.1,0.3,0.3,0.3s0.3-0.1,0.3-0.3v-0.1c-0.2,0-0.4,0-0.6-0.1
						C1264.4,256.8,1264.4,256.8,1264.4,256.9z"/>
					<path class="st27" d="M1265.7,243.2c0-0.1,0-0.1,0-0.2c-0.2,0-0.3,0-0.5,0c0,0-0.1,0.1-0.1,0.2c0,0.2,0,0.3,0,0.5
						c0.2,0,0.4,0,0.6,0.1C1265.7,243.5,1265.7,243.4,1265.7,243.2z"/>
					<path class="st27" d="M1271.1,195.1C1271.1,195.1,1271.2,195.1,1271.1,195.1c-0.5-0.1-1.1-0.1-1.7-0.2c-2,0.7-4,1.5-6.1,2.5
						c-2.2,1.1-4.4,2.7-6.3,4.1l-0.3,0.2c0.3,0,0.6,0.1,0.9,0.1c1.8-1.3,3.9-2.8,6-3.8C1266.2,196.8,1268.6,195.8,1271.1,195.1z"/>
					<path class="st27" d="M1256.6,201.8c-0.1,0.1-0.2,0.3-0.1,0.5c0.1,0.1,0.2,0.1,0.3,0.1c0.1,0,0.1,0,0.2-0.1l0.4-0.3
						c0.1-0.1,0.2-0.1,0.2-0.2C1257.3,201.8,1257,201.8,1256.6,201.8L1256.6,201.8z"/>
					<path class="st27" d="M1271.3,194.7c0-0.2-0.2-0.2-0.3-0.2c-0.1,0-0.1,0-0.2,0c-0.5,0.1-0.9,0.3-1.4,0.4c0.5,0,1.1,0.1,1.7,0.1
						C1271.3,195,1271.4,194.8,1271.3,194.7z"/>
					<path class="st27" d="M1242.2,225.6L1242.2,225.6L1242.2,225.6C1242.1,225.6,1242.2,225.6,1242.2,225.6z"/>
					<path class="st27" d="M1245.4,219c1-2,2.1-3.8,3.3-5.3c-0.2,0-0.5-0.1-0.7-0.1c-1.1,1.5-2.1,3.3-3.1,5.2
						c-0.8,1.5-1.7,3.5-2.7,6.1c0.2,0.1,0.4,0.1,0.6,0.2C1243.8,222.5,1244.6,220.5,1245.4,219z"/>
					<path class="st27" d="M1242.6,225.4c0.1-0.1,0.1-0.2,0.2-0.4c-0.2-0.1-0.4-0.1-0.6-0.2c0,0.1-0.1,0.2-0.1,0.3
						c-0.1,0.2,0,0.3,0.2,0.4h0.1l0,0C1242.4,225.6,1242.5,225.5,1242.6,225.4z"/>
					<path class="st27" d="M1248.8,213.5c0.1-0.1,0.1-0.4-0.1-0.5c-0.1-0.1-0.3-0.1-0.5,0.1c-0.1,0.1-0.2,0.3-0.3,0.4
						c0.2,0,0.5,0.1,0.7,0.1C1248.7,213.6,1248.7,213.6,1248.8,213.5z"/>
					<path class="st27" d="M1237.1,244.4l0.1-0.3c0.3-1.7,0.5-3.5,0.9-5.3c-0.2-0.1-0.4-0.1-0.6-0.2c-0.4,1.8-0.6,3.6-0.9,5.4
						l-0.1,0.3c-0.5,3.1-0.7,5.1-0.8,7.4c0.2,0.1,0.4,0.1,0.6,0.2l0,0C1236.4,249.6,1236.6,247.6,1237.1,244.4z"/>
					<path class="st27" d="M1237.9,238C1237.8,238,1237.8,238,1237.9,238l0.1,0.1C1238,238,1237.9,238,1237.9,238z"/>
					<path class="st27" d="M1235.7,251.9c0,0.2,0.1,0.3,0.3,0.3l0,0c0.2,0,0.3-0.1,0.3-0.3c-0.2-0.1-0.4-0.1-0.6-0.2
						C1235.7,251.8,1235.7,251.9,1235.7,251.9z"/>
					<path class="st27" d="M1238.1,238.4c0-0.1,0-0.2-0.1-0.3c-0.1,0-0.2-0.1-0.2-0.1c-0.1,0-0.3,0.1-0.3,0.3c0,0.1,0,0.2-0.1,0.3
						c0.2,0.1,0.4,0.1,0.6,0.2C1238,238.6,1238.1,238.5,1238.1,238.4z"/>
					<path class="st27" d="M1274.8,258.5l-0.6,0.1c-0.1,4.2,0,8.6,0.3,13.1c0.2,0,0.4,0,0.6,0c0,0,0,0,0-0.1
						C1274.8,267.1,1274.7,262.7,1274.8,258.5z"/>
					<path class="st27" d="M1274.2,257.5c0,0.1,0,0.3,0,0.4l0.6-0.1c0-0.1,0-0.2,0-0.3c0,0,0,0,0-0.1
						C1274.6,257.4,1274.4,257.4,1274.2,257.5C1274.2,257.4,1274.2,257.4,1274.2,257.5z"/>
					<path class="st27" d="M1285.1,216.2l0.2-11.8c-0.2,0-0.4,0-0.6,0l-0.2,11.7C1284.6,216.2,1284.9,216.2,1285.1,216.2z"/>
					<path class="st27" d="M1284.4,216.3c0,0.2,0.1,0.3,0.3,0.3s0.3-0.1,0.3-0.3v-0.1c-0.2,0-0.4,0-0.6,0L1284.4,216.3z"/>
					<path class="st27" d="M1285.3,204.1c0-0.1-0.1-0.2-0.1-0.3c-0.1,0-0.2,0-0.3,0c-0.1,0.1-0.2,0.2-0.2,0.3v0.4c0.2,0,0.4,0,0.6,0
						V204.1z"/>
					<path class="st27" d="M1274.2,257.9l-0.7,0.1c0.2,0,0.4,0,0.7,0C1274.2,258,1274.2,258,1274.2,257.9z"/>
					<path class="st27" d="M1274.8,257.8c0,0.1,0,0.2,0,0.3c0.4,0,0.9,0,1.4,0.1c0-0.2,0-0.4,0-0.6L1274.8,257.8z"/>
					<path class="st27" d="M1274.2,258.1c0.2,0,0.4,0,0.6,0c0-0.1,0-0.2,0-0.3l-0.6,0.1C1274.2,258,1274.2,258,1274.2,258.1z"/>
					<path class="st27" d="M1267,229.9c0.8,0.1,1.6,0.1,2.5,0.2c-0.1-0.1-0.2-0.3-0.3-0.4L1267,229.9z"/>
				</g>
				<g class="st28">
					<path class="st29" d="M1331.3,268.3"/>
				</g>
				<g class="st28">
					<path class="st29" d="M1236.1,266.5"/>
				</g>
				<path class="st27" d="M1252.1,277.6l22.9-6.1c0.4-3,1.1-10.1,1.2-13.2c0.3-14.5-2.7-23.3-8-30c-2.9-3.7-6.9-6.2-11.5-6.3h-18.1
					c0,0-4.4,0.2-5.4,1.2L1252.1,277.6z"/>
				<path class="st30" d="M1276.2,258.2v-0.6c-0.2,0-22.3,4-22.3,4c0,0.2,0,0.4,0,0.7L1276.2,258.2L1276.2,258.2z"/>
				<path class="st30" d="M1274.9,242.8l-21.8,2.4c0,0.2,0.1,0.4,0.1,0.7l21.8-2.4C1275,243.3,1274.9,243.1,1274.9,242.8z"/>
				<path class="st30" d="M1269.2,229.7c-0.8-0.1-20.1,1.5-20.1,1.5c0.1,0.2,0.2,0.4,0.3,0.6l20.2-1.5
					C1269.6,230.3,1269.3,229.8,1269.2,229.7z"/>
				<path class="st26" d="M1217.6,270.5c0,0-1.6-19.1,3.6-33.7s14.5-14.5,16.4-14.5c0,0,7.8-0.8,12.9,11.7
					c5.4,13.1,2.8,43.1,2.8,43.1s-0.4,0.5-1.3,0.5l-15.6-3.2l-18.8-3.6V270.5z"/>
				<path class="st31" d="M1235.2,231.2c0,0-10.9-2-9.6,41.2l17.7,3.4C1243.3,275.8,1248,232.1,1235.2,231.2z"/>
				<g class="st28">
					<path class="st29" d="M1241.7,275.3"/>
				</g>
				<g>
					<path class="st32" d="M1243.4,246.1l-16.6-0.1c0,0.2-0.1,0.4-0.1,0.7l16.8,0.1C1243.5,246.5,1243.5,246.3,1243.4,246.1z"/>
					<path class="st32" d="M1241.3,237l-11.1-1.9c-0.1,0.2-0.2,0.4-0.3,0.6l11.7,2.1C1241.5,237.4,1241.4,237.2,1241.3,237z"/>
					<path class="st32" d="M1225.6,259.3c0,0.2,0,0.4,0,0.7l18.5-2.5c0-0.2,0-0.4,0-0.7L1225.6,259.3z"/>
				</g>
				<g>
					<path class="st27" d="M1230.2,235.1l-6-4.8c-0.1,0.2-0.2,0.4-0.3,0.6l6,4.8C1230,235.5,1230.1,235.3,1230.2,235.1z"/>
					<path class="st27" d="M1226.9,245.8l-7.7-2.1c0,0.2-0.1,0.4-0.1,0.6l7.7,2.1C1226.8,246.2,1226.9,246,1226.9,245.8z"/>
					<path class="st27" d="M1225.6,259.2l-8.1-1.6c0,0.2,0,0.4,0,0.7l8.1,1.6C1225.6,259.7,1225.6,259.4,1225.6,259.2z"/>
					<path class="st27" d="M1235.9,231.3l0.2-8.9c-0.2,0-0.4,0-0.6,0.1l-0.2,8.8C1235.5,231.2,1235.7,231.3,1235.9,231.3z"/>
					<path class="st27" d="M1241,236.3l8.5-4.4c-0.1-0.2-0.2-0.4-0.3-0.6l-8.5,4.4C1240.8,235.9,1240.9,236.1,1241,236.3z"/>
					<path class="st27" d="M1243.6,247.1l9.6-1.2c0-0.2,0-0.4-0.1-0.7l-9.6,1.2C1243.5,246.7,1243.5,246.9,1243.6,247.1z"/>
					<path class="st27" d="M1244.1,261.1c0,0.2,0,0.4,0,0.7l9.8,0.3c0-0.2,0-0.4,0-0.7L1244.1,261.1z"/>
				</g>
				<path class="st33" d="M1225.6,272.3C1225.6,272.4,1225.6,272.4,1225.6,272.3l17.7,3.5c0,0,0.4-3.8,0.7-9.2
					C1242,267.4,1226.2,272.2,1225.6,272.3z"/>
				<g class="st34">
					<path class="st35" d="M1252,211.4c3.7,0.4,7.5-1.1,10.8-2.6c1.5-0.7,3.1-1.5,4.8-1.9c1.5-0.3,2.4,0.3,3.1,1.6s1.2,2.8,2.2,3.9
						c1.1,1.2,2.7,1.8,4.3,1.9c1.7,0.1,3.3-0.6,4.5-1.8c1.1-1.1,1.9-2.4,2.8-3.6c2.1-2.6,5.6-2.7,8.6-2.1c3.9,0.8,7.5,2.4,11.3,3.4
						c3,0.8,6.1,1.4,9.1,1.9c2.2,0.3,4.5,0.4,6.7-0.4c1.1-0.4,2.2-1.1,3-1.8c-10-10.1-23.6-16.5-38.8-16.8
						c-14.6-0.3-28.1,5.2-38.3,14.3C1247.2,209.7,1249.4,211.1,1252,211.4z"/>
				</g>
			</g>
			
				<ellipse transform="matrix(1.882965e-02 -0.9998 0.9998 1.882965e-02 1039.8965 1494.1354)" class="st36" cx="1281.2" cy="217.2" rx="1.3" ry="1.3"/>
			
				<ellipse transform="matrix(1.882966e-02 -0.9998 0.9998 1.882966e-02 1039.1837 1499.9106)" class="st36" cx="1283.8" cy="220.5" rx="0.7" ry="0.6"/>
			
				<ellipse transform="matrix(1.882966e-02 -0.9998 0.9998 1.882966e-02 1059.924 1500.4052)" class="st36" cx="1294.4" cy="210.2" rx="0.9" ry="0.9"/>
			
				<ellipse transform="matrix(1.882966e-02 -0.9998 0.9998 1.882966e-02 1027.7314 1458.0615)" class="st36" cx="1256.8" cy="205.4" rx="1.4" ry="1.4"/>
		</g>
	</g>
</g>
<g id="이글루얼음">
	<g class="st37">
		<polyline class="st14" points="168.5,516.1 92.5,422.2 327.7,446.7 390,487.1 312.5,504 280.1,594.6 161.3,649.9 173.1,521.9 
			168.5,516.1 		"/>
		<g>
			<polygon class="st38" points="327.7,446.7 92.5,422.2 168.5,516.1 173.1,521.9 161.3,649.9 158.5,651.2 -0.6,476.2 -0.6,310.6 
				306.9,294.3 329.6,447.9 			"/>
			<polygon class="st39" points="440.1,359.1 395.5,485.9 390,487.1 329.6,447.9 306.9,294.3 308.1,294.2 			"/>
		</g>
		<path class="st39" d="M138.2,519.4l23,130.5l-2.7,1.3l-64.4-68.4L-0.6,476.2V310.6l97.5-5.2c-1.1,34.9-4.5,116.8-4.5,116.8
			L138.2,519.4z"/>
		<g>
			<polygon class="st40" points="312.5,504 173.1,521.9 168.5,516.1 92.5,422.2 327.7,446.7 390,487.1 			"/>
		</g>
	</g>
	<path class="st41" d="M475.1,349.7c-2-5.9-16.7-20.7-36.4-22.7c0,0-84.4-17.1-224.2-9.6c-103.2,5.5-181.3,18-215.1,24.1v98.7
		c13.9,1.8,27.8,3.6,41.7,5.4c44.4,5.8,88.9,11.6,133.6,12.1c28.8,0.3,57.6-1.5,86.3-3.4c23.5-1.5,47.4-3.1,69.4-12.4
		c41.1-17.2,70.8-58,115.1-65.8c7.2-1.3,14.7-1.9,21-5.9C472.9,366.2,477.7,357.4,475.1,349.7z"/>
	<g>
		<path class="st40" d="M166.4,210.4l-75.2,94.1L324,280l61.6-40.5l-76.7-16.9L280,140.8c-2-5.7-6.1-10.3-11.4-12.8L159.3,76.4
			l-7.4,108.8L166.4,210.4"/>
		<g>
			<path class="st42" d="M274.8,132.4c-1.8-1.8-3.9-3.4-6.2-4.5L159.3,76.4l-7.4,108.8l13.6,23.6l45.6-16L274.8,132.4z"/>
		</g>
		<g>
			<polygon class="st43" points="324,280 242.7,288.5 207.8,310.9 91.3,304.5 169.6,211.1 151.9,185.2 159.3,76.4 156.6,75.1 
				-0.8,250.4 -0.8,416.2 303.3,432.5 325.8,278.7 			"/>
			<path class="st44" d="M435,367.6l-42.2-121.4c-1.2-3.4-4-6-7.3-6.7l0,0l-59.7,39.3l-22.5,153.8l1.2,0.1L435,367.6z"/>
		</g>
		<path class="st43" d="M136.5,207.1l22.8-130.7l-2.7-1.3l-63.7,68.5l-93.7,72.7v199.9l96.5,5.2c-1.1-35-4.4-116.9-4.4-116.9
			L136.5,207.1z"/>
		<g>
			<polygon class="st45" points="308.8,222.5 171,204.6 166.4,210.4 91.3,304.5 207.8,310.9 242.7,288.5 324,280 385.5,239.4 			"/>
		</g>
	</g>
	<g>
		<ellipse class="st25" cx="239.2" cy="247.2" rx="103.5" ry="26.8"/>
		<g>
			<g id="SmallIgloo_00000164499630506462847570000016316391642324960155_">
				<path class="st26" d="M319.1,237c1.1-5.8,1.6-11.8,1.4-18c-0.9-49.3-40.7-88.5-88.8-87.6s-86.4,41.6-85.5,90.9
					c0.1,6.3,0.9,12.5,2.2,18.5c0,0,0,0,0,0.1c0.1,7.6,38.4,13,85.5,12.1s83.9-8,85-15.3L319.1,237z"/>
				<g>
					<path class="st27" d="M260.6,209.4c0,0.1,0,0.1,0,0.2l-1-0.1C260,209.5,260.3,209.4,260.6,209.4z"/>
					<path class="st27" d="M287.7,227.4c0-0.3,0-0.5,0-0.8c0-0.1,0-0.2-0.1-0.3c7.1-1.2,13.3-2.6,18.3-4.2c0,0.3,0.2,0.5,0.5,0.5
						l0,0c0.3,0,0.5-0.2,0.5-0.5c0-0.1,0-0.2,0-0.3c8.1-2.6,12.8-5.6,12.8-8.6c0-0.3,0.2-0.5,0.5-0.5h0.1c0.1,0.6,0.1,1.3,0.1,1.9
						C318.4,219.6,306.2,224.2,287.7,227.4z"/>
					<path class="st27" d="M178.1,228.3c6.7,0.9,14.1,1.5,22,2c0,0.1,0,0.2,0,0.3c0,0.3,0.2,0.5,0.5,0.5l0,0c0.3,0,0.5-0.3,0.5-0.5
						c0-0.1,0-0.1,0-0.2c5.3,0.3,10.9,0.5,16.5,0.6c0,0.1,0,0.1,0,0.2c0,0.3,0,0.5,0,0.8c-14-0.3-27.6-1.2-39.3-2.7
						c0-0.2,0-0.4,0.1-0.6C178.3,228.5,178.2,228.4,178.1,228.3z"/>
					<path class="st27" d="M218.5,231c5,0.1,10,0.1,15.1,0c4.4-0.1,8.7-0.2,12.9-0.4v0.1c0,0.2,0,0.3,0,0.5l-2.1-0.4
						c0,0.3,0,0.6,0,0.9c-3.5,0.1-7.1,0.3-10.8,0.3c-5,0.1-10.1,0.1-15.1,0c0-0.3,0-0.6,0-0.8C218.6,231.1,218.6,231.1,218.5,231z"
						/>
					<path class="st27" d="M247.6,230.6v-0.1c4.8-0.2,9.5-0.6,14-0.9c0,0.1,0,0.1,0,0.2c0,0.3,0.2,0.5,0.5,0.5s0.5-0.2,0.5-0.5
						c0-0.1,0-0.2,0-0.3c8.8-0.8,17-1.8,24.2-3c0,0.1,0,0.1,0,0.2c0,0.3,0,0.6,0,0.9c-10.9,1.8-23.9,3.2-38.1,3.9l-1-0.2
						C247.6,231.1,247.6,230.8,247.6,230.6z"/>
					<path class="st27" d="M158.1,224.7c0,0.2,0,0.4,0,0.5c0,0.3,0.2,0.5,0.5,0.5l0,0c0.3,0,0.5-0.2,0.5-0.5c0-0.1,0-0.2,0-0.3
						c5.2,1.2,11.5,2.4,18.5,3.3c-0.2,0.1-0.3,0.2-0.3,0.4s0,0.4,0,0.6c-2.6-0.3-5.1-0.7-7.5-1.1c-7.1-1.2-17.5-3.3-23.5-6.5
						c0-0.4,0-0.7,0-1.1C148.9,222,153,223.4,158.1,224.7z"/>
					<path class="st27" d="M304.2,201.5c0-0.2-0.1-0.3-0.1-0.5s-0.2-0.4-0.5-0.4c7.5-2.6,11.9-5.5,11.8-8.5c0-0.2,0.2-0.4,0.4-0.5
						c0.2,0.5,0.3,1,0.5,1.5C315.5,196.1,311.2,199,304.2,201.5z"/>
					<path class="st27" d="M179.4,206.9c0,0.2-0.1,0.3-0.1,0.5s0.1,0.4,0.2,0.5c-2.2-0.3-4.3-0.7-6.3-1.1c-3.6-0.7-7.4-1.5-11-2.6
						c0-0.1,0-0.1,0.1-0.2c0.1-0.3-0.1-0.6-0.3-0.6c-0.3-0.1-0.5,0.1-0.6,0.3c0,0.1,0,0.1-0.1,0.2c-5.1-1.6-9.6-3.6-12.2-6.2
						c0.1-0.4,0.2-0.7,0.3-1.1C153.2,201,164,204.6,179.4,206.9z"/>
					<path class="st27" d="M180.3,207.6c0-0.2,0.1-0.3,0.1-0.5c6.5,0.9,13.7,1.7,21.5,2.2c-0.1,0.1-0.2,0.2-0.3,0.3
						c0,0.2-0.1,0.4-0.1,0.6c-7.7-0.5-15-1.2-21.6-2.2C180.1,207.9,180.3,207.8,180.3,207.6z"/>
					<path class="st27" d="M227,210.3c0,0.3,0.2,0.5,0.5,0.5l0,0c0.3,0,0.5-0.2,0.5-0.5c0-0.1,0-0.3,0-0.4c1.7,0,3.4,0,5.1-0.1
						c5.1-0.1,10.1-0.3,15-0.6l6.1,0.7c-6.7,0.5-13.7,0.8-21,0.9c-10.7,0.2-21.1,0-30.7-0.6c0-0.2,0.1-0.3,0.1-0.5
						c0.1-0.2,0-0.4-0.2-0.5c7.7,0.5,16,0.7,24.7,0.6C227,210,227,210.2,227,210.3z"/>
					<path class="st27" d="M254.1,208.9c2.2-0.2,4.4-0.3,6.6-0.5c0,0.1-0.1,0.2-0.1,0.3c0,0.3,0,0.5,0.1,0.8c-0.3,0-0.6,0.1-0.9,0.1
						L254.1,208.9z"/>
					<path class="st27" d="M303.1,201.2c0,0.2,0.1,0.4,0.1,0.6c-9.7,3.3-24.3,6-41.6,7.5c0-0.3,0-0.5-0.1-0.8c0-0.1-0.1-0.2-0.1-0.3
						c8.1-0.8,15.6-1.7,22.4-2.9c0,0.1,0,0.2,0.1,0.2c0,0.2,0.3,0.4,0.5,0.4h0.1c0.3-0.1,0.4-0.3,0.4-0.6c0-0.1,0-0.1,0-0.2
						c7.3-1.3,13.6-2.8,18.5-4.5C303.1,200.8,303.1,201,303.1,201.2z"/>
					<path class="st27" d="M166,182.7c0.1-0.2,0.2-0.5,0.2-0.7c5.4,1.4,11.6,2.6,18.5,3.6c-0.1,0.1-0.2,0.1-0.2,0.3
						c-0.1,0.2-0.2,0.5-0.2,0.7c-6.9-1-13.1-2.2-18.5-3.6C165.9,182.9,166,182.8,166,182.7z"/>
					<path class="st27" d="M296,180.6c0.1,0.2,0.2,0.4,0.2,0.6c0.1,0.2,0.3,0.3,0.5,0.3l0,0c-5.1,1.5-11,2.8-17.4,3.9
						c-0.1-0.3-0.2-0.6-0.4-1C285.5,183.3,291.2,182,296,180.6z"/>
					<path class="st27" d="M255.1,187.8c-0.1,0.2-0.3,0.4-0.4,0.6c-6.5,0.5-13.2,0.9-20,1c-2,0-3.9,0.1-5.9,0.1
						c0-0.4,0.1-0.7,0.1-0.9c0,0,0,0,0-0.1c1.9,0,3.8,0,5.7-0.1c7.3-0.1,14.1-0.5,20.5-1c0,0.2,0.3,0.4,0.5,0.4c0,0,0,0,0.1,0
						c0.2,0,0.4-0.3,0.4-0.5c8-0.7,15.2-1.6,21.7-2.7c0.1,0.3,0.2,0.6,0.4,1c-6.2,1-12.8,1.9-19.8,2.5L255.1,187.8z"/>
					<path class="st27" d="M296.9,181.5c0.2-0.1,0.3-0.4,0.2-0.6c-0.1-0.2-0.1-0.3-0.2-0.5c5-1.5,9-3,11.9-4.4
						c0.2,0.3,0.3,0.6,0.5,0.9l0,0C306,178.5,301.8,180.1,296.9,181.5z"/>
					<path class="st27" d="M165.1,182.4c0,0.1,0,0.3,0,0.4c-3.5-0.9-6.6-2-9.2-3.1c0.2-0.3,0.3-0.6,0.5-0.9c2.6,1.1,5.6,2.1,9,3
						C165.2,182,165.1,182.2,165.1,182.4z"/>
					<path class="st27" d="M185.3,186.7c0.1-0.2,0.1-0.3,0.2-0.5c0.1-0.2,0-0.4-0.1-0.5c6.2,0.9,12.9,1.5,19.9,2v0.1
						c0,0.3,0.2,0.5,0.4,0.6c0,0,0,0,0.1,0c0.2,0,0.5-0.2,0.5-0.4c0-0.1,0-0.1,0-0.2c7,0.4,14.4,0.7,21.9,0.7c0,0.3-0.1,0.6-0.1,1
						C212.7,189.5,197.9,188.5,185.3,186.7z"/>
					<path class="st27" d="M190.5,165.1c-0.1,0.2-0.1,0.6,0.2,0.7c0.1,0.1,0.2,0.1,0.3,0.1c0.2,0,0.3-0.1,0.4-0.2
						c0.1-0.2,0.2-0.3,0.3-0.5c12,1.3,25.7,2.1,39.1,1.9v0.2c0,0.3,0.2,0.5,0.5,0.5s0.5-0.2,0.5-0.5v-0.2c0.4,0,0.8,0,1.2,0
						c14.2-0.3,26.8-1.1,38-2.4c0.2,0.3,0.4,0.6,0.6,0.9c-6.2,0.8-12.7,1.4-19.7,1.8c-0.1-0.2-0.1-0.4-0.2-0.5
						c-0.1-0.3-0.4-0.4-0.6-0.3c-0.3,0.1-0.4,0.4-0.3,0.6c0,0.1,0.1,0.2,0.1,0.3c-5.7,0.3-11.6,0.6-17.9,0.7
						c-7.7,0.1-15.5,0-23.1-0.4v-0.1c0.1-0.3-0.1-0.6-0.3-0.6c-0.3-0.1-0.5,0.1-0.6,0.4c0,0.1-0.1,0.2-0.1,0.3
						c-12.6-0.7-24.4-2-34-3.6c0.1-0.1,0.1-0.2,0.1-0.2c0.2-0.2,0.1-0.5-0.1-0.7c-0.2-0.2-0.5-0.1-0.7,0.1c-0.1,0.2-0.3,0.4-0.4,0.6
						c-2.4-0.4-4.6-0.8-6.7-1.2c0.2-0.3,0.5-0.6,0.7-0.9C174.1,162.9,181.9,164.1,190.5,165.1L190.5,165.1z"/>
					<path class="st27" d="M287.5,162.3c-0.2-0.2-0.5-0.3-0.7-0.1s-0.3,0.5-0.1,0.7c0.1,0.1,0.1,0.2,0.2,0.2
						c-4.5,0.9-9.3,1.6-14.3,2.3c0-0.1,0-0.2-0.1-0.3c-0.1-0.2-0.3-0.4-0.4-0.6c9.1-1.2,17.4-2.7,25.1-4.7c0.3,0.3,0.5,0.6,0.8,0.8
						c-3.2,0.8-6.5,1.6-9.9,2.3C287.8,162.7,287.6,162.5,287.5,162.3z"/>
					<path class="st27" d="M204.6,147.5C204.7,147.5,204.7,147.5,204.6,147.5l0.3,0.2L204.6,147.5z"/>
					<path class="st27" d="M203.5,148.4c-5.2-0.3-10.3-0.7-15.1-1.2c0.3-0.2,0.7-0.6,1.2-0.9c4.8,0.5,9.8,0.9,14.9,1.2
						C204.1,147.8,203.8,148.1,203.5,148.4z"/>
					<path class="st27" d="M188.1,146.1c-0.1,0.1-0.3,0.2-0.4,0.3c-0.2,0.2-0.2,0.5-0.1,0.7c-0.7-0.1-1.3-0.1-2-0.2
						c-0.1,0-0.3,0-1.2-0.2c0.4-0.3,0.8-0.6,1.2-0.8l0,0C186.4,146,187.3,146,188.1,146.1z"/>
					<path class="st27" d="M215.5,148.9c-3.6-0.1-7.1-0.2-10.6-0.4c0.1-0.1,0.3-0.2,0.4-0.4l-0.3-0.4l-0.2-0.2
						c3.5,0.2,7.1,0.3,10.7,0.4c-0.1,0.1-0.1,0.2-0.2,0.3C215.2,148.5,215.2,148.8,215.5,148.9z"/>
					<path class="st27" d="M216.2,148.7c0.1-0.3,0.3-0.5,0.4-0.8c4.6,0.1,9.3,0.1,14.1,0.1c-0.1,0.1-0.2,0.2-0.2,0.4v0.6
						c-4.9,0.1-9.7,0-14.5-0.1C216,148.9,216.1,148.8,216.2,148.7z"/>
					<path class="st27" d="M257.2,147c-0.2-0.2-0.5-0.2-0.7,0s-0.2,0.5,0,0.7l0.1,0.1c-8.1,0.7-15.9,1-24.1,1.1c-0.4,0-0.8,0-1.2,0
						v-0.6c0-0.2-0.1-0.3-0.2-0.4c0.5,0,0.9,0,1.4,0c4.4-0.1,8.6-0.2,12.8-0.4c0.1,0.2,0.2,0.4,0.4,0.6c0.1,0.2,0.3,0.3,0.4,0.3
						c0.1,0,0.2,0,0.2-0.1c0.2-0.1,0.3-0.5,0.2-0.7c0,0-0.1-0.1-0.1-0.2c8.5-0.4,17.1-1.2,26.5-2.5c0.1,0.1,0.3,0.2,0.4,0.3l0.6,0.4
						c0.1,0.1,0.2,0.1,0.3,0.1c0.2,0,0.3-0.1,0.4-0.2c0.2-0.2,0.1-0.5-0.1-0.7l-0.1-0.1c1.2-0.2,2.5-0.4,3.8-0.6
						c0.4,0.3,0.9,0.5,1.3,0.8c-7.7,1.3-14.7,2.2-21.5,2.8C257.8,147.5,257.5,147.2,257.2,147z"/>
					<path class="st27" d="M252.7,133.6c0.9,0.2,1.8,0.4,2.6,0.7c-0.2,0-0.3,0-0.5,0C254.1,134,253.4,133.8,252.7,133.6z"/>
					<path class="st27" d="M251.9,133.9c-0.1,0.2,0,0.5,0.2,0.6c-4.5,0.3-10,0.6-15.1,0.8c-0.3-0.3-0.6-0.6-1-0.8
						c-0.2-0.2-0.5-0.1-0.7,0.1c-0.2,0.2-0.1,0.5,0.1,0.7l0.1,0.1c-1.3,0-2.6,0.1-3.8,0.1c-1.8,0-3.8,0-5.9,0l0,0
						c0.2-0.2,0.2-0.5,0.1-0.7s-0.5-0.2-0.7-0.1c-0.3,0.3-0.6,0.5-0.9,0.8c-5.5,0-11.1-0.3-15.1-0.6c0.3-0.1,0.6-0.2,0.8-0.3
						c0.6-0.2,1.3-0.4,1.9-0.5c5.8,0.4,13.6,0.5,19.7,0.4c6.3-0.1,14.2-0.6,20.4-1c0.1,0,0.2,0.1,0.4,0.1
						C252.2,133.5,252,133.6,251.9,133.9z"/>
					<path class="st27" d="M177.3,229.2c0.3,0,0.7,0.1,1,0.1c-0.4,5.1-0.3,14.7,0.3,21.4c-0.3,0-0.7-0.1-1-0.1
						C177,243.9,176.8,234.3,177.3,229.2z"/>
					<path class="st27" d="M178.3,228.7c0,0.2,0,0.4-0.1,0.6c-0.3,0-0.7-0.1-1-0.1c0-0.2,0-0.4,0-0.6c0-0.2,0.1-0.3,0.3-0.4
						c0.2,0,0.3,0,0.5,0.1C178.2,228.4,178.3,228.5,178.3,228.7z"/>
					<path class="st27" d="M183.4,193.4l-0.3,1.4c-1.1,3.8-1.9,7.9-2.6,12.3c-0.3,0-0.7-0.1-1-0.1c0.7-4.4,1.6-8.6,2.7-12.4l0.3-1.3
						c0.6-2.2,1.2-4.5,1.9-6.6c0.3,0,0.7,0.1,1,0.1C184.5,188.8,183.9,191.1,183.4,193.4z"/>
					<path class="st27" d="M180.3,207.6c0,0.2-0.2,0.4-0.4,0.4c-0.1,0-0.3,0-0.4-0.1c-0.2-0.1-0.3-0.3-0.2-0.5
						c0-0.2,0.1-0.3,0.1-0.5c0.3,0,0.7,0.1,1,0.1C180.3,207.2,180.3,207.4,180.3,207.6z"/>
					<path class="st27" d="M184.7,185.6c0.2,0,0.4,0.1,0.6,0.1c0.1,0.1,0.2,0.3,0.1,0.5c-0.1,0.2-0.1,0.3-0.2,0.5
						c-0.3,0-0.7-0.1-1-0.1c0.1-0.2,0.2-0.5,0.2-0.7C184.5,185.7,184.6,185.7,184.7,185.6z"/>
					<path class="st27" d="M198.2,156c-2.3,3.1-4.8,6.5-6.5,9.2c-0.4,0-0.7-0.1-1.1-0.1c1.7-2.8,4.4-6.5,6.8-9.7
						c2.2-2.9,4-4.8,6.1-6.9c0.4,0,0.9,0,1.4,0.1C202.5,150.8,200.5,152.8,198.2,156z"/>
					<path class="st27" d="M191.3,165.6c-0.1,0.2-0.2,0.2-0.4,0.2c-0.1,0-0.2,0-0.3-0.1c-0.2-0.1-0.3-0.5-0.2-0.7c0,0,0,0,0-0.1
						c0.4,0,0.7,0.1,1.1,0.1C191.5,165.3,191.4,165.5,191.3,165.6z"/>
					<path class="st27" d="M204.6,147.5l0.3,0.2l0.3,0.4c-0.1,0.1-0.3,0.3-0.4,0.4c-0.5,0-0.9,0-1.4-0.1c0.3-0.3,0.6-0.6,1-1
						C204.5,147.4,204.6,147.4,204.6,147.5z"/>
					<path class="st27" d="M220.4,141.6c-1.6,2.2-2.8,4.4-3.9,6.3c-0.4,0-0.7,0-1.1,0c1.1-2.1,2.5-4.5,4.2-6.9c1.4-2,3-3.9,4.7-5.5
						c0.5,0,1,0,1.5,0C223.9,137.2,222.1,139.2,220.4,141.6z"/>
					<path class="st27" d="M215.9,148.9c-0.1,0-0.3,0-0.4,0c-0.2-0.1-0.3-0.4-0.2-0.7c0.1-0.1,0.1-0.2,0.2-0.3c0.4,0,0.7,0,1.1,0
						c-0.1,0.3-0.3,0.5-0.4,0.8C216.1,148.8,216,148.9,215.9,148.9z"/>
					<path class="st27" d="M225.3,134.7c0.2-0.2,0.5-0.2,0.7,0.1s0.1,0.5-0.1,0.7l0,0c-0.5,0-1,0-1.5,0
						C224.7,135.2,225,134.9,225.3,134.7z"/>
					<path class="st27" d="M206.2,187.8c-0.3,0-0.7,0-1-0.1c0.4-3.7,1.1-7.3,1.7-10.8c1-5.4,1.7-8.2,2-9.3c0.3,0,0.7,0,1,0.1
						c-0.2,0.9-1,3.7-2.1,9.4C207.2,180.5,206.6,184.1,206.2,187.8z"/>
					<path class="st27" d="M205.6,188.4L205.6,188.4c-0.3,0-0.5-0.3-0.5-0.6v-0.1c0.3,0,0.7,0,1,0.1c0,0.1,0,0.1,0,0.2
						C206.1,188.2,205.9,188.4,205.6,188.4z"/>
					<path class="st27" d="M208.9,167.2c0.1-0.3,0.3-0.4,0.6-0.4c0.3,0.1,0.4,0.4,0.3,0.6v0.1c-0.3,0-0.7,0-1-0.1
						C208.9,167.4,208.9,167.3,208.9,167.2z"/>
					<path class="st27" d="M201.1,230.4c-0.3,0-0.7,0-1-0.1c-0.2-4.3,0.4-15.2,1.4-20.1c0.3,0,0.7,0,1,0.1
						C201.4,215.1,200.9,226.2,201.1,230.4z"/>
					<path class="st27" d="M201.1,230.5c0,0.3-0.2,0.5-0.5,0.5l0,0c-0.3,0-0.5-0.2-0.5-0.5c0-0.1,0-0.2,0-0.3c0.3,0,0.7,0,1,0.1
						C201.1,230.4,201.1,230.5,201.1,230.5z"/>
					<path class="st27" d="M201.9,209.2c0.2,0,0.3,0,0.5,0c0.2,0.1,0.3,0.3,0.2,0.5c0,0.1-0.1,0.3-0.1,0.5c-0.3,0-0.7,0-1-0.1
						c0-0.2,0.1-0.4,0.1-0.6C201.6,209.4,201.8,209.3,201.9,209.2z"/>
					<path class="st27" d="M209.3,134.8c-7.7,2.8-15.9,8.6-19.7,11.5c-0.5-0.1-1-0.1-1.5-0.2c2.2-1.7,6.8-5.1,12.1-8.1
						C203.1,136.8,206.1,135.7,209.3,134.8C209.2,134.8,209.2,134.8,209.3,134.8z"/>
					<path class="st27" d="M187.6,147.1c-0.1-0.2-0.1-0.5,0.1-0.7c0.1-0.1,0.3-0.2,0.4-0.3c0.5,0.1,1,0.1,1.5,0.2
						c-0.4,0.3-0.9,0.6-1.2,0.9C188.1,147.1,187.8,147.1,187.6,147.1z"/>
					<path class="st27" d="M210.1,134.6c-0.3,0.1-0.6,0.2-0.8,0.3h-0.1C209.5,134.7,209.8,134.6,210.1,134.6z"/>
					<path class="st27" d="M166.2,182c-0.3-0.1-0.6-0.2-1-0.3c1.4-4,2.7-7.1,3.8-9.5c1.3-2.6,2.9-5.6,4.7-8.5
						c0.4,0.1,0.7,0.1,1.1,0.2c-2,3-3.6,6.1-4.9,8.7C168.9,175.1,167.6,178.1,166.2,182z"/>
					<path class="st27" d="M166,182.7c0,0.1-0.1,0.2-0.2,0.2c-0.2-0.1-0.5-0.1-0.7-0.2c-0.1-0.1-0.1-0.3,0-0.4
						c0.1-0.2,0.1-0.4,0.2-0.6c0.3,0.1,0.6,0.2,1,0.3C166.2,182.3,166.1,182.5,166,182.7z"/>
					<path class="st27" d="M174.2,163.2c0.2-0.2,0.5-0.3,0.7-0.1s0.3,0.5,0.1,0.7c-0.1,0.1-0.1,0.2-0.1,0.2
						c-0.4-0.1-0.7-0.1-1.1-0.2C173.9,163.6,174,163.4,174.2,163.2z"/>
					<path class="st27" d="M162.2,204.2c-2,7-3.1,13.8-3.1,20.7c-0.3-0.1-0.7-0.2-1-0.2c0.1-6.9,1.1-13.7,3.2-20.8
						C161.6,204,161.9,204.1,162.2,204.2z"/>
					<path class="st27" d="M159.1,225.3c0,0.3-0.2,0.5-0.5,0.5l0,0c-0.3,0-0.5-0.2-0.5-0.5c0-0.2,0-0.4,0-0.5c0.3,0.1,0.7,0.2,1,0.2
						C159.1,225.1,159.1,225.2,159.1,225.3z"/>
					<path class="st27" d="M161.3,203.8c0.1-0.3,0.4-0.4,0.6-0.3c0.3,0.1,0.4,0.4,0.3,0.6c0,0.1,0,0.1-0.1,0.2
						c-0.3-0.1-0.6-0.2-1-0.3C161.3,203.9,161.3,203.8,161.3,203.8z"/>
					<path class="st27" d="M217.6,232c0.3,0,0.7,0,1,0c0,5.1,0.1,14,0.6,21c-0.3,0-0.7,0-1,0C217.7,246,217.6,237.1,217.6,232z"/>
					<path class="st27" d="M217.6,231c0.3,0,0.6,0,0.9,0c0,0.1,0,0.1,0,0.2c0,0.3,0,0.6,0,0.8c-0.3,0-0.7,0-1,0c0-0.3,0-0.6,0-0.8
						C217.6,231.1,217.6,231,217.6,231z"/>
					<path class="st27" d="M227.9,189.5c0.3,0,0.7,0,1,0c-0.4,4.1-1.1,14.1-0.9,20.4c-0.3,0-0.7,0-1,0
						C226.8,203.6,227.5,193.7,227.9,189.5z"/>
					<path class="st27" d="M227.5,210.8L227.5,210.8c-0.3,0-0.5-0.2-0.5-0.5c0-0.1,0-0.3,0-0.4c0.3,0,0.7,0,1,0c0,0.1,0,0.3,0,0.4
						C228,210.6,227.8,210.8,227.5,210.8z"/>
					<path class="st27" d="M228.9,189.5c-0.3,0-0.7,0-1,0c0-0.4,0.1-0.7,0.1-1c0.3,0,0.7,0,1,0c0,0,0,0,0,0.1
						C229,188.8,229,189.1,228.9,189.5z"/>
					<path class="st27" d="M286.7,227.5c0.3-0.1,0.7-0.1,1-0.2c0.4,7.5,0.5,14.5,0.1,21.2v0.1c-0.3,0-0.6,0.1-0.9,0.1
						c-0.1-0.1-0.1-0.2-0.1-0.3C287.2,241.9,287.2,235,286.7,227.5z"/>
					<path class="st27" d="M286.7,226.4c0.3,0,0.6-0.1,0.9-0.1c0.1,0.1,0.1,0.2,0.1,0.3c0,0.3,0,0.5,0,0.8c-0.3,0.1-0.7,0.1-1,0.2
						c0-0.3,0-0.6,0-0.9C286.7,226.6,286.7,226.5,286.7,226.4z"/>
					<path class="st27" d="M280.6,192.9l-0.4-1.3c-0.1-0.3-0.2-0.6-0.3-0.9l1.1,0.1c0.1,0.2,0.1,0.4,0.2,0.6l0.4,1.3
						c1.2,3.9,2.3,8.1,3.2,12.6c-0.3,0.1-0.7,0.1-1,0.2C282.9,200.9,281.9,196.8,280.6,192.9z"/>
					<path class="st27" d="M278.3,185.6c0.3-0.1,0.7-0.1,1-0.2c0.5,1.4,1,2.8,1.4,4.3l-1.1-0.1C279.2,188.2,278.8,186.9,278.3,185.6
						z"/>
					<path class="st27" d="M284.4,206L284.4,206c-0.3,0-0.5-0.2-0.6-0.4c0-0.1,0-0.2-0.1-0.2c0.3-0.1,0.7-0.1,1-0.2
						c0,0.1,0,0.1,0,0.2C284.9,205.7,284.7,206,284.4,206z"/>
					<path class="st27" d="M277.9,184.6c0.3-0.1,0.7-0.1,1-0.2c0.1,0.3,0.2,0.6,0.4,1c-0.3,0.1-0.7,0.1-1,0.2
						C278.2,185.2,278.1,184.9,277.9,184.6z"/>
					<path class="st27" d="M264.6,156.4c-2.5-3.1-5.2-6-8-8.5c0.4,0,0.9-0.1,1.3-0.1c2.6,2.4,5.1,5.1,7.4,8c1,1.2,4.3,5.4,6.6,8.7
						c-0.4,0-0.7,0.1-1.1,0.1C268.6,161.3,265.6,157.5,264.6,156.4z"/>
					<path class="st27" d="M270.9,164.6c0.4,0,0.7-0.1,1.1-0.1c0.1,0.2,0.3,0.4,0.4,0.6c0.1,0.1,0.1,0.2,0.1,0.3
						c-0.3,0-0.6,0.1-1,0.1C271.4,165.2,271.2,164.9,270.9,164.6z"/>
					<path class="st27" d="M256.6,147.7c-0.2-0.2-0.2-0.5,0-0.7s0.5-0.2,0.7,0c0.3,0.2,0.5,0.5,0.8,0.7c-0.4,0-0.9,0.1-1.3,0.1
						C256.7,147.8,256.6,147.7,256.6,147.7z"/>
					<path class="st27" d="M235.6,135.3c0.5,0,1,0,1.5-0.1c1.8,1.5,3.4,3.3,4.9,5.2c1.9,2.4,3.3,4.8,4.6,6.9c-0.4,0-0.7,0-1.1,0.1
						c-1.1-2-2.5-4.2-4.2-6.4C239.5,138.9,237.6,137,235.6,135.3z"/>
					<path class="st27" d="M246.6,147.6c0.1,0.2,0.1,0.6-0.2,0.7c-0.1,0-0.2,0.1-0.2,0.1c-0.2,0-0.3-0.1-0.4-0.3
						c-0.1-0.2-0.2-0.4-0.4-0.6c0.4,0,0.7,0,1.1-0.1C246.6,147.5,246.6,147.6,246.6,147.6z"/>
					<path class="st27" d="M235.5,135.3c-0.2-0.2-0.3-0.5-0.1-0.7s0.5-0.3,0.7-0.1c0.3,0.3,0.6,0.5,1,0.8
						C236.6,135.3,236.1,135.3,235.5,135.3C235.6,135.3,235.5,135.3,235.5,135.3z"/>
					<path class="st27" d="M256.3,187.2C256.3,187.2,256.3,187.3,256.3,187.2c-0.3,0.1-0.6,0.1-1,0.2l0,0c-0.6-3.7-1.3-7.3-2.1-10.8
						c-1.2-5.3-2-8.1-2.4-9.2c0.3,0,0.7,0,1-0.1c0.4,1.2,1.1,4,2.3,9C254.9,179.8,255.7,183.5,256.3,187.2z"/>
					<path class="st27" d="M255.9,187.8C255.8,187.8,255.8,187.8,255.9,187.8c-0.3,0-0.5-0.2-0.6-0.4c0.3,0,0.6-0.1,1-0.1
						C256.3,187.5,256.1,187.7,255.9,187.8z"/>
					<path class="st27" d="M250.7,167.1c-0.1-0.3,0.1-0.6,0.3-0.6c0.3-0.1,0.5,0.1,0.6,0.3c0,0.1,0.1,0.3,0.2,0.5
						c-0.3,0-0.7,0-1,0.1C250.8,167.3,250.8,167.2,250.7,167.1z"/>
					<path class="st27" d="M260.6,209.4c0.3,0,0.7-0.1,1-0.1c0,0.1,0,0.3,0,0.4l-1-0.1C260.6,209.5,260.6,209.5,260.6,209.4z"/>
					<path class="st27" d="M261.1,217.1c-0.1-2.1-0.2-4.3-0.4-6.5l1,0.1c0.2,2.1,0.3,4.3,0.4,6.3v0.4c0.2,4.3,0.3,8.3,0.4,12
						c-0.3,0-0.7,0.1-1,0.1c-0.1-3.6-0.2-7.7-0.4-12V217.1z"/>
					<path class="st27" d="M262.5,229.7c0,0.3-0.2,0.5-0.5,0.5s-0.5-0.2-0.5-0.5c0-0.1,0-0.1,0-0.2c0.3,0,0.7-0.1,1-0.1
						C262.5,229.5,262.5,229.6,262.5,229.7z"/>
					<path class="st27" d="M260.5,208.6c0-0.1,0-0.2,0.1-0.3c0.3,0,0.5,0,0.8-0.1c0.1,0.1,0.1,0.2,0.1,0.3c0,0.3,0,0.5,0.1,0.8
						c-0.3,0-0.7,0.1-1,0.1C260.6,209.2,260.6,208.9,260.5,208.6z"/>
					<path class="st27" d="M252.3,134.5C252.2,134.5,252.2,134.5,252.3,134.5c0.8-0.1,1.7-0.2,2.6-0.2c3.1,1,6.2,2.3,9.4,3.9
						c3.4,1.7,6.8,4.1,9.8,6.3l0.5,0.3c-0.5,0.1-1,0.1-1.4,0.2c-2.8-2.1-6-4.3-9.2-5.9C259.9,137.1,256.1,135.6,252.3,134.5z"/>
					<path class="st27" d="M274.5,144.8c0.2,0.2,0.3,0.5,0.1,0.7c-0.1,0.1-0.2,0.2-0.4,0.2c-0.1,0-0.2,0-0.3-0.1l-0.6-0.4
						c-0.1-0.1-0.3-0.2-0.4-0.3C273.5,144.9,274,144.8,274.5,144.8L274.5,144.8z"/>
					<path class="st27" d="M251.9,133.9c0.1-0.2,0.3-0.4,0.5-0.4c0.1,0,0.2,0,0.2,0.1c0.7,0.2,1.4,0.5,2.2,0.7
						c-0.8,0.1-1.7,0.1-2.7,0.2C252,134.3,251.9,134.1,251.9,133.9z"/>
					<path class="st27" d="M296.9,181.5h-0.1C296.8,181.5,296.8,181.5,296.9,181.5L296.9,181.5z"/>
					<path class="st27" d="M291.9,171.4c-1.6-3-3.3-5.8-5-8.2c0.4-0.1,0.7-0.1,1.1-0.2c1.7,2.4,3.3,5,4.8,8c1.2,2.4,2.6,5.5,4.2,9.5
						c-0.3,0.1-0.6,0.2-1,0.3C294.4,176.7,293,173.7,291.9,171.4z"/>
					<path class="st27" d="M296.2,181.2c-0.1-0.2-0.2-0.4-0.2-0.6c0.3-0.1,0.6-0.2,1-0.3c0.1,0.2,0.1,0.3,0.2,0.5s0,0.5-0.2,0.6
						c-0.1,0-0.1,0-0.2,0l0,0C296.5,181.5,296.3,181.4,296.2,181.2z"/>
					<path class="st27" d="M286.7,162.9c-0.2-0.2-0.1-0.5,0.1-0.7s0.5-0.1,0.7,0.1c0.1,0.2,0.3,0.4,0.4,0.6
						c-0.4,0.1-0.7,0.1-1.1,0.2C286.8,163,286.7,163,286.7,162.9z"/>
					<path class="st27" d="M304.7,210.5l-0.1-0.5c-0.4-2.7-0.8-5.4-1.4-8.2c0.3-0.1,0.6-0.2,0.9-0.3c0.6,2.8,1,5.6,1.4,8.3l0.1,0.5
						c0.7,4.8,1,7.8,1.2,11.5c-0.3,0.1-0.6,0.2-1,0.3l0,0C305.7,218.4,305.4,215.4,304.7,210.5z"/>
					<path class="st27" d="M303.5,200.6h0.1c-0.1,0-0.2,0.1-0.4,0.1C303.3,200.7,303.4,200.6,303.5,200.6z"/>
					<path class="st27" d="M306.9,222.1c0,0.3-0.2,0.5-0.5,0.5l0,0c-0.3,0-0.5-0.2-0.5-0.5c0.3-0.1,0.7-0.2,1-0.3
						C306.9,221.9,306.9,222,306.9,222.1z"/>
					<path class="st27" d="M303.1,201.2c0-0.2,0-0.4,0.2-0.5c0.1,0,0.2-0.1,0.4-0.1c0.2,0,0.4,0.2,0.5,0.4c0,0.2,0.1,0.3,0.1,0.5
						c-0.3,0.1-0.6,0.2-0.9,0.3C303.2,201.6,303.1,201.4,303.1,201.2z"/>
					<path class="st27" d="M246.6,232.1l1,0.2c0.2,6.5,0,13.3-0.4,20.2c-0.3,0-0.7,0-1,0v-0.1C246.6,245.5,246.7,238.7,246.6,232.1z
						"/>
					<path class="st27" d="M247.6,230.6c0,0.2,0,0.5,0,0.7l-1-0.2c0-0.2,0-0.3,0-0.5v-0.1c0.3,0,0.6,0,1,0
						C247.5,230.5,247.5,230.6,247.6,230.6z"/>
					<path class="st27" d="M230.8,167.1l-0.3-18.1c0.3,0,0.7,0,1,0l0.3,18.1C231.4,167.1,231.1,167.1,230.8,167.1z"/>
					<path class="st27" d="M231.8,167.3c0,0.3-0.2,0.5-0.5,0.5s-0.5-0.2-0.5-0.5v-0.2c0.3,0,0.7,0,1,0V167.3z"/>
					<path class="st27" d="M230.4,148.4c0-0.2,0.1-0.3,0.2-0.4c0.2,0,0.4,0,0.5,0c0.1,0.1,0.2,0.2,0.2,0.4v0.6c-0.3,0-0.7,0-1,0
						L230.4,148.4z"/>
					<path class="st27" d="M247.6,231.3l1,0.2c-0.3,0-0.7,0-1,0.1C247.6,231.4,247.6,231.4,247.6,231.3z"/>
					<path class="st27" d="M246.6,231.1c0,0.2,0,0.3,0,0.5c-0.7,0-1.4,0.1-2.1,0.1c0-0.3,0-0.6,0-0.9L246.6,231.1z"/>
					<path class="st27" d="M247.6,231.5c-0.3,0-0.7,0-1,0c0-0.2,0-0.3,0-0.5l1,0.2C247.6,231.4,247.6,231.4,247.6,231.5z"/>
					<path class="st27" d="M258.5,188.1c-1.3,0.1-2.5,0.2-3.8,0.3c0.1-0.2,0.3-0.4,0.4-0.6L258.5,188.1z"/>
				</g>
				<g class="st28">
					<path class="st29" d="M159.5,247.3"/>
				</g>
				<g class="st28">
					<path class="st29" d="M306.2,244.6"/>
				</g>
				<path class="st27" d="M281.5,261.5l-35.2-9.5c-0.7-4.6-1.7-15.5-1.8-20.3c-0.4-22.3,4.1-35.9,12.3-46.1
					c4.5-5.7,10.6-9.5,17.6-9.6l27.9,0.1c0,0,6.7,0.3,8.3,1.9L281.5,261.5z"/>
				<path class="st30" d="M244.5,231.7v-0.9c0.3,0,34.3,6.1,34.3,6.1c0,0.3,0,0.7,0,1l-34.3-6.1
					C244.5,231.7,244.5,231.7,244.5,231.7z"/>
				<path class="st30" d="M246.5,208.1l33.5,3.6c0,0.3-0.1,0.7-0.1,1l-33.6-3.7C246.3,208.7,246.4,208.4,246.5,208.1z"/>
				<path class="st30" d="M255.1,187.8c1.3-0.1,30.9,2.2,30.9,2.2c-0.2,0.3-0.3,0.6-0.5,1l-31.1-2.2
					C254.6,188.7,255,188,255.1,187.8z"/>
				<path class="st26" d="M334.7,250.7c0,0,2.4-29.5-5.5-51.9s-22.3-22.3-25.3-22.4c0,0-12-1.2-19.9,18c-8.3,20.1-4.3,66.4-4.3,66.4
					s0.7,0.8,2,0.8l24-4.9l29-5.6L334.7,250.7z"/>
				<path class="st31" d="M307.5,190.1c0,0,16.7-3.1,14.8,63.5l-27.2,5.2C295.1,258.9,287.8,191.5,307.5,190.1z"/>
				<g class="st28">
					<path class="st29" d="M297.5,258.1"/>
				</g>
				<g>
					<path class="st32" d="M294.9,213.1l25.5-0.2c0.1,0.3,0.1,0.7,0.2,1l-25.8,0.2C294.8,213.7,294.8,213.4,294.9,213.1z"/>
					<path class="st32" d="M298.2,199l17-3c0.2,0.3,0.3,0.6,0.5,0.9l-18,3.2C297.9,199.8,298,199.4,298.2,199z"/>
					<path class="st32" d="M322.3,233.4c0,0.3,0,0.7,0,1l-28.5-3.8c0-0.3,0-0.7,0-1L322.3,233.4z"/>
				</g>
				<g>
					<path class="st27" d="M315.2,196.1l9.2-7.4c0.2,0.3,0.4,0.6,0.5,0.9l-9.2,7.4C315.6,196.7,315.4,196.4,315.2,196.1z"/>
					<path class="st27" d="M320.4,212.6l11.8-3.2c0.1,0.3,0.1,0.7,0.2,1l-11.8,3.2C320.5,213.3,320.4,213,320.4,212.6z"/>
					<path class="st27" d="M322.3,233.3l12.5-2.4c0,0.3,0,0.7,0,1l-12.5,2.4C322.3,234,322.3,233.6,322.3,233.3z"/>
					<path class="st27" d="M306.4,190.3l-0.3-13.7c0.3,0,0.6,0.1,1,0.1l0.3,13.5C307.1,190.2,306.8,190.2,306.4,190.3z"/>
					<path class="st27" d="M298.6,197.9l-13.1-6.8c0.2-0.3,0.3-0.6,0.5-0.9l13.1,6.8C298.9,197.3,298.8,197.6,298.6,197.9z"/>
					<path class="st27" d="M294.7,214.6l-14.8-1.8c0-0.3,0.1-0.7,0.1-1l14.8,1.8C294.8,213.9,294.7,214.3,294.7,214.6z"/>
					<path class="st27" d="M293.8,236.2c0,0.3,0,0.7,0,1l-15.1,0.5c0-0.3,0-0.7,0-1L293.8,236.2z"/>
				</g>
				<path class="st33" d="M322.3,253.5v0.1l-27.2,5.2c0,0-0.6-5.9-1-14.1C297.1,245.8,321.5,253.3,322.3,253.5z"/>
				<g class="st34">
					<path class="st35" d="M281.7,159.6c-5.8,0.6-11.5-1.7-16.7-4c-2.4-1.1-4.7-2.4-7.3-2.9c-2.2-0.4-3.7,0.5-4.7,2.4
						c-1.1,2-1.8,4.3-3.4,5.9c-1.7,1.8-4.1,2.8-6.6,2.9c-2.6,0.1-5-1-6.9-2.7c-1.7-1.6-2.9-3.8-4.4-5.6c-3.3-4-8.6-4.2-13.3-3.2
						c-6,1.3-11.6,3.7-17.5,5.2c-4.6,1.2-9.3,2.2-14,2.9c-3.4,0.5-7,0.6-10.3-0.6c-1.8-0.7-3.3-1.6-4.7-2.8
						c15.4-15.6,36.4-25.4,59.7-25.8c22.6-0.4,43.3,8,59,22.1C289.1,157,285.7,159.2,281.7,159.6z"/>
				</g>
			</g>
			<g class="st46">
				<path class="st27" d="M148.4,240.8c0-0.1,0-0.1,0-0.1c-1.3-6-2.1-12.2-2.2-18.5c-0.9-49.3,37.3-90,85.5-90.9c1.1,0,2.2,0,3.4,0
					c-11.2,4.1-32.4,14.9-43,41c-9.5,23.4-11.1,54.2-10.1,78.7C161.7,249,148.5,245.3,148.4,240.8z"/>
			</g>
			<ellipse class="st36" cx="236.7" cy="168.6" rx="2" ry="2"/>
			<ellipse class="st36" cx="232.7" cy="173.5" rx="1" ry="1"/>
			
				<ellipse transform="matrix(0.9998 -1.882966e-02 1.882966e-02 0.9998 -2.931 4.1026)" class="st36" cx="216.4" cy="157.7" rx="1.4" ry="1.5"/>
			
				<ellipse transform="matrix(0.9998 -1.882966e-02 1.882966e-02 0.9998 -2.7814 5.1934)" class="st36" cx="274.4" cy="150.3" rx="2.1" ry="2.2"/>
		</g>
	</g>
</g>
<g id="낚시하는_펭귄_00000131361483359919582260000000194790472908842415_">
	<g id="물통">
		<path class="st8" d="M300.6,469.6c-0.3-0.8-1-1.2-1.7-1.8c-7.6-5.2-16.5-10-25.6-12.6c-5.7-1.7-11.8,0.6-17.4,2.8
			c-5.6,2.1-18.9,7.2-24.3,11c-1.4,1-2.2,1.8-2.3,2.6c-0.4,3-0.1,5.1,5.4,8.3c4.3,2.5,22,13.4,28.1,13c12-0.8,26.9-6.3,35.2-10.3
			c0.7-0.4,1.6-0.9,2-1.4s0.7-5.6,0.7-8.5C300.8,471.2,300.8,469.9,300.6,469.6z"/>
		<path class="st47" d="M300.2,470.7c-5.4,2.4-11.5,5.2-17.5,4.1c-3.5-0.6-7-2.4-10.7-2.3c-1.9,0.1-3.7,0.8-5,2.3
			c-0.8,0.9-1.4,2-2.2,2.8c-2.2,2.2-4.9,2.4-7.8,1.9c-3.1-0.5-6.2-1.2-9.3-1.9c-6.3-1.6-12.1-5-18.4-6.2c0,0.1-0.1,0.2-0.1,0.3
			c-0.4,3-0.1,5.1,5.4,8.3c4.3,2.5,22,13.4,28.1,13c12-0.8,26.9-6.3,35.2-10.3c0.7-0.4,1.6-0.9,2-1.4s0.7-5.6,0.7-8.5
			c0-0.9,0-1.7,0-2.3C300.6,470.5,300.4,470.6,300.2,470.7z"/>
		<g>
			<g class="st48">
				
					<ellipse transform="matrix(0.9998 -1.997015e-02 1.997015e-02 0.9998 -9.247 5.4069)" class="st49" cx="266.1" cy="465.7" rx="21.4" ry="5.3"/>
			</g>
			<g>
				<g>
					<path class="st50" d="M286.3,428.7l-6.5,33.2c0,0,0,0.8,0,1c0,2-6.6,3.7-14.8,3.7c-8.1,0-14.8-1.7-14.8-3.7c0-0.1,0-1,0-1
						l-6.5-33.2c0,0-0.8-2,4.2-3.6s19-3.8,33.3-0.3C281.2,424.8,287.1,425.9,286.3,428.7z"/>
				</g>
				<g>
					<ellipse class="st51" cx="265.3" cy="428.5" rx="19.6" ry="4"/>
				</g>
				<g>
					
						<ellipse transform="matrix(0.7931 -0.6091 0.6091 0.7931 -213.3014 243.7881)" class="st51" cx="252.2" cy="435.9" rx="2.6" ry="3"/>
				</g>
				<g>
					
						<ellipse transform="matrix(0.7931 -0.6091 0.6091 0.7931 -213.3014 243.7881)" class="st52" cx="252.2" cy="435.9" rx="1.8" ry="2.1"/>
				</g>
				<g>
					<path class="st53" d="M286.4,428.4c0,0.1,0,0.2,0,0.2l-0.3,1.4c4.4,3.5,7.6,8.8,7.1,12.8c-0.4,3.4-3.5,5.5-9,6
						c-0.6,0.1-1.2,0.1-1.8,0.1c-12.7,0.1-21.3-11.5-25-16.6c-1.5-2.1-2-2.7-2.6-2.9c-0.4-0.1-0.9,0-1.3,0.3c-1.4,0.9-2,3.8-2.2,4.4
						c-0.1,0.4,0.2,0.8,0.6,0.9c0.4,0.1,0.8-0.2,0.9-0.6c0.2-1.2,0.9-3,1.5-3.4c0.1,0,0.1-0.1,0.1-0.1c0.3,0.2,1.1,1.3,1.8,2.3
						c3.8,5.2,12.6,17.1,25.9,17.2h0.1c0.7,0,1.4,0,2.1-0.1c7.9-0.7,9.9-4.4,10.3-7.3C295.3,438.1,291.2,432.1,286.4,428.4z"/>
				</g>
			</g>
		</g>
	</g>
	<g id="펭귄_00000017509489895781275590000012135822013424929681_">
		<g>
			<g>
				<g>
					<path class="st54" d="M61.5,489.9c1.6,5.2,6.6,8.2,11.3,9.9c7.1,2.5,14.6,3.3,21.4,6.8c7.2,3.7,13,10.2,20.1,14.1
						c6.8,3.8,12.2,9.8,19.8,10.3c26.2,1.7,55.3-9.8,78.3-23.8c4-2.4,8.4-6.1,8-11.2c-0.6-7.2-6.6-10.4-12.3-11
						c-24.2-2.2-48.4,2-72.6,1.8c-15.5-0.1-30.9-2.1-46.2-4.7C83.1,481.2,55.8,472,61.5,489.9z"/>
					<g>
						<path class="st8" d="M124.8,487.8c0,0,4.8,8.1,9.7,9.8c4.6,1.5,54.3-8.6,79.4-19.1c0.1-2.8,0-5.1-0.4-5.7
							c-0.7-1.4-2.1-2.2-3.5-3.3c-15.5-9.6-33.8-18.7-52.3-23.5c-11.7-3.2-24.1,1.2-35.7,5.2c-11.5,4-38.7,13.4-49.7,20.5
							c7.1,3.1,22.4,9.7,30.2,13.1L124.8,487.8z"/>
						<path class="st47" d="M134.5,497.5c-5-1.7-9.7-9.8-9.7-9.8l-22.3-3c-7.8-3.4-23.1-10-30.2-13.1c-2.8,1.8-4.5,3.4-4.7,4.8
							c-0.8,5.6-0.2,9.6,11.1,15.5c8.7,4.6,28.7,9.1,28.7,9.1s16.3,16,28.9,15.2c24.5-1.5,55-11.7,72.1-19.3c1.5-0.7,3.3-1.7,4-2.7
							c0.7-0.9,1.4-10.5,1.5-15.9C188.8,488.9,139.1,499.1,134.5,497.5z"/>
					</g>
				</g>
				<g class="st48">
					
						<ellipse transform="matrix(0.9991 -4.215898e-02 4.215898e-02 0.9991 -19.6663 6.2478)" class="st49" cx="138.3" cy="469.4" rx="42.4" ry="11.3"/>
				</g>
				<g>
					<g>
						<path class="st55" d="M116.1,349.4c-1-1.6-3.2-2.3-5-1.3c-0.8,0.5-1.3,1.1-1.6,1.9c-0.8-0.2-1.8,0-2.6,0.3
							c-1.8,1-2.3,3.2-1.3,4.9c0.3,0.6,1,1.1,1.6,1.5c0,0.6,0,1.5,0.5,2.1c1,1.6,3.2,2.3,5,1.3c0.8-0.5,1.3-1.1,1.6-1.9
							c0.8,0.2,1.8,0,2.6-0.3c1.8-1,2.3-3.2,1.3-4.9c-0.3-0.6-1-1.1-1.6-1.5C116.7,350.9,116.6,350.1,116.1,349.4z"/>
					</g>
					<g>
						<path class="st56" d="M102.8,389.5c0,0-1.5-17.2,6.4-30.9c1.5-2.6,4.3-4.2,7.3-4.3c7.9-0.1,23.7,2.7,35.5,23.7L102.8,389.5z"
							/>
					</g>
					<g>
						<path class="st55" d="M102.9,390.6c0,0-4.6-3.7-1-11.8c0,0,6.2-9.5,16.9-14.2c6.5-2.9,15.2-5,24.1-0.6c0,0,7.6,3.5,6.2,9.8
							L102.9,390.6z"/>
					</g>
					<g>
						<path class="st57" d="M104.4,470.1c-1.4-0.4-2.4-1.6-2.7-3c-2.6-12.9-16.1-81.5,20.1-96c43.4-17.3,55.2,48.5,53.3,88.6
							c-0.1,1.4-0.6,2.7-1.6,3.7C168.3,468.7,149.4,483,104.4,470.1z"/>
					</g>
					<g>
						<path class="st53" d="M125.4,408.4c-1.6-8.8,1.7-16.8,6.8-17.7c3-0.6,7.5,1.4,10.1,5c0.4,0.5,1.1,0.4,1.2-0.2
							c1.3-4.8,3-8,6.5-8c5.1,0,10.3,8.6,10.3,17.5c0,0,4.2,2.1,8.3,8.5c2.7,4.2,4.3,9,5,13.9c1.1,7.5,2.9,23.5,1.5,32.4
							c0,0-2.2,14.9-29.3,15.6c-25.3,0.7-32.3-3.2-32.3-3.2s-20.1-65.1,12.3-61.7C125.8,410.6,125.5,409,125.4,408.4z"/>
					</g>
					<g>
						<circle class="st24" cx="135.9" cy="402.3" r="2.1"/>
					</g>
					<g>
						<circle class="st24" cx="150.3" cy="399.9" r="2.1"/>
					</g>
					<g>
						<path class="st58" d="M142.2,410.8c-1.1-0.2-1.7-1.6-1-2.7c1.1-1.7,2.8-3.7,5.2-3.7c5.5,0.3,8.4,1.4,10,1.9
							c0.4,0.1,0.5,0.9,0.2,1.3c-0.9,1.4-4.9,3.4-7.7,3.5C145.3,411.2,143.7,411.1,142.2,410.8z"/>
					</g>
					<g>
						<path class="st58" d="M145.2,461.8c0,0,7,13.2-0.2,16.5c-10.7,4.9-11.7-6.8-13.3-11.3s-3.4-6.9-2.3-7.8
							c1.5-1.3,3.1,1.1,3.1,1.1s-1.8-3,0.5-3.8c1.8-0.6,2.7,1.9,2.7,1.9s-1-2.5,0.8-3.2c2.3-0.8,3.3,1.7,3.3,1.7s-0.6-3.3,2.4-2.4
							c1.4,0.4,1.6,3.8,1.9,5.1L145.2,461.8z"/>
					</g>
					<g>
						<path class="st58" d="M156.9,460.3c0,0-2.3,14.4,5.3,15.1c11.3,1.2,8.7-9.9,8.8-14.6c0-4.6,1-7.4-0.3-7.9
							c-1.8-0.7-2.5,1.9-2.5,1.9s0.7-3.3-1.7-3.4c-1.8-0.1-1.9,2.5-1.9,2.5s0.1-2.6-1.7-2.7c-2.4-0.1-2.5,2.5-2.5,2.5
							s-0.4-3.3-3-1.5c-1.2,0.8-0.2,3.9-0.2,5.3L156.9,460.3z"/>
					</g>
					<g>
						<path class="st59" d="M149.9,447.1h-1.6c-0.5,0-1-0.5-1-1V431c0-0.6,0.4-1,1-1h1.6c0.5,0,1,0.5,1,1v15.1
							C150.9,446.7,150.4,447.1,149.9,447.1z"/>
					</g>
					<g>
						<path class="st53" d="M135.8,423.1c0,0,15.8,10.7,12.5,15.8c0.8,1.9-21.9,12.3-29.8-7.3"/>
						<path class="st60" d="M135.3,444.1c-0.9,0-1.8-0.1-2.8-0.2c-4.7-0.6-11.1-3.2-14.6-12c-0.1-0.3,0-0.7,0.4-0.9
							c0.3-0.1,0.7,0,0.9,0.4c3.7,9.2,10.7,11.2,15.9,11.3c6.7,0.1,12-2.8,12.6-3.7c0-0.2,0-0.3,0.1-0.4c2.4-3.8-8.1-12-12.3-14.9
							c-0.3-0.2-0.4-0.6-0.2-0.9s0.6-0.4,0.9-0.2c1.7,1.1,15.9,10.9,12.8,16.5c0,0.2-0.1,0.5-0.3,0.7
							C147.6,441.3,141.7,444.1,135.3,444.1z M147.7,439.2L147.7,439.2L147.7,439.2z"/>
					</g>
					<g>
						<path class="st53" d="M156.6,420.6c0,0-9.4,15.2-7.4,17.2c-0.4,4,19.4,7.8,20.1-10"/>
						<path class="st60" d="M156.7,441.8c-2.6,0-5.1-0.7-6.6-1.7c-1.1-0.8-1.4-1.5-1.5-2.1c-1.5-2.6,4.6-13.2,7.5-17.8
							c0.2-0.3,0.6-0.4,0.9-0.2c0.3,0.2,0.4,0.6,0.2,0.9c-4.9,7.9-8.4,15.5-7.5,16.4c0.1,0.1,0.2,0.3,0.2,0.5c0,0.3,0.3,0.8,0.9,1.2
							c2.1,1.5,7.4,2.3,11.7,0.1c3.9-1.9,6-5.9,6.2-11.4c0-0.4,0.3-0.6,0.7-0.6s0.6,0.3,0.6,0.7c-0.3,7.6-3.9,11-6.9,12.5
							C161.1,441.4,158.8,441.8,156.7,441.8z"/>
					</g>
					<g>
						<path class="st61" d="M149.1,431.3c-0.3,0-0.5-0.2-0.5-0.5v-9.9c0-0.2,0.1-0.3,0.2-0.4l31.8-27.8c0.2-0.2,0.6-0.2,0.7,0.1
							c0.2,0.2,0.2,0.6-0.1,0.7L149.6,421v9.7C149.6,431,149.4,431.3,149.1,431.3z"/>
					</g>
				</g>
			</g>
			<g>
				<path class="st61" d="M195.4,515.7L195.4,515.7c-0.3,0-0.6-0.3-0.5-0.6c7.9-80.1-14.2-121.4-14.4-121.9c-0.1-0.3,0-0.6,0.2-0.7
					c0.3-0.1,0.6,0,0.7,0.2c0.2,0.4,22.5,42,14.5,122.5C195.9,515.5,195.7,515.7,195.4,515.7z"/>
			</g>
		</g>
		<ellipse class="st62" cx="194.7" cy="518.2" rx="20.2" ry="8.1"/>
	</g>
</g>
<g id="작은_얼음_뒤에있는">
	<path class="st16" d="M627.2,390.9c-17.2-4.4-35.6-6.5-53.4-7.1c-7.5-0.3-15,0.1-22.5,0.5c-15.3,0.8-30.6,1.6-45.9,2.4
		c-11.1,0.6-26.2-1.9-35.6,4.8c-4.9,3.5-9.1,9.9-6.4,15.4c1.7,3.5,5.7,5.2,9.4,6.5c16,5.5,33.1,7.7,48.6,14.5
		c14.7,6.4,29,17.1,45,15.5c6.8-0.7,13.2-3.6,19.4-6.5c13-6.1,26.1-12.1,39.1-18.2c4.2-2,8.6-4,11.7-7.5c3.1-3.5,4.8-8.7,2.7-12.9
		C637.1,393.9,631.9,392.1,627.2,390.9z"/>
	<g>
		<path class="st13" d="M517.2,411.2c6.3,2.2,12.6,4.3,19.3,4.7c6.6,0.4,45.4-7.7,58.5-9.7c7.2-1.1,14.3-2.6,21.4-4.1l-16-33.1
			l-34.9-25.4l-1.1,0.4l-0.2,0.1L545.9,394l-36.2,14.4C512.1,409.4,514.6,410.3,517.2,411.2z"/>
		<g>
			<path class="st17" d="M517.2,411.2c1.4,0.5,2.7,0.9,4.1,1.4l0.1-0.2l31.9-19.6l10.9-48.6L514.3,363L484,397.5
				C495.1,402.1,505.9,407.2,517.2,411.2z"/>
		</g>
	</g>
</g>
<g id="얼음">
	<g>
		<path class="st63" d="M261.9,968.5c-45.3-12.2-91.3-13.7-138-12.5c-46.4,1.2-66.2,17.3-67.5,25c-1.4,8.8,3.8,15.6,10.6,20.6
			c4.5,3.3,22.8,11.1,36,12.1c15.3,1.1,30.4,0.1,45.5,3.3c15.6,3.3,30.1,10,45.3,14.6c22.2,6.7,45.8,8.5,68.8,5.3
			c14.4-2,31.9-6.3,37.4-16.7C316.5,988.9,271.5,971.1,261.9,968.5z"/>
		<path class="st64" d="M86.5,959.9c0,0,58.7-45.6,84.6-46.9s45.1,28.4,53,33.3c7.9,4.9,21.4-1.2,36.1,4.9
			c14.7,6.2,33.9,46.9,31.6,51.8c-1.7,3.8-16.1,11.2-53.4,14.5c-18.8,1.6-37.8-1.4-55.2-9.4c-8.7-4-22-7.5-41.5-7.5
			c-5.6,0-35,3.7-55.3-9.9S86.5,959.9,86.5,959.9z"/>
		<g>
			<path class="st43" d="M260.3,951.2c-14.7-6.2-28.2,0-36.1-4.9s-27.1-34.5-53-33.3c-1.7,0.1-3.5,0.4-5.5,0.8
				c4.6,0.9,9.3,2.7,12.6,6.4c9.2,10.2,14.8,41.6,19.4,51.8c4.6,10.2,6.5,2.8,22.2-0.9s25,3.7,23.1,17.6c-0.9,6.5-3.3,18.2-5.7,28.9
				c0.4,0,0.8,0,1.2-0.1c37.3-3.2,51.7-10.7,53.4-14.5C294.2,998.1,275,957.4,260.3,951.2z"/>
		</g>
	</g>
</g>
<g id="물개">
	<g>
		<path class="st65" d="M793.2,1062.8c-4.5,7.5-12.1,15.8-24.8,18h266.3c3.1-0.6,5.5-0.8,7.2-0.5c0.8,0.1,1.5,0.3,2.2,0.5h43.8
			c-2.4-4.4-4.3-7.2-4.3-7.2s24.7-15.6,20.8-37.7c-3.9-22.1-16.2-10.4-19.5-6.5c-3.2,3.9-22.1,24.8-37,22.3
			c-14.1-2.5-81.5-13.8-133.8-58.8c-15.6,13.2-40.2,17.4-59.3,15.1c-24.1-2.8-48.2-12.7-72.4-12.4c-1.4,15.7-1.8,34.9,4.4,52.6
			C788.6,1053.1,790.6,1058,793.2,1062.8z"/>
		<g>
			<path class="st16" d="M956.9,989.9c-1.1-2.7-3.6-4.5-6.1-5.8c-12-6.6-38.9-7.8-52.3-7c7.6,8.6,15.6,15.9,15.6,15.9
				c-7.9,7.4-21.3,11.2-21.3,11.2c-28.9,10.6-63.8-0.3-79.5-4.3c-15.6-4-30.9-4.2-30.9-4.2l0.9-10.3c-7.6,1.2-23.4,4.5-28.2,8.4
				c-6,4.9-2,12.6,9.7,15.5c3.2,0.8,6.5,1,9.8,0.9c12.4-0.5,25-1,37.2,1.8s23.4,8.8,35.2,13.1s24.8,6.8,36.5,2.4
				c6.1-2.3,11.4-6.3,17.1-9.6c6.9-4.1,14.3-7.1,22-9.1c7.5-1.9,30-3,33.7-10.3C957.6,995.8,958.1,992.6,956.9,989.9z"/>
		</g>
		<g id="물개_00000016798075036750696240000010537960758908885397_">
			<g>
				<path class="st66" d="M914.1,992.9c-3.1-2.7-6.1-5.4-9.1-8.3c0,0-19.6-19.2-28.6-46.8c-6.3-19.4-8.2-53.7-44.1-65.1
					c-7.9-2.5-15.6-3-24.1-1.7c-6,0.9-15.3,6-26.4,4.3c-16.9-2.6-26.8-0.5-26.8,18.3c0,15.7,12.6,31.8,22.1,45.4
					c4.5,6.4,7.2,13.9,7.8,21.7c0.3,3.5,0.3,7.6,0,12.1c-0.5,5.7-1.6,13.6-2.5,22.7c24.2-0.3,48.3,9.6,72.4,12.4
					C873.9,1010.3,898.5,1006.1,914.1,992.9z"/>
				
					<ellipse transform="matrix(0.7733 -0.634 0.634 0.7733 -383.4968 702.5032)" class="st67" cx="790.7" cy="887.6" rx="6.4" ry="3.5"/>
				<g>
					<path class="st68" d="M769.8,879.8c-2.2,1.8-8.2,2.2-10.3-0.3s0.2-6.4,2.5-8.2c2.2-1.8,6-0.8,8.1,1.7S772,878,769.8,879.8z"/>
					<g>
						<path class="st68" d="M777.7,884.1c-3.8-2.3-7.6-4.7-11.2-7.3c-0.5-0.3,0-1.2,0.5-0.8c3.6,2.6,7.4,4.9,11.2,7.3
							C778.7,883.6,778.2,884.4,777.7,884.1L777.7,884.1z"/>
					</g>
					<g>
						<path class="st68" d="M773.7,889.4c-2.1-3.8-4.5-7.4-7-10.9c-0.4-0.5,0.5-1,0.8-0.5c2.5,3.5,4.9,7.2,7,10.9
							C774.8,889.4,774,889.9,773.7,889.4L773.7,889.4z"/>
					</g>
					<g>
						<path class="st68" d="M766.2,876.3c0.7,4.7,1.2,9.5,1.4,14.3c0,0.6-0.9,0.6-1,0c-0.2-4.7-0.6-9.4-1.4-14
							C765.2,876,766.1,875.7,766.2,876.3L766.2,876.3z"/>
					</g>
					<g>
						<path class="st68" d="M763.6,871.3c0.1-1.6,0-3.2-0.3-4.8c-0.1-0.2,0.1-0.5,0.3-0.6s0.5,0.1,0.6,0.3c0.3,1.6,0.5,3.3,0.4,5
							c0,0.3-0.2,0.5-0.5,0.5S763.6,871.5,763.6,871.3L763.6,871.3z"/>
					</g>
					<g>
						<path class="st68" d="M762.6,872.7c-1-1.7-2.1-3.3-3.1-5c-0.3-0.5,0.5-1,0.8-0.5c1,1.7,2.1,3.3,3.1,5
							C763.8,872.7,763,873.2,762.6,872.7L762.6,872.7z"/>
					</g>
					<g>
						<path class="st68" d="M762.2,874.2c-2.1-1.2-4.2-2.4-6.3-3.6c-0.5-0.3,0-1.1,0.5-0.8c2.1,1.2,4.2,2.4,6.3,3.6
							C763.3,873.7,762.8,874.5,762.2,874.2L762.2,874.2z"/>
					</g>
				</g>
				<g>
					<path class="st69" d="M765.1,899.5c-4,0.5-7.9-2.4-8.7-6.4c-0.1-0.5,0.1-1.1,0.7-1.2c0.5-0.1,1.1,0.2,1.2,0.7
						c0.3,1.5,1,2.8,2.2,3.7c1.3,1,3,1.4,4.6,1.2c0.5-0.1,1,0.5,1,1C766.1,899.1,765.6,899.4,765.1,899.5L765.1,899.5z"/>
				</g>
				<path class="st67" d="M795.6,883.5c0,0-1.4-1.6-1.8-2.8c0,0-0.6-1.1-0.9,0c-0.2,0.9,0.2,2.7,0.2,2.7L795.6,883.5z"/>
				
					<ellipse transform="matrix(7.904311e-02 -0.9969 0.9969 7.904311e-02 -165.9411 1565.9059)" class="st70" cx="764.5" cy="872.8" rx="1.4" ry="1.9"/>
			</g>
			
				<ellipse transform="matrix(0.3908 -0.9205 0.9205 0.3908 -354.1944 1282.8365)" class="st71" cx="792" cy="909" rx="10.2" ry="12.2"/>
			<path class="st72" d="M782.5,995.6c9.6-0.1,19.1,1.4,28.7,3.4c-2.2-6.6-4-13.3-5.2-20.2c-2.4-14-12.7-38.7-26.7-36.3
				c3.2,5.6,5.2,11.8,5.7,18.3c0.3,3.5,0.3,7.6,0,12.1C784.4,978.6,783.3,986.5,782.5,995.6z"/>
		</g>
	</g>
</g>
<g id="사이즈">
	<g>
		<path d="M482.5-122.7c1.8-0.4,5.1-0.4,6.1,1.6c1,2.4,0.5,6.6,0.5,9.2v45.5c0,2.5,0.6,5.9-1.9,7.7c-1.7,1.3-5,1.2-6.9,0.5
			c-2.1-0.7-2.2-3.1-2.2-5.1c-0.8-15.6-0.5-30.3-0.5-46.2c-0.4,1.1-6.5,2-7.5,2c-3.1,0.4-6-0.4-6.4-4c-0.4-3.7,2-5.8,5.5-6.9
			c3.7-1.2,7.4-2.8,11.1-3.8C481.1-122.4,481.8-122.6,482.5-122.7z"/>
		<path d="M540.1-117.6c0.5,4.1,0.4,8.5,0.4,12.7c0,4.8,0.1,9.6,0.1,14.4v7.6h3.8c2.6,0,6,1.2,6.2,4.3c0,3.7-2.8,4.9-6,5.1
			c-0.4,0-3.8,0.3-4-0.1v6.1c0,2.6,0.3,6.9-2.3,8.6c-1.1,0.7-4.1,0.8-5.4,0.4c-2.1-0.7-2.5-3.6-2.7-5.5c-0.1-0.8,0.2-9.2-0.4-9.2
			h-15.7c-3.4,0-7.7,0.4-10.3-1.7c-4.2-3.2-0.7-7.9,1.7-11c4.5-6,8.6-12.5,12.9-18.6c2.3-3.2,5.1-6,7.3-9.3c1.7-2.5,3.5-5.4,6.4-6.9
			c2.8-1.3,5.7-1.5,7.1,0.5C539.7-119.5,540-118.5,540.1-117.6z M530.5-104l-14.8,20.8h14.8V-104z"/>
		<path d="M596-117.6c0.5,4.1,0.4,8.5,0.4,12.7c0,4.8,0.1,9.6,0.1,14.4v7.6h3.8c2.6,0,6,1.2,6.2,4.3c0,3.7-2.8,4.9-6,5.1
			c-0.4,0-3.8,0.3-4-0.1v6.1c0,2.6,0.3,6.9-2.3,8.6c-1.1,0.7-4.1,0.8-5.4,0.4c-2.1-0.7-2.5-3.6-2.7-5.5c-0.1-0.8,0.2-9.2-0.4-9.2
			H570c-3.4,0-7.7,0.4-10.3-1.7c-4.2-3.2-0.7-7.9,1.7-11c4.5-6,8.6-12.5,12.9-18.6c2.3-3.2,5.1-6,7.3-9.3c1.7-2.5,3.5-5.4,6.4-6.9
			c2.8-1.3,5.7-1.5,7.1,0.5C595.5-119.5,595.9-118.5,596-117.6z M586.4-104l-14.8,20.8h14.8V-104z"/>
		<path d="M631-59.3c-3.2-1.2-6.1-3.6-8.5-6.3c-5.7-6.4-8.7-15.7-8.7-24.6c0-6.1,1.2-12.3,3.6-17.9c1.7-4,5.7-9.4,9.4-11.1
			c1.3-0.6,2.8-1.2,4.3-1.8c3.8-1.2,9-0.9,12.9,0c10.9,2.6,15.6,14.3,16.9,25.6c0.4,3.7,0.3,7.6-0.2,11.3
			c-0.9,6.9-2.3,13.8-7.3,18.8c-4.4,4.4-9.9,6.9-15.8,7.1C635.3-58.2,633.1-58.5,631-59.3z M632.6-108.9c-1.6,1.1-2.9,2.7-3.9,4.4
			c-2.5,4.3-3.3,9.3-3.3,14.2c0,5.1,1,10.9,3.9,15.4c1.4,2.1,3.4,3.8,6,4.5c2.4,0.6,4.9,0.4,7-0.9c6.9-4.2,7.7-15.2,7.2-22.4
			c-0.5-7.1-3.4-16.6-12.2-16.4C635.8-110.1,634.1-109.8,632.6-108.9z"/>
		<path d="M706.7-60.1c-1,3.1-3.9,3.4-6.8,2c-4.1-2-11-10.6-12.5-12.4c0-0.1-0.1-0.1-0.1-0.2c-0.8,1-1.6,2.1-2.6,3.2
			c-2.3,2.9-6.2,8.4-9.8,9.8c-2.3,0.9-5-0.6-5.5-2.8c-1.3-5,5.2-11.1,7.8-14.7c1.2-1.6,2.3-2.8,3.2-4c-1.6-1.8-3.3-3.7-6.7-7.3
			c-2.4-2.7-6.2-6.5-5.6-10.4c0.6-3.6,5.3-4.5,8.4-2.3c3,2.2,5.8,6,8.4,8.9c0.8,1.1,1.6,2,2.3,2.8c0.6-0.9,1.6-1.9,2.5-3.1
			c2.4-2.8,4.7-6.2,7.7-8.5s7.3-1.1,8.1,2c1,3.8-2.8,7.7-5.1,10.3c-2.8,2.9-4.6,5.2-6.4,7.4c1.1,1.2,2.1,2.5,3.6,4.4
			C700.3-71.6,707.8-64.1,706.7-60.1z"/>
		<path d="M731.1-122.7c1.8-0.4,5.1-0.4,6.1,1.6c1,2.4,0.5,6.6,0.5,9.2v45.5c0,2.5,0.6,5.9-1.9,7.7c-1.7,1.3-5,1.2-6.9,0.5
			c-2.1-0.7-2.2-3.1-2.2-5.1c-0.8-15.6-0.5-30.3-0.5-46.2c-0.4,1.1-6.5,2-7.5,2c-3.1,0.4-6-0.4-6.4-4c-0.4-3.7,2-5.8,5.5-6.9
			c3.7-1.2,7.4-2.8,11.1-3.8C729.7-122.4,730.4-122.6,731.1-122.7z"/>
		<path d="M767.8-59.3c-3.2-1.2-6.1-3.6-8.5-6.3c-5.7-6.4-8.7-15.7-8.7-24.6c0-6.1,1.2-12.3,3.6-17.9c1.7-4,5.7-9.4,9.4-11.1
			c1.3-0.6,2.8-1.2,4.3-1.8c3.8-1.2,9-0.9,12.9,0c10.9,2.6,15.6,14.3,16.9,25.6c0.4,3.7,0.3,7.6-0.2,11.3
			c-0.9,6.9-2.3,13.8-7.3,18.8c-4.4,4.4-9.9,6.9-15.8,7.1C772.2-58.2,769.9-58.5,767.8-59.3z M769.5-108.9c-1.6,1.1-2.9,2.7-3.9,4.4
			c-2.5,4.3-3.3,9.3-3.3,14.2c0,5.1,1,10.9,3.9,15.4c1.4,2.1,3.4,3.8,6,4.5c2.4,0.6,4.9,0.4,7-0.9c6.8-4.2,7.7-15.2,7.2-22.4
			c-0.5-7.1-3.4-16.6-12.2-16.4C772.6-110.1,770.9-109.8,769.5-108.9z"/>
		<path d="M807.9-65.7c-2.2-3.4-3.1-7.6-2.8-11.7c0.5-6.4,4.7-10.9,10.3-13.3c-1,0-4.4-2.9-5.1-3.5c-1.4-1.5-2.2-3.7-2.8-5.7
			c-1.5-5.3-0.3-11.7,3.4-16.1c3-3.7,10.1-6,14.7-6c3,0,6-0.3,9,0.2c3.6,0.6,6.8,2.5,9.3,5.1c4.7,5.2,6.1,12,4.3,18.7
			c-0.6,1.9-1.9,3.5-3.4,4.9c-0.6,0.5-3.9,2.8-4.8,2.6c2.8,1.8,5.7,3.1,7.3,6.2c3.3,6,3.3,14.2-1.3,19.5c-4.5,5.2-11.8,6.9-18.3,6.9
			C820.5-58,812-59.2,807.9-65.7z M815.8-75.7c-0.4,4.7,3.8,7.5,7.9,7.9c2.2,0.4,4.6,0.4,6.9-0.1c3.3-0.7,6.1-0.9,7.4-4.4
			c1.1-2.5,1-6.1-0.8-8.1c-2.6-3.1-5.7-3.7-9.5-3.6C822.4-83.7,816.6-82,815.8-75.7z M817.7-103.6c0.1,2.2,0.5,4.2,2.2,5.9
			c2,2.3,5.1,2.4,7.9,2.3c4.4,0,7.7-0.9,9.7-5.2c3-6.9-3.6-12.1-9.8-11.7C822.3-111.9,817.5-110,817.7-103.6z"/>
		<path d="M874-59.3c-3.2-1.2-6.1-3.6-8.5-6.3c-5.7-6.4-8.7-15.7-8.7-24.6c0-6.1,1.2-12.3,3.6-17.9c1.7-4,5.7-9.4,9.4-11.1
			c1.3-0.6,2.8-1.2,4.3-1.8c3.8-1.2,9-0.9,12.9,0c10.9,2.6,15.6,14.3,16.9,25.6c0.4,3.7,0.3,7.6-0.2,11.3
			c-0.9,6.9-2.3,13.8-7.3,18.8c-4.4,4.4-9.9,6.9-15.8,7.1C878.3-58.2,876.1-58.5,874-59.3z M875.6-108.9c-1.6,1.1-2.9,2.7-3.9,4.4
			c-2.5,4.3-3.3,9.3-3.3,14.2c0,5.1,1,10.9,3.9,15.4c1.4,2.1,3.4,3.8,6,4.5c2.4,0.6,4.9,0.4,7-0.9c6.9-4.2,7.7-15.2,7.2-22.4
			c-0.5-7.1-3.4-16.6-12.2-16.4C878.8-110.1,877.1-109.8,875.6-108.9z"/>
	</g>
</g>
</svg>
