<svg fill="#000000" xmlns="http://www.w3.org/2000/svg"  viewBox="0 0 50 50" width="100px" height="100px"><path fill="none" stroke="#000000" stroke-linecap="round" stroke-miterlimit="10" stroke-width="2" d="M33,11V8c0-1.104-0.896-2-2-2H19c-1.104,0-2,0.896-2,2v3"/><path d="M9 22c0-1.103.897-2 2-2h5c1.103 0 2 .897 2 2h14c0-1.103.897-2 2-2h5c1.103 0 2 .897 2 2h9v-8c0-1.654-1.346-3-3-3H3c-1.654 0-3 1.346-3 3v8H9zM39 22L34 22 34 24 39.001 24 39.001 23.004 39 23 39.001 22.996zM41 24c0 1.103-.897 2-2 2h-5c-1.103 0-2-.897-2-2H18c0 1.103-.897 2-2 2h-5c-1.103 0-2-.897-2-2H0v18c0 1.654 1.346 3 3 3h44c1.654 0 3-1.346 3-3V24H41zM16 22L11 22 11 24 16.001 24 16.001 23.004 16 23 16.001 22.996z"/></svg>