<svg xmlns="http://www.w3.org/2000/svg" xmlns:xlink="http://www.w3.org/1999/xlink" width="978" height="591" viewBox="0 0 978 591">
  <defs>
    <linearGradient id="linear-gradient" x1="0.5" x2="0.5" y2="1" gradientUnits="objectBoundingBox">
      <stop offset="0" stop-color="#fff"/>
      <stop offset="1" stop-color="#edf3ff"/>
    </linearGradient>
    <linearGradient id="linear-gradient-3" x1="0.5" x2="0.5" y2="1" gradientUnits="objectBoundingBox">
      <stop offset="0" stop-color="#43464b"/>
      <stop offset="1" stop-color="#090a0a"/>
    </linearGradient>
  </defs>
  <g id="그룹_833" data-name="그룹 833" transform="translate(-23 -123)">
    <g id="그룹_695" data-name="그룹 695" transform="translate(-4 -11)">
      <path id="사각형_777" data-name="사각형 777" d="M7,0H34.641a7,7,0,0,1,7,7v9a0,0,0,0,1,0,0H0a0,0,0,0,1,0,0V7A7,7,0,0,1,7,0Z" transform="translate(1005 276.326) rotate(90)" fill="#2c303b"/>
      <path id="사각형_784" data-name="사각형 784" d="M7,0H34.641a7,7,0,0,1,7,7v9a0,0,0,0,1,0,0H0a0,0,0,0,1,0,0V7A7,7,0,0,1,7,0Z" transform="translate(1005 334.467) rotate(90)" fill="#2c303b"/>
      <path id="사각형_778" data-name="사각형 778" d="M7,0H70a7,7,0,0,1,7,7v9a0,0,0,0,1,0,0H0a0,0,0,0,1,0,0V7A7,7,0,0,1,7,0Z" transform="translate(1005 182.826) rotate(90)" fill="#2c303b"/>
      <rect id="사각형_773" data-name="사각형 773" width="696" height="559" rx="5" transform="translate(164 166)" fill="#2c303b"/>
      <path id="사각형_771" data-name="사각형 771" d="M0,0H87a50,50,0,0,1,50,50V509a50,50,0,0,1-50,50H5a5,5,0,0,1-5-5V0A0,0,0,0,1,0,0Z" transform="translate(860 166)" fill="#a9b4d1"/>
      <path id="사각형_772" data-name="사각형 772" d="M5,0H87a50,50,0,0,1,50,50V506a50,50,0,0,1-50,50H5a5,5,0,0,1-5-5V5A5,5,0,0,1,5,0Z" transform="translate(860 134)" fill="url(#linear-gradient)"/>
      <path id="사각형_770" data-name="사각형 770" d="M50,0h87a0,0,0,0,1,0,0V554a5,5,0,0,1-5,5H50A50,50,0,0,1,0,509V50A50,50,0,0,1,50,0Z" transform="translate(27 166)" fill="#a9b4d1"/>
      <path id="사각형_769" data-name="사각형 769" d="M50,0h82a5,5,0,0,1,5,5V551a5,5,0,0,1-5,5H50A50,50,0,0,1,0,506V50A50,50,0,0,1,50,0Z" transform="translate(27 134)" fill="url(#linear-gradient)"/>
      <path id="패스_1742" data-name="패스 1742" d="M5,0H691a5,5,0,0,1,5,5V551a5,5,0,0,1-5,5H5a5,5,0,0,1-5-5V5A5,5,0,0,1,5,0Z" transform="translate(164 134)" fill="#434758"/>
      <path id="패스_1740" data-name="패스 1740" d="M3894.4-2043.192l448.527-556h133.6l-450.594,556Z" transform="translate(4710.53 -1909.192) rotate(180)" opacity="0.985" fill="url(#linear-gradient-3)" style="mix-blend-mode: screen;isolation: isolate"/>
      <path id="패스_1741" data-name="패스 1741" d="M3894.4-2043.192l448.527-556h133.6l-450.594,556Z" transform="translate(4896.965 -1909.192) rotate(180)" opacity="0.985" fill="url(#linear-gradient-3)" style="mix-blend-mode: screen;isolation: isolate"/>
      <rect id="사각형_774" data-name="사각형 774" width="49" height="18" rx="9" transform="translate(717 654)" fill="#e6edfe"/>
      <rect id="사각형_776" data-name="사각형 776" width="90" height="11" rx="5.5" transform="translate(467 702)"/>
      <rect id="사각형_775" data-name="사각형 775" width="49" height="18" rx="9" transform="translate(781 654)" fill="#e6edfe"/>
      <rect id="사각형_779" data-name="사각형 779" width="134" height="35" transform="translate(234 690)" fill="#727787" opacity="0.134" style="mix-blend-mode: screen;isolation: isolate"/>
      <rect id="사각형_780" data-name="사각형 780" width="134" height="35" transform="translate(420 690)" fill="#727787" opacity="0.134" style="mix-blend-mode: screen;isolation: isolate"/>
    </g>
  </g>
</svg>
