<svg xmlns="http://www.w3.org/2000/svg" width="243" height="59" viewBox="0 0 243 59">
  <g id="bt_play_large_click" transform="translate(-574 -302.65)">
    <g id="그룹_847" data-name="그룹 847" transform="translate(-17 19.65)">
      <g id="그룹_829" data-name="그룹 829" transform="translate(0 -110)">
        <g id="그룹_684" data-name="그룹 684" transform="translate(-7625 2346)">
          <g id="패스_1737" data-name="패스 1737" transform="translate(8219 -1950)" fill="#a2af1a">
            <path d="M 210.5 51 L 26.5 51 C 23.1916561126709 51 19.98331260681152 50.35250091552734 16.96412467956543 49.07550048828125 C 14.04690647125244 47.84162521362305 11.42656230926514 46.07481384277344 9.175874710083008 43.82412338256836 C 6.92521858215332 41.57343673706055 5.158374786376953 38.95309448242188 3.924499988555908 36.03590774536133 C 2.647500038146973 33.01668930053711 2 29.80837440490723 2 26.5 C 2 23.1916561126709 2.647500038146973 19.98331260681152 3.924499988555908 16.96412467956543 C 5.158374786376953 14.04690647125244 6.92521858215332 11.42656230926514 9.175874710083008 9.175874710083008 C 11.42656230926514 6.92521858215332 14.04690647125244 5.158374786376953 16.96412467956543 3.924499988555908 C 19.98331260681152 2.647500038146973 23.1916561126709 2 26.5 2 L 210.5 2 C 213.8083801269531 2 217.0166931152344 2.647500038146973 220.0359039306641 3.924499988555908 C 222.9530944824219 5.158374786376953 225.5734405517578 6.92521858215332 227.8241271972656 9.175874710083008 C 230.0748138427734 11.42656230926514 231.8416290283203 14.04690647125244 233.0755004882812 16.96412467956543 C 234.3524932861328 19.98331260681152 235 23.1916561126709 235 26.5 C 235 29.80837440490723 234.3524932861328 33.01671981811523 233.0755004882812 36.03590774536133 C 231.8416290283203 38.95309448242188 230.0748138427734 41.57343673706055 227.8241271972656 43.82412338256836 C 225.5734405517578 46.07481384277344 222.9530944824219 47.84162521362305 220.0359039306641 49.07550048828125 C 217.0167236328125 50.35250091552734 213.8083801269531 51 210.5 51 Z" stroke="none"/>
            <path d="M 26.5 4 C 23.46076965332031 4 20.51457214355469 4.594333648681641 17.74324035644531 5.766532897949219 C 15.06440734863281 6.899566650390625 12.65776062011719 8.522434234619141 10.59010314941406 10.5900993347168 C 8.522430419921875 12.65776824951172 6.899566650390625 15.06439971923828 5.76654052734375 17.74323272705078 C 4.594329833984375 20.51456832885742 4 23.46076583862305 4 26.5 C 4 29.53923416137695 4.594329833984375 32.48543548583984 5.76654052734375 35.25676727294922 C 6.899566650390625 37.93560028076172 8.522430419921875 40.34223175048828 10.59010314941406 42.4099006652832 C 12.65776062011719 44.47756576538086 15.06440734863281 46.10043334960938 17.74324035644531 47.23346710205078 C 20.51457214355469 48.40566635131836 23.46076965332031 49 26.5 49 L 210.5 49 C 213.5392303466797 49 216.4854278564453 48.40566635131836 219.2567749023438 47.23346710205078 C 221.9356079101562 46.10043334960938 224.3422393798828 44.47756576538086 226.4098968505859 42.4099006652832 C 228.4775695800781 40.34223175048828 230.1004333496094 37.93560028076172 231.2334594726562 35.25676727294922 C 232.4056701660156 32.48543548583984 233 29.53923416137695 233 26.5 C 233 23.46076583862305 232.4056701660156 20.51456832885742 231.2334594726562 17.74323272705078 C 230.1004333496094 15.06439971923828 228.4775695800781 12.65776824951172 226.4098968505859 10.5900993347168 C 224.3422393798828 8.522434234619141 221.9356079101562 6.899566650390625 219.2567749023438 5.766532897949219 C 216.4854278564453 4.594333648681641 213.5392303466797 4 210.5 4 L 26.5 4 M 26.5 0 L 210.5 0 C 225.1355285644531 0 237 11.86446762084961 237 26.5 C 237 41.13553237915039 225.1355285644531 53 210.5 53 L 26.5 53 C 11.86447143554688 53 0 41.13553237915039 0 26.5 C 0 11.86446762084961 11.86447143554688 0 26.5 0 Z" stroke="none" fill="#e0eb6a"/>
          </g>
          <g id="그룹_311" data-name="그룹 311" transform="translate(8272.578 -1934.839)">
            <text id="코딩_실행하기" data-name="코딩 실행하기" transform="translate(0 18)" fill="#859100" stroke="#859100" stroke-width="4" font-size="21" font-family="NanumSquareRoundOTFEB, NanumSquareRoundOTF" letter-spacing="-0.015em"><tspan x="0" y="0">코딩 실행하기</tspan></text>
            <text id="코딩_실행하기-2" data-name="코딩 실행하기" transform="translate(0 18)" fill="#fff" font-size="21" font-family="NanumSquareRoundOTFEB, NanumSquareRoundOTF" letter-spacing="-0.015em"><tspan x="0" y="0">코딩 실행하기</tspan></text>
            <g id="다각형_4" data-name="다각형 4" transform="translate(148.147 3.301) rotate(90)" fill="#fff">
              <path d="M 14.69527149200439 15.58233451843262 L 1.709851384162903 15.58233451843262 C 0.9914913773536682 15.58233451843262 0.3460913896560669 15.21212387084961 -0.01656862162053585 14.5920238494873 C -0.3792286217212677 13.971923828125 -0.3854886293411255 13.22792434692383 -0.03330862149596214 12.60181427001953 L 6.459401607513428 1.05920422077179 C 6.813131332397461 0.4303642213344574 7.481071472167969 0.03972421959042549 8.202561378479004 0.03972421959042549 C 8.924051284790039 0.03972421959042549 9.591991424560547 0.4303642213344574 9.945711135864258 1.05920422077179 L 16.43843078613281 12.60181427001953 C 16.79061126708984 13.22791385650635 16.78436088562012 13.97191429138184 16.42170143127441 14.59201431274414 C 16.05904197692871 15.21212387084961 15.41364097595215 15.58233451843262 14.69527149200439 15.58233451843262 Z" stroke="none"/>
              <path d="M 8.202561378479004 1.039726257324219 C 7.862349510192871 1.039726257324219 7.522137641906738 1.209639549255371 7.330982208251953 1.549464225769043 L 0.8382720947265625 13.09207439422607 C 0.4633026123046875 13.75867462158203 0.9450225830078125 14.58233451843262 1.709842681884766 14.58233451843262 L 14.69527244567871 14.58233451843262 C 15.46010208129883 14.58233451843262 15.94181251525879 13.75867462158203 15.56685256958008 13.09207439422607 L 9.074132919311523 1.549464225769043 C 8.88298225402832 1.209639549255371 8.54277229309082 1.039726257324219 8.202561378479004 1.039726257324219 M 8.20256233215332 -0.9602756500244141 C 9.284812927246094 -0.9602756500244141 10.28672218322754 -0.3743057250976562 10.81729221343994 0.5689544677734375 L 17.31000137329102 12.11155414581299 C 17.83828163146973 13.05072402954102 17.82889175415039 14.16672420501709 17.28490257263184 15.09687423706055 C 16.74090194702148 16.02702331542969 15.77282238006592 16.58233451843262 14.69527244567871 16.58233451843262 L 1.709842681884766 16.58233451843262 C 0.6322927474975586 16.58233451843262 -0.3357982635498047 16.02701377868652 -0.8797874450683594 15.09686470031738 C -1.423778533935547 14.16670417785645 -1.433156967163086 13.05069446563721 -0.9048671722412109 12.11153411865234 L 5.587832450866699 0.568943977355957 C 6.118391990661621 -0.3743057250976562 7.120302200317383 -0.9602756500244141 8.20256233215332 -0.9602756500244141 Z" stroke="none" fill="#859100"/>
            </g>
          </g>
          <g id="사각형_755" data-name="사각형 755" transform="translate(8219 -1950)" fill="none" stroke="#859100" stroke-width="3">
            <rect width="237" height="53" rx="26.5" stroke="none"/>
            <rect x="-1.5" y="-1.5" width="240" height="56" rx="28" fill="none"/>
          </g>
          <g id="사각형_887" data-name="사각형 887" transform="translate(8219 -1950)" fill="#859100" stroke="#859100" stroke-width="3" opacity="0.498" style="mix-blend-mode: multiply;isolation: isolate">
            <rect width="237" height="53" rx="26.5" stroke="none"/>
            <rect x="-1.5" y="-1.5" width="240" height="56" rx="28" fill="none"/>
          </g>
        </g>
      </g>
    </g>
  </g>
</svg>
