<svg xmlns="http://www.w3.org/2000/svg" width="243" height="64" viewBox="0 0 243 64">
  <g id="bt_play_large_default" transform="translate(-210 -302.65)">
    <g id="그룹_651" data-name="그룹 651" transform="translate(-8006 2255.65)">
      <rect id="사각형_756" data-name="사각형 756" width="243" height="61" rx="30.5" transform="translate(8216 -1950)" fill="#859100"/>
      <g id="사각형_754" data-name="사각형 754" transform="translate(8219 -1950)" fill="#b7c334" stroke="#e0eb6a" stroke-width="4">
        <rect width="237" height="53" rx="26.5" stroke="none"/>
        <rect x="2" y="2" width="233" height="49" rx="24.5" fill="none"/>
      </g>
      <g id="그룹_311" data-name="그룹 311" transform="translate(8272.578 -1934.839)">
        <text id="코딩_실행하기" data-name="코딩 실행하기" transform="translate(0 18)" fill="#859100" stroke="#859100" stroke-width="4" font-size="21" font-family="NanumSquareRoundOTFEB, NanumSquareRoundOTF" letter-spacing="-0.015em"><tspan x="0" y="0">코딩 실행하기</tspan></text>
        <text id="코딩_실행하기-2" data-name="코딩 실행하기" transform="translate(0 18)" fill="#fff" font-size="21" font-family="NanumSquareRoundOTFEB, NanumSquareRoundOTF" letter-spacing="-0.015em"><tspan x="0" y="0">코딩 실행하기</tspan></text>
        <g id="다각형_4" data-name="다각형 4" transform="translate(148.147 3.301) rotate(90)" fill="#fff">
          <path d="M 14.69527149200439 15.58233451843262 L 1.709851384162903 15.58233451843262 C 0.9914913773536682 15.58233451843262 0.3460913896560669 15.21212387084961 -0.01656862162053585 14.5920238494873 C -0.3792286217212677 13.971923828125 -0.3854886293411255 13.22792434692383 -0.03330862149596214 12.60181427001953 L 6.459401607513428 1.05920422077179 C 6.813131332397461 0.4303642213344574 7.481071472167969 0.03972421959042549 8.202561378479004 0.03972421959042549 C 8.924051284790039 0.03972421959042549 9.591991424560547 0.4303642213344574 9.945711135864258 1.05920422077179 L 16.43843078613281 12.60181427001953 C 16.79061126708984 13.22791385650635 16.78436088562012 13.97191429138184 16.42170143127441 14.59201431274414 C 16.05904197692871 15.21212387084961 15.41364097595215 15.58233451843262 14.69527149200439 15.58233451843262 Z" stroke="none"/>
          <path d="M 8.202561378479004 1.039726257324219 C 7.862349510192871 1.039726257324219 7.522137641906738 1.209639549255371 7.330982208251953 1.549464225769043 L 0.8382720947265625 13.09207439422607 C 0.4633026123046875 13.75867462158203 0.9450225830078125 14.58233451843262 1.709842681884766 14.58233451843262 L 14.69527244567871 14.58233451843262 C 15.46010208129883 14.58233451843262 15.94181251525879 13.75867462158203 15.56685256958008 13.09207439422607 L 9.074132919311523 1.549464225769043 C 8.88298225402832 1.209639549255371 8.54277229309082 1.039726257324219 8.202561378479004 1.039726257324219 M 8.20256233215332 -0.9602756500244141 C 9.284812927246094 -0.9602756500244141 10.28672218322754 -0.3743057250976562 10.81729221343994 0.5689544677734375 L 17.31000137329102 12.11155414581299 C 17.83828163146973 13.05072402954102 17.82889175415039 14.16672420501709 17.28490257263184 15.09687423706055 C 16.74090194702148 16.02702331542969 15.77282238006592 16.58233451843262 14.69527244567871 16.58233451843262 L 1.709842681884766 16.58233451843262 C 0.6322927474975586 16.58233451843262 -0.3357982635498047 16.02701377868652 -0.8797874450683594 15.09686470031738 C -1.423778533935547 14.16670417785645 -1.433156967163086 13.05069446563721 -0.9048671722412109 12.11153411865234 L 5.587832450866699 0.568943977355957 C 6.118391990661621 -0.3743057250976562 7.120302200317383 -0.9602756500244141 8.20256233215332 -0.9602756500244141 Z" stroke="none" fill="#859100"/>
        </g>
      </g>
      <g id="사각형_755" data-name="사각형 755" transform="translate(8219 -1950)" fill="none" stroke="#859100" stroke-width="3">
        <rect width="237" height="53" rx="26.5" stroke="none"/>
        <rect x="-1.5" y="-1.5" width="240" height="56" rx="28" fill="none"/>
      </g>
    </g>
  </g>
</svg>
