<svg xmlns="http://www.w3.org/2000/svg" width="192" height="60.7" viewBox="0 0 192 60.7">
  <g id="bt_replay_click" transform="translate(-599.499 -663.35)">
    <g id="그룹_840" data-name="그룹 840" transform="translate(19.499 -14.95)">
      <path id="패스_1264" data-name="패스 1264" d="M237.125,419.83a25.008,25.008,0,1,1,0-50.016H368.153a25.008,25.008,0,0,1,0,50.016Z" transform="translate(373.019 313.828)" fill="#d18b4b"/>
      <path id="패스_1265" data-name="패스 1265" d="M367.707,371.423a22.953,22.953,0,0,1,0,45.907H236.681a22.953,22.953,0,1,1,0-45.907Zm0-4.109H236.681a27.063,27.063,0,1,0,0,54.125H367.707a27.063,27.063,0,0,0,0-54.125" transform="translate(373.807 314.273)" fill="#e7a85d"/>
      <path id="패스_1266" data-name="패스 1266" d="M366.995,366.6a27.063,27.063,0,0,1,0,54.125H235.968a27.063,27.063,0,1,1,0-54.125Zm0-3.287H235.968a30.35,30.35,0,1,0,0,60.7H366.995a30.35,30.35,0,1,0,0-60.7" transform="translate(374.52 314.986)" fill="#aa5c22"/>
      <text id="다시_해보기" data-name="다시 해보기" transform="translate(626.5 715.65)" fill="#aa5c22" stroke="#aa5c22" stroke-width="4" font-size="21" font-family="NanumSquareRoundOTFEB, NanumSquareRoundOTF" letter-spacing="-0.015em"><tspan x="0" y="0">다시 해보기</tspan></text>
      <text id="다시_해보기-2" data-name="다시 해보기" transform="translate(626.5 715.65)" fill="#fff" font-size="21" font-family="NanumSquareRoundOTFEB, NanumSquareRoundOTF" letter-spacing="-0.015em"><tspan x="0" y="0">다시 해보기</tspan></text>
      <g id="사각형_892" data-name="사각형 892" transform="translate(583 682)" fill="#aa5c22" stroke="#aa5c22" stroke-width="3" opacity="0.498" style="mix-blend-mode: multiply;isolation: isolate">
        <rect width="186" height="53" rx="26.5" stroke="none"/>
        <rect x="-1.5" y="-1.5" width="189" height="56" rx="28" fill="none"/>
      </g>
    </g>
  </g>
</svg>
