<svg xmlns="http://www.w3.org/2000/svg" xmlns:xlink="http://www.w3.org/1999/xlink" width="111" height="111" viewBox="0 0 111 111">
  <defs>
    <clipPath id="clip-path">
      <path id="패스_1822" data-name="패스 1822" d="M0,0H61.382V56.613H0Z" transform="translate(-5.183 -4.781)" fill="#fff"/>
    </clipPath>
  </defs>
  <g id="bt_block_tutorial_click" transform="translate(-704 -456.65)">
    <g id="그룹_856" data-name="그룹 856">
      <g id="사용방법" transform="translate(-4236 1364.65)">
        <g id="사각형_788" data-name="사각형 788" transform="translate(4943 -905)" fill="#b7c334" stroke="#e0eb6a" stroke-width="4">
          <rect width="105" height="105" rx="16" stroke="none"/>
          <rect x="2" y="2" width="101" height="101" rx="14" fill="none"/>
        </g>
        <g id="사각형_789" data-name="사각형 789" transform="translate(4943 -905)" fill="none" stroke="#606900" stroke-width="3">
          <rect width="105" height="105" rx="16" stroke="none"/>
          <rect x="-1.5" y="-1.5" width="108" height="108" rx="17.5" fill="none"/>
        </g>
        <g id="그룹_714" data-name="그룹 714" transform="translate(4969.992 -890.103)">
          <g id="마스크_그룹_21" data-name="마스크 그룹 21" transform="translate(0 0)" clip-path="url(#clip-path)">
            <path id="패스_1743" data-name="패스 1743" d="M2.021,35.4a14.3,14.3,0,0,1,.2-1.634,6.77,6.77,0,0,0-.2,1.634" transform="translate(-0.785 -13.119)" fill="#b3b3b3"/>
            <path id="패스_1744" data-name="패스 1744" d="M57.664,72.5l-1.659.5a10.221,10.221,0,0,0,1.659-.5" transform="translate(-21.762 -28.173)" fill="#b3b3b3"/>
            <path id="패스_1745" data-name="패스 1745" d="M55.3,73.324c-.375.083-.746.157-1.115.227a6.715,6.715,0,0,0,1.115-.227" transform="translate(-21.054 -28.492)" fill="#ccc"/>
            <path id="패스_1751" data-name="패스 1751" d="M25.477,1.223a26.073,26.073,0,0,1,7.33.939c2.21.681,3.241,1.595,3.108,2.495a1.013,1.013,0,0,0,.023-.153V7.775a1.038,1.038,0,0,1,0,.369v.979l3.437,1.041a3.437,3.437,0,0,1,.776.354c1.7.567,7.5,2.937,9.142,9.336a6.7,6.7,0,0,1,.5,2.551l-.018,7.82A13.433,13.433,0,0,1,40.238,43.05l-4.331,1.313a10.162,10.162,0,0,1-1.659.5,6.717,6.717,0,0,1-1.115.227,41.387,41.387,0,0,1-7.769.735,33.87,33.87,0,0,1-8.447-.949L10.76,43.014A13.433,13.433,0,0,1,1.223,30.126l.018-7.815a6.778,6.778,0,0,1,.2-1.634c1.51-8.285,9.816-10.4,9.816-10.4l0,0a3.415,3.415,0,0,1,.439-.173l3.3-1V4.5s0,.01,0,.014c-.012-.835.984-1.672,3-2.315a25.823,25.823,0,0,1,7.47-.981m10.4,3.609c-.009.021-.017.042-.025.062l-.007.017-.01.022c-.006.012-.012.024-.017.037l.017-.037.01-.022a.709.709,0,0,0,.032-.079m-.177.35-.007.01c-.014.02-.029.039-.045.059l-.018.024.018-.024c.013-.016.026-.032.037-.048l.008-.011.007-.01m-.253.3,0,0c-.031.032-.067.063-.1.094.031-.028.064-.056.092-.084l.01-.01,0,0M35,5.856l-.037.025L35,5.856l.031-.021.008-.006L35,5.856m-.463.283h0l-.03.016-.044.024.044-.024.023-.012.007,0h0m-17.98.078.046.024h0l-.046-.024-.006,0,.006,0M25.477,0a26.855,26.855,0,0,0-7.841,1.039C14.457,2.053,13.782,3.477,13.783,4.5h0v3.7l-2.435.739a4.343,4.343,0,0,0-.465.174c-.943.259-9.047,2.718-10.634,11.3a8.057,8.057,0,0,0-.229,1.889L0,30.124a14.567,14.567,0,0,0,10.405,14.06l6.156,1.866a34.827,34.827,0,0,0,8.8,1,42.683,42.683,0,0,0,7.963-.75,7.909,7.909,0,0,0,1.229-.251,11.612,11.612,0,0,0,1.758-.533l4.279-1.3A14.578,14.578,0,0,0,51,30.228l.018-7.819a7.907,7.907,0,0,0-.559-2.937c-1.776-6.778-7.788-9.381-9.8-10.072a4.56,4.56,0,0,0-.931-.405l-2.567-.778a2.235,2.235,0,0,0,0-.527V4.5a1.212,1.212,0,0,0-.024-.242c-.1-.97-.879-2.316-3.97-3.269A27.177,27.177,0,0,0,25.477,0" transform="translate(0 0)" fill="#6f6f6f" stroke="#6f6f6f" stroke-width="2"/>
            <path id="패스_1823" data-name="패스 1823" d="M65.542,26.481c-1.637-6.4-7.438-8.769-9.142-9.336a3.306,3.306,0,0,1-.776,5.976l-3.476,1.053L41.873,27.29,41.832,45.05a6.712,6.712,0,0,0,7.551,6.671c.369-.07.739-.145,1.115-.227l1.659-.5,4.331-1.313a13.433,13.433,0,0,0,9.536-12.825l.018-7.82a6.7,6.7,0,0,0-.5-2.551" transform="translate(-16.255 -6.662)" fill="#e6e6e6"/>
            <path id="패스_1824" data-name="패스 1824" d="M26.351,48.285l.041-17.761L15.8,27.314l-5.126-1.554A6.722,6.722,0,0,0,2.212,30.54a14.3,14.3,0,0,0-.2,1.634l-.018,7.815a13.433,13.433,0,0,0,9.537,12.887l6.157,1.866a38.426,38.426,0,0,0,16.216.215,6.712,6.712,0,0,1-7.551-6.671" transform="translate(-0.773 -9.896)" fill="#d1d1d1"/>
            <path id="패스_1825" data-name="패스 1825" d="M41.06,14.334a3.423,3.423,0,0,0-.776-.353L27.321,10.052a3.308,3.308,0,0,0-1.919,0L12.61,13.93a3.6,3.6,0,0,0-.439.173l0,0s-8.306,2.111-9.816,10.4a6.721,6.721,0,0,1,8.463-4.779l5.126,1.554,10.59,3.21,10.276-3.115,3.477-1.054a3.306,3.306,0,0,0,.775-5.975" transform="translate(-0.914 -3.85)" fill="#fff"/>
            <path id="패스_1826" data-name="패스 1826" d="M45.079,14.995a1.952,1.952,0,0,0,.137-.178c.026-.037.054-.075.076-.112a1.386,1.386,0,0,0,.09-.2c.012-.032.029-.064.039-.1a1.073,1.073,0,0,0,.044-.3V7.309a1.07,1.07,0,0,1-.044.3c-.009.032-.026.064-.039.1a1.32,1.32,0,0,1-.09.2c-.021.038-.05.075-.076.112a1.959,1.959,0,0,1-.137.179c-.034.039-.074.077-.112.116s-.11.1-.172.156-.153.121-.238.181c-.061.043-.12.086-.187.128-.1.061-.2.121-.314.181-.072.038-.138.077-.215.115-.13.065-.275.127-.421.189-.073.031-.138.062-.215.093-.229.09-.474.179-.739.264-.293.094-.626.166-.945.246-.252.064-.489.136-.755.191-.312.065-.65.111-.978.165-.277.045-.542.1-.828.135-.342.043-.7.068-1.053.1-.292.026-.577.062-.873.08-.366.023-.739.026-1.11.036-.293.009-.583.026-.877.026-.382,0-.759-.019-1.14-.031-.284-.009-.57-.009-.85-.025-.39-.023-.767-.067-1.149-.1-.261-.026-.529-.04-.784-.072-.426-.053-.826-.128-1.23-.2-.194-.034-.4-.057-.588-.1-.581-.118-1.133-.256-1.646-.415-2.082-.641-3.127-1.489-3.127-2.339l0,6.807c0,.849,1.045,1.7,3.127,2.339.513.158,1.065.3,1.646.415.188.038.394.061.588.1.4.072.805.146,1.231.2.255.032.523.047.784.072.382.037.758.081,1.149.1.281.017.567.016.85.026.38.012.758.032,1.14.031.293,0,.583-.018.877-.026.371-.01.743-.013,1.109-.036.3-.019.581-.054.874-.081.353-.032.71-.057,1.053-.1.286-.037.551-.09.828-.135.329-.053.665-.1.978-.164.267-.056.5-.128.756-.191.273-.068.561-.127.816-.205l.128-.04c.265-.084.509-.172.739-.264.076-.03.142-.062.215-.092.146-.062.291-.125.421-.189.076-.038.143-.077.214-.116.11-.059.218-.119.315-.18.066-.042.125-.085.186-.127.085-.061.166-.12.24-.182.023-.02.054-.039.076-.059s.061-.064.094-.1.079-.078.113-.117" transform="translate(-9.531 -2.84)" fill="#d1d1d1"/>
            <path id="패스_1827" data-name="패스 1827" d="M42.334,2.882c4.124,1.271,4.18,3.351.131,4.642a28.974,28.974,0,0,1-14.807.04c-4.117-1.268-4.18-3.346-.124-4.639a29,29,0,0,1,14.8-.042" transform="translate(-9.532 -0.755)" fill="#fff"/>
          </g>
        </g>
        <g id="그룹_715" data-name="그룹 715" transform="translate(2285 -845.792)">
          <text id="사용_방법" data-name="사용 방법" transform="translate(2675 21.714)" fill="#859100" stroke="#859100" stroke-width="4" font-size="19" font-family="NanumSquareRoundOTFEB, NanumSquareRoundOTF" letter-spacing="-0.015em"><tspan x="0" y="0">사용 방법</tspan></text>
          <g id="그룹_688" data-name="그룹 688" transform="translate(2675 6)">
            <text id="사용_방법-2" data-name="사용 방법" transform="translate(0 15.714)" fill="#fff" font-size="19" font-family="NanumSquareRoundOTFEB, NanumSquareRoundOTF" letter-spacing="-0.015em"><tspan x="0" y="0">사용 방법</tspan></text>
          </g>
        </g>
      </g>
      <g id="사각형_790" data-name="사각형 790" transform="translate(707 459.65)" fill="#606900" stroke="#606900" stroke-width="3" opacity="0.503" style="mix-blend-mode: multiply;isolation: isolate">
        <rect width="105" height="105" rx="16" stroke="none"/>
        <rect x="-1.5" y="-1.5" width="108" height="108" rx="17.5" fill="none"/>
      </g>
    </g>
  </g>
</svg>
