<svg xmlns="http://www.w3.org/2000/svg" xmlns:xlink="http://www.w3.org/1999/xlink" width="111" height="114" viewBox="0 0 111 114">
  <defs>
    <linearGradient id="linear-gradient" x1="0.5" x2="0.5" y2="1" gradientUnits="objectBoundingBox">
      <stop offset="0" stop-color="#fff"/>
      <stop offset="1" stop-color="#edf3ff"/>
    </linearGradient>
  </defs>
  <g id="bt_game_tutorial_default" transform="translate(-212 -456.65)">
    <g id="그룹_858" data-name="그룹 858">
      <g id="게임방법" transform="translate(-2377 712.65)">
        <g id="사각형_765" data-name="사각형 765" transform="translate(2592 -250)" fill="#606900" stroke="#606900" stroke-width="3">
          <rect width="105" height="105" rx="16" stroke="none"/>
          <rect x="-1.5" y="-1.5" width="108" height="108" rx="17.5" fill="none"/>
        </g>
        <g id="그룹_708" data-name="그룹 708" transform="translate(-69 -169)">
          <g id="사각형_764" data-name="사각형 764" transform="translate(2661 -84)" fill="#b7c334" stroke="#e0eb6a" stroke-width="4">
            <rect width="105" height="105" rx="16" stroke="none"/>
            <rect x="2" y="2" width="101" height="101" rx="14" fill="none"/>
          </g>
          <g id="사각형_765-2" data-name="사각형 765" transform="translate(2661 -84)" fill="none" stroke="#606900" stroke-width="3">
            <rect width="105" height="105" rx="16" stroke="none"/>
            <rect x="-1.5" y="-1.5" width="108" height="108" rx="17.5" fill="none"/>
          </g>
          <g id="그룹_689" data-name="그룹 689" transform="translate(3 -0.714)">
            <text id="게임_방법" data-name="게임 방법" transform="translate(2675 -2.286)" fill="#859100" stroke="#859100" stroke-width="4" font-size="19" font-family="NanumSquareRoundOTFEB, NanumSquareRoundOTF" letter-spacing="-0.015em"><tspan x="0" y="0">게임 방법</tspan></text>
            <g id="그룹_688" data-name="그룹 688" transform="translate(2675 -18)">
              <text id="게임_방법-2" data-name="게임 방법" transform="translate(0 15.714)" fill="#fff" font-size="19" font-family="NanumSquareRoundOTFEB, NanumSquareRoundOTF" letter-spacing="-0.015em"><tspan x="0" y="0">게임 방법</tspan></text>
            </g>
          </g>
        </g>
      </g>
      <g id="사각형_894" data-name="사각형 894" transform="translate(237 478)" fill="#626364" stroke="#3b3b3b" stroke-width="5">
        <rect width="64" height="42" rx="6" stroke="none"/>
        <rect x="2.5" y="2.5" width="59" height="37" rx="3.5" fill="none"/>
      </g>
      <g id="그룹_857" data-name="그룹 857" transform="translate(153 -58.175)">
        <rect id="사각형_773" data-name="사각형 773" width="44" height="36" transform="translate(94 540.175)" fill="#2c303b"/>
        <path id="사각형_771" data-name="사각형 771" d="M0,0H3A5,5,0,0,1,8,5V31a5,5,0,0,1-5,5H0a0,0,0,0,1,0,0V0A0,0,0,0,1,0,0Z" transform="translate(138 540.175)" fill="#a9b4d1"/>
        <path id="사각형_772" data-name="사각형 772" d="M0,0H3A5,5,0,0,1,8,5V30a5,5,0,0,1-5,5H0a0,0,0,0,1,0,0V0A0,0,0,0,1,0,0Z" transform="translate(138 538.175)" fill="url(#linear-gradient)"/>
        <path id="사각형_770" data-name="사각형 770" d="M5,0H8A0,0,0,0,1,8,0V36a0,0,0,0,1,0,0H5a5,5,0,0,1-5-5V5A5,5,0,0,1,5,0Z" transform="translate(86 540.175)" fill="#a9b4d1"/>
        <path id="사각형_769" data-name="사각형 769" d="M5,0H8A0,0,0,0,1,8,0V35a0,0,0,0,1,0,0H5a5,5,0,0,1-5-5V5A5,5,0,0,1,5,0Z" transform="translate(86 538.175)" fill="url(#linear-gradient)"/>
        <path id="패스_1742" data-name="패스 1742" d="M.316,0H43.694a.317.317,0,0,1,.316.318V35.012a.317.317,0,0,1-.316.318H.316A.317.317,0,0,1,0,35.012V.318A.317.317,0,0,1,.316,0Z" transform="translate(93.99 538.091)" fill="#434758"/>
        <rect id="사각형_774" data-name="사각형 774" width="3" transform="translate(129 572.175)" fill="#e6edfe"/>
        <rect id="사각형_776" data-name="사각형 776" width="6" height="1" rx="0.5" transform="translate(113 574.175)"/>
        <rect id="사각형_775" data-name="사각형 775" width="3" transform="translate(133 572.175)" fill="#e6edfe"/>
        <g id="사각형_893" data-name="사각형 893" transform="translate(97 540.175)" fill="#626262" stroke="#2c303b" stroke-width="1">
          <rect width="39" height="30" stroke="none"/>
          <rect x="0.5" y="0.5" width="38" height="29" fill="none"/>
        </g>
        <circle id="타원_64" data-name="타원 64" cx="2.5" cy="2.5" r="2.5" transform="translate(140 544.175)" fill="#a9b4d1"/>
        <circle id="타원_71" data-name="타원 71" cx="2.5" cy="2.5" r="2.5" transform="translate(88 544.175)" fill="#a9b4d1"/>
        <circle id="타원_65" data-name="타원 65" cx="2.5" cy="2.5" r="2.5" transform="translate(140 550.175)" fill="#a9b4d1"/>
        <circle id="타원_70" data-name="타원 70" cx="2.5" cy="2.5" r="2.5" transform="translate(88 550.175)" fill="#a9b4d1"/>
        <circle id="타원_66" data-name="타원 66" cx="2.5" cy="2.5" r="2.5" transform="translate(140 556.175)" fill="#a9b4d1"/>
        <circle id="타원_69" data-name="타원 69" cx="2.5" cy="2.5" r="2.5" transform="translate(88 556.175)" fill="#a9b4d1"/>
        <circle id="타원_67" data-name="타원 67" cx="2.5" cy="2.5" r="2.5" transform="translate(140 562.175)" fill="#a9b4d1"/>
        <circle id="타원_68" data-name="타원 68" cx="2.5" cy="2.5" r="2.5" transform="translate(88 562.175)" fill="#a9b4d1"/>
      </g>
    </g>
  </g>
</svg>
