<svg xmlns="http://www.w3.org/2000/svg" xmlns:xlink="http://www.w3.org/1999/xlink" width="243" height="59" viewBox="0 0 243 59">
  <defs>
    <clipPath id="clip-path">
      <path id="패스_1756" data-name="패스 1756" d="M0,0H28.773V23.773H0Z" fill="none" stroke="#aa5c22" stroke-linecap="round" stroke-width="1"/>
    </clipPath>
    <clipPath id="clip-path-2">
      <rect id="사각형_802" data-name="사각형 802" width="25.398" height="20.985" fill="#fff"/>
    </clipPath>
  </defs>
  <g id="bt_replay_large_click" transform="translate(-574 -375.65)">
    <g id="그룹_846" data-name="그룹 846" transform="translate(-17 19.65)">
      <g id="그룹_838" data-name="그룹 838" transform="translate(-7625 2309)">
        <g id="사각형_754" data-name="사각형 754" transform="translate(8219 -1950)" fill="#d18b4b" stroke="#e7a85d" stroke-width="4">
          <rect width="237" height="53" rx="26.5" stroke="none"/>
          <rect x="2" y="2" width="233" height="49" rx="24.5" fill="none"/>
        </g>
        <g id="그룹_311" data-name="그룹 311" transform="translate(8272.578 -1934.839)">
          <text id="다시_해보기" data-name="다시 해보기" transform="translate(0 18)" fill="#aa5c22" stroke="#aa5c22" stroke-width="4" font-size="21" font-family="NanumSquareRoundOTFEB, NanumSquareRoundOTF" letter-spacing="-0.015em"><tspan x="0" y="0">다시 해보기</tspan></text>
          <text id="다시_해보기-2" data-name="다시 해보기" transform="translate(0 18)" fill="#fff" font-size="21" font-family="NanumSquareRoundOTFEB, NanumSquareRoundOTF" letter-spacing="-0.015em"><tspan x="0" y="0">다시 해보기</tspan></text>
        </g>
        <g id="패스_1818" data-name="패스 1818" transform="translate(8219 -1950)" fill="none">
          <path d="M26.5,0h184a26.5,26.5,0,0,1,0,53H26.5a26.5,26.5,0,0,1,0-53Z" stroke="none"/>
          <path d="M 26.5 0 C 11.86447143554688 0 0 11.86446762084961 0 26.5 C 0 41.13553237915039 11.86447143554688 53 26.5 53 L 210.5 53 C 225.1355285644531 53 237 41.13553237915039 237 26.5 C 237 11.86446762084961 225.1355285644531 0 210.5 0 L 26.5 0 M 26.5 -3 L 210.5 -3 C 214.4811706542969 -3 218.3448028564453 -2.219600677490234 221.9836273193359 -0.6805000305175781 C 225.496826171875 0.8054351806640625 228.6513977050781 2.932098388671875 231.3596343994141 5.640365600585938 C 234.0679016113281 8.348598480224609 236.1945648193359 11.50316619873047 237.6804962158203 15.01636505126953 C 239.2196044921875 18.65520095825195 240 22.51883316040039 240 26.5 C 240 30.48116683959961 239.2196044921875 34.34480285644531 237.6804962158203 37.98363494873047 C 236.1945648193359 41.49683380126953 234.0679016113281 44.65139770507812 231.3596343994141 47.35963439941406 C 228.6513977050781 50.06790161132812 225.496826171875 52.19456481933594 221.9836273193359 53.68050003051758 C 218.3448028564453 55.21960067749023 214.4811706542969 56 210.5 56 L 26.5 56 C 22.51882934570312 56 18.65519714355469 55.21960067749023 15.01637268066406 53.68050003051758 C 11.503173828125 52.19456481933594 8.348602294921875 50.06790161132812 5.640365600585938 47.35963439941406 C 2.932098388671875 44.65139770507812 0.8054351806640625 41.49683380126953 -0.6804962158203125 37.98363494873047 C -2.2196044921875 34.34480285644531 -3 30.48116683959961 -3 26.5 C -3 22.51883316040039 -2.2196044921875 18.65520095825195 -0.6804962158203125 15.01636505126953 C 0.8054351806640625 11.50316619873047 2.932098388671875 8.348598480224609 5.640365600585938 5.640365600585938 C 8.348602294921875 2.932098388671875 11.503173828125 0.8054351806640625 15.01637268066406 -0.6805000305175781 C 18.65519714355469 -2.219600677490234 22.51882934570312 -3 26.5 -3 Z" stroke="none" fill="#aa5c22"/>
        </g>
      </g>
      <g id="그룹_839" data-name="그룹 839" transform="translate(15.786 -231.311)">
        <g id="그룹_723" data-name="그룹 723" transform="matrix(-0.259, -0.966, 0.966, -0.259, 752.956, 632.607)">
          <g id="마스크_그룹_20" data-name="마스크 그룹 20" transform="translate(0 0)" clip-path="url(#clip-path)">
            <path id="패스_1755" data-name="패스 1755" d="M21.016,6.914a1.617,1.617,0,0,0-2.266.269l-.413.524a9.233,9.233,0,1,0-9.1,10.766,1.614,1.614,0,0,0,0-3.227,6.009,6.009,0,1,1,5.9-7.148L14.6,7.675a1.614,1.614,0,0,0-2,2.536l3.59,2.829a1.615,1.615,0,0,0,2.266-.269l1.8-2.288,1.025-1.3a1.614,1.614,0,0,0-.269-2.266" transform="translate(3.571 2.65)" fill="#3d6a1b" stroke="#aa5c22" stroke-linecap="round" stroke-width="4"/>
          </g>
        </g>
        <g id="그룹_724" data-name="그룹 724" transform="matrix(-0.259, -0.966, 0.966, -0.259, 753.866, 630.616)">
          <g id="그룹_722" data-name="그룹 722" transform="translate(0 0)" clip-path="url(#clip-path-2)">
            <path id="패스_1755-2" data-name="패스 1755" d="M21.016,6.914a1.617,1.617,0,0,0-2.266.269l-.413.524a9.233,9.233,0,1,0-9.1,10.766,1.614,1.614,0,0,0,0-3.227,6.009,6.009,0,1,1,5.9-7.148L14.6,7.675a1.614,1.614,0,0,0-2,2.536l3.59,2.829a1.615,1.615,0,0,0,2.266-.269l2.828-3.59a1.614,1.614,0,0,0-.269-2.266" transform="translate(1.883 1.255)" fill="#fff"/>
          </g>
        </g>
      </g>
      <g id="사각형_889" data-name="사각형 889" transform="translate(594 359)" fill="#aa5c22" stroke="#aa5c22" stroke-width="3" opacity="0.498" style="mix-blend-mode: multiply;isolation: isolate">
        <rect width="237" height="53" rx="26.5" stroke="none"/>
        <rect x="-1.5" y="-1.5" width="240" height="56" rx="28" fill="none"/>
      </g>
    </g>
  </g>
</svg>
