<svg xmlns="http://www.w3.org/2000/svg" width="40" height="42" viewBox="0 0 60.367 63.482">
  <g transform="translate(5 5)">
    <path d="M3,4,9.4,43.126a11.118,11.118,0,0,0,7.608,8.8l.913.29a33.354,33.354,0,0,0,20.184,0l.913-.29a11.118,11.118,0,0,0,7.608-8.8L53.031,4" transform="translate(-3 0.658)" fill="none" stroke="#d4bb8e" stroke-linecap="round" stroke-linejoin="round" stroke-width="9"/>
    <ellipse cx="25" cy="5" rx="25" ry="5" transform="translate(0 0)" fill="none" stroke="#d4bb8e" stroke-linecap="round" stroke-linejoin="round" stroke-width="9"/>
    <line x2="14.115" y2="14.115" transform="translate(17.958 22.486)" fill="none" stroke="#d4bb8e" stroke-linecap="round" stroke-width="9"/>
    <line x1="14.115" y2="14.115" transform="translate(17.958 22.486)" fill="none" stroke="#d4bb8e" stroke-linecap="round" stroke-width="9"/>

    <path d="M3,4,9.4,43.126a11.118,11.118,0,0,0,7.608,8.8l.913.29a33.354,33.354,0,0,0,20.184,0l.913-.29a11.118,11.118,0,0,0,7.608-8.8L53.031,4" transform="translate(-3 0.658)" fill="none" stroke="#fff" stroke-linecap="round" stroke-linejoin="round" stroke-width="5"/>
    <ellipse cx="25" cy="5" rx="25" ry="5" transform="translate(0 0)" fill="none" stroke="#fff" stroke-linecap="round" stroke-linejoin="round" stroke-width="5"/>

    <line x2="14.115" y2="14.115" transform="translate(17.958 22.486)" fill="none" stroke="#fff" stroke-linecap="round" stroke-width="5"/>
    <line x1="14.115" y2="14.115" transform="translate(17.958 22.486)" fill="none" stroke="#fff" stroke-linecap="round" stroke-width="5"/>
  </g>
</svg>